# Blender 4.5.3 LTS
# www.blender.org
mtllib crossbow_pull.mtl
o crossbow_pull
v -0.181571 0.010784 0.028001
v -0.181571 -0.010132 0.028001
v -0.167790 0.010780 0.040367
v -0.167790 -0.010127 0.040367
v -0.140157 0.010636 0.106682
v -0.140157 -0.009984 0.106682
v -0.070993 0.009889 0.154220
v -0.070993 -0.009236 0.154220
v -0.000194 0.009888 0.177863
v 0.070604 0.009889 0.154220
v 0.070604 -0.009236 0.154220
v 0.139768 0.010636 0.106682
v 0.139768 -0.009984 0.106682
v 0.167401 0.010780 0.040367
v 0.167402 -0.010127 0.040367
v 0.181182 0.010784 0.028001
v 0.181182 -0.010132 0.028001
v -0.195461 0.010784 0.028001
v -0.195461 -0.010132 0.028001
v -0.180597 0.010784 0.049510
v -0.180597 -0.010132 0.049510
v -0.149030 0.010644 0.125316
v -0.149030 -0.009992 0.125316
v -0.074920 0.009898 0.176226
v -0.074920 -0.009246 0.176226
v -0.000194 0.009898 0.201180
v -0.000194 -0.009246 0.201180
v 0.074531 0.009898 0.176226
v 0.074531 -0.009246 0.176226
v 0.148641 0.010644 0.125316
v 0.148641 -0.009992 0.125316
v 0.180208 0.010784 0.049510
v 0.180208 -0.010132 0.049510
v 0.195072 0.010784 0.028001
v 0.195072 -0.010132 0.028001
v -0.186604 0.005654 0.035634
v 0.187479 0.005654 0.035634
v -0.186604 0.005654 0.025742
v 0.187479 0.005654 0.025742
v -0.186604 -0.005001 0.035634
v 0.187479 -0.005001 0.035634
v -0.186604 -0.005001 0.025742
v 0.187479 -0.005001 0.025742
v -0.149395 0.005654 0.022130
v 0.150270 0.005654 0.022130
v 0.150270 0.005654 0.011178
v -0.149395 0.005654 0.011178
v 0.150270 -0.005001 0.011178
v -0.149395 -0.005001 0.011178
v 0.150270 -0.005001 0.022130
v -0.149395 -0.005001 0.022130
v -0.018745 -0.029995 0.180853
v -0.018745 -0.005605 0.196197
v -0.014091 -0.063116 -0.177528
v -0.014091 -0.015028 -0.177528
v 0.018745 -0.029995 0.180853
v 0.018745 -0.005605 0.196197
v 0.014091 -0.063116 -0.177528
v 0.014091 -0.015029 -0.177528
v -0.013831 -0.039370 -0.064498
v -0.018745 -0.029995 -0.019289
v -0.018745 -0.005605 -0.019289
v -0.013831 -0.013223 -0.064498
v 0.018745 -0.029995 -0.019289
v 0.013831 -0.039370 -0.064498
v 0.013831 -0.013223 -0.064498
v 0.018745 -0.005605 -0.019289
v -0.018745 -0.029995 0.157908
v 0.018745 -0.005605 0.157908
v -0.018745 -0.005605 0.157908
v 0.018745 -0.029995 0.157908
v 0.020173 0.009898 0.194378
v 0.020173 -0.009246 0.194378
v 0.019102 0.009888 0.171419
v 0.019102 -0.009236 0.171419
v -0.020883 0.009898 0.194271
v -0.020883 -0.009246 0.194271
v -0.019795 0.009888 0.171317
v -0.019795 -0.009236 0.171317
v -0.014066 -0.014853 -0.166530
v 0.014066 -0.060806 -0.166530
v -0.014066 -0.060806 -0.166530
v 0.014066 -0.014853 -0.166530
v 0.000437 0.005654 -0.027653
v 0.000437 0.005654 -0.038605
v 0.000437 -0.005001 -0.038605
v 0.000437 -0.005001 -0.027653
vn -0.8227 -0.0000 0.5685
vn -0.9232 -0.0000 0.3844
vn -0.5662 -0.0000 0.8243
vn -0.3167 -0.0000 0.9485
vn 0.3167 -0.0000 0.9485
vn 0.5662 -0.0000 0.8243
vn 0.9232 -0.0000 0.3844
vn 0.8227 -0.0000 0.5685
vn 0.0002 1.0000 -0.0000
vn 0.0002 -1.0000 -0.0000
vn 0.0020 1.0000 0.0011
vn 0.0020 -1.0000 0.0011
vn 0.0088 1.0000 0.0023
vn 0.0088 -1.0000 0.0023
vn 0.0001 1.0000 -0.0004
vn -0.0001 1.0000 -0.0004
vn -0.0001 -1.0000 -0.0004
vn -0.0088 1.0000 0.0023
vn -0.0088 -1.0000 0.0023
vn -0.0020 1.0000 0.0011
vn -0.0020 -1.0000 0.0011
vn -0.0002 1.0000 -0.0000
vn -0.0002 -1.0000 -0.0000
vn -0.0000 1.0000 -0.0000
vn 0.3645 -0.0000 -0.9312
vn -0.0000 -1.0000 -0.0000
vn -0.3411 -0.0000 0.9400
vn 0.3411 -0.0000 0.9400
vn -0.3153 -0.0000 0.9490
vn -0.3645 -0.0000 -0.9312
vn 0.3153 -0.0000 -0.9490
vn -1.0000 -0.0000 0.0023
vn -0.0000 -0.0000 -1.0000
vn 1.0000 -0.0000 -0.0000
vn -0.0000 -0.5325 0.8464
vn -0.0000 0.9999 -0.0160
vn -0.0000 0.9861 -0.1662
vn -0.0000 -0.9786 0.2056
vn -0.0000 -0.9792 0.2031
vn 1.0000 -0.0000 0.0023
vn 0.9941 -0.0000 -0.1081
vn -1.0000 -0.0000 -0.0000
vn -0.9941 -0.0000 -0.1081
vn 0.0001 -1.0000 -0.0004
vn -0.3153 -0.0000 -0.9490
vn 0.3153 -0.0000 0.9490
vt 0.750000 0.500000
vt 0.750000 1.000000
vt 0.687500 1.000000
vt 0.687500 0.500000
vt 0.625000 1.000000
vt 0.625000 0.500000
vt 0.562500 1.000000
vt 0.562500 0.500000
vt 0.517304 0.500000
vt 0.517304 1.000000
vt 0.500000 1.000000
vt 0.500000 0.500000
vt 0.482965 0.500000
vt 0.482965 1.000000
vt 0.437500 1.000000
vt 0.437500 0.500000
vt 0.375000 1.000000
vt 0.375000 0.500000
vt 0.312500 1.000000
vt 0.312500 0.500000
vt 0.250000 1.000000
vt 0.250000 0.500000
vt 0.954487 0.161340
vt 0.972789 0.249056
vt 0.990000 0.250000
vt 0.971731 0.158156
vt 0.472789 0.249056
vt 0.454487 0.161340
vt 0.471731 0.158156
vt 0.490000 0.250000
vt 0.912145 0.096153
vt 0.919706 0.080294
vt 0.412145 0.096153
vt 0.419706 0.080294
vt 0.836056 0.047886
vt 0.841844 0.028269
vt 0.336056 0.047886
vt 0.341844 0.028269
vt 0.773825 0.034321
vt 0.775428 0.015058
vt 0.726545 0.034241
vt 0.750000 0.029128
vt 0.750000 0.010000
vt 0.724967 0.014979
vt 0.226545 0.034241
vt 0.163944 0.047886
vt 0.158156 0.028269
vt 0.224967 0.014979
vt 0.587855 0.096153
vt 0.663944 0.047886
vt 0.658156 0.028269
vt 0.580294 0.080294
vt 0.087855 0.096153
vt 0.080294 0.080294
vt 0.545512 0.161340
vt 0.528269 0.158156
vt 0.045513 0.161340
vt 0.028269 0.158156
vt 0.527211 0.249056
vt 0.510000 0.250000
vt 0.027211 0.249056
vt 0.010000 0.250000
vt 0.616978 0.000000
vt 0.625000 0.000000
vt 0.625000 0.250000
vt 0.616978 0.250000
vt 0.616978 0.500000
vt 0.625000 0.750000
vt 0.616978 0.750000
vt 0.616978 1.000000
vt 0.375000 0.750000
vt 0.383022 0.750000
vt 0.383022 1.000000
vt 0.500000 0.750000
vt 0.383022 0.500000
vt 0.375000 0.250000
vt 0.383022 0.250000
vt 0.500000 0.250000
vt 0.375000 0.000000
vt 0.383022 0.000000
vt 0.500000 0.000000
vt 0.375000 0.246997
vt 0.625000 0.246997
vt 0.375000 0.725870
vt 0.625000 0.725870
vt 0.125000 0.725870
vt 0.125000 0.750000
vt 0.875000 0.725870
vt 0.875000 0.750000
vt 0.625000 0.503003
vt 0.875000 0.503003
vt 0.875000 0.530864
vt 0.625000 0.530864
vt 0.875000 0.614197
vt 0.625000 0.614197
vt 0.125000 0.503003
vt 0.375000 0.503003
vt 0.375000 0.530864
vt 0.125000 0.530864
vt 0.375000 0.614197
vt 0.125000 0.614197
vt 0.375000 0.024130
vt 0.625000 0.024130
vt 0.625000 0.135802
vt 0.375000 0.135802
vt 0.625000 0.219136
vt 0.375000 0.219136
vt 0.273825 0.034321
vt 0.275428 0.015058
vt 0.125000 0.500000
vt 0.875000 0.500000
s 0
usemtl Material.025
f 18/1/1 19/2/1 21/3/1 20/4/1
f 20/4/2 21/3/2 23/5/2 22/6/2
f 22/6/3 23/5/3 25/7/3 24/8/3
f 72/13/5 73/14/5 29/15/5 28/16/5
f 28/16/6 29/15/6 31/17/6 30/18/6
f 30/18/7 31/17/7 33/19/7 32/20/7
f 32/20/8 33/19/8 35/21/8 34/22/8
f 3/23/9 1/24/9 18/25/9 20/26/9
f 2/27/10 4/28/10 21/29/10 19/30/10
f 5/31/11 3/23/11 20/26/11 22/32/11
f 4/28/12 6/33/12 23/34/12 21/29/12
f 7/35/13 5/31/13 22/32/13 24/36/13
f 6/33/14 8/37/14 25/38/14 23/34/14
f 78/39/15 7/35/15 24/36/15 76/40/15
f 75/45/17 11/46/17 29/47/17 73/48/17
f 12/49/18 10/50/18 28/51/18 30/52/18
f 11/46/19 13/53/19 31/54/19 29/47/19
f 14/55/20 12/49/20 30/52/20 32/56/20
f 13/53/21 15/57/21 33/58/21 31/54/21
f 16/59/22 14/55/22 32/56/22 34/60/22
f 15/57/23 17/61/23 35/62/23 33/58/23
f 54/76/33 55/65/33 59/6/33 58/18/33
f 83/90/36 80/91/36 63/92/36 66/93/36
f 66/93/37 63/92/37 62/94/37 67/95/37
f 82/96/38 81/97/38 65/98/38 60/99/38
f 60/99/39 65/98/39 64/100/39 61/101/39
f 81/97/40 83/90/40 66/93/40 65/98/40
f 65/98/41 66/93/41 67/95/41 64/100/41
f 68/102/42 70/103/42 62/104/42 61/105/42
f 61/105/43 62/104/43 63/106/43 60/107/43
f 67/95/24 62/94/24 70/88/24 69/85/24
f 61/101/26 64/100/26 71/84/26 68/86/26
f 64/100/34 67/95/34 69/85/34 71/84/34
f 10/50/16 74/41/16 72/44/16 28/51/16
f 8/37/44 79/108/44 77/109/44 25/38/44
f 24/8/4 25/7/4 77/10/4 76/9/4
f 60/107/32 63/106/32 80/83/32 82/82/32
usemtl Material.026
f 45/63/24 37/64/24 39/65/24 46/66/24
f 46/66/25 39/65/25 43/6/25 48/67/25
f 48/67/26 43/6/26 41/68/26 50/69/26
f 50/69/27 41/68/27 37/5/27 45/70/27
f 40/71/28 51/72/28 44/73/28 36/17/28
f 87/74/29 50/69/29 45/70/29 84/11/29
f 42/18/26 49/75/26 51/72/26 40/71/26
f 86/12/26 48/67/26 50/69/26 87/74/26
f 38/76/30 47/77/30 49/75/30 42/18/30
f 85/78/31 46/66/31 48/67/31 86/12/31
f 36/79/24 44/80/24 47/77/24 38/76/24
f 84/81/24 45/63/24 46/66/24 85/78/24
f 44/80/24 84/81/24 85/78/24 47/77/24
f 47/77/45 85/78/45 86/12/45 49/75/45
f 49/75/26 86/12/26 87/74/26 51/72/26
f 51/72/46 87/74/46 84/11/46 44/73/46
usemtl Material.027
f 76/9/4 77/10/4 27/11/4 26/12/4
f 74/41/16 9/42/16 26/43/16 72/44/16
f 82/82/32 80/83/32 55/65/32 54/76/32
f 71/84/34 69/85/34 57/68/34 56/71/34
f 56/71/35 57/68/35 53/5/35 52/17/35
f 68/86/26 71/84/26 56/71/26 52/87/26
f 69/85/24 70/88/24 53/89/24 57/68/24
f 52/79/42 53/64/42 70/103/42 68/102/42
f 26/12/5 27/11/5 73/14/5 72/13/5
f 9/42/15 78/39/15 76/40/15 26/43/15
f 58/18/40 59/6/40 83/90/40 81/97/40
f 54/110/38 58/18/38 81/97/38 82/96/38
f 59/6/36 55/111/36 80/91/36 83/90/36
