# Blender 4.5.3 LTS
# www.blender.org
mtllib crossbow_pull.mtl
o crossbow_pull
v -0.164407 0.010784 0.013884
v -0.151929 0.010780 0.026250
v -0.126907 0.010636 0.092565
v -0.064278 0.009889 0.154220
v -0.000194 0.009888 0.177863
v 0.063937 0.009889 0.154220
v 0.126566 0.010636 0.092565
v 0.151588 0.010780 0.026250
v 0.164066 0.010784 0.013884
v -0.176984 0.010784 0.013884
v -0.176984 -0.010132 0.013884
v -0.163525 0.010784 0.035393
v -0.163525 -0.010132 0.035393
v -0.134941 0.010644 0.111198
v -0.134941 -0.009992 0.111198
v -0.067834 0.009898 0.176226
v -0.067834 -0.009246 0.176226
v -0.000194 0.009898 0.201180
v -0.000194 -0.009246 0.201180
v 0.067493 0.009898 0.176226
v 0.067493 -0.009246 0.176226
v 0.134600 0.010644 0.111198
v 0.134600 -0.009992 0.111198
v 0.163184 0.010784 0.035393
v 0.163184 -0.010132 0.035393
v 0.176643 0.010784 0.013884
v 0.176643 -0.010132 0.013884
v -0.168964 0.005654 0.021516
v 0.169768 0.005654 0.021516
v -0.168964 0.005654 0.011625
v 0.169768 0.005654 0.011625
v -0.168964 -0.005001 0.021516
v 0.169768 -0.005001 0.021516
v -0.168964 -0.005001 0.011625
v 0.169768 -0.005001 0.011625
v -0.135272 0.005654 0.011082
v 0.136075 0.005654 0.011082
v 0.136075 0.005654 0.000130
v -0.135272 0.005654 0.000130
v 0.136075 -0.005001 0.000130
v -0.135272 -0.005001 0.000130
v 0.136075 -0.005001 0.011082
v -0.135272 -0.005001 0.011082
v -0.018745 -0.029995 0.180853
v -0.018745 -0.005605 0.196197
v -0.014091 -0.063116 -0.177528
v -0.014091 -0.015028 -0.177528
v 0.018745 -0.029995 0.180853
v 0.018745 -0.005605 0.196197
v 0.014091 -0.063116 -0.177528
v 0.014091 -0.015029 -0.177528
v -0.013831 -0.039370 -0.064498
v -0.018745 -0.029995 -0.019289
v -0.018745 -0.005605 -0.019289
v -0.013831 -0.013223 -0.064498
v 0.018745 -0.029995 -0.019289
v 0.013831 -0.039370 -0.064498
v 0.013831 -0.013223 -0.064498
v 0.018745 -0.005605 -0.019289
v -0.018745 -0.029995 0.157908
v 0.018745 -0.005605 0.157908
v -0.018745 -0.005605 0.157908
v 0.018745 -0.029995 0.157908
v 0.020173 0.009898 0.194378
v 0.020173 -0.009246 0.194378
v 0.019102 0.009888 0.171419
v -0.020883 0.009898 0.194271
v -0.020883 -0.009246 0.194271
v -0.019795 0.009888 0.171317
v -0.014066 -0.014853 -0.166530
v 0.014066 -0.060806 -0.166530
v -0.014066 -0.060806 -0.166530
v 0.014066 -0.014853 -0.166530
v 0.000437 0.005654 -0.027653
v 0.000437 0.005654 -0.038605
v 0.000437 -0.005001 -0.038605
v 0.000437 -0.005001 -0.027653
vn -0.8477 -0.0000 0.5305
vn -0.9357 -0.0000 0.3528
vn -0.6959 -0.0000 0.7181
vn -0.3167 -0.0000 0.9485
vn 0.3582 -0.0000 0.9337
vn 0.6959 -0.0000 0.7181
vn 0.9357 -0.0000 0.3528
vn 0.8477 -0.0000 0.5305
vn 0.0002 1.0000 -0.0000
vn 0.0022 1.0000 0.0011
vn 0.0093 1.0000 0.0022
vn 0.0002 1.0000 -0.0004
vn -0.0001 1.0000 -0.0004
vn -0.0093 1.0000 0.0022
vn -0.0022 1.0000 0.0011
vn -0.0002 1.0000 -0.0000
vn -0.0000 1.0000 -0.0000
vn 0.3229 -0.0000 -0.9464
vn -0.2958 -0.0000 0.9552
vn 0.2958 -0.0000 0.9552
vn -0.2746 -0.0000 0.9616
vn -0.3229 -0.0000 -0.9464
vn 0.2746 -0.0000 -0.9616
vn -1.0000 -0.0000 0.0023
vn -0.0000 -0.0000 -1.0000
vn 1.0000 -0.0000 -0.0000
vn -0.0000 -0.5325 0.8464
vn -0.0000 0.9999 -0.0160
vn -0.0000 0.9861 -0.1662
vn 1.0000 -0.0000 0.0023
vn 0.9941 -0.0000 -0.1081
vn -1.0000 -0.0000 -0.0000
vn -0.9941 -0.0000 -0.1081
vn -0.0002 1.0000 -0.0004
vn 0.3167 -0.0000 0.9485
vn 0.0001 1.0000 -0.0004
vn -0.3588 -0.0000 0.9334
vn -0.2745 -0.0000 -0.9616
vn 0.2745 -0.0000 0.9616
vt 0.750000 0.500000
vt 0.750000 1.000000
vt 0.687500 1.000000
vt 0.687500 0.500000
vt 0.625000 1.000000
vt 0.625000 0.500000
vt 0.562500 1.000000
vt 0.562500 0.500000
vt 0.517304 0.500000
vt 0.517304 1.000000
vt 0.500000 1.000000
vt 0.500000 0.500000
vt 0.482965 0.500000
vt 0.482965 1.000000
vt 0.437500 1.000000
vt 0.437500 0.500000
vt 0.375000 1.000000
vt 0.375000 0.500000
vt 0.312500 1.000000
vt 0.312500 0.500000
vt 0.250000 1.000000
vt 0.250000 0.500000
vt 0.954487 0.161340
vt 0.972789 0.249056
vt 0.990000 0.250000
vt 0.971731 0.158156
vt 0.912145 0.096153
vt 0.919706 0.080294
vt 0.836056 0.047886
vt 0.841844 0.028269
vt 0.773825 0.034321
vt 0.775428 0.015058
vt 0.726545 0.034241
vt 0.750000 0.029128
vt 0.750000 0.010000
vt 0.724967 0.014979
vt 0.587855 0.096153
vt 0.663944 0.047886
vt 0.658156 0.028269
vt 0.580294 0.080294
vt 0.545512 0.161340
vt 0.528269 0.158156
vt 0.527211 0.249056
vt 0.510000 0.250000
vt 0.616978 0.000000
vt 0.625000 0.000000
vt 0.625000 0.250000
vt 0.616978 0.250000
vt 0.616978 0.500000
vt 0.616978 0.750000
vt 0.625000 0.750000
vt 0.616978 1.000000
vt 0.375000 0.750000
vt 0.383022 0.750000
vt 0.383022 1.000000
vt 0.500000 0.750000
vt 0.375000 0.250000
vt 0.383022 0.250000
vt 0.383022 0.500000
vt 0.500000 0.250000
vt 0.375000 0.000000
vt 0.383022 0.000000
vt 0.500000 0.000000
vt 0.375000 0.246997
vt 0.625000 0.246997
vt 0.375000 0.725870
vt 0.625000 0.725870
vt 0.875000 0.725870
vt 0.875000 0.750000
vt 0.625000 0.503003
vt 0.875000 0.503003
vt 0.875000 0.530864
vt 0.625000 0.530864
vt 0.875000 0.614197
vt 0.625000 0.614197
vt 0.375000 0.503003
vt 0.375000 0.530864
vt 0.375000 0.614197
vt 0.375000 0.024130
vt 0.625000 0.024130
vt 0.625000 0.135802
vt 0.375000 0.135802
vt 0.625000 0.219136
vt 0.375000 0.219136
vt 0.875000 0.500000
s 0
usemtl Material.025
f 10/1/1 11/2/1 13/3/1 12/4/1
f 12/4/2 13/3/2 15/5/2 14/6/2
f 14/6/3 15/5/3 17/7/3 16/8/3
f 64/13/5 65/14/5 21/15/5 20/16/5
f 20/16/6 21/15/6 23/17/6 22/18/6
f 22/18/7 23/17/7 25/19/7 24/20/7
f 24/20/8 25/19/8 27/21/8 26/22/8
f 2/23/9 1/24/9 10/25/9 12/26/9
f 3/27/10 2/23/10 12/26/10 14/28/10
f 4/29/11 3/27/11 14/28/11 16/30/11
f 69/31/12 4/29/12 16/30/12 67/32/12
f 7/37/14 6/38/14 20/39/14 22/40/14
f 8/41/15 7/37/15 22/40/15 24/42/15
f 9/43/16 8/41/16 24/42/16 26/44/16
f 46/57/25 47/47/25 51/6/25 50/18/25
f 73/70/28 70/71/28 55/72/28 58/73/28
f 58/73/29 55/72/29 54/74/29 59/75/29
f 71/76/30 73/70/30 58/73/30 57/77/30
f 57/77/31 58/73/31 59/75/31 56/78/31
f 60/79/32 62/80/32 54/81/32 53/82/32
f 53/82/33 54/81/33 55/83/33 52/84/33
f 59/75/17 54/74/17 62/68/17 61/67/17
f 56/78/26 59/75/26 61/67/26 63/66/26
f 6/38/34 66/33/34 64/36/34 20/39/34
f 16/8/37 17/7/37 68/10/37 67/9/37
f 52/84/24 55/83/24 70/65/24 72/64/24
usemtl Material.026
f 37/45/17 29/46/17 31/47/17 38/48/17
f 38/48/18 31/47/18 35/6/18 40/49/18
f 42/50/19 33/51/19 29/5/19 37/52/19
f 32/53/20 43/54/20 36/55/20 28/17/20
f 77/56/21 42/50/21 37/52/21 74/11/21
f 30/57/22 39/58/22 41/59/22 34/18/22
f 75/60/23 38/48/23 40/49/23 76/12/23
f 28/61/17 36/62/17 39/58/17 30/57/17
f 74/63/17 37/45/17 38/48/17 75/60/17
f 36/62/17 74/63/17 75/60/17 39/58/17
f 39/58/38 75/60/38 76/12/38 41/59/38
f 43/54/39 77/56/39 74/11/39 36/55/39
usemtl Material.027
f 67/9/4 68/10/4 19/11/4 18/12/4
f 66/33/13 5/34/13 18/35/13 64/36/13
f 72/64/24 70/65/24 47/47/24 46/57/24
f 63/66/26 61/67/26 49/51/26 48/53/26
f 48/53/27 49/51/27 45/5/27 44/17/27
f 61/67/17 62/68/17 45/69/17 49/51/17
f 44/61/32 45/46/32 62/80/32 60/79/32
f 18/12/35 19/11/35 65/14/35 64/13/35
f 5/34/36 69/31/36 67/32/36 18/35/36
f 50/18/30 51/6/30 73/70/30 71/76/30
f 51/6/28 47/85/28 70/71/28 73/70/28
