# Blender 4.5.3 LTS
# www.blender.org
mtllib repeater_pull.mtl
o repeater_pull
v -0.101350 0.008615 0.072548
v -0.093657 0.008612 0.081728
v -0.078229 0.008506 0.130959
v -0.044602 0.007951 0.166251
v -0.000194 0.009888 0.177863
v 0.044343 0.007951 0.166251
v 0.078050 0.008506 0.130959
v 0.093478 0.008612 0.081728
v 0.101171 0.008615 0.072548
v -0.109105 0.008615 0.072548
v -0.109105 -0.006912 0.072548
v -0.100807 0.008615 0.088515
v -0.100807 -0.006912 0.088515
v -0.083183 0.008512 0.144792
v -0.083183 -0.006808 0.144792
v -0.047068 0.007958 0.182587
v -0.047068 -0.006254 0.182587
v -0.000194 0.009898 0.201180
v -0.000194 -0.009246 0.201180
v 0.046810 0.007958 0.182587
v 0.046810 -0.006254 0.182587
v 0.083004 0.008512 0.144792
v 0.083004 -0.006808 0.144792
v 0.100628 0.008615 0.088515
v 0.100628 -0.006912 0.088515
v 0.108926 0.008615 0.072548
v 0.108926 -0.006912 0.072548
v -0.104160 0.004807 0.078214
v 0.104687 0.004807 0.078214
v -0.104160 0.004807 0.070871
v 0.104687 0.004807 0.070871
v -0.104160 -0.003103 0.078214
v 0.104687 -0.003103 0.078214
v -0.104160 -0.003103 0.070871
v 0.104687 -0.003103 0.070871
v -0.081655 0.004807 0.059459
v 0.082308 0.004807 0.059459
v 0.082308 0.004807 0.051328
v -0.081655 0.004807 0.051328
v 0.082308 -0.003103 0.051328
v -0.081655 -0.003103 0.051328
v 0.082308 -0.003103 0.059459
v -0.081655 -0.003103 0.059459
v -0.018745 -0.029995 0.180853
v -0.018745 -0.005605 0.196197
v -0.014091 -0.063116 -0.177528
v -0.014091 -0.015028 -0.177528
v 0.018745 -0.029995 0.180853
v 0.018745 -0.005605 0.196197
v 0.014091 -0.063116 -0.177528
v 0.014091 -0.015029 -0.177528
v -0.013831 -0.039370 -0.064498
v -0.018745 -0.029995 -0.019289
v -0.018745 -0.005605 -0.019289
v -0.013831 -0.013223 -0.064498
v 0.018745 -0.029995 -0.019289
v 0.013831 -0.039370 -0.064498
v 0.013831 -0.013223 -0.064498
v 0.018745 -0.005605 -0.019289
v -0.018745 -0.029995 0.157908
v 0.018745 -0.005605 0.165372
v -0.018745 -0.005605 0.165372
v 0.018745 -0.029995 0.157908
v 0.020173 0.009898 0.194378
v 0.020173 -0.009246 0.194378
v 0.019102 0.009888 0.171419
v -0.020883 0.009898 0.194271
v -0.020883 -0.009246 0.194271
v -0.019795 0.009888 0.171317
v -0.014066 -0.014853 -0.166530
v 0.014066 -0.060806 -0.166530
v -0.014066 -0.060806 -0.166530
v 0.014066 -0.014853 -0.166530
v -0.018745 0.052654 0.165372
v -0.018745 0.052654 -0.019289
v 0.018745 0.052654 -0.019289
v 0.018745 0.052654 0.165372
v -0.037221 0.027451 0.007829
v -0.037221 0.023412 -0.087795
v -0.037221 0.007558 0.008669
v -0.037221 0.003519 -0.086955
v 0.037221 0.027451 0.007829
v 0.037221 0.023412 -0.087795
v 0.037221 0.007558 0.008669
v 0.037221 0.003519 -0.086955
v -0.037221 0.023861 -0.077167
v -0.037221 0.003968 -0.076327
v 0.037221 0.003968 -0.076327
v 0.037221 0.023861 -0.077167
v -0.037221 0.039767 -0.077752
v -0.037221 0.039318 -0.088379
v -0.037221 -0.020002 -0.077282
v 0.037221 -0.020002 -0.077282
v 0.037221 0.039318 -0.088379
v -0.037221 -0.019553 -0.066655
v 0.037221 -0.019553 -0.066655
v 0.037221 0.039767 -0.077752
v 0.020448 0.007558 0.008669
v -0.020448 0.007558 0.008669
v -0.020448 0.003519 -0.086955
v 0.020448 0.003519 -0.086955
v -0.020448 0.027451 0.007829
v 0.020448 0.027451 0.007829
v 0.020448 0.023412 -0.087795
v -0.020448 0.023412 -0.087795
v 0.020448 0.023861 -0.077167
v -0.020448 0.023861 -0.077167
v -0.020448 0.003968 -0.076327
v 0.020448 0.003968 -0.076327
v -0.020448 -0.020002 -0.077282
v 0.020448 -0.020002 -0.077282
v 0.020448 0.039318 -0.088379
v -0.020448 0.039318 -0.088379
v 0.020448 0.039767 -0.077752
v -0.020448 0.039767 -0.077752
v -0.020448 -0.019553 -0.066655
v 0.020448 -0.019553 -0.066655
v 0.018745 0.007789 0.165372
v -0.018745 0.007789 0.165372
v 0.018745 0.007789 -0.019289
v -0.018745 0.007789 -0.019289
v 0.000340 0.004807 -0.011300
v 0.000340 0.004807 -0.019430
v 0.000340 -0.003103 -0.019430
v 0.000340 -0.003103 -0.011300
vn -0.8873 -0.0000 0.4611
vn -0.9543 -0.0000 0.2988
vn -0.7230 -0.0000 0.6909
vn -0.3167 -0.0000 0.9485
vn 0.4048 -0.0000 0.9144
vn 0.7222 -0.0000 0.6917
vn 0.9543 -0.0000 0.2988
vn 0.8873 -0.0000 0.4611
vn 0.0002 1.0000 -0.0000
vn 0.0027 1.0000 0.0011
vn 0.0130 0.9999 0.0028
vn -0.0735 0.9973 -0.0071
vn -0.0001 1.0000 -0.0004
vn -0.0130 0.9999 0.0028
vn -0.0027 1.0000 0.0011
vn -0.0002 1.0000 -0.0000
vn -0.0000 1.0000 -0.0000
vn 0.6578 -0.0000 -0.7532
vn -0.6423 -0.0000 0.7664
vn 0.6402 -0.0000 0.7682
vn -0.6534 -0.0000 0.7570
vn -0.6557 -0.0000 -0.7551
vn 0.6534 -0.0000 -0.7570
vn -1.0000 -0.0000 0.0023
vn -0.0000 -0.0000 -1.0000
vn 1.0000 -0.0000 -0.0000
vn -0.0000 -0.5325 0.8464
vn -0.0000 0.9999 -0.0160
vn -0.0000 0.9861 -0.1662
vn 1.0000 -0.0000 0.0023
vn 0.9941 -0.0000 -0.1081
vn -1.0000 -0.0000 -0.0000
vn -0.9941 -0.0000 -0.1081
vn -0.0000 -0.0000 1.0000
vn 0.0723 0.9974 -0.0069
vn 0.3167 -0.0000 0.9485
vn 0.0001 1.0000 -0.0004
vn -0.4075 -0.0000 0.9132
vn -0.0000 -0.0367 -0.9993
vn -0.0000 -0.0422 -0.9991
vn -0.0000 0.9991 -0.0422
vn -0.0000 -0.9991 0.0422
vn -0.0000 0.3803 0.9249
vn -0.0000 0.0367 0.9993
vn -0.0000 -0.3803 -0.9249
vn -0.6533 -0.0000 -0.7571
vn 0.6533 -0.0000 0.7571
vt 0.750000 0.500000
vt 0.750000 1.000000
vt 0.687500 1.000000
vt 0.687500 0.500000
vt 0.625000 1.000000
vt 0.625000 0.500000
vt 0.562500 1.000000
vt 0.562500 0.500000
vt 0.517304 0.500000
vt 0.517304 1.000000
vt 0.500000 1.000000
vt 0.500000 0.500000
vt 0.482965 0.500000
vt 0.482965 1.000000
vt 0.437500 1.000000
vt 0.437500 0.500000
vt 0.375000 1.000000
vt 0.375000 0.500000
vt 0.312500 1.000000
vt 0.312500 0.500000
vt 0.250000 1.000000
vt 0.250000 0.500000
vt 0.954487 0.161340
vt 0.972789 0.249056
vt 0.990000 0.250000
vt 0.971731 0.158156
vt 0.912145 0.096153
vt 0.919706 0.080294
vt 0.836056 0.047886
vt 0.841844 0.028269
vt 0.773825 0.034321
vt 0.775428 0.015058
vt 0.726545 0.034241
vt 0.750000 0.029128
vt 0.750000 0.010000
vt 0.724967 0.014979
vt 0.587855 0.096153
vt 0.663944 0.047886
vt 0.658156 0.028269
vt 0.580294 0.080294
vt 0.545512 0.161340
vt 0.528269 0.158156
vt 0.527211 0.249056
vt 0.510000 0.250000
vt 0.616978 0.000000
vt 0.625000 0.000000
vt 0.625000 0.250000
vt 0.616978 0.250000
vt 0.616978 0.500000
vt 0.616978 0.750000
vt 0.625000 0.750000
vt 0.616978 1.000000
vt 0.375000 0.750000
vt 0.383022 0.750000
vt 0.383022 1.000000
vt 0.500000 0.750000
vt 0.375000 0.250000
vt 0.383022 0.250000
vt 0.383022 0.500000
vt 0.500000 0.250000
vt 0.500000 0.500000
vt 0.375000 0.000000
vt 0.383022 0.000000
vt 0.500000 0.000000
vt 0.375000 0.246997
vt 0.625000 0.246997
vt 0.375000 0.725870
vt 0.625000 0.725870
vt 0.875000 0.725870
vt 0.875000 0.750000
vt 0.625000 0.503003
vt 0.875000 0.503003
vt 0.875000 0.530864
vt 0.625000 0.530864
vt 0.875000 0.614197
vt 0.625000 0.614197
vt 0.375000 0.503003
vt 0.375000 0.530864
vt 0.375000 0.614197
vt 0.375000 0.024130
vt 0.625000 0.024130
vt 0.625000 0.135802
vt 0.375000 0.135802
vt 0.625000 0.219136
vt 0.375000 0.219136
vt 0.875000 0.500000
vt 0.570598 0.000000
vt 0.570598 0.250000
vt 0.818672 0.750000
vt 0.570598 0.500000
vt 0.570598 0.750000
vt 0.818672 0.500000
vt 0.375000 0.943672
vt 0.570598 0.943672
vt 0.570598 1.000000
vt 0.375000 0.443672
vt 0.570598 0.443672
vt 0.625000 0.443672
vt 0.625000 0.943672
vt 0.570598 0.306328
vt 0.570598 0.806328
vt 0.681328 0.500000
vt 0.625000 0.806328
vt 0.625000 0.306328
vt 0.375000 0.306328
vt 0.375000 0.806328
vt 0.681328 0.750000
s 0
usemtl Material.025
f 10/1/1 11/2/1 13/3/1 12/4/1
f 12/4/2 13/3/2 15/5/2 14/6/2
f 14/6/3 15/5/3 17/7/3 16/8/3
f 64/13/5 65/14/5 21/15/5 20/16/5
f 20/16/6 21/15/6 23/17/6 22/18/6
f 22/18/7 23/17/7 25/19/7 24/20/7
f 24/20/8 25/19/8 27/21/8 26/22/8
f 2/23/9 1/24/9 10/25/9 12/26/9
f 3/27/10 2/23/10 12/26/10 14/28/10
f 4/29/11 3/27/11 14/28/11 16/30/11
f 69/31/12 4/29/12 16/30/12 67/32/12
f 7/37/14 6/38/14 20/39/14 22/40/14
f 8/41/15 7/37/15 22/40/15 24/42/15
f 9/43/16 8/41/16 24/42/16 26/44/16
f 46/57/25 47/47/25 51/6/25 50/18/25
f 73/71/28 70/72/28 55/73/28 58/74/28
f 58/74/29 55/73/29 54/75/29 59/76/29
f 71/77/30 73/71/30 58/74/30 57/78/30
f 57/78/31 58/74/31 59/76/31 56/79/31
f 60/80/32 62/81/32 54/82/32 53/83/32
f 53/83/33 54/82/33 55/84/33 52/85/33
f 119/69/34 118/68/34 77/68/34 74/69/34
f 56/79/26 59/76/26 61/68/26 63/67/26
f 6/38/35 66/33/35 64/36/35 20/39/35
f 16/8/38 17/7/38 68/10/38 67/9/38
f 52/85/24 55/84/24 70/66/24 72/65/24
f 76/76/17 75/75/17 74/69/17 77/68/17
f 118/68/26 120/76/26 76/76/26 77/68/26
f 121/82/32 119/81/32 74/81/32 75/82/32
f 120/76/25 121/75/25 75/75/25 76/76/25
f 105/89/39 79/70/39 91/70/39 113/89/39
f 87/88/32 81/47/32 92/47/32 95/88/32
f 100/92/40 81/86/40 79/70/40 105/89/40
f 117/97/42 111/98/42 93/6/42 96/90/42
f 115/94/41 113/99/41 91/5/41 90/95/41
f 101/102/45 85/6/45 93/6/45 111/102/45
f 85/6/26 88/90/26 96/90/26 93/6/26
f 79/46/32 86/87/32 90/87/32 91/46/32
f 89/91/26 83/51/26 94/51/26 97/91/26
f 81/86/45 100/92/45 110/92/45 92/86/45
f 100/92/45 101/102/45 111/102/45 110/92/45
f 97/91/41 94/51/41 112/103/41 114/101/41
f 114/101/41 112/103/41 113/99/41 115/94/41
f 95/88/42 92/47/42 110/104/42 116/100/42
f 116/100/42 110/104/42 111/98/42 117/97/42
f 85/6/40 101/102/40 104/107/40 83/51/40
f 83/51/39 104/107/39 112/107/39 94/51/39
f 104/107/39 105/89/39 113/89/39 112/107/39
f 59/76/25 54/75/25 121/75/25 120/76/25
usemtl Material.026
f 37/45/17 29/46/17 31/47/17 38/48/17
f 38/48/18 31/47/18 35/6/18 40/49/18
f 42/50/19 33/51/19 29/5/19 37/52/19
f 32/53/20 43/54/20 36/55/20 28/17/20
f 125/56/21 42/50/21 37/52/21 122/11/21
f 30/57/22 39/58/22 41/59/22 34/18/22
f 123/60/23 38/48/23 40/49/23 124/61/23
f 28/62/17 36/63/17 39/58/17 30/57/17
f 122/64/17 37/45/17 38/48/17 123/60/17
f 36/63/17 122/64/17 123/60/17 39/58/17
f 39/58/46 123/60/46 124/61/46 41/59/46
f 43/54/47 125/56/47 122/11/47 36/55/47
usemtl Material.027
f 67/9/4 68/10/4 19/11/4 18/12/4
f 66/33/13 5/34/13 18/35/13 64/36/13
f 72/65/24 70/66/24 47/47/24 46/57/24
f 63/67/26 61/68/26 49/51/26 48/53/26
f 48/53/27 49/51/27 45/5/27 44/17/27
f 61/68/17 62/69/17 45/70/17 49/51/17
f 44/62/32 45/46/32 62/81/32 60/80/32
f 18/12/36 19/11/36 65/14/36 64/13/36
f 5/34/37 69/31/37 67/32/37 18/35/37
f 50/18/30 51/6/30 73/71/30 71/77/30
f 51/6/28 47/86/28 70/72/28 73/71/28
f 86/87/32 79/46/32 81/47/32 87/88/32
f 88/90/26 85/6/26 83/51/26 89/91/26
f 102/93/41 107/94/41 86/95/41 78/17/41
f 84/18/26 88/90/26 89/91/26 82/53/26
f 98/96/42 109/97/42 88/90/42 84/18/42
f 78/62/32 86/87/32 87/88/32 80/57/32
f 108/100/43 87/88/43 95/88/43 116/100/43
f 106/101/44 89/91/44 97/91/44 114/101/44
f 86/95/44 107/94/44 115/94/44 90/95/44
f 88/90/43 109/97/43 117/97/43 96/90/43
f 80/57/42 87/88/42 108/100/42 99/105/42
f 82/53/41 89/91/41 106/101/41 103/106/41
f 54/82/32 62/81/32 119/81/32 121/82/32
f 61/68/26 59/76/26 120/76/26 118/68/26
f 62/69/34 61/68/34 118/68/34 119/69/34
