# Blender 4.5.3 LTS
# www.blender.org
mtllib grenade.mtl
o grenade
v -0.000000 -0.056849 0.000000
v -0.000000 0.063221 -0.015978
v 0.011298 0.063221 -0.011298
v 0.015978 0.063221 -0.000000
v 0.011298 0.063221 0.011298
v -0.000000 0.063221 0.015978
v -0.011298 0.063221 0.011298
v -0.015978 0.063221 0.000000
v -0.011298 0.063221 -0.011298
v -0.000000 -0.026948 -0.044913
v -0.000000 -0.008983 -0.044913
v -0.000000 0.018701 -0.044913
v -0.000000 0.036667 -0.044913
v 0.031759 0.036667 -0.031759
v 0.031759 0.018701 -0.031759
v 0.031759 -0.008983 -0.031759
v 0.031759 -0.026948 -0.031759
v 0.044913 0.036667 0.000000
v 0.044913 0.018701 0.000000
v 0.044913 -0.008983 0.000000
v 0.044913 -0.026948 0.000000
v 0.031759 0.036667 0.031759
v 0.031759 0.018701 0.031759
v 0.031759 -0.008983 0.031759
v 0.031759 -0.026948 0.031759
v -0.000000 0.036667 0.044913
v -0.000000 0.018701 0.044913
v -0.000000 -0.008983 0.044913
v -0.000000 -0.026948 0.044913
v -0.031759 0.036667 0.031759
v -0.031759 0.018701 0.031759
v -0.031759 -0.008983 0.031759
v -0.031759 -0.026948 0.031759
v -0.044913 0.036667 0.000000
v -0.044913 0.018701 0.000000
v -0.044913 -0.008983 0.000000
v -0.044913 -0.026948 0.000000
v -0.031759 0.036667 -0.031759
v -0.031759 0.018701 -0.031759
v -0.031759 -0.008983 -0.031759
v -0.031759 -0.026948 -0.031759
v 0.025377 0.044913 -0.025377
v -0.000000 0.044913 -0.035889
v 0.035889 0.044913 0.000000
v 0.025377 0.044913 0.025377
v -0.000000 0.044913 0.035889
v -0.025377 0.044913 0.025377
v -0.035889 0.044913 0.000000
v -0.025377 0.044913 -0.025377
v 0.016833 0.044913 -0.016833
v -0.000000 0.044913 -0.023806
v 0.023806 0.044913 0.000000
v 0.016833 0.044913 0.016833
v -0.000000 0.044913 0.023806
v -0.016833 0.044913 0.016833
v -0.023806 0.044913 0.000000
v -0.016833 0.044913 -0.016833
vn 0.2691 0.7110 -0.6497
vn 0.6497 0.7110 -0.2691
vn 0.6497 0.7110 0.2691
vn 0.2691 0.7110 0.6497
vn -0.2691 0.7110 0.6497
vn -0.6497 0.7110 0.2691
vn -0.0000 1.0000 -0.0000
vn -0.6497 0.7110 -0.2691
vn -0.2691 0.7110 -0.6497
vn -0.2237 -0.8113 -0.5401
vn -0.3827 -0.0000 -0.9239
vn -0.5401 -0.8113 -0.2237
vn -0.9239 -0.0000 -0.3827
vn -0.5401 -0.8113 0.2237
vn -0.9239 -0.0000 0.3827
vn -0.2237 -0.8113 0.5401
vn -0.3827 -0.0000 0.9239
vn 0.2237 -0.8113 0.5401
vn 0.3827 -0.0000 0.9239
vn 0.5401 -0.8113 0.2237
vn 0.9239 -0.0000 0.3827
vn 0.5401 -0.8113 -0.2237
vn 0.9239 -0.0000 -0.3827
vn 0.2237 -0.8113 -0.5401
vn 0.3827 -0.0000 -0.9239
vn 0.3559 0.3674 -0.8593
vn 0.8593 0.3674 -0.3559
vn 0.8593 0.3674 0.3559
vn 0.3559 0.3674 0.8593
vn -0.3559 0.3674 0.8593
vn -0.8593 0.3674 0.3559
vn -0.8593 0.3674 -0.3559
vn -0.3559 0.3674 -0.8593
vt 1.000000 0.900000
vt 1.000000 1.000000
vt 0.875000 1.000000
vt 0.875000 0.900000
vt 0.750000 1.000000
vt 0.750000 0.900000
vt 0.625000 1.000000
vt 0.625000 0.900000
vt 0.500000 1.000000
vt 0.500000 0.900000
vt 0.375000 1.000000
vt 0.375000 0.900000
vt 0.250000 1.000000
vt 0.250000 0.900000
vt 0.349497 0.349497
vt 0.250000 0.390711
vt 0.150503 0.349497
vt 0.109289 0.250000
vt 0.150503 0.150503
vt 0.250000 0.109289
vt 0.349497 0.150503
vt 0.390710 0.250000
vt 0.125000 1.000000
vt 0.125000 0.900000
vt 0.000000 1.000000
vt 0.000000 0.900000
vt 0.125000 0.500000
vt 0.125000 0.600000
vt 0.000000 0.600000
vt 0.125000 0.700000
vt 0.000000 0.700000
vt 0.125000 0.800000
vt 0.000000 0.800000
vt 0.250000 0.500000
vt 0.250000 0.600000
vt 0.250000 0.700000
vt 0.250000 0.800000
vt 0.375000 0.500000
vt 0.375000 0.600000
vt 0.375000 0.700000
vt 0.375000 0.800000
vt 0.500000 0.500000
vt 0.500000 0.600000
vt 0.500000 0.700000
vt 0.500000 0.800000
vt 0.625000 0.500000
vt 0.625000 0.600000
vt 0.625000 0.700000
vt 0.625000 0.800000
vt 0.750000 0.500000
vt 0.750000 0.600000
vt 0.750000 0.700000
vt 0.750000 0.800000
vt 0.875000 0.500000
vt 0.875000 0.600000
vt 0.875000 0.700000
vt 0.875000 0.800000
vt 1.000000 0.500000
vt 1.000000 0.600000
vt 1.000000 0.700000
vt 1.000000 0.800000
vt 0.250000 0.409198
vt 0.362570 0.362570
vt 0.419706 0.419706
vt 0.250000 0.490000
vt 0.409198 0.250000
vt 0.490000 0.250000
vt 0.362570 0.137430
vt 0.419706 0.080294
vt 0.250000 0.090802
vt 0.250000 0.010000
vt 0.137430 0.137430
vt 0.080294 0.080294
vt 0.090802 0.250000
vt 0.010000 0.250000
vt 0.137430 0.362570
vt 0.080294 0.419706
s 0
usemtl Material.087
f 13/1/1 43/2/1 42/3/1 14/4/1
f 14/4/2 42/3/2 44/5/2 18/6/2
f 18/6/3 44/5/3 45/7/3 22/8/3
f 22/8/4 45/7/4 46/9/4 26/10/4
f 26/10/5 46/9/5 47/11/5 30/12/5
f 30/12/6 47/11/6 48/13/6 34/14/6
f 3/15/7 2/16/7 9/17/7 8/18/7 7/19/7 6/20/7 5/21/7 4/22/7
f 34/14/8 48/13/8 49/23/8 38/24/8
f 38/24/9 49/23/9 43/25/9 13/26/9
f 1/27/10 41/28/10 10/29/10
f 40/30/11 39/32/11 12/33/11 11/31/11
f 1/34/12 37/35/12 41/28/12
f 36/36/13 35/37/13 39/32/13 40/30/13
f 1/38/14 33/39/14 37/35/14
f 32/40/15 31/41/15 35/37/15 36/36/15
f 1/42/16 29/43/16 33/39/16
f 28/44/17 27/45/17 31/41/17 32/40/17
f 1/46/18 25/47/18 29/43/18
f 24/48/19 23/49/19 27/45/19 28/44/19
f 1/50/20 21/51/20 25/47/20
f 20/52/21 19/53/21 23/49/21 24/48/21
f 1/54/22 17/55/22 21/51/22
f 16/56/23 15/57/23 19/53/23 20/52/23
f 1/58/24 10/59/24 17/55/24
f 11/60/25 12/61/25 15/57/25 16/56/25
f 51/62/7 50/63/7 42/64/7 43/65/7
f 50/63/7 52/66/7 44/67/7 42/64/7
f 52/66/7 53/68/7 45/69/7 44/67/7
f 53/68/7 54/70/7 46/71/7 45/69/7
f 54/70/7 55/72/7 47/73/7 46/71/7
f 55/72/7 56/74/7 48/75/7 47/73/7
f 56/74/7 57/76/7 49/77/7 48/75/7
f 57/76/7 51/62/7 43/65/7 49/77/7
f 2/16/26 3/15/26 50/63/26 51/62/26
f 3/15/27 4/22/27 52/66/27 50/63/27
f 4/22/28 5/21/28 53/68/28 52/66/28
f 5/21/29 6/20/29 54/70/29 53/68/29
f 6/20/30 7/19/30 55/72/30 54/70/30
f 7/19/31 8/18/31 56/74/31 55/72/31
f 8/18/32 9/17/32 57/76/32 56/74/32
f 9/17/33 2/16/33 51/62/33 57/76/33
usemtl Material.088
f 41/28/11 40/30/11 11/31/11 10/29/11
f 39/32/11 38/24/11 13/26/11 12/33/11
f 37/35/13 36/36/13 40/30/13 41/28/13
f 35/37/13 34/14/13 38/24/13 39/32/13
f 33/39/15 32/40/15 36/36/15 37/35/15
f 31/41/15 30/12/15 34/14/15 35/37/15
f 29/43/17 28/44/17 32/40/17 33/39/17
f 27/45/17 26/10/17 30/12/17 31/41/17
f 25/47/19 24/48/19 28/44/19 29/43/19
f 23/49/19 22/8/19 26/10/19 27/45/19
f 21/51/21 20/52/21 24/48/21 25/47/21
f 19/53/21 18/6/21 22/8/21 23/49/21
f 17/55/23 16/56/23 20/52/23 21/51/23
f 15/57/23 14/4/23 18/6/23 19/53/23
f 10/59/25 11/60/25 16/56/25 17/55/25
f 12/61/25 13/1/25 14/4/25 15/57/25
