# Blender 4.5.3 LTS
# www.blender.org
mtllib boulder.mtl
o Sphere
v -0.001186 0.086705 -0.089474
v -0.000437 0.030653 -0.109184
v -0.002066 -0.032063 -0.121394
v 0.000253 -0.052223 -0.090616
v 0.015520 0.111456 -0.026636
v 0.032315 0.110089 -0.053188
v 0.037334 0.075080 -0.066730
v 0.053342 0.061347 -0.092497
v 0.051572 0.027521 -0.088397
v 0.055154 -0.000464 -0.095271
v 0.063687 -0.033742 -0.111789
v 0.050721 -0.059313 -0.087336
v 0.039936 -0.082340 -0.070755
v 0.023425 -0.083248 -0.041701
v 0.015979 -0.115168 -0.027173
v 0.021571 0.096884 -0.011465
v 0.050554 0.098748 -0.028452
v 0.071475 0.081836 -0.040836
v 0.088097 0.059968 -0.051170
v 0.097471 0.029952 -0.055638
v 0.116719 0.000138 -0.067004
v 0.090294 -0.028075 -0.052150
v 0.099548 -0.067389 -0.055896
v 0.070792 -0.082246 -0.041553
v 0.042855 -0.087865 -0.025746
v 0.028344 -0.115144 -0.016044
v 0.029100 0.110356 -0.000132
v 0.060263 0.102901 -0.001613
v 0.069400 0.068681 0.001527
v 0.095479 0.055530 -0.000188
v 0.112174 0.030001 0.000467
v 0.109986 0.000431 -0.000075
v 0.131735 -0.036102 -0.000027
v 0.089875 -0.051140 -0.000567
v 0.062807 -0.063897 -0.000789
v 0.061648 -0.103257 -0.000503
v 0.030895 -0.104622 -0.001753
v 0.021632 0.101567 0.012812
v 0.047451 0.094305 0.027339
v 0.079747 0.088910 0.049276
v 0.090246 0.060973 0.051646
v 0.101135 0.031369 0.057784
v 0.104192 -0.000286 0.060215
v 0.101421 -0.031979 0.059705
v 0.085379 -0.057129 0.048989
v 0.062381 -0.073729 0.037039
v 0.052628 -0.104430 0.030095
v 0.022914 -0.099881 0.013921
v 0.016994 0.120826 0.028659
v 0.027776 0.095596 0.047444
v 0.034632 0.062372 0.053068
v 0.043437 0.047128 0.074439
v 0.063638 0.034524 0.110815
v 0.053655 -0.000012 0.092823
v 0.049739 -0.026915 0.085477
v 0.045763 -0.052790 0.078700
v 0.039131 -0.077992 0.067981
v 0.027823 -0.097438 0.049053
v 0.014799 -0.105116 0.027082
v -0.000731 0.105366 0.028555
v 0.001276 0.086150 0.047612
v 0.000361 0.072084 0.072144
v -0.000018 0.061081 0.104467
v 0.000829 0.028080 0.105155
v 0.000843 0.001293 0.100054
v 0.000168 -0.028801 0.109595
v -0.000531 -0.051523 0.091850
v -0.000106 -0.077864 0.077361
v 0.000531 -0.106108 0.063276
v 0.000138 -0.104169 0.026318
v -0.013057 0.089533 0.015661
v -0.028656 0.105968 0.055413
v -0.035598 0.070759 0.060638
v -0.043386 0.048624 0.075660
v -0.056235 0.030548 0.097444
v -0.055802 0.000701 0.096031
v -0.055077 -0.028981 0.095031
v -0.045980 -0.052759 0.079145
v -0.037842 -0.074452 0.064979
v -0.035945 -0.119354 0.060521
v -0.015065 -0.126221 0.024087
v -0.022546 0.105100 0.015991
v -0.054308 0.108951 0.031123
v -0.077481 0.089289 0.044922
v -0.075411 0.048262 0.041957
v -0.099663 0.030760 0.057666
v -0.079959 0.003633 0.047100
v -0.078094 -0.028252 0.045566
v -0.086451 -0.057597 0.050286
v -0.070678 -0.081224 0.041238
v -0.056015 -0.108444 0.030541
v -0.021430 -0.096508 0.015562
v -0.000716 0.120498 -0.000836
v -0.030828 0.110681 0.001590
v -0.054159 0.094709 0.000542
v -0.069316 0.069859 0.000084
v -0.104162 0.060605 -0.000313
v -0.112753 0.030945 0.000291
v -0.097529 0.001173 -0.000438
v -0.101748 -0.026759 0.000109
v -0.117091 -0.066805 -0.000945
v -0.082398 -0.082344 -0.001069
v -0.056971 -0.097568 0.000887
v -0.028549 -0.103236 0.000631
v -0.028004 0.113419 -0.017999
v -0.050306 0.099747 -0.029162
v -0.073787 0.086884 -0.042852
v -0.081733 0.055099 -0.047141
v -0.078558 0.025089 -0.045476
v -0.102513 0.000786 -0.058418
v -0.107822 -0.033900 -0.062052
v -0.070348 -0.047500 -0.039781
v -0.061014 -0.073095 -0.035110
v -0.047820 -0.094272 -0.027886
v -0.025096 -0.104901 -0.013586
v -0.015089 0.107359 -0.027788
v -0.024794 0.085078 -0.042577
v -0.041250 0.082050 -0.070411
v -0.045142 0.052668 -0.078624
v -0.057002 0.031139 -0.099507
v -0.062147 0.000022 -0.108216
v -0.053384 -0.029682 -0.093012
v -0.048408 -0.055691 -0.082750
v -0.045386 -0.087204 -0.077441
v -0.029038 -0.098597 -0.049942
v -0.013486 -0.109021 -0.025235
v -0.000668 0.107484 -0.030606
v 0.000413 0.091055 -0.052954
v 0.000448 0.055471 -0.096046
v 0.000259 0.000562 -0.102243
v 0.000698 -0.087404 -0.089561
v -0.001585 -0.094788 -0.055499
v 0.000214 -0.094543 -0.025243
v 0.000789 -0.110954 -0.000416
vn -0.1255 0.9090 -0.3976
vn 0.0123 -0.7713 -0.6363
vn 0.2203 0.1388 -0.9655
vn -0.7609 -0.5493 -0.3455
vn -0.3615 0.8259 -0.4327
vn 0.2198 -0.3184 -0.9221
vn 0.2519 0.0174 -0.9676
vn 0.1122 0.7849 -0.6094
vn 0.2715 -0.9614 -0.0455
vn 0.1299 0.4814 -0.8668
vn 0.2513 0.6282 -0.7364
vn -0.0133 -0.8156 -0.5785
vn 0.4383 0.4233 -0.7929
vn 0.5933 0.5768 -0.5615
vn 0.0214 -0.9922 -0.1232
vn 0.7004 -0.1851 -0.6893
vn 0.3791 0.8069 -0.4531
vn 0.5268 -0.4819 -0.7001
vn 0.7579 0.5944 0.2686
vn 0.7442 -0.2413 -0.6228
vn 0.6735 0.0844 -0.7344
vn -0.0916 -0.9903 0.1040
vn 0.3344 0.8703 0.3616
vn 0.3285 -0.7789 -0.5342
vn 0.8883 0.4283 -0.1657
vn 0.1944 -0.8061 0.5589
vn -0.0392 0.9138 -0.4042
vn 0.4855 -0.7903 0.3738
vn 0.9558 0.2872 -0.0627
vn 0.8595 0.5104 -0.0284
vn 0.8166 -0.5670 -0.1083
vn 0.9490 -0.1342 -0.2854
vn 0.6482 0.7542 0.1053
vn 0.4546 -0.8206 -0.3465
vn 0.2090 0.5585 -0.8027
vn 0.8453 -0.4903 -0.2124
vn 0.9276 0.2562 0.2718
vn 0.7327 0.6490 -0.2049
vn -0.0675 -0.9964 0.0520
vn 0.2352 0.7357 0.6352
vn 0.5420 -0.8253 0.1585
vn 0.8844 0.4552 0.1034
vn 0.2066 -0.9024 0.3781
vn 0.1310 0.8916 0.4334
vn 0.5241 -0.8427 -0.1231
vn 0.9898 0.0184 0.1416
vn 0.7143 0.6949 -0.0824
vn 0.9806 -0.1631 0.1091
vn 0.6730 -0.2353 0.7012
vn 0.0512 0.6140 0.7876
vn 0.5852 -0.5522 0.5938
vn 0.4820 -0.1702 0.8595
vn 0.0346 0.4933 0.8691
vn 0.0127 -0.9976 0.0676
vn 0.7216 0.5352 -0.4392
vn 0.4330 -0.4396 0.7869
vn 0.3606 0.7803 0.5110
vn 0.4756 -0.8779 -0.0559
vn 0.6570 0.7538 0.0134
vn 0.5202 -0.6616 0.5400
vn 0.3260 -0.4507 0.8310
vn 0.2101 0.6732 0.7090
vn -0.0752 -0.9670 0.2436
vn -0.3149 0.5611 0.7655
vn 0.2206 -0.4498 0.8654
vn 0.0285 -0.3563 0.9339
vn 0.2558 0.5424 0.8002
vn 0.3368 -0.5857 0.7372
vn 0.2927 0.0133 0.9561
vn 0.4598 0.8241 0.3307
vn 0.1965 -0.9792 0.0506
vn -0.6142 0.7018 0.3610
vn -0.1632 0.1394 0.9767
vn -0.3829 0.7866 0.4845
vn 0.5384 -0.8173 0.2052
vn -0.8510 0.4670 0.2400
vn -0.2017 -0.5977 0.7760
vn -0.3448 0.4447 0.8266
vn 0.8042 -0.5711 0.1645
vn 0.0857 0.9941 0.0668
vn -0.2578 -0.5285 0.8089
vn -0.1038 -0.1144 0.9880
vn 0.0931 0.5038 0.8588
vn -0.1620 -0.2478 0.9552
vn -0.4132 -0.5783 0.7035
vn -0.7426 -0.3786 0.5524
vn -0.3355 0.4676 0.8178
vn -0.6916 -0.2971 0.6583
vn -0.9011 -0.0556 0.4300
vn -0.5085 0.2056 0.8361
vn -0.4084 -0.7538 -0.5149
vn 0.4644 0.2651 0.8450
vn -0.7652 -0.1426 0.6278
vn -0.3910 0.8290 0.3998
vn -0.6835 -0.3328 -0.6496
vn 0.4402 0.8966 0.0485
vn -0.2397 0.8508 0.4676
vn -0.8393 0.3102 0.4465
vn -0.6975 0.6137 0.3700
vn -0.2067 -0.8513 0.4822
vn -0.2467 0.9589 -0.1400
vn -0.5405 -0.7738 0.3302
vn -0.8034 -0.5421 0.2465
vn -0.7617 0.5563 -0.3323
vn -0.7231 -0.6899 0.0338
vn -0.9139 0.0293 0.4048
vn -0.8325 0.5324 0.1534
vn 0.0732 -0.9917 -0.1055
vn -0.5685 -0.7086 -0.4179
vn -0.9859 0.1460 0.0816
vn -0.6889 0.7235 -0.0450
vn -0.2725 -0.9551 -0.1161
vn -0.3023 0.9491 0.0891
vn -0.7940 -0.4767 -0.3772
vn -0.8486 0.0570 -0.5259
vn -0.2523 -0.9662 0.0519
vn -0.5544 0.8304 0.0559
vn -0.4709 -0.5778 -0.6666
vn -0.9352 0.2209 -0.2766
vn -0.7211 0.6612 0.2069
vn -0.1097 0.6441 -0.7570
vn -0.9078 -0.2546 -0.3333
vn -0.7324 0.5444 -0.4090
vn 0.0361 0.9212 -0.3873
vn -0.6559 -0.7421 -0.1381
vn -0.6355 -0.1694 -0.7533
vn -0.6087 0.2703 -0.7459
vn -0.3843 -0.9157 -0.1171
vn 0.0628 0.8835 -0.4642
vn -0.4362 -0.8023 -0.4076
vn -0.7878 0.3273 -0.5218
vn -0.2640 -0.9615 0.0770
vn 0.3584 -0.8912 -0.2782
vn -0.0860 0.9128 -0.3992
vn -0.2481 -0.6652 -0.7042
vn -0.2151 0.6156 -0.7581
vn 0.6570 -0.6219 -0.4263
vn -0.3218 0.6918 -0.6464
vn -0.2019 -0.1034 -0.9739
vn -0.0311 0.0311 -0.9990
vn -0.1868 0.9806 -0.0600
vn -0.0220 -0.9577 -0.2871
vn -0.1925 0.0422 -0.9804
vn -0.3982 0.2314 -0.8876
vt 0.750000 0.916667
vt 0.708333 1.000000
vt 0.666667 0.916667
vt 0.750000 0.333333
vt 0.750000 0.416667
vt 0.666667 0.416667
vt 0.666667 0.333333
vt 0.750000 0.583333
vt 0.750000 0.666667
vt 0.666667 0.666667
vt 0.666667 0.583333
vt 0.708333 0.000000
vt 0.750000 0.083333
vt 0.666667 0.083333
vt 0.750000 0.833333
vt 0.666667 0.833333
vt 0.750000 0.250000
vt 0.666667 0.250000
vt 0.750000 0.500000
vt 0.666667 0.500000
vt 0.750000 0.750000
vt 0.666667 0.750000
vt 0.750000 0.166667
vt 0.666667 0.166667
vt 0.583333 0.583333
vt 0.583333 0.500000
vt 0.583333 0.833333
vt 0.583333 0.750000
vt 0.583333 0.250000
vt 0.583333 0.166667
vt 0.583333 0.416667
vt 0.583333 0.666667
vt 0.583333 0.083333
vt 0.625000 1.000000
vt 0.583333 0.916667
vt 0.583333 0.333333
vt 0.625000 0.000000
vt 0.500000 0.666667
vt 0.500000 0.583333
vt 0.541667 0.000000
vt 0.500000 0.083333
vt 0.500000 0.916667
vt 0.500000 0.833333
vt 0.500000 0.333333
vt 0.500000 0.250000
vt 0.500000 0.500000
vt 0.500000 0.750000
vt 0.500000 0.166667
vt 0.500000 0.416667
vt 0.541667 1.000000
vt 0.416667 0.500000
vt 0.416667 0.416667
vt 0.416667 0.750000
vt 0.416667 0.666667
vt 0.416667 0.166667
vt 0.416667 0.083333
vt 0.458333 1.000000
vt 0.416667 0.916667
vt 0.416667 0.333333
vt 0.416667 0.583333
vt 0.458333 0.000000
vt 0.416667 0.833333
vt 0.416667 0.250000
vt 0.333333 0.583333
vt 0.333333 0.500000
vt 0.333333 0.833333
vt 0.333333 0.750000
vt 0.333333 0.250000
vt 0.333333 0.166667
vt 0.333333 0.416667
vt 0.333333 0.666667
vt 0.333333 0.083333
vt 0.375000 1.000000
vt 0.333333 0.916667
vt 0.333333 0.333333
vt 0.375000 0.000000
vt 0.250000 0.416667
vt 0.250000 0.333333
vt 0.250000 0.666667
vt 0.250000 0.583333
vt 0.291667 0.000000
vt 0.250000 0.083333
vt 0.250000 0.916667
vt 0.250000 0.833333
vt 0.250000 0.250000
vt 0.250000 0.500000
vt 0.250000 0.750000
vt 0.250000 0.166667
vt 0.291667 1.000000
vt 0.166667 0.500000
vt 0.166667 0.416667
vt 0.166667 0.750000
vt 0.166667 0.666667
vt 0.166667 0.166667
vt 0.166667 0.083333
vt 0.208333 1.000000
vt 0.166667 0.916667
vt 0.166667 0.333333
vt 0.166667 0.583333
vt 0.208333 0.000000
vt 0.166667 0.833333
vt 0.166667 0.250000
vt 0.083333 0.333333
vt 0.083333 0.250000
vt 0.083333 0.583333
vt 0.083333 0.500000
vt 0.083333 0.833333
vt 0.083333 0.750000
vt 0.083333 0.166667
vt 0.083333 0.416667
vt 0.083333 0.666667
vt 0.083333 0.083333
vt 0.125000 1.000000
vt 0.083333 0.916667
vt 0.125000 0.000000
vt 0.041667 1.000000
vt 0.000000 0.916667
vt 0.000000 0.416667
vt 0.000000 0.333333
vt 0.000000 0.666667
vt 0.000000 0.583333
vt 0.041667 0.000000
vt 0.000000 0.083333
vt 0.000000 0.833333
vt 0.000000 0.250000
vt 0.000000 0.500000
vt 0.000000 0.750000
vt 0.000000 0.166667
vt 1.000000 0.166667
vt 1.000000 0.250000
vt 0.916667 0.250000
vt 0.916667 0.166667
vt 1.000000 0.416667
vt 1.000000 0.500000
vt 0.916667 0.500000
vt 0.916667 0.416667
vt 1.000000 0.666667
vt 1.000000 0.750000
vt 0.916667 0.750000
vt 0.916667 0.666667
vt 1.000000 0.083333
vt 0.916667 0.083333
vt 1.000000 0.916667
vt 0.958333 1.000000
vt 0.916667 0.916667
vt 1.000000 0.333333
vt 0.916667 0.333333
vt 1.000000 0.583333
vt 0.916667 0.583333
vt 0.958333 0.000000
vt 1.000000 0.833333
vt 0.916667 0.833333
vt 0.833333 0.916667
vt 0.833333 0.833333
vt 0.833333 0.333333
vt 0.833333 0.250000
vt 0.833333 0.583333
vt 0.833333 0.500000
vt 0.833333 0.750000
vt 0.833333 0.166667
vt 0.833333 0.416667
vt 0.833333 0.666667
vt 0.833333 0.083333
vt 0.875000 1.000000
vt 0.875000 0.000000
vt 0.791667 1.000000
vt 0.791667 0.000000
s 0
usemtl Material.039
f 127/1/1 93/2/1 5/3/1
f 4/4/2 3/5/2 11/6/2 12/7/2
f 2/8/3 129/9/3 8/10/3 9/11/3
f 134/12/4 133/13/4 15/14/4
f 128/15/5 127/1/5 5/3/5 6/16/5
f 131/17/6 4/4/6 12/7/6 13/18/6
f 130/19/7 2/8/7 9/11/7 10/20/7
f 1/21/8 128/15/8 6/16/8 7/22/8
f 132/23/9 131/17/9 13/18/9 14/24/9
f 3/5/10 130/19/10 10/20/10 11/6/10
f 129/9/11 1/21/11 7/22/11 8/10/11
f 133/13/12 132/23/12 14/24/12 15/14/12
f 10/20/13 9/11/13 20/25/13 21/26/13
f 7/22/14 6/16/14 17/27/14 18/28/14
f 14/24/15 13/18/15 24/29/15 25/30/15
f 11/6/16 10/20/16 21/26/16 22/31/16
f 8/10/17 7/22/17 18/28/17 19/32/17
f 15/14/18 14/24/18 25/30/18 26/33/18
f 5/3/19 93/34/19 16/35/19
f 12/7/20 11/6/20 22/31/20 23/36/20
f 9/11/21 8/10/21 19/32/21 20/25/21
f 134/37/22 15/14/22 26/33/22
f 6/16/23 5/3/23 16/35/23 17/27/23
f 13/18/24 12/7/24 23/36/24 24/29/24
f 20/25/25 19/32/25 30/38/25 31/39/25
f 134/40/26 26/33/26 37/41/26
f 17/27/27 16/35/27 27/42/27 28/43/27
f 24/29/28 23/36/28 34/44/28 35/45/28
f 21/26/29 20/25/29 31/39/29 32/46/29
f 18/28/30 17/27/30 28/43/30 29/47/30
f 25/30/31 24/29/31 35/45/31 36/48/31
f 22/31/32 21/26/32 32/46/32 33/49/32
f 19/32/33 18/28/33 29/47/33 30/38/33
f 26/33/34 25/30/34 36/48/34 37/41/34
f 16/35/35 93/50/35 27/42/35
f 23/36/36 22/31/36 33/49/36 34/44/36
f 33/49/37 32/46/37 43/51/37 44/52/37
f 30/38/38 29/47/38 40/53/38 41/54/38
f 37/41/39 36/48/39 47/55/39 48/56/39
f 27/42/40 93/57/40 38/58/40
f 34/44/41 33/49/41 44/52/41 45/59/41
f 31/39/42 30/38/42 41/54/42 42/60/42
f 134/61/43 37/41/43 48/56/43
f 28/43/44 27/42/44 38/58/44 39/62/44
f 35/45/45 34/44/45 45/59/45 46/63/45
f 32/46/46 31/39/46 42/60/46 43/51/46
f 29/47/47 28/43/47 39/62/47 40/53/47
f 36/48/48 35/45/48 46/63/48 47/55/48
f 43/51/49 42/60/49 53/64/49 54/65/49
f 40/53/50 39/62/50 50/66/50 51/67/50
f 47/55/51 46/63/51 57/68/51 58/69/51
f 44/52/52 43/51/52 54/65/52 55/70/52
f 41/54/53 40/53/53 51/67/53 52/71/53
f 48/56/54 47/55/54 58/69/54 59/72/54
f 38/58/55 93/73/55 49/74/55
f 45/59/56 44/52/56 55/70/56 56/75/56
f 42/60/57 41/54/57 52/71/57 53/64/57
f 134/76/58 48/56/58 59/72/58
f 39/62/59 38/58/59 49/74/59 50/66/59
f 46/63/60 45/59/60 56/75/60 57/68/60
f 56/75/61 55/70/61 66/77/61 67/78/61
f 53/64/62 52/71/62 63/79/62 64/80/62
f 134/81/63 59/72/63 70/82/63
f 50/66/64 49/74/64 60/83/64 61/84/64
f 57/68/65 56/75/65 67/78/65 68/85/65
f 54/65/66 53/64/66 64/80/66 65/86/66
f 51/67/67 50/66/67 61/84/67 62/87/67
f 58/69/68 57/68/68 68/85/68 69/88/68
f 55/70/69 54/65/69 65/86/69 66/77/69
f 52/71/70 51/67/70 62/87/70 63/79/70
f 59/72/71 58/69/71 69/88/71 70/82/71
f 49/74/72 93/89/72 60/83/72
f 66/77/73 65/86/73 76/90/73 77/91/73
f 63/79/74 62/87/74 73/92/74 74/93/74
f 70/82/75 69/88/75 80/94/75 81/95/75
f 60/83/76 93/96/76 71/97/76
f 67/78/77 66/77/77 77/91/77 78/98/77
f 64/80/78 63/79/78 74/93/78 75/99/78
f 134/100/79 70/82/79 81/95/79
f 61/84/80 60/83/80 71/97/80 72/101/80
f 68/85/81 67/78/81 78/98/81 79/102/81
f 65/86/82 64/80/82 75/99/82 76/90/82
f 62/87/83 61/84/83 72/101/83 73/92/83
f 69/88/84 68/85/84 79/102/84 80/94/84
f 79/102/85 78/98/85 89/103/85 90/104/85
f 76/90/86 75/99/86 86/105/86 87/106/86
f 73/92/87 72/101/87 83/107/87 84/108/87
f 80/94/88 79/102/88 90/104/88 91/109/88
f 77/91/89 76/90/89 87/106/89 88/110/89
f 74/93/90 73/92/90 84/108/90 85/111/90
f 81/95/91 80/94/91 91/109/91 92/112/91
f 71/97/92 93/113/92 82/114/92
f 78/98/93 77/91/93 88/110/93 89/103/93
f 75/99/94 74/93/94 85/111/94 86/105/94
f 134/115/95 81/95/95 92/112/95
f 72/101/96 71/97/96 82/114/96 83/107/96
f 82/114/97 93/116/97 94/117/97
f 89/103/98 88/110/98 100/118/98 101/119/98
f 86/105/99 85/111/99 97/120/99 98/121/99
f 134/122/100 92/112/100 104/123/100
f 83/107/101 82/114/101 94/117/101 95/124/101
f 90/104/102 89/103/102 101/119/102 102/125/102
f 87/106/103 86/105/103 98/121/103 99/126/103
f 84/108/104 83/107/104 95/124/104 96/127/104
f 91/109/105 90/104/105 102/125/105 103/128/105
f 88/110/106 87/106/106 99/126/106 100/118/106
f 85/111/107 84/108/107 96/127/107 97/120/107
f 92/112/108 91/109/108 103/128/108 104/123/108
f 103/129/109 102/130/109 113/131/109 114/132/109
f 100/133/110 99/134/110 110/135/110 111/136/110
f 97/137/111 96/138/111 107/139/111 108/140/111
f 104/141/112 103/129/112 114/132/112 115/142/112
f 94/143/113 93/144/113 105/145/113
f 101/146/114 100/133/114 111/136/114 112/147/114
f 98/148/115 97/137/115 108/140/115 109/149/115
f 134/150/116 104/141/116 115/142/116
f 95/151/117 94/143/117 105/145/117 106/152/117
f 102/130/118 101/146/118 112/147/118 113/131/118
f 99/134/119 98/148/119 109/149/119 110/135/119
f 96/138/120 95/151/120 106/152/120 107/139/120
f 106/152/121 105/145/121 116/153/121 117/154/121
f 113/131/122 112/147/122 123/155/122 124/156/122
f 110/135/123 109/149/123 120/157/123 121/158/123
f 107/139/124 106/152/124 117/154/124 118/159/124
f 114/132/125 113/131/125 124/156/125 125/160/125
f 111/136/126 110/135/126 121/158/126 122/161/126
f 108/140/127 107/139/127 118/159/127 119/162/127
f 115/142/128 114/132/128 125/160/128 126/163/128
f 105/145/129 93/164/129 116/153/129
f 112/147/130 111/136/130 122/161/130 123/155/130
f 109/149/131 108/140/131 119/162/131 120/157/131
f 134/165/132 115/142/132 126/163/132
f 126/163/133 125/160/133 132/23/133 133/13/133
f 116/153/134 93/166/134 127/1/134
f 123/155/135 122/161/135 3/5/135 4/4/135
f 120/157/136 119/162/136 129/9/136 2/8/136
f 134/167/137 126/163/137 133/13/137
f 117/154/138 116/153/138 127/1/138 128/15/138
f 124/156/139 123/155/139 4/4/139 131/17/139
f 121/158/140 120/157/140 2/8/140 130/19/140
f 118/159/141 117/154/141 128/15/141 1/21/141
f 125/160/142 124/156/142 131/17/142 132/23/142
f 122/161/143 121/158/143 130/19/143 3/5/143
f 119/162/144 118/159/144 1/21/144 129/9/144
