# Blender 4.5.3 LTS
# www.blender.org
mtllib cape.mtl
o cape
v -0.047479 0.051798 0.056534
v -0.062318 -0.052623 -0.065002
v -0.047479 0.051798 -0.049134
v 0.047479 0.051798 0.056534
v 0.062318 -0.052623 -0.065002
v 0.047479 0.051798 -0.049134
v -0.053602 0.015787 0.051798
v -0.053602 0.015787 -0.051798
v 0.053602 0.015787 -0.051798
v 0.053602 0.015787 0.051798
v -0.047479 0.051798 0.013853
v 0.047479 0.051798 0.013853
v 0.053602 0.005920 0.035461
v -0.053602 0.005920 0.035461
v 0.023087 -0.046597 -0.065002
v -0.023087 -0.046597 -0.065002
v -0.029227 0.051798 -0.049134
v 0.029227 0.051798 -0.049134
v 0.029227 0.051798 0.056534
v -0.029227 0.051798 0.056534
v 0.030245 0.015787 0.057500
v -0.030245 0.015787 0.057500
v -0.030245 0.015787 -0.053356
v 0.030245 0.015787 -0.053356
v -0.029227 0.066230 0.013853
v 0.029227 0.066230 0.013853
v -0.053602 -0.039223 -0.060962
v 0.053602 -0.039223 -0.060962
v -0.021790 -0.039223 -0.062520
v 0.021790 -0.039223 -0.062520
v -0.047479 0.051798 -0.010714
v 0.062318 -0.052883 0.027462
v -0.053602 -0.017287 0.027322
v -0.062318 -0.052883 0.027462
v 0.047479 0.051798 -0.010714
v 0.053602 -0.017287 0.027322
v 0.029227 0.066230 -0.010714
v -0.029227 0.066230 -0.010714
v 0.053602 -0.041556 0.026648
v -0.053602 -0.041556 0.026648
v -0.048476 0.045936 0.055763
v -0.048476 0.045936 -0.049568
v 0.048476 0.045936 -0.049568
v 0.048476 0.045936 0.055763
v 0.048476 0.044330 0.015298
v -0.048476 0.044330 0.015298
v 0.029393 0.045936 0.061465
v -0.029393 0.045936 0.061465
v -0.029393 0.045936 -0.049821
v 0.029393 0.045936 -0.049821
v 0.048476 0.044330 -0.009774
v -0.048476 0.044330 -0.009774
v 0.000000 -0.046597 -0.065002
v 0.000000 0.051798 -0.049134
v 0.000000 0.051798 0.056534
v 0.000000 0.015787 0.067782
v 0.000000 0.015787 -0.053356
v 0.000000 0.066230 0.013853
v 0.000000 -0.039223 -0.062520
v 0.000000 0.066230 -0.010714
v 0.000000 0.045936 -0.049821
v 0.000000 0.045936 0.071747
vn -0.9890 0.1480 0.0030
vn 0.0068 0.0958 -0.9954
vn 0.9890 0.1478 -0.0029
vn -0.1418 0.3435 0.9284
vn -0.3632 0.9187 0.1553
vn 0.0557 0.1599 -0.9856
vn -1.0000 -0.0000 -0.0000
vn -0.6202 0.7844 -0.0000
vn 0.9912 0.1323 -0.0000
vn -0.9890 0.1478 -0.0029
vn 0.6202 0.7844 -0.0000
vn -0.0000 1.0000 -0.0000
vn -0.0557 0.1599 -0.9856
vn -0.0000 0.1643 -0.9864
vn 0.3632 0.9187 0.1553
vn -0.0000 0.9473 0.3203
vn 0.1418 0.3435 0.9284
vn -0.0878 0.8613 0.5005
vn -0.0068 0.0958 -0.9954
vn -0.0000 0.1164 -0.9932
vn -0.0000 0.3191 -0.9477
vn -0.0479 0.3202 -0.9461
vn -0.8178 0.5755 0.0083
vn 0.0479 0.3202 -0.9461
vn 0.8178 0.5755 0.0083
vn -0.0000 0.9361 -0.3516
vn 0.3622 0.9161 -0.1721
vn 0.9890 0.1480 0.0030
vn -0.3622 0.9161 -0.1721
vn 1.0000 -0.0000 -0.0000
vn -0.9912 0.1323 -0.0000
vn -0.9960 0.0729 -0.0510
vn 0.9915 0.1246 0.0363
vn -0.0424 0.0993 -0.9942
vn -0.3237 -0.1189 0.9387
vn 0.2582 -0.1008 0.9608
vn -0.9896 0.1412 -0.0285
vn 0.9960 0.0729 -0.0510
vn -0.2582 -0.1008 0.9608
vn 0.9896 0.1412 -0.0285
vn 0.0424 0.0993 -0.9942
vn -0.9915 0.1246 0.0363
vn 0.3237 -0.1189 0.9387
vn 0.0878 0.8613 0.5005
vt 0.604652 0.187500
vt 0.625000 0.187500
vt 0.625000 0.250000
vt 0.604618 0.250976
vt 0.604652 0.445531
vt 0.625000 0.445531
vt 0.625000 0.500000
vt 0.604618 0.499024
vt 0.604652 0.625000
vt 0.625000 0.625000
vt 0.625000 0.750000
vt 0.604652 0.750921
vt 0.604652 0.945531
vt 0.625000 0.945531
vt 0.625000 1.000000
vt 0.604652 0.998541
vt 0.820531 0.625000
vt 0.875000 0.625000
vt 0.875000 0.750000
vt 0.820531 0.750000
vt 0.398257 0.445531
vt 0.500000 0.445531
vt 0.500000 0.500000
vt 0.398257 0.500000
vt 0.398257 0.187500
vt 0.500000 0.187500
vt 0.500000 0.250000
vt 0.398257 0.250000
vt 0.820531 0.562500
vt 0.875000 0.562500
vt 0.604652 0.562500
vt 0.625000 0.562500
vt 0.604652 0.000000
vt 0.625000 0.000000
vt 0.625000 0.125000
vt 0.604652 0.125000
vt 0.679469 0.562500
vt 0.679469 0.625000
vt 0.750000 0.562500
vt 0.750000 0.625000
vt 0.500000 0.304469
vt 0.398257 0.304469
vt 0.398257 0.375000
vt 0.500000 0.375000
vt 0.679469 0.750000
vt 0.750000 0.750000
vt 0.625000 0.804469
vt 0.604652 0.804469
vt 0.604652 0.875000
vt 0.625000 0.875000
vt 0.625000 0.304469
vt 0.604652 0.304469
vt 0.604652 0.375000
vt 0.625000 0.375000
vt 0.375000 0.375000
vt 0.375000 0.445531
vt 0.375000 0.250000
vt 0.375000 0.304469
vt 0.375000 0.187500
vt 0.375000 0.500000
vt 0.398257 0.562500
vt 0.375000 0.562500
vt 0.750000 0.500000
vt 0.820531 0.500000
vt 0.679469 0.500000
vt 0.875000 0.500000
vt 0.500000 0.562500
vt 0.500000 0.125000
vt 0.500000 0.875000
vt 0.500000 0.945531
vt 0.500000 0.750000
vt 0.500000 0.804469
vt 0.500000 0.000000
vt 0.500000 0.625000
vt 0.500000 1.000000
s 0
usemtl Material.017
f 25/17/5 11/18/5 1/19/5 20/20/5
f 30/21/6 24/22/6 9/23/6 28/24/6
f 40/25/7 33/26/7 8/27/7 27/28/7
f 38/29/8 31/30/8 11/18/8 25/17/8
f 35/32/11 37/37/11 26/38/11 12/10/11
f 60/39/12 38/29/12 25/17/12 58/40/12
f 27/28/13 8/27/13 23/41/13 29/42/13
f 59/43/14 57/44/14 24/22/14 30/21/14
f 12/10/15 26/38/15 19/45/15 4/11/15
f 58/40/16 25/17/16 20/20/16 55/46/16
f 54/63/26 17/64/26 38/29/26 60/39/26
f 6/7/27 18/65/27 37/37/27 35/32/27
f 17/64/29 3/66/29 31/30/29 38/29/29
f 28/24/30 9/23/30 36/67/30 39/61/30
f 14/68/32 46/36/32 52/1/32 33/26/32
f 9/23/33 43/8/33 51/31/33 36/67/33
f 57/44/20 61/53/20 50/5/20 24/22/20
f 8/27/34 42/4/34 49/52/34 23/41/34
f 56/69/35 62/49/35 48/13/35 22/70/35
f 10/71/36 44/12/36 47/48/36 21/72/36
f 7/73/37 41/33/37 46/36/37 14/68/37
f 36/67/38 51/31/38 45/9/38 13/74/38
f 22/70/39 48/13/39 41/16/39 7/75/39
f 13/74/40 45/9/40 44/12/40 10/71/40
f 24/22/41 50/5/41 43/8/41 9/23/41
f 33/26/42 52/1/42 42/4/42 8/27/42
f 21/72/43 47/48/43 62/49/43 56/69/43
f 23/41/20 49/52/20 61/53/20 57/44/20
f 18/65/26 54/63/26 60/39/26 37/37/26
f 26/38/16 58/40/16 55/46/16 19/45/16
f 29/42/14 23/41/14 57/44/14 59/43/14
f 37/37/12 60/39/12 58/40/12 26/38/12
usemtl Material.018
f 52/1/1 31/2/1 3/3/1 42/4/1
f 50/5/2 18/6/2 6/7/2 43/8/2
f 45/9/3 12/10/3 4/11/3 44/12/3
f 48/13/4 20/14/4 1/15/4 41/16/4
f 51/31/9 35/32/9 12/10/9 45/9/9
f 41/33/10 1/34/10 11/35/10 46/36/10
f 44/12/17 4/11/17 19/47/17 47/48/17
f 62/49/18 55/50/18 20/14/18 48/13/18
f 42/4/19 3/3/19 17/51/19 49/52/19
f 61/53/20 54/54/20 18/6/20 50/5/20
f 53/55/21 59/43/21 30/21/21 15/56/21
f 2/57/22 27/28/22 29/42/22 16/58/22
f 34/59/23 40/25/23 27/28/23 2/57/23
f 15/56/24 30/21/24 28/24/24 5/60/24
f 5/60/25 28/24/25 39/61/25 32/62/25
f 43/8/28 6/7/28 35/32/28 51/31/28
f 46/36/31 11/35/31 31/2/31 52/1/31
f 16/58/21 29/42/21 59/43/21 53/55/21
f 49/52/20 17/51/20 54/54/20 61/53/20
f 47/48/44 19/47/44 55/50/44 62/49/44
