# Blender 4.5.3 LTS
# www.blender.org
mtllib hood.mtl
o hood
v -0.000000 -0.066023 -0.102240
v -0.000000 0.047063 0.063523
v 0.029147 -0.072096 -0.096730
v 0.046863 0.023886 0.063745
v 0.037309 -0.075600 -0.087573
v 0.064870 -0.000937 0.050510
v 0.031556 -0.061001 -0.057546
v 0.046664 -0.044954 0.051221
v -0.000000 -0.050094 0.051272
v -0.031556 -0.061001 -0.057546
v -0.046664 -0.044954 0.051221
v -0.037309 -0.075600 -0.087573
v -0.064870 -0.000937 0.050510
v -0.029147 -0.072096 -0.096730
v -0.046863 0.023886 0.063745
v -0.000000 0.085833 -0.014819
v -0.000000 0.079798 0.008880
v -0.000000 0.076048 0.025120
v 0.051851 0.057413 0.025120
v 0.051851 0.061163 0.008880
v 0.051851 0.067197 -0.014819
v 0.073328 -0.000000 0.025120
v 0.073328 0.000000 0.008880
v 0.073328 0.000000 -0.014819
v 0.051851 -0.051851 0.025120
v 0.051851 -0.051851 0.008880
v 0.051851 -0.051851 -0.014819
v -0.051851 -0.051851 0.025120
v -0.051851 -0.051851 0.008880
v -0.051851 -0.051851 -0.014819
v -0.073328 -0.000000 0.025120
v -0.073328 0.000000 0.008880
v -0.073328 0.000000 -0.014819
v -0.051851 0.057413 0.025120
v -0.051851 0.061163 0.008880
v -0.051851 0.067197 -0.014819
v 0.051851 0.038231 0.059179
v -0.000000 0.063853 0.059179
v 0.073328 -0.000000 0.050595
v 0.051851 -0.051851 0.050595
v -0.000000 -0.057557 0.050595
v -0.051851 -0.051851 0.050595
v -0.073328 -0.000000 0.050595
v -0.051851 0.038231 0.059179
v -0.000000 0.074111 -0.041004
v 0.051851 0.052634 -0.041004
v 0.073328 0.000000 -0.041004
v 0.051851 -0.056626 -0.041004
v -0.051851 -0.056626 -0.041004
v -0.073328 0.000000 -0.041004
v -0.051851 0.052634 -0.041004
v -0.000000 0.040023 -0.063715
v 0.039093 0.023830 -0.063715
v 0.053088 -0.014797 -0.063715
v 0.040447 -0.055410 -0.049506
v -0.040447 -0.055410 -0.049506
v -0.053088 -0.014797 -0.063715
v -0.039093 0.023830 -0.063715
vn 0.3614 0.8469 0.3901
vn 0.9090 0.3968 0.1278
vn 0.9239 -0.3827 -0.0000
vn -0.9239 -0.3827 -0.0000
vn -0.9090 0.3968 0.1278
vn -0.3614 0.8469 0.3901
vn -0.3267 0.8447 -0.4240
vn -0.3289 0.9152 0.2330
vn -0.3305 0.9196 0.2124
vn -0.9372 0.3360 -0.0934
vn -0.9475 0.3171 0.0404
vn -0.9395 0.3403 0.0393
vn -0.9292 -0.3680 0.0336
vn 0.9292 -0.3680 0.0336
vn 0.9372 0.3360 -0.0934
vn 0.9475 0.3171 0.0404
vn 0.9395 0.3403 0.0393
vn 0.3267 0.8447 -0.4240
vn 0.3289 0.9152 0.2330
vn 0.3305 0.9196 0.2124
vn 0.1237 0.2547 0.9591
vn 0.3897 -0.0737 0.9180
vn 0.0363 -0.0076 0.9993
vn 0.0101 -0.0868 0.9962
vn -0.0101 -0.0868 0.9962
vn -0.0363 -0.0076 0.9993
vn -0.3897 -0.0737 0.9180
vn -0.1237 0.2547 0.9591
vn 0.2238 0.5404 -0.8111
vn 0.6509 0.2530 -0.7157
vn 0.7302 -0.3426 -0.5912
vn -0.7302 -0.3426 -0.5912
vn -0.6509 0.2530 -0.7157
vn -0.2238 0.5404 -0.8111
vn 0.1797 0.3206 -0.9300
vn 0.6343 0.1696 -0.7543
vn 0.9046 -0.4030 0.1392
vn -0.9046 -0.4030 0.1392
vn -0.6343 0.1696 -0.7543
vn -0.1797 0.3206 -0.9300
vt 1.000000 0.875000
vt 1.000000 1.000000
vt 0.875000 1.000000
vt 0.875000 0.875000
vt 0.750000 1.000000
vt 0.750000 0.875000
vt 0.625000 1.000000
vt 0.625000 0.875000
vt 0.375000 0.875000
vt 0.375000 1.000000
vt 0.250000 1.000000
vt 0.250000 0.875000
vt 0.125000 1.000000
vt 0.125000 0.875000
vt 0.000000 1.000000
vt 0.000000 0.875000
vt 0.125000 0.500000
vt 0.125000 0.625000
vt 0.000000 0.625000
vt 0.000000 0.500000
vt 0.125000 0.750000
vt 0.000000 0.750000
vt 0.250000 0.500000
vt 0.250000 0.625000
vt 0.250000 0.750000
vt 0.375000 0.500000
vt 0.375000 0.625000
vt 0.375000 0.750000
vt 0.750000 0.500000
vt 0.750000 0.625000
vt 0.625000 0.625000
vt 0.625000 0.500000
vt 0.750000 0.750000
vt 0.625000 0.750000
vt 0.875000 0.500000
vt 0.875000 0.625000
vt 0.875000 0.750000
vt 1.000000 0.500000
vt 1.000000 0.625000
vt 1.000000 0.750000
vt 0.250000 0.460850
vt 0.403381 0.387399
vt 0.419706 0.419706
vt 0.250000 0.490000
vt 0.462317 0.255041
vt 0.490000 0.250000
vt 0.402729 0.101332
vt 0.419706 0.080294
vt 0.250000 0.049702
vt 0.250000 0.010000
vt 0.097271 0.101332
vt 0.080294 0.080294
vt 0.037683 0.255041
vt 0.010000 0.250000
vt 0.096619 0.387400
vt 0.080294 0.419706
vt 0.877950 0.356186
vt 0.750000 0.415549
vt 0.750000 0.490000
vt 0.919706 0.419706
vt 0.923755 0.247588
vt 0.990000 0.250000
vt 0.882381 0.143065
vt 0.919706 0.080294
vt 0.576245 0.247588
vt 0.617619 0.143065
vt 0.580294 0.080294
vt 0.510000 0.250000
vt 0.622050 0.356186
vt 0.580294 0.419706
vt 0.845397 0.307945
vt 0.750000 0.354915
vt 0.872110 0.244446
vt 0.853282 0.196243
vt 0.627890 0.244446
vt 0.646718 0.196243
vt 0.654603 0.307945
s 0
f 18/1/1 38/2/1 37/3/1 19/4/1
f 19/4/2 37/3/2 39/5/2 22/6/2
f 22/6/3 39/5/3 40/7/3 25/8/3
f 28/9/4 42/10/4 43/11/4 31/12/4
f 31/12/5 43/11/5 44/13/5 34/14/5
f 34/14/6 44/13/6 38/15/6 18/16/6
f 51/17/7 36/18/7 16/19/7 45/20/7
f 36/18/8 35/21/8 17/22/8 16/19/8
f 35/21/9 34/14/9 18/16/9 17/22/9
f 50/23/10 33/24/10 36/18/10 51/17/10
f 33/24/11 32/25/11 35/21/11 36/18/11
f 32/25/12 31/12/12 34/14/12 35/21/12
f 49/26/13 30/27/13 33/24/13 50/23/13
f 30/27/4 29/28/4 32/25/4 33/24/4
f 29/28/4 28/9/4 31/12/4 32/25/4
f 47/29/14 24/30/14 27/31/14 48/32/14
f 24/30/3 23/33/3 26/34/3 27/31/3
f 23/33/3 22/6/3 25/8/3 26/34/3
f 46/35/15 21/36/15 24/30/15 47/29/15
f 21/36/16 20/37/16 23/33/16 24/30/16
f 20/37/17 19/4/17 22/6/17 23/33/17
f 45/38/18 16/39/18 21/36/18 46/35/18
f 16/39/19 17/40/19 20/37/19 21/36/19
f 17/40/20 18/1/20 19/4/20 20/37/20
f 2/41/21 4/42/21 37/43/21 38/44/21
f 4/42/22 6/45/22 39/46/22 37/43/22
f 6/45/23 8/47/23 40/48/23 39/46/23
f 8/47/24 9/49/24 41/50/24 40/48/24
f 9/49/25 11/51/25 42/52/25 41/50/25
f 11/51/26 13/53/26 43/54/26 42/52/26
f 13/53/27 15/55/27 44/56/27 43/54/27
f 15/55/28 2/41/28 38/44/28 44/56/28
f 53/57/29 52/58/29 45/59/29 46/60/29
f 54/61/30 53/57/30 46/60/30 47/62/30
f 55/63/31 54/61/31 47/62/31 48/64/31
f 57/65/32 56/66/32 49/67/32 50/68/32
f 58/69/33 57/65/33 50/68/33 51/70/33
f 52/58/34 58/69/34 51/70/34 45/59/34
f 3/71/35 1/72/35 52/58/35 53/57/35
f 5/73/36 3/71/36 53/57/36 54/61/36
f 7/74/37 5/73/37 54/61/37 55/63/37
f 12/75/38 10/76/38 56/66/38 57/65/38
f 14/77/39 12/75/39 57/65/39 58/69/39
f 1/72/40 14/77/40 58/69/40 52/58/40
