# Blender 4.5.3 LTS
# www.blender.org
mtllib shield_round.mtl
o Cylinder
v -0.000000 0.134651 -0.018706
v -0.000000 0.112186 0.018706
v 0.095213 0.095213 -0.018706
v 0.079328 0.079328 0.018706
v 0.134651 0.000000 -0.018706
v 0.112186 -0.000000 0.018706
v 0.095213 -0.095213 -0.018706
v 0.079328 -0.079328 0.018706
v -0.000000 -0.134651 -0.018706
v -0.000000 -0.112186 0.018706
v -0.095213 -0.095213 -0.018706
v -0.079328 -0.079328 0.018706
v -0.134651 0.000000 -0.018706
v -0.112186 -0.000000 0.018706
v -0.095213 0.095213 -0.018706
v -0.079328 0.079328 0.018706
v 0.095213 0.095213 0.018706
v -0.000000 0.134651 0.018706
v 0.134651 0.000000 0.018706
v 0.095213 -0.095213 0.018706
v -0.000000 -0.134651 0.018706
v -0.095213 -0.095213 0.018706
v -0.134651 0.000000 0.018706
v -0.095213 0.095213 0.018706
vn 0.3827 0.9239 -0.0000
vn 0.9239 0.3827 -0.0000
vn 0.9239 -0.3827 -0.0000
vn 0.3827 -0.9239 -0.0000
vn -0.3827 -0.9239 -0.0000
vn -0.9239 -0.3827 -0.0000
vn -0.0000 -0.0000 1.0000
vn -0.9239 0.3827 -0.0000
vn -0.3827 0.9239 -0.0000
vn -0.0000 -0.0000 -1.0000
vt 1.000000 0.500000
vt 1.000000 1.000000
vt 0.875000 1.000000
vt 0.875000 0.500000
vt 0.750000 1.000000
vt 0.750000 0.500000
vt 0.625000 1.000000
vt 0.625000 0.500000
vt 0.500000 1.000000
vt 0.500000 0.500000
vt 0.375000 1.000000
vt 0.375000 0.500000
vt 0.250000 1.000000
vt 0.250000 0.500000
vt 0.391392 0.391392
vt 0.250000 0.449959
vt 0.108608 0.391392
vt 0.050041 0.250000
vt 0.108608 0.108608
vt 0.250000 0.050041
vt 0.391392 0.108608
vt 0.449959 0.250000
vt 0.125000 1.000000
vt 0.125000 0.500000
vt 0.000000 1.000000
vt 0.000000 0.500000
vt 0.750000 0.490000
vt 0.919706 0.419706
vt 0.990000 0.250000
vt 0.919706 0.080294
vt 0.750000 0.010000
vt 0.580294 0.080294
vt 0.510000 0.250000
vt 0.580294 0.419706
vt 0.419706 0.419706
vt 0.250000 0.490000
vt 0.490000 0.250000
vt 0.419706 0.080294
vt 0.250000 0.010000
vt 0.080294 0.080294
vt 0.010000 0.250000
vt 0.080294 0.419706
s 0
usemtl Material.020
f 4/15/7 2/16/7 16/17/7 14/18/7 12/19/7 10/20/7 8/21/7 6/22/7
usemtl Material.021
f 1/1/1 18/2/1 17/3/1 3/4/1
f 3/4/2 17/3/2 19/5/2 5/6/2
f 5/6/3 19/5/3 20/7/3 7/8/3
f 7/8/4 20/7/4 21/9/4 9/10/4
f 9/10/5 21/9/5 22/11/5 11/12/5
f 11/12/6 22/11/6 23/13/6 13/14/6
f 13/14/8 23/13/8 24/23/8 15/24/8
f 15/24/9 24/23/9 18/25/9 1/26/9
f 1/27/10 3/28/10 5/29/10 7/30/10 9/31/10 11/32/10 13/33/10 15/34/10
f 2/16/7 4/15/7 17/35/7 18/36/7
f 4/15/7 6/22/7 19/37/7 17/35/7
f 6/22/7 8/21/7 20/38/7 19/37/7
f 8/21/7 10/20/7 21/39/7 20/38/7
f 10/20/7 12/19/7 22/40/7 21/39/7
f 12/19/7 14/18/7 23/41/7 22/40/7
f 14/18/7 16/17/7 24/42/7 23/41/7
f 16/17/7 2/16/7 18/36/7 24/42/7
