# Blender 4.5.3 LTS
# www.blender.org
mtllib shield_cross.mtl
o shield_cross
v -0.069701 -0.116004 0.002713
v -0.093729 0.116004 0.004371
v -0.069701 -0.116004 -0.006293
v -0.093729 0.116004 -0.008463
v 0.069701 -0.116004 0.002713
v 0.093729 0.116004 0.004371
v 0.069701 -0.116004 -0.006293
v 0.093729 0.116004 -0.008463
v -0.097013 -0.032753 0.008760
v -0.097013 0.039606 0.008760
v -0.097013 0.039606 -0.008760
v -0.097013 -0.032753 -0.008760
v 0.097013 0.039606 -0.008760
v 0.097013 -0.032753 -0.008760
v 0.097013 0.039606 0.008760
v 0.097013 -0.032753 0.008760
v -0.097013 -0.003905 0.008760
v -0.097013 -0.003905 -0.008760
v 0.097013 -0.003905 -0.008760
v 0.097013 -0.003905 0.008760
v 0.000000 -0.116004 -0.006293
v 0.000000 0.116004 -0.008463
v 0.000000 -0.116004 0.002713
v 0.000000 0.116004 0.004371
v 0.000000 -0.032753 0.022936
v 0.000000 0.039606 0.022936
v 0.000000 -0.032753 -0.008760
v 0.000000 0.039606 -0.008760
v 0.000000 -0.003905 -0.008760
v 0.000000 -0.003905 0.031282
v -0.058929 -0.116004 -0.006293
v -0.079243 0.116004 0.004371
v -0.082020 -0.032753 0.010951
v -0.082020 0.039606 0.010951
v -0.082020 -0.003905 0.012398
v -0.079243 0.116004 -0.008463
v -0.058929 -0.116004 0.002713
v -0.082020 -0.032753 -0.008760
v -0.082020 0.039606 -0.008760
v -0.082020 -0.003905 -0.008760
v 0.078817 0.116004 -0.008463
v 0.058612 -0.116004 0.002713
v 0.081580 -0.032753 -0.008760
v 0.081580 0.039606 -0.008760
v 0.081580 -0.003905 -0.008760
v 0.058612 -0.116004 -0.006293
v 0.078817 0.116004 0.004371
v 0.081580 -0.032753 0.011015
v 0.081580 0.039606 0.011015
v 0.081580 -0.003905 0.012505
v -0.074910 -0.100127 -0.006764
v 0.074910 -0.100127 -0.006764
v 0.074910 -0.100127 0.006764
v -0.074910 -0.100127 0.006764
v 0.000000 -0.100127 -0.006764
v 0.000000 -0.100127 0.009468
v -0.063333 -0.100127 -0.006764
v -0.059982 -0.094778 0.007234
v 0.059639 -0.094778 0.007245
v 0.062993 -0.100127 -0.006764
v -0.094608 0.101439 0.008542
v -0.094608 0.101439 -0.008542
v 0.094608 0.101439 -0.008542
v 0.094608 0.101439 0.008542
v 0.000000 0.101439 0.012338
v 0.000000 0.101439 -0.008542
v -0.079987 0.101439 -0.008542
v -0.075752 0.096090 0.009078
v 0.075324 0.096090 0.009094
v 0.079557 0.101439 -0.008542
v 0.029306 -0.116004 -0.006293
v 0.027623 0.116004 0.004371
v 0.026055 -0.032753 0.016976
v 0.026055 0.039606 0.016976
v 0.026055 -0.003905 0.021894
v 0.039409 0.116004 -0.008463
v 0.029306 -0.116004 0.002713
v 0.040790 -0.032753 -0.008760
v 0.040790 0.039606 -0.008760
v 0.040790 -0.003905 -0.008760
v 0.031496 -0.100127 -0.006764
v 0.027227 -0.097452 0.008356
v 0.039778 0.101439 -0.008542
v 0.026398 0.098765 0.010716
v -0.039622 0.116004 -0.008463
v -0.029465 -0.116004 0.002713
v -0.041010 -0.032753 -0.008760
v -0.041010 0.039606 -0.008760
v -0.041010 -0.003905 -0.008760
v -0.029465 -0.116004 -0.006293
v -0.027836 0.116004 0.004371
v -0.026276 -0.032753 0.016943
v -0.026276 0.039606 0.016943
v -0.026276 -0.003905 0.021840
v -0.027399 -0.097452 0.008351
v -0.031667 -0.100127 -0.006764
v -0.026611 0.098765 0.010708
v -0.039993 0.101439 -0.008542
vn -0.9982 0.0603 -0.0000
vn -0.0000 0.0055 -1.0000
vn 0.9982 0.0603 -0.0000
vn 0.0247 0.2510 0.9677
vn -0.0000 -1.0000 -0.0000
vn -0.0000 1.0000 -0.0000
vn -0.0760 -0.0698 0.9947
vn -0.1908 0.0163 0.9815
vn 0.9502 -0.3117 -0.0000
vn 1.0000 -0.0000 -0.0000
vn -0.0000 -0.0296 -0.9996
vn -0.0000 -0.0000 -1.0000
vn -0.9502 -0.3117 -0.0000
vn -1.0000 -0.0000 -0.0000
vn -0.1908 -0.0246 0.9813
vn 0.2759 -0.2153 0.9367
vn 0.2796 0.1447 0.9492
vn 0.1378 -0.1622 0.9771
vn 0.0476 0.4084 0.9116
vn -0.1363 -0.1083 0.9847
vn -0.1368 0.0720 0.9880
vn -0.0831 -0.1099 0.9905
vn -0.0231 0.2821 0.9591
vn -0.0237 0.2514 0.9676
vn 0.0764 -0.0703 0.9946
vn 0.1908 0.0168 0.9815
vn 0.1908 -0.0253 0.9813
vn -0.0270 -0.2210 0.9749
vn -0.0281 -0.2467 0.9687
vn 0.0344 -0.3368 0.9410
vn 0.0281 -0.2205 0.9750
vn -0.0000 0.0035 -1.0000
vn 0.0769 0.0236 0.9968
vn -0.0742 0.0735 0.9945
vn 0.1485 0.1361 0.9795
vn -0.0766 0.0232 0.9968
vn 0.9992 0.0389 -0.0000
vn -0.9992 0.0389 -0.0000
vn 0.0741 0.0741 0.9945
vn 0.0281 -0.2470 0.9686
vn 0.0231 0.2827 0.9589
vn 0.0830 -0.1104 0.9904
vn 0.1366 0.0728 0.9880
vn 0.1361 -0.1094 0.9846
vn -0.1481 0.1359 0.9796
vn -0.0343 -0.3366 0.9410
vn -0.0473 0.4082 0.9117
vn -0.1375 -0.1621 0.9772
vn -0.2788 0.1445 0.9494
vn -0.2752 -0.2151 0.9370
vt 0.609305 0.000679
vt 0.625000 0.000000
vt 0.625000 0.250000
vt 0.609306 0.249689
vt 0.609305 0.480114
vt 0.625000 0.480114
vt 0.625000 0.500000
vt 0.609306 0.500311
vt 0.625000 0.750000
vt 0.609302 0.749703
vt 0.609306 0.980682
vt 0.625000 0.980682
vt 0.625000 1.000000
vt 0.609299 0.999917
vt 0.355114 0.500000
vt 0.375000 0.500000
vt 0.375000 0.750000
vt 0.355114 0.750000
vt 0.855682 0.500000
vt 0.875000 0.500000
vt 0.875000 0.750000
vt 0.855682 0.750000
vt 0.386181 0.980682
vt 0.433622 0.980682
vt 0.433622 1.000000
vt 0.386181 1.000000
vt 0.500000 0.980682
vt 0.566378 0.980682
vt 0.566378 1.000000
vt 0.500000 1.000000
vt 0.386181 0.500000
vt 0.433622 0.500000
vt 0.433622 0.750000
vt 0.386181 0.750000
vt 0.500000 0.500000
vt 0.566378 0.500000
vt 0.566378 0.750000
vt 0.500000 0.750000
vt 0.386181 0.480114
vt 0.433622 0.480114
vt 0.500000 0.480114
vt 0.566378 0.480114
vt 0.386181 0.000000
vt 0.433622 0.000000
vt 0.433622 0.250000
vt 0.386181 0.250000
vt 0.500000 0.000000
vt 0.566378 0.000000
vt 0.566378 0.250000
vt 0.500000 0.250000
vt 0.433622 0.822443
vt 0.500000 0.822443
vt 0.500000 0.875000
vt 0.433622 0.875000
vt 0.433622 0.322159
vt 0.500000 0.322159
vt 0.500000 0.375000
vt 0.433622 0.375000
vt 0.566378 0.322159
vt 0.566378 0.375000
vt 0.386181 0.322159
vt 0.386181 0.375000
vt 0.566378 0.822443
vt 0.566378 0.875000
vt 0.386181 0.822443
vt 0.386181 0.875000
vt 0.697443 0.500000
vt 0.750000 0.500000
vt 0.750000 0.750000
vt 0.697443 0.750000
vt 0.197159 0.500000
vt 0.250000 0.500000
vt 0.250000 0.750000
vt 0.197159 0.750000
vt 0.609306 0.822443
vt 0.625000 0.822443
vt 0.625000 0.875000
vt 0.609305 0.875000
vt 0.609306 0.322159
vt 0.625000 0.322159
vt 0.625000 0.375000
vt 0.609306 0.375000
vt 0.625000 0.269318
vt 0.609306 0.269318
vt 0.125000 0.500000
vt 0.144318 0.500000
vt 0.144318 0.750000
vt 0.125000 0.750000
vt 0.433622 0.269318
vt 0.386181 0.269318
vt 0.566378 0.269318
vt 0.500000 0.269318
vt 0.433622 0.927841
vt 0.500000 0.927841
vt 0.566378 0.927841
vt 0.386181 0.927841
vt 0.802841 0.500000
vt 0.802841 0.750000
vt 0.609305 0.927841
vt 0.625000 0.927841
vt 0.625000 0.769886
vt 0.609306 0.769886
vt 0.644886 0.500000
vt 0.644886 0.750000
vt 0.433622 0.769886
vt 0.386181 0.769886
vt 0.566378 0.769886
vt 0.500000 0.769886
vt 0.433622 0.427557
vt 0.500000 0.427557
vt 0.566378 0.427557
vt 0.386181 0.427557
vt 0.302557 0.500000
vt 0.302557 0.750000
vt 0.609305 0.427557
vt 0.625000 0.427557
vt 0.375000 0.427557
vt 0.375000 0.480114
vt 0.375000 0.769886
vt 0.375000 0.927841
vt 0.375000 0.980682
vt 0.375000 0.250000
vt 0.375000 0.269318
vt 0.375000 0.822443
vt 0.375000 0.875000
vt 0.375000 0.322159
vt 0.375000 0.375000
vt 0.375000 0.000000
vt 0.375000 1.000000
s 0
usemtl Material.012
f 70/5/2 41/6/2 8/7/2 63/8/2
f 60/39/11 43/40/11 14/32/11 52/31/11
f 45/41/12 44/42/12 13/36/12 19/35/12
f 43/40/12 45/41/12 19/35/12 14/32/12
f 87/55/12 89/56/12 29/57/12 27/58/12
f 89/56/12 88/59/12 28/60/12 29/57/12
f 96/61/11 87/55/11 27/58/11 55/62/11
f 98/79/2 85/80/2 22/81/2 66/82/2
f 62/4/2 4/3/2 36/83/2 67/84/2
f 51/46/11 12/45/11 38/89/11 57/90/11
f 18/50/12 11/49/12 39/91/12 40/92/12
f 12/45/12 18/50/12 40/92/12 38/89/12
f 92/93/20 94/94/20 35/27/20 33/24/20
f 95/96/22 92/93/22 33/24/22 58/23/22
f 78/109/12 80/110/12 45/41/12 43/40/12
f 80/110/12 79/111/12 44/42/12 45/41/12
f 81/112/11 78/109/11 43/40/11 60/39/11
f 83/115/2 76/116/2 41/6/2 70/5/2
f 71/117/11 81/112/11 60/39/11 46/118/11
f 3/122/11 51/46/11 57/90/11 31/123/11
f 90/126/11 96/61/11 55/62/11 21/127/11
f 46/118/11 60/39/11 52/31/11 7/16/11
f 79/111/32 83/115/32 70/5/32 44/42/32
f 93/95/34 97/99/34 68/11/34 34/28/34
f 11/49/32 62/4/32 67/84/32 39/91/32
f 88/59/32 98/79/32 66/82/32 28/60/32
f 44/42/32 70/5/32 63/8/32 13/36/32
f 49/107/39 69/102/39 84/75/39 74/63/39
f 28/60/32 66/82/32 83/115/32 79/111/32
f 21/127/11 55/62/11 81/112/11 71/117/11
f 66/82/2 22/81/2 76/116/2 83/115/2
f 55/62/11 27/58/11 78/109/11 81/112/11
f 29/57/12 28/60/12 79/111/12 80/110/12
f 27/58/12 29/57/12 80/110/12 78/109/12
f 59/106/42 48/105/42 73/51/42 82/65/42
f 48/105/44 50/108/44 75/52/44 73/51/44
f 39/91/32 67/84/32 98/79/32 88/59/32
f 31/123/11 57/90/11 96/61/11 90/126/11
f 67/84/2 36/83/2 85/80/2 98/79/2
f 57/90/11 38/89/11 87/55/11 96/61/11
f 40/92/12 39/91/12 88/59/12 89/56/12
f 38/89/12 40/92/12 89/56/12 87/55/12
usemtl Material.013
f 61/1/1 2/2/1 4/3/1 62/4/1
f 63/8/3 8/7/3 6/9/3 64/10/3
f 68/11/4 32/12/4 2/13/4 61/14/4
f 46/15/5 7/16/5 5/17/5 42/18/5
f 36/19/6 4/20/6 2/21/6 32/22/6
f 58/23/7 33/24/7 9/25/7 54/26/7
f 35/27/8 34/28/8 10/29/8 17/30/8
f 52/31/9 14/32/9 16/33/9 53/34/9
f 19/35/10 13/36/10 15/37/10 20/38/10
f 54/43/13 9/44/13 12/45/13 51/46/13
f 17/47/14 10/48/14 11/49/14 18/50/14
f 9/44/14 17/47/14 18/50/14 12/45/14
f 14/32/10 19/35/10 20/38/10 16/33/10
f 33/24/15 35/27/15 17/30/15 9/25/15
f 76/67/6 22/68/6 24/69/6 72/70/6
f 90/71/5 21/72/5 23/73/5 86/74/5
f 84/75/19 72/76/19 24/77/19 65/78/19
f 3/85/5 31/86/5 37/87/5 1/88/5
f 85/97/6 36/19/6 32/22/6 91/98/6
f 97/99/23 91/100/23 32/12/23 68/11/23
f 64/10/24 6/9/24 47/101/24 69/102/24
f 8/7/6 41/103/6 47/104/6 6/9/6
f 53/34/25 16/33/25 48/105/25 59/106/25
f 20/38/26 15/37/26 49/107/26 50/108/26
f 16/33/27 20/38/27 50/108/27 48/105/27
f 71/113/5 46/15/5 42/18/5 77/114/5
f 5/17/28 53/34/28 59/106/28 42/119/28
f 86/120/29 95/96/29 58/23/29 37/121/29
f 77/124/30 82/65/30 56/66/30 23/125/30
f 1/128/13 54/43/13 51/46/13 3/122/13
f 7/16/9 52/31/9 53/34/9 5/17/9
f 37/121/31 58/23/31 54/26/31 1/129/31
f 15/37/33 64/10/33 69/102/33 49/107/33
f 34/28/36 68/11/36 61/14/36 10/29/36
f 13/36/37 63/8/37 64/10/37 15/37/37
f 10/48/38 61/1/38 62/4/38 11/49/38
f 42/119/40 59/106/40 82/65/40 77/124/40
f 21/72/5 71/113/5 77/114/5 23/73/5
f 69/102/41 47/101/41 72/76/41 84/75/41
f 41/103/6 76/67/6 72/70/6 47/104/6
f 23/125/46 56/66/46 95/96/46 86/120/46
f 65/78/47 24/77/47 91/100/47 97/99/47
f 22/68/6 85/97/6 91/98/6 24/69/6
f 31/86/5 90/71/5 86/74/5 37/87/5
usemtl Material.062
f 73/51/16 75/52/16 30/53/16 25/54/16
f 75/52/17 74/63/17 26/64/17 30/53/17
f 82/65/18 73/51/18 25/54/18 56/66/18
f 94/94/21 93/95/21 34/28/21 35/27/21
f 74/63/35 84/75/35 65/78/35 26/64/35
f 50/108/43 49/107/43 74/63/43 75/52/43
f 26/64/45 65/78/45 97/99/45 93/95/45
f 56/66/48 25/54/48 92/93/48 95/96/48
f 30/53/49 26/64/49 93/95/49 94/94/49
f 25/54/50 30/53/50 94/94/50 92/93/50
