# Blender 4.5.3 LTS
# www.blender.org
mtllib shield_kite_cross.mtl
g shield_kite_cross_Cube.054
v -0.000063 -0.116004 0.002713
v -0.085448 0.115746 0.003845
v -0.000063 -0.116004 -0.003310
v -0.085448 0.115746 -0.007854
v 0.085433 0.115746 0.003845
v 0.085433 0.115746 -0.007854
v -0.071675 -0.019548 0.007001
v -0.097013 0.061601 0.008760
v -0.097013 0.061601 -0.008760
v -0.071675 -0.019548 -0.005939
v 0.097013 0.061601 -0.008760
v 0.071630 -0.019548 -0.005939
v 0.097013 0.061601 0.008760
v 0.071630 -0.019548 0.007001
v -0.094817 0.020690 0.008667
v -0.094817 0.020690 -0.008455
v 0.094813 0.020690 -0.008455
v 0.094813 0.020690 0.008667
v -0.000008 0.115746 -0.007854
v -0.000008 0.115746 0.003845
v -0.000020 -0.019548 0.021936
v 0.000000 0.061601 0.022936
v -0.000023 -0.019548 -0.005939
v 0.000000 0.061601 -0.008760
v -0.000002 0.020690 -0.008455
v -0.000002 0.020690 0.030679
v -0.072244 0.115746 0.003845
v -0.060602 -0.019548 0.008619
v -0.082020 0.061601 0.010951
v -0.080164 0.020690 0.012223
v -0.072244 0.115746 -0.007854
v -0.060602 -0.019548 -0.005939
v -0.082020 0.061601 -0.008760
v -0.080164 0.020690 -0.008455
v 0.071840 0.115746 -0.007854
v 0.060231 -0.019548 -0.005939
v 0.081580 0.061601 -0.008760
v 0.079729 0.020690 -0.008455
v 0.071840 0.115746 0.003845
v 0.060231 -0.019548 0.008667
v 0.081580 0.061601 0.011015
v 0.079729 0.020690 0.012328
v -0.038917 -0.068922 -0.003335
v 0.038852 -0.068922 -0.003335
v 0.038852 -0.068922 0.003687
v -0.038917 -0.068922 0.003687
v -0.000033 -0.068922 -0.003335
v -0.000033 -0.095315 0.007370
v -0.032908 -0.068922 -0.003335
v -0.031168 -0.066146 0.003931
v 0.030925 -0.066146 0.003937
v 0.032666 -0.068922 -0.003335
v -0.091488 0.101662 0.008235
v -0.091488 0.101662 -0.008286
v 0.091482 0.101662 -0.008286
v 0.091482 0.101662 0.008235
v -0.000003 0.101662 0.011905
v -0.000003 0.101662 -0.008286
v -0.077349 0.101662 -0.008286
v -0.073254 0.096490 0.008752
v 0.072835 0.096490 0.008768
v 0.076928 0.101662 -0.008286
v 0.017954 0.115746 0.003845
v 0.016363 -0.019548 0.019735
v 0.020395 0.061601 0.019956
v 0.019931 0.020690 0.026091
v 0.017954 0.115746 -0.007854
v 0.015041 -0.019548 -0.005939
v 0.020395 0.061601 -0.008760
v 0.019931 0.020690 -0.008455
v 0.008142 -0.068922 -0.003335
v 0.012994 -0.088023 0.006512
v 0.019230 0.101662 -0.008286
v 0.018207 0.100369 0.011121
v -0.018067 0.115746 -0.007854
v -0.015167 -0.019548 -0.005939
v -0.020505 0.061601 -0.008760
v -0.020042 0.020690 -0.008455
v -0.018067 0.115746 0.003845
v -0.016492 -0.019548 0.019723
v -0.020505 0.061601 0.019940
v -0.020042 0.020690 0.026065
v -0.013104 -0.088023 0.006510
v -0.008252 -0.068922 -0.003335
v -0.018316 0.100369 0.011117
v -0.019339 0.101662 -0.008286
vn -0.9191 0.3941 -0.0000
vn -0.0000 0.0307 -0.9995
vn 0.9188 0.3946 -0.0000
vn 0.0274 0.2631 0.9644
vn -0.0000 1.0000 -0.0000
vn -0.0781 -0.1330 0.9880
vn -0.1903 0.0047 0.9817
vn 0.8331 -0.5531 -0.0000
vn 0.9986 -0.0537 -0.0000
vn -0.0000 -0.0527 -0.9986
vn -0.0000 -0.0074 -1.0000
vn -0.8333 -0.5528 -0.0000
vn -0.9986 -0.0536 -0.0000
vn -0.8669 -0.4986 -0.0000
vn -0.0000 -0.0624 -0.9981
vn 0.8665 -0.4992 -0.0000
vn -0.1944 -0.1665 0.9667
vn 0.1804 -0.1891 0.9652
vn 0.1820 0.1634 0.9696
vn 0.1482 -0.1904 0.9705
vn 0.0357 0.4616 0.8863
vn -0.2288 -0.1839 0.9560
vn -0.1838 0.0833 0.9794
vn -0.2846 -0.2261 0.9316
vn -0.0322 0.3326 0.9425
vn -0.0264 0.2637 0.9642
vn 0.0787 -0.1337 0.9879
vn 0.1903 0.0052 0.9817
vn 0.1944 -0.1671 0.9666
vn -0.0000 -0.0005 -1.0000
vn 0.0188 -0.0362 0.9992
vn -0.3716 -0.2927 0.8810
vn 0.3748 -0.2942 0.8792
vn -0.7713 -0.6365 -0.0000
vn 0.7708 -0.6371 -0.0000
vn -0.0186 -0.0360 0.9992
vn -0.0000 0.0118 -0.9999
vn 0.0738 0.0509 0.9960
vn -0.1011 0.1619 0.9816
vn 0.1022 0.2458 0.9639
vn -0.0734 0.0502 0.9960
vn 0.9906 0.1368 -0.0000
vn -0.9906 0.1366 -0.0000
vn 0.1012 0.1627 0.9815
vn 0.0323 0.3331 0.9424
vn 0.2857 -0.2264 0.9312
vn 0.1838 0.0840 0.9794
vn 0.2289 -0.1846 0.9558
vn -0.1022 0.2456 0.9640
vn -0.0356 0.4615 0.8864
vn -0.1479 -0.1904 0.9705
vn -0.1820 0.1633 0.9696
vn -0.1805 -0.1889 0.9653
vt 0.609305 0.000679
vt 0.625000 0.000000
vt 0.625000 0.250000
vt 0.609306 0.249689
vt 0.609305 0.480114
vt 0.625000 0.480114
vt 0.625000 0.500000
vt 0.609306 0.500311
vt 0.625000 0.750000
vt 0.609302 0.749703
vt 0.609306 0.980682
vt 0.625000 0.980682
vt 0.625000 1.000000
vt 0.609299 0.999917
vt 0.855682 0.500000
vt 0.875000 0.500000
vt 0.875000 0.750000
vt 0.855682 0.750000
vt 0.386181 0.980682
vt 0.433622 0.980682
vt 0.433622 1.000000
vt 0.386181 1.000000
vt 0.500000 0.980682
vt 0.566378 0.980682
vt 0.566378 1.000000
vt 0.500000 1.000000
vt 0.386181 0.500000
vt 0.433622 0.500000
vt 0.433622 0.750000
vt 0.386181 0.750000
vt 0.500000 0.500000
vt 0.566378 0.500000
vt 0.566378 0.750000
vt 0.500000 0.750000
vt 0.386181 0.480114
vt 0.433622 0.480114
vt 0.500000 0.480114
vt 0.566378 0.480114
vt 0.386181 0.000000
vt 0.433622 0.000000
vt 0.433622 0.250000
vt 0.386181 0.250000
vt 0.500000 0.000000
vt 0.566378 0.000000
vt 0.566378 0.250000
vt 0.500000 0.250000
vt 0.433622 0.848722
vt 0.500000 0.848722
vt 0.500000 0.875000
vt 0.433622 0.875000
vt 0.433622 0.348580
vt 0.500000 0.348580
vt 0.500000 0.375000
vt 0.433622 0.375000
vt 0.566378 0.348580
vt 0.566378 0.375000
vt 0.386181 0.348580
vt 0.386181 0.375000
vt 0.566378 0.848722
vt 0.566378 0.875000
vt 0.386181 0.848722
vt 0.386181 0.875000
vt 0.723722 0.500000
vt 0.750000 0.500000
vt 0.750000 0.750000
vt 0.723722 0.750000
vt 0.609305 0.848721
vt 0.625000 0.848722
vt 0.625000 0.875000
vt 0.609305 0.875000
vt 0.609306 0.348580
vt 0.625000 0.348580
vt 0.625000 0.375000
vt 0.609306 0.375000
vt 0.625000 0.269318
vt 0.609306 0.269318
vt 0.433622 0.269318
vt 0.386181 0.269318
vt 0.566378 0.269318
vt 0.500000 0.269318
vt 0.433622 0.901421
vt 0.500000 0.901420
vt 0.566378 0.901420
vt 0.386181 0.901420
vt 0.776420 0.500000
vt 0.776420 0.750000
vt 0.609306 0.901420
vt 0.625000 0.901420
vt 0.625000 0.769886
vt 0.609306 0.769886
vt 0.644886 0.500000
vt 0.644886 0.750000
vt 0.433622 0.769886
vt 0.386181 0.769886
vt 0.566378 0.769886
vt 0.500000 0.769886
vt 0.433622 0.401278
vt 0.500000 0.401278
vt 0.566378 0.401278
vt 0.386181 0.401278
vt 0.609305 0.401278
vt 0.625000 0.401278
vt 0.375000 0.375000
vt 0.375000 0.750000
vt 0.375000 0.875000
vt 0.375000 0.250000
vt 0.375000 0.769886
vt 0.375000 0.269318
vt 0.375000 0.000000
vt 0.375000 0.480114
vt 0.375000 0.500000
vt 0.375000 0.980682
s 0
usemtl Material.012
f 62/5/2 35/6/2 6/7/2 55/8/2
f 52/35/10 36/36/10 12/28/10 44/27/10
f 38/37/11 37/38/11 11/32/11 17/31/11
f 36/36/15 38/37/15 17/31/15 12/28/15
f 76/51/15 78/52/15 25/53/15 23/54/15
f 78/52/11 77/55/11 24/56/11 25/53/11
f 84/57/10 76/51/10 23/54/10 47/58/10
f 86/71/2 75/72/2 19/73/2 58/74/2
f 54/4/2 4/3/2 31/75/2 59/76/2
f 43/42/10 10/41/10 32/77/10 49/78/10
f 16/46/11 9/45/11 33/79/11 34/80/11
f 10/41/15 16/46/15 34/80/15 32/77/15
f 80/81/22 82/82/22 30/23/22 28/20/22
f 83/84/24 80/81/24 28/20/24 50/19/24
f 68/97/15 70/98/15 38/37/15 36/36/15
f 70/98/11 69/99/11 37/38/11 38/37/11
f 71/100/10 68/97/10 36/36/10 52/35/10
f 73/101/2 67/102/2 35/6/2 62/5/2
f 3/103/30 47/58/30 71/100/30 52/35/30
f 3/106/30 43/42/30 49/78/30
f 3/108/30 49/78/30 84/57/30 47/58/30
f 3/110/30 52/35/30 44/27/30
f 69/99/37 73/101/37 62/5/37 37/38/37
f 81/83/39 85/87/39 60/11/39 29/24/39
f 9/45/37 54/4/37 59/76/37 33/79/37
f 77/55/37 86/71/37 58/74/37 24/56/37
f 37/38/37 62/5/37 55/8/37 11/32/37
f 41/95/44 61/90/44 74/67/44 65/59/44
f 24/56/37 58/74/37 73/101/37 69/99/37
f 58/74/2 19/73/2 67/102/2 73/101/2
f 47/58/10 23/54/10 68/97/10 71/100/10
f 25/53/11 24/56/11 69/99/11 70/98/11
f 23/54/15 25/53/15 70/98/15 68/97/15
f 51/94/46 40/93/46 64/47/46 72/61/46
f 40/93/48 42/96/48 66/48/48 64/47/48
f 33/79/37 59/76/37 86/71/37 77/55/37
f 59/76/2 31/75/2 75/72/2 86/71/2
f 49/78/10 32/77/10 76/51/10 84/57/10
f 34/80/11 33/79/11 77/55/11 78/52/11
f 32/77/15 34/80/15 78/52/15 76/51/15
usemtl Material.013
f 53/1/1 2/2/1 4/3/1 54/4/1
f 55/8/3 6/7/3 5/9/3 56/10/3
f 60/11/4 27/12/4 2/13/4 53/14/4
f 31/15/5 4/16/5 2/17/5 27/18/5
f 50/19/6 28/20/6 7/21/6 46/22/6
f 30/23/7 29/24/7 8/25/7 15/26/7
f 44/27/8 12/28/8 14/29/8 45/30/8
f 17/31/9 11/32/9 13/33/9 18/34/9
f 46/39/12 7/40/12 10/41/12 43/42/12
f 15/43/13 8/44/13 9/45/13 16/46/13
f 7/40/14 15/43/14 16/46/14 10/41/14
f 12/28/16 17/31/16 18/34/16 14/29/16
f 28/20/17 30/23/17 15/26/17 7/21/17
f 67/63/5 19/64/5 20/65/5 63/66/5
f 74/67/21 63/68/21 20/69/21 57/70/21
f 75/85/5 31/15/5 27/18/5 79/86/5
f 85/87/25 79/88/25 27/12/25 60/11/25
f 56/10/26 5/9/26 39/89/26 61/90/26
f 6/7/5 35/91/5 39/92/5 5/9/5
f 45/30/27 14/29/27 40/93/27 51/94/27
f 18/34/28 13/33/28 41/95/28 42/96/28
f 14/29/29 18/34/29 42/96/29 40/93/29
f 1/104/31 45/30/31 51/94/31
f 1/105/32 48/62/32 83/84/32 50/19/32
f 1/107/33 51/94/33 72/61/33 48/62/33
f 1/109/34 46/39/34 43/42/34 3/106/34
f 3/111/35 44/27/35 45/30/35 1/104/35
f 1/112/36 50/19/36 46/22/36
f 13/33/38 56/10/38 61/90/38 41/95/38
f 29/24/41 60/11/41 53/14/41 8/25/41
f 11/32/42 55/8/42 56/10/42 13/33/42
f 8/44/43 53/1/43 54/4/43 9/45/43
f 61/90/45 39/89/45 63/68/45 74/67/45
f 35/91/5 67/63/5 63/66/5 39/92/5
f 57/70/50 20/69/50 79/88/50 85/87/50
f 19/64/5 75/85/5 79/86/5 20/65/5
usemtl Material.066
f 64/47/18 66/48/18 26/49/18 21/50/18
f 66/48/19 65/59/19 22/60/19 26/49/19
f 72/61/20 64/47/20 21/50/20 48/62/20
f 82/82/23 81/83/23 29/24/23 30/23/23
f 65/59/40 74/67/40 57/70/40 22/60/40
f 42/96/47 41/95/47 65/59/47 66/48/47
f 22/60/49 57/70/49 85/87/49 81/83/49
f 48/62/51 21/50/51 80/81/51 83/84/51
f 26/49/52 22/60/52 81/83/52 82/82/52
f 21/50/53 26/49/53 82/82/53 80/81/53
