# Blender 4.5.3 LTS
# www.blender.org
mtllib bow.mtl
o bow
v -0.012268 -0.329769 -0.103651
v -0.012268 0.298845 -0.109140
v -0.012268 -0.309619 -0.123547
v -0.012268 0.275654 -0.125390
v 0.012268 -0.329769 -0.103651
v 0.012268 0.298845 -0.109140
v 0.012268 -0.309619 -0.123547
v 0.012268 0.275654 -0.125390
v -0.012268 -0.248066 -0.038629
v -0.012268 -0.151914 -0.000295
v -0.012268 -0.046441 0.013415
v -0.012268 0.054735 0.013493
v -0.012268 0.163636 0.006734
v -0.012268 0.247809 -0.033810
v -0.012268 0.224716 -0.050199
v -0.012268 0.145433 -0.014959
v -0.012268 0.045050 -0.013117
v -0.012268 -0.043086 -0.014703
v -0.012268 -0.137293 -0.024546
v -0.012268 -0.225596 -0.055862
v 0.012268 0.224716 -0.050199
v 0.012268 0.145433 -0.014959
v 0.012268 0.045050 -0.013117
v 0.012268 -0.043086 -0.014703
v 0.012268 -0.137293 -0.024546
v 0.012268 -0.225596 -0.055862
v 0.012268 0.247809 -0.033810
v 0.012268 0.163636 0.006734
v 0.012268 0.054735 0.013493
v 0.012268 -0.046441 0.013415
v 0.012268 -0.151914 -0.000295
v 0.012268 -0.248066 -0.038629
v -0.009988 -0.317465 -0.123327
v -0.009988 0.288828 -0.123327
v -0.009988 -0.317465 -0.132992
v -0.009988 0.288828 -0.132992
v 0.009988 -0.317465 -0.123327
v 0.009988 0.288828 -0.123327
v 0.009988 -0.317465 -0.132992
v 0.009988 0.288828 -0.132992
vn -1.0000 -0.0000 -0.0000
vn -0.0000 -0.8279 -0.5609
vn 1.0000 -0.0000 -0.0000
vn -0.0000 0.8279 0.5609
vn -0.0000 -0.7026 -0.7116
vn -0.0000 0.5738 -0.8190
vn -0.0000 -0.6227 0.7825
vn -0.0000 -0.3703 0.9289
vn -0.0000 -0.1289 0.9917
vn -0.0000 -0.0008 1.0000
vn -0.0000 0.0619 0.9981
vn -0.0000 0.4340 0.9009
vn -0.0000 0.6273 -0.7788
vn -0.0000 0.3342 -0.9425
vn -0.0000 0.1039 -0.9946
vn -0.0000 0.0180 -0.9998
vn -0.0000 -0.0183 -0.9998
vn -0.0000 -0.4062 -0.9138
vn -0.0000 -0.0000 -1.0000
vn -0.0000 -0.0000 1.0000
vt 0.590457 0.000000
vt 0.625000 0.000000
vt 0.625000 0.250000
vt 0.590457 0.250000
vt 0.625000 0.500000
vt 0.590457 0.500000
vt 0.625000 0.750000
vt 0.590457 0.750000
vt 0.625000 1.000000
vt 0.590457 1.000000
vt 0.125000 0.500000
vt 0.375000 0.500000
vt 0.375000 0.750000
vt 0.125000 0.750000
vt 0.875000 0.500000
vt 0.875000 0.750000
vt 0.411885 0.750000
vt 0.411885 1.000000
vt 0.375000 1.000000
vt 0.447600 0.750000
vt 0.447600 1.000000
vt 0.483314 0.750000
vt 0.483314 1.000000
vt 0.519028 0.750000
vt 0.519028 1.000000
vt 0.554742 0.750000
vt 0.554742 1.000000
vt 0.411885 0.500000
vt 0.447600 0.500000
vt 0.483314 0.500000
vt 0.519028 0.500000
vt 0.554742 0.500000
vt 0.375000 0.250000
vt 0.411885 0.250000
vt 0.447600 0.250000
vt 0.483314 0.250000
vt 0.519028 0.250000
vt 0.554742 0.250000
vt 0.375000 0.000000
vt 0.411885 0.000000
vt 0.447600 0.000000
vt 0.483314 0.000000
vt 0.519028 0.000000
vt 0.554742 0.000000
s 0
usemtl Material
f 14/1/1 2/2/1 4/3/1 15/4/1
f 15/4/2 4/3/2 8/5/2 21/6/2
f 21/6/3 8/5/3 6/7/3 27/8/3
f 27/8/4 6/7/4 2/9/4 14/10/4
f 3/11/5 7/12/5 5/13/5 1/14/5
f 8/5/6 4/15/6 2/16/6 6/7/6
f 5/13/7 32/17/7 9/18/7 1/19/7
f 32/17/8 31/20/8 10/21/8 9/18/8
f 31/20/9 30/22/9 11/23/9 10/21/9
f 30/22/10 29/24/10 12/25/10 11/23/10
f 29/24/11 28/26/11 13/27/11 12/25/11
f 28/26/12 27/8/12 14/10/12 13/27/12
f 7/12/3 26/28/3 32/17/3 5/13/3
f 26/28/3 25/29/3 31/20/3 32/17/3
f 25/29/3 24/30/3 30/22/3 31/20/3
f 24/30/3 23/31/3 29/24/3 30/22/3
f 23/31/3 22/32/3 28/26/3 29/24/3
f 22/32/3 21/6/3 27/8/3 28/26/3
f 3/33/13 20/34/13 26/28/13 7/12/13
f 20/34/14 19/35/14 25/29/14 26/28/14
f 19/35/15 18/36/15 24/30/15 25/29/15
f 18/36/16 17/37/16 23/31/16 24/30/16
f 17/37/17 16/38/17 22/32/17 23/31/17
f 16/38/18 15/4/18 21/6/18 22/32/18
f 1/39/1 9/40/1 20/34/1 3/33/1
f 9/40/1 10/41/1 19/35/1 20/34/1
f 10/41/1 11/42/1 18/36/1 19/35/1
f 11/42/1 12/43/1 17/37/1 18/36/1
f 12/43/1 13/44/1 16/38/1 17/37/1
f 13/44/1 14/1/1 15/4/1 16/38/1
usemtl Material.014
f 33/39/1 34/2/1 36/3/1 35/33/1
f 35/33/19 36/3/19 40/5/19 39/12/19
f 39/12/3 40/5/3 38/7/3 37/13/3
f 37/13/20 38/7/20 34/9/20 33/19/20
