# Blender 4.5.3 LTS
# www.blender.org
mtllib sword.mtl
o sword
v -0.002762 -0.123304 0.011479
v 0.000000 0.123304 0.000000
v -0.002762 -0.123304 -0.011479
v 0.005152 -0.066858 0.021409
v 0.002762 -0.123304 0.011479
v 0.005152 -0.066858 -0.021409
v 0.002762 -0.123304 -0.011479
v -0.005152 -0.066858 -0.021409
v -0.005152 -0.076634 0.021409
v -0.005152 -0.076634 -0.021409
v 0.005152 -0.076634 -0.021409
v 0.005152 -0.076634 0.021409
v -0.003647 0.086956 0.015157
v -0.003647 0.086956 -0.015157
v 0.003647 0.086956 -0.015157
v 0.003647 0.086956 0.015157
v -0.005152 -0.066858 0.021409
v -0.003777 -0.081827 -0.015695
v 0.003777 -0.081827 -0.015695
v 0.003777 -0.081827 0.015695
v -0.003777 -0.081827 0.015695
v -0.003888 -0.127738 -0.016158
v -0.003888 -0.127738 0.016158
v 0.003888 -0.127738 -0.016158
v 0.003888 -0.127738 0.016158
vn -0.9950 0.0998 -0.0000
vn -0.0000 0.3849 -0.9230
vn 0.9950 0.0998 -0.0000
vn -0.0000 0.3849 0.9230
vn 0.9692 0.2462 -0.0000
vn -0.0000 -0.0000 -1.0000
vn -0.0000 -0.7400 0.6726
vn 0.9667 -0.2559 -0.0000
vn -0.0000 -0.7400 -0.6726
vn -0.9667 -0.2559 -0.0000
vn -0.0000 0.0406 0.9992
vn 1.0000 0.0098 -0.0000
vn -0.0000 0.0406 -0.9992
vn -1.0000 0.0098 -0.0000
vn -1.0000 -0.0000 -0.0000
vn 1.0000 -0.0000 -0.0000
vn -0.0000 -0.0000 1.0000
vn -0.9997 -0.0245 -0.0000
vn -0.0000 -0.1011 -0.9949
vn 0.9997 -0.0245 -0.0000
vn -0.0000 -0.1011 0.9949
vn -0.0000 -1.0000 -0.0000
vn -0.0000 0.7259 0.6878
vn -0.0000 0.7259 -0.6878
vn -0.9692 0.2462 -0.0000
vt 0.588152 0.000000
vt 0.625000 0.250000
vt 0.588152 0.250000
vt 0.625000 0.500000
vt 0.588152 0.500000
vt 0.625000 0.750000
vt 0.588152 0.750000
vt 0.625000 1.000000
vt 0.588152 1.000000
vt 0.375000 0.500000
vt 0.375000 0.750000
vt 0.421250 0.250000
vt 0.428267 0.250000
vt 0.428267 0.500000
vt 0.421250 0.500000
vt 0.417246 0.742034
vt 0.421250 0.750000
vt 0.421250 1.000000
vt 0.417246 1.012206
vt 0.417246 0.507966
vt 0.417246 0.242034
vt 0.417246 0.000000
vt 0.421250 0.000000
vt 0.428267 0.750000
vt 0.428267 1.000000
vt 0.428267 0.000000
vt 0.375000 0.000000
vt 0.375000 0.250000
vt 0.375000 1.000000
vt 0.125000 0.500000
vt 0.125000 0.750000
s 0
usemtl Material.009
f 13/1/1 2/2/1 14/3/1
f 14/3/2 2/4/2 15/5/2
f 15/5/3 2/6/3 16/7/3
f 16/7/4 2/8/4 13/9/4
f 4/24/11 16/7/11 13/9/11 17/25/11
f 6/14/12 15/5/12 16/7/12 4/24/12
f 8/13/13 14/3/13 15/5/13 6/14/13
f 17/26/14 13/1/14 14/3/14 8/13/14
usemtl Material.010
f 20/16/7 12/17/7 9/18/7 21/19/7
f 19/20/8 11/15/8 12/17/8 20/16/8
f 18/21/9 10/12/9 11/15/9 19/20/9
f 21/22/10 9/23/10 10/12/10 18/21/10
f 1/27/18 21/22/18 18/21/18 3/28/18
f 3/28/19 18/21/19 19/20/19 7/10/19
f 7/10/20 19/20/20 20/16/20 5/11/20
f 5/11/21 20/16/21 21/19/21 1/29/21
f 22/30/22 24/10/22 25/11/22 23/31/22
usemtl Material.011
f 7/10/5 5/11/5 25/11/5 24/10/5
f 10/12/6 8/13/6 6/14/6 11/15/6
f 9/23/15 17/26/15 8/13/15 10/12/15
f 11/15/16 6/14/16 4/24/16 12/17/16
f 12/17/17 4/24/17 17/25/17 9/18/17
f 5/11/23 1/29/23 23/29/23 25/11/23
f 3/28/24 7/10/24 24/10/24 22/28/24
f 1/27/25 3/28/25 22/28/25 23/27/25
