# Blender 4.5.3 LTS
# www.blender.org
mtllib catapult_body.mtl
o catapult_body
v -0.254963 -0.054486 0.368570
v -0.251416 0.058316 0.357808
v -0.254963 -0.054486 -0.454711
v -0.254963 0.054486 -0.454711
v 0.254963 -0.054486 0.368570
v 0.251416 0.058316 0.357808
v 0.254963 -0.054486 -0.454711
v 0.254963 0.054486 -0.454711
v -0.254963 -0.054486 -0.378761
v -0.254963 -0.054486 -0.073714
v -0.254963 -0.054486 0.073714
v -0.254963 -0.054486 0.221142
v -0.251416 0.059226 0.220456
v -0.251416 0.058566 0.065333
v -0.251416 0.058566 -0.069575
v -0.254963 0.054486 -0.378761
v 0.254963 -0.054486 0.221142
v 0.254963 -0.054486 0.073714
v 0.254963 -0.054486 -0.073714
v 0.254963 -0.054486 -0.378761
v 0.254963 0.054486 -0.378761
v 0.251416 0.058566 -0.069575
v 0.251416 0.058566 0.065333
v 0.251416 0.059226 0.220456
v 0.152978 -0.054486 -0.454711
v 0.050993 -0.054486 -0.454711
v -0.050993 -0.054486 -0.454711
v -0.152978 -0.054486 -0.454711
v -0.152978 0.054486 -0.454711
v -0.050993 0.054486 -0.454711
v 0.050993 0.054486 -0.454711
v 0.152978 0.054486 -0.454711
v -0.152978 -0.054486 0.368570
v -0.050993 -0.054486 0.368570
v 0.050993 -0.054486 0.368570
v 0.152978 -0.054486 0.368570
v 0.150572 0.058316 0.357808
v 0.050993 0.054486 0.368570
v -0.050993 0.054486 0.368570
v -0.150572 0.058316 0.357808
v -0.152978 0.054486 -0.378761
v -0.050993 0.054486 -0.378761
v 0.050993 0.054486 -0.378761
v 0.152978 0.054486 -0.378761
v -0.150572 0.058566 -0.069575
v -0.247870 0.293534 -0.065436
v 0.150572 0.058566 -0.069575
v -0.150572 0.058566 0.065333
v -0.247870 0.293534 0.056951
v 0.150572 0.058566 0.065333
v -0.150572 0.059226 0.220456
v -0.050993 0.054486 0.221142
v 0.050993 0.054486 0.221142
v 0.150572 0.059226 0.220456
v 0.247870 0.293534 0.056951
v 0.247870 0.293534 -0.065436
v 0.148167 0.293534 0.056951
v -0.148167 0.293534 0.056951
v -0.148167 0.293534 -0.065436
v 0.148167 0.293534 -0.065436
v 0.247870 0.198806 0.056951
v 0.247870 0.198806 -0.065436
v -0.247870 0.198806 -0.065436
v -0.247870 0.198806 0.056951
v -0.148167 0.198806 -0.065436
v 0.148167 0.198806 -0.065436
v 0.148167 0.198806 0.056951
v -0.148167 0.198806 0.056951
vn -1.0000 -0.0000 -0.0000
vn -0.0000 -0.0000 -1.0000
vn 0.9995 0.0313 0.0001
vn -0.0000 0.0950 0.9955
vn -0.0000 1.0000 -0.0000
vn -0.0000 0.9999 -0.0132
vn -0.0000 1.0000 -0.0043
vn 1.0000 -0.0000 -0.0000
vn 0.9999 0.0159 0.0057
vn 0.9995 0.0314 -0.0000
vn 0.9995 0.0313 -0.0001
vn -0.9995 0.0313 0.0001
vn -0.9995 0.0313 -0.0001
vn -0.9995 0.0314 -0.0000
vn -0.9999 0.0159 0.0057
vn 0.9999 0.0103 -0.0070
vn -0.0428 0.9991 0.0032
vn 0.0428 0.9991 0.0032
vn 0.0523 0.0490 0.9974
vn -0.0000 -0.0000 1.0000
vn -0.0523 0.0490 0.9974
vn -0.0000 0.7878 0.6159
vn -0.9999 0.0103 -0.0070
vn 1.0000 -0.0070 0.0047
vn -0.0000 0.0597 0.9982
vn -0.0000 0.0295 -0.9996
vn -0.9997 0.0253 -0.0000
vn 0.9997 0.0253 -0.0000
vn -1.0000 -0.0070 0.0047
vt 0.375000 0.200000
vt 0.625000 0.200000
vt 0.625000 0.250000
vt 0.375000 0.250000
vt 0.375000 0.450000
vt 0.625000 0.450000
vt 0.625000 0.500000
vt 0.375000 0.500000
vt 0.375000 0.700000
vt 0.625000 0.700000
vt 0.625000 0.750000
vt 0.375000 0.750000
vt 0.375000 0.950000
vt 0.625000 0.950000
vt 0.625000 1.000000
vt 0.375000 1.000000
vt 0.825000 0.500000
vt 0.875000 0.500000
vt 0.875000 0.550000
vt 0.825000 0.550000
vt 0.875000 0.600000
vt 0.825000 0.600000
vt 0.825000 0.650000
vt 0.875000 0.650000
vt 0.875000 0.700000
vt 0.825000 0.700000
vt 0.625000 0.550000
vt 0.375000 0.550000
vt 0.625000 0.600000
vt 0.375000 0.600000
vt 0.625000 0.650000
vt 0.375000 0.650000
vt 0.375000 0.000000
vt 0.625000 0.000000
vt 0.625000 0.050000
vt 0.375000 0.050000
vt 0.625000 0.100000
vt 0.375000 0.100000
vt 0.625000 0.150000
vt 0.375000 0.150000
vt 0.675000 0.650000
vt 0.675000 0.700000
vt 0.574720 0.000000
vt 0.574720 0.250000
vt 0.500000 1.000000
vt 0.675000 0.550000
vt 0.675000 0.600000
vt 0.500000 0.750000
vt 0.250000 0.699720
vt 0.375000 0.699720
vt 0.250000 0.750000
vt 0.750000 0.500000
vt 0.875000 0.750000
vt 0.750000 0.750000
vt 0.675000 0.500000
vt 0.725000 0.500000
vt 0.725000 0.550000
vt 0.775000 0.500000
vt 0.775000 0.550000
vt 0.725000 0.700000
vt 0.725000 0.750000
vt 0.675000 0.750000
vt 0.775000 0.700000
vt 0.775000 0.750000
vt 0.825000 0.750000
vt 0.625000 0.800000
vt 0.375000 0.800000
vt 0.625000 0.850000
vt 0.375000 0.850000
vt 0.625000 0.900000
vt 0.375000 0.900000
vt 0.625000 0.300000
vt 0.375000 0.300000
vt 0.625000 0.350000
vt 0.375000 0.350000
vt 0.625000 0.400000
vt 0.375000 0.400000
vt 0.250000 0.500000
vt 0.375000 0.550280
vt 0.250000 0.550280
vt 0.500000 0.550280
vt 0.625000 0.550280
vt 0.625000 0.699720
vt 0.500000 0.699720
vt 0.425280 0.000000
vt 0.425280 0.250000
vt 0.500000 0.500000
vt 0.125000 0.500000
vt 0.125000 0.550280
vt 0.125000 0.699720
vt 0.125000 0.750000
s 0
usemtl Material.033
f 41/20/6 16/19/6 15/21/6 45/22/6
f 48/23/7 14/24/7 13/25/7 51/26/7
f 20/28/9 21/27/9 22/29/9 19/30/9
f 18/32/11 23/31/11 24/10/11 17/9/11
f 12/36/13 13/35/13 14/37/13 11/38/13
f 10/40/15 15/39/15 16/2/15 9/1/15
f 23/31/7 50/41/7 54/42/7 24/10/7
f 61/45/16 55/15/16 6/15/16 24/45/16
f 21/27/6 44/46/6 47/47/6 22/29/6
f 32/55/5 31/56/5 43/57/5 44/46/5
f 31/56/5 30/58/5 42/59/5 43/57/5
f 30/58/5 29/17/5 41/20/5 42/59/5
f 54/42/17 53/60/17 38/61/17 37/62/17
f 53/60/5 52/63/5 39/64/5 38/61/5
f 52/63/18 51/26/18 40/65/18 39/64/18
f 36/67/19 37/66/19 38/68/19 35/69/19
f 35/69/20 38/68/20 39/70/20 34/71/20
f 34/71/21 39/70/21 40/14/21 33/13/21
f 28/73/2 29/72/2 30/74/2 27/75/2
f 27/75/2 30/74/2 31/76/2 26/77/2
f 26/77/2 31/76/2 32/6/2 25/5/2
f 65/80/2 59/79/2 60/50/2 66/49/2
f 58/44/22 49/3/22 2/3/22 40/44/22
f 67/81/20 57/82/20 58/83/20 68/84/20
f 49/18/23 64/52/23 13/52/23 2/18/23
f 60/85/5 59/43/5 58/44/5 57/86/5
f 68/84/24 58/83/24 40/83/24 51/84/24
f 23/8/25 61/87/25 67/81/25 50/79/25
f 15/88/26 63/78/26 65/80/26 45/89/26
f 14/7/27 64/52/27 63/54/27 15/11/27
f 47/90/26 66/49/26 62/51/26 22/91/26
f 22/12/28 62/48/28 61/45/28 23/16/28
f 48/50/25 68/84/25 64/48/25 14/12/25
f 57/82/29 67/81/29 54/81/29 37/82/29
f 55/4/22 57/86/22 37/86/22 6/4/22
usemtl Material.034
f 9/1/1 16/2/1 4/3/1 3/4/1
f 25/5/2 32/6/2 8/7/2 7/8/2
f 17/9/3 24/10/3 6/11/3 5/12/3
f 33/13/4 40/14/4 2/15/4 1/16/4
f 29/17/5 4/18/5 16/19/5 41/20/5
f 7/8/8 8/7/8 21/27/8 20/28/8
f 19/30/10 22/29/10 23/31/10 18/32/10
f 1/33/12 2/34/12 13/35/12 12/36/12
f 11/38/14 14/37/14 15/39/14 10/40/14
f 59/43/5 46/34/5 49/3/5 58/44/5
f 62/48/8 56/11/8 55/15/8 61/45/8
f 66/49/2 60/50/2 56/12/2 62/51/2
f 64/52/1 49/18/1 46/53/1 63/54/1
f 8/7/5 32/55/5 44/46/5 21/27/5
f 5/12/4 6/11/4 37/66/4 36/67/4
f 3/4/2 4/3/2 29/72/2 28/73/2
f 63/78/2 46/8/2 59/79/2 65/80/2
f 56/33/5 60/85/5 57/86/5 55/4/5
