# Blender 4.5.3 LTS
# www.blender.org
mtllib catapult_wheel.mtl
o catapult_wheel
v -0.038708 0.000000 -0.072345
v 0.038708 -0.000000 -0.072345
v -0.038708 -0.051156 -0.051156
v 0.038708 -0.051156 -0.051156
v -0.038708 -0.072345 0.000000
v 0.038708 -0.072345 0.000000
v -0.038708 -0.051156 0.051156
v 0.038708 -0.051156 0.051156
v -0.038708 0.000000 0.072345
v 0.038708 -0.000000 0.072345
v -0.038708 0.051156 0.051156
v 0.038708 0.051156 0.051156
v -0.038708 0.072345 0.000000
v 0.038708 0.072345 0.000000
v -0.038708 0.051156 -0.051156
v 0.038708 0.051156 -0.051156
v -0.038708 0.000000 -0.103859
v -0.038708 -0.073440 -0.073440
v 0.038708 -0.073440 -0.073440
v 0.038708 -0.000000 -0.103859
v -0.038708 -0.103859 0.000000
v 0.038708 -0.103859 0.000000
v -0.038708 -0.073440 0.073440
v 0.038708 -0.073440 0.073440
v -0.038708 0.000000 0.103859
v 0.038708 -0.000000 0.103859
v -0.038708 0.073440 0.073440
v 0.038708 0.073440 0.073440
v -0.038708 0.103859 0.000000
v 0.038708 0.103859 0.000000
v -0.038708 0.073440 -0.073440
v 0.038708 0.073440 -0.073440
v -0.074470 -0.027223 0.027223
v -0.074470 0.027223 0.027223
v -0.074470 -0.027223 -0.027223
v -0.074470 0.027223 -0.027223
v 0.074470 -0.027223 0.027223
v 0.074470 0.027223 0.027223
v 0.074470 -0.027223 -0.027223
v 0.074470 0.027223 -0.027223
v 0.042764 -0.027223 -0.027223
v -0.042764 -0.027223 -0.027223
v -0.042764 0.027223 -0.027223
v 0.042764 0.027223 -0.027223
v -0.042764 -0.027223 0.027223
v 0.042764 -0.027223 0.027223
v 0.042764 0.027223 0.027223
v -0.042764 0.027223 0.027223
vn -0.0000 -0.3827 -0.9239
vn -0.0000 -0.9239 -0.3827
vn -0.0000 -0.9239 0.3827
vn -0.0000 -0.3827 0.9239
vn -0.0000 0.3827 0.9239
vn -0.0000 0.9239 0.3827
vn 1.0000 -0.0000 -0.0000
vn -0.0000 0.9239 -0.3827
vn -0.0000 0.3827 -0.9239
vn -1.0000 -0.0000 -0.0000
vn -0.0000 -0.0000 -1.0000
vn -0.0000 -0.0000 1.0000
vn -0.0000 -1.0000 -0.0000
vn -0.0000 1.0000 -0.0000
vt 1.000000 0.500000
vt 1.000000 1.000000
vt 0.875000 1.000000
vt 0.875000 0.500000
vt 0.750000 1.000000
vt 0.750000 0.500000
vt 0.625000 1.000000
vt 0.625000 0.500000
vt 0.500000 1.000000
vt 0.500000 0.500000
vt 0.375000 1.000000
vt 0.375000 0.500000
vt 0.250000 1.000000
vt 0.250000 0.500000
vt 0.368212 0.368212
vt 0.250000 0.417177
vt 0.131788 0.368212
vt 0.082823 0.250000
vt 0.131788 0.131788
vt 0.250000 0.082823
vt 0.368212 0.131788
vt 0.417177 0.250000
vt 0.125000 1.000000
vt 0.125000 0.500000
vt 0.000000 1.000000
vt 0.000000 0.500000
vt 0.750000 0.417177
vt 0.868212 0.368212
vt 0.917177 0.250000
vt 0.868212 0.131788
vt 0.750000 0.082823
vt 0.631788 0.131788
vt 0.582823 0.250000
vt 0.631788 0.368212
vt 0.750000 0.490000
vt 0.919706 0.419706
vt 0.419706 0.419706
vt 0.250000 0.490000
vt 0.990000 0.250000
vt 0.490000 0.250000
vt 0.919706 0.080294
vt 0.419706 0.080294
vt 0.750000 0.010000
vt 0.250000 0.010000
vt 0.580294 0.080294
vt 0.080294 0.080294
vt 0.510000 0.250000
vt 0.010000 0.250000
vt 0.580294 0.419706
vt 0.080294 0.419706
vt 0.375000 0.000000
vt 0.625000 0.000000
vt 0.625000 0.250000
vt 0.375000 0.250000
vt 0.375000 0.448237
vt 0.625000 0.448237
vt 0.625000 0.750000
vt 0.375000 0.750000
vt 0.375000 0.948237
vt 0.625000 0.948237
vt 0.323237 0.500000
vt 0.323237 0.750000
vt 0.823237 0.500000
vt 0.875000 0.750000
vt 0.823237 0.750000
vt 0.676763 0.500000
vt 0.676763 0.750000
vt 0.176763 0.500000
vt 0.176763 0.750000
vt 0.125000 0.750000
vt 0.625000 0.801763
vt 0.375000 0.801763
vt 0.625000 0.301763
vt 0.375000 0.301763
s 0
usemtl Material.037
f 4/15/7 2/16/7 16/17/7 14/18/7 12/19/7 10/20/7 8/21/7 6/22/7
f 1/27/10 3/28/10 5/29/10 7/30/10 9/31/10 11/32/10 13/33/10 15/34/10
usemtl Material.038
f 17/1/1 20/2/1 19/3/1 18/4/1
f 18/4/2 19/3/2 22/5/2 21/6/2
f 21/6/3 22/5/3 24/7/3 23/8/3
f 23/8/4 24/7/4 26/9/4 25/10/4
f 25/10/5 26/9/5 28/11/5 27/12/5
f 27/12/6 28/11/6 30/13/6 29/14/6
f 29/14/8 30/13/8 32/23/8 31/24/8
f 31/24/9 32/23/9 20/25/9 17/26/9
f 3/28/10 1/27/10 17/35/10 18/36/10
f 2/16/7 4/15/7 19/37/7 20/38/7
f 5/29/10 3/28/10 18/36/10 21/39/10
f 4/15/7 6/22/7 22/40/7 19/37/7
f 7/30/10 5/29/10 21/39/10 23/41/10
f 6/22/7 8/21/7 24/42/7 22/40/7
f 9/31/10 7/30/10 23/41/10 25/43/10
f 8/21/7 10/20/7 26/44/7 24/42/7
f 11/32/10 9/31/10 25/43/10 27/45/10
f 10/20/7 12/19/7 28/46/7 26/44/7
f 13/33/10 11/32/10 27/45/10 29/47/10
f 12/19/7 14/18/7 30/48/7 28/46/7
f 15/34/10 13/33/10 29/47/10 31/49/10
f 14/18/7 16/17/7 32/50/7 30/48/7
f 1/27/10 15/34/10 31/49/10 17/35/10
f 16/17/7 2/16/7 20/38/7 32/50/7
f 33/51/10 34/52/10 36/53/10 35/54/10
f 41/55/11 44/56/11 40/8/11 39/12/11
f 39/12/7 40/8/7 38/57/7 37/58/7
f 45/59/12 48/60/12 34/7/12 33/11/12
f 41/61/13 39/12/13 37/58/13 46/62/13
f 43/63/14 36/4/14 34/64/14 48/65/14
f 40/8/14 44/66/14 47/67/14 38/57/14
f 35/24/13 42/68/13 45/69/13 33/70/13
f 37/58/12 38/57/12 47/71/12 46/72/12
f 35/54/11 36/53/11 43/73/11 42/74/11
