# Blender 4.5.3 LTS
# www.blender.org
mtllib balista_body.mtl
o balista_body
v -0.188883 -0.054486 0.368570
v -0.186255 0.058316 0.357808
v -0.188883 -0.054486 -0.454711
v -0.188883 0.054486 -0.454711
v 0.188883 -0.054486 0.368570
v 0.186255 0.058316 0.357808
v 0.188883 -0.054486 -0.454711
v 0.188883 0.054486 -0.454711
v -0.188883 -0.054486 -0.325305
v -0.188883 -0.054486 -0.035531
v -0.188883 -0.054486 0.111897
v -0.188883 -0.054486 0.266962
v -0.186255 0.059226 0.266276
v -0.186255 0.058566 0.103516
v -0.186255 0.058566 -0.031392
v -0.188883 0.054486 -0.325305
v 0.188883 -0.054486 0.266962
v 0.188883 -0.054486 0.111897
v 0.188883 -0.054486 -0.035531
v 0.188883 -0.054486 -0.325305
v 0.188883 0.054486 -0.325305
v 0.186255 0.058566 -0.031392
v 0.186255 0.058566 0.103516
v 0.186255 0.059226 0.266276
v 0.113330 -0.054486 -0.454711
v 0.037777 -0.054486 -0.454711
v -0.037777 -0.054486 -0.454711
v -0.113330 -0.054486 -0.454711
v -0.113330 0.054486 -0.454711
v -0.037777 0.054486 -0.454711
v 0.037777 0.054486 -0.454711
v 0.113330 0.054486 -0.454711
v -0.113330 -0.054486 0.368570
v -0.037777 -0.054486 0.368570
v 0.037777 -0.054486 0.368570
v 0.113330 -0.054486 0.368570
v 0.111547 0.058316 0.357808
v 0.037777 0.054486 0.368570
v -0.037777 0.054486 0.368570
v -0.111548 0.058316 0.357808
v -0.113330 0.054486 -0.325305
v -0.037777 0.054486 -0.325305
v 0.037777 0.054486 -0.325305
v 0.113330 0.054486 -0.325305
v -0.111547 0.058566 -0.031392
v 0.111548 0.058566 -0.031392
v -0.111547 0.058566 0.103516
v 0.111548 0.058566 0.103516
v -0.111547 0.059226 0.266276
v -0.037777 0.054486 0.266962
v 0.037777 0.054486 0.266962
v 0.111548 0.059226 0.266276
v 0.080772 0.198806 0.095134
v 0.080772 0.198806 -0.027253
v -0.080772 0.198806 -0.027253
v -0.080772 0.198806 0.095134
v 0.000000 0.198806 -0.027253
v 0.000000 0.198806 0.095134
v 0.000000 0.260789 0.095134
v -0.080772 0.260789 0.095134
v 0.080772 0.260789 0.095134
v -0.080772 0.260789 -0.027253
v 0.000000 0.260789 -0.027253
v 0.080772 0.260789 -0.027253
vn -1.0000 -0.0000 -0.0000
vn -0.0000 -0.0000 -1.0000
vn 0.9997 0.0232 0.0001
vn -0.0000 0.0950 0.9955
vn -0.0000 1.0000 -0.0000
vn -0.0000 0.9999 -0.0139
vn -0.0000 1.0000 -0.0041
vn 1.0000 -0.0000 -0.0000
vn 0.9999 0.0118 0.0044
vn 0.9997 0.0232 -0.0000
vn -0.9997 0.0232 0.0001
vn -0.9997 0.0232 -0.0000
vn -0.9999 0.0118 0.0044
vn -0.0576 0.9983 0.0047
vn 0.0576 0.9983 0.0047
vn 0.0705 0.0489 0.9963
vn -0.0000 -0.0000 1.0000
vn -0.0705 0.0489 0.9963
vn -0.0000 0.0597 0.9982
vn -0.0000 0.0295 -0.9996
vn -0.7992 0.6011 -0.0000
vn 0.7992 0.6011 -0.0000
vn -0.0000 1.0000 0.0099
vt 0.375000 0.200000
vt 0.625000 0.200000
vt 0.625000 0.250000
vt 0.375000 0.250000
vt 0.375000 0.450000
vt 0.625000 0.450000
vt 0.625000 0.500000
vt 0.375000 0.500000
vt 0.375000 0.700000
vt 0.625000 0.700000
vt 0.625000 0.750000
vt 0.375000 0.750000
vt 0.375000 0.950000
vt 0.625000 0.950000
vt 0.625000 1.000000
vt 0.375000 1.000000
vt 0.825000 0.500000
vt 0.875000 0.500000
vt 0.875000 0.550000
vt 0.825000 0.550000
vt 0.875000 0.600000
vt 0.825000 0.600000
vt 0.825000 0.650000
vt 0.875000 0.650000
vt 0.875000 0.700000
vt 0.825000 0.700000
vt 0.625000 0.550000
vt 0.375000 0.550000
vt 0.625000 0.600000
vt 0.375000 0.600000
vt 0.625000 0.650000
vt 0.375000 0.650000
vt 0.375000 0.000000
vt 0.625000 0.000000
vt 0.625000 0.050000
vt 0.375000 0.050000
vt 0.625000 0.100000
vt 0.375000 0.100000
vt 0.625000 0.150000
vt 0.375000 0.150000
vt 0.675000 0.650000
vt 0.675000 0.700000
vt 0.675000 0.550000
vt 0.675000 0.600000
vt 0.250000 0.750000
vt 0.250000 0.699720
vt 0.675000 0.500000
vt 0.725000 0.500000
vt 0.725000 0.550000
vt 0.775000 0.500000
vt 0.775000 0.550000
vt 0.725000 0.700000
vt 0.725000 0.750000
vt 0.675000 0.750000
vt 0.775000 0.700000
vt 0.775000 0.750000
vt 0.825000 0.750000
vt 0.625000 0.800000
vt 0.375000 0.800000
vt 0.625000 0.850000
vt 0.375000 0.850000
vt 0.625000 0.900000
vt 0.375000 0.900000
vt 0.625000 0.300000
vt 0.375000 0.300000
vt 0.625000 0.350000
vt 0.375000 0.350000
vt 0.625000 0.400000
vt 0.375000 0.400000
vt 0.500000 0.500000
vt 0.500000 0.550280
vt 0.375000 0.550280
vt 0.125000 0.500000
vt 0.250000 0.500000
vt 0.250000 0.550280
vt 0.125000 0.550280
vt 0.750000 0.500000
vt 0.750000 0.750000
vt 0.125000 0.699720
vt 0.125000 0.750000
vt 0.500000 0.750000
vt 0.500000 1.000000
vt 0.375000 0.699720
vt 0.500000 0.699720
s 0
usemtl Material.033
f 41/20/6 16/19/6 15/21/6 45/22/6
f 47/23/7 14/24/7 13/25/7 49/26/7
f 20/28/9 21/27/9 22/29/9 19/30/9
f 18/32/10 23/31/10 24/10/10 17/9/10
f 12/36/12 13/35/12 14/37/12 11/38/12
f 10/40/13 15/39/13 16/2/13 9/1/13
f 23/31/7 48/41/7 52/42/7 24/10/7
f 21/27/6 44/43/6 46/44/6 22/29/6
f 32/47/5 31/48/5 43/49/5 44/43/5
f 31/48/5 30/50/5 42/51/5 43/49/5
f 30/50/5 29/17/5 41/20/5 42/51/5
f 52/42/14 51/52/14 38/53/14 37/54/14
f 51/52/5 50/55/5 39/56/5 38/53/5
f 50/55/15 49/26/15 40/57/15 39/56/15
f 36/59/16 37/58/16 38/60/16 35/61/16
f 35/61/17 38/60/17 39/62/17 34/63/17
f 34/63/18 39/62/18 40/14/18 33/13/18
f 28/65/2 29/64/2 30/66/2 27/67/2
f 27/67/2 30/66/2 31/68/2 26/69/2
f 26/69/2 31/68/2 32/6/2 25/5/2
f 23/8/19 53/70/19 58/71/19 48/72/19
f 15/73/20 55/74/20 57/75/20 45/76/20
f 14/7/21 56/77/21 55/78/21 15/11/21
f 46/79/20 57/46/20 54/45/20 22/80/20
f 22/12/22 54/81/22 53/82/22 23/16/22
f 47/83/19 58/84/19 56/81/19 14/12/19
usemtl Material.034
f 9/1/1 16/2/1 4/3/1 3/4/1
f 25/5/2 32/6/2 8/7/2 7/8/2
f 17/9/3 24/10/3 6/11/3 5/12/3
f 33/13/4 40/14/4 2/15/4 1/16/4
f 29/17/5 4/18/5 16/19/5 41/20/5
f 7/8/8 8/7/8 21/27/8 20/28/8
f 19/30/10 22/29/10 23/31/10 18/32/10
f 1/33/11 2/34/11 13/35/11 12/36/11
f 11/38/12 14/37/12 15/39/12 10/40/12
f 54/45/2 57/46/2 63/46/2 64/45/2
f 8/7/5 32/47/5 44/43/5 21/27/5
f 5/12/4 6/11/4 37/58/4 36/59/4
f 3/4/2 4/3/2 29/64/2 28/65/2
f 59/71/5 61/70/5 64/81/5 63/46/5 62/74/5 60/77/5
f 55/78/1 56/77/1 60/77/1 62/78/1
f 58/71/17 53/70/17 61/70/17 59/71/17
f 56/81/17 58/84/17 59/84/17 60/81/17
f 53/82/8 54/81/8 64/81/8 61/82/8
f 57/75/2 55/74/2 62/74/2 63/75/2
f 40/57/23 49/26/23 13/25/23 2/34/23
f 6/11/23 24/10/23 52/42/23 37/58/23
