# Blender 4.5.3 LTS
# www.blender.org
mtllib dagger.mtl
o dagger
v -0.002762 -0.123304 0.011479
v -0.002762 -0.123304 -0.011479
v 0.002762 -0.123304 0.011479
v 0.002762 -0.123304 -0.011479
v -0.003777 -0.081827 -0.011823
v 0.003777 -0.081827 -0.011823
v 0.003777 -0.081827 0.011823
v -0.003777 -0.081827 0.011823
v -0.003888 -0.127738 -0.016158
v -0.003888 -0.127738 0.016158
v 0.003888 -0.127738 -0.016158
v 0.003888 -0.127738 0.016158
v 0.000000 0.047604 0.000000
v 0.005152 -0.066858 0.016127
v 0.005152 -0.066858 -0.016127
v -0.005152 -0.066858 -0.016127
v -0.005152 -0.076634 0.016127
v -0.005152 -0.076634 -0.016127
v 0.005152 -0.076634 -0.016127
v 0.005152 -0.076634 0.016127
v -0.003647 0.011255 0.011418
v -0.003647 0.011255 -0.011418
v 0.003647 0.011255 -0.011418
v 0.003647 0.011255 0.011418
v -0.005152 -0.066858 0.016127
v -0.003777 -0.081827 -0.011823
v 0.003777 -0.081827 -0.011823
v 0.003777 -0.081827 0.011823
v -0.003777 -0.081827 0.011823
vn 0.9692 0.2462 -0.0000
vn -0.9997 -0.0245 -0.0000
vn -0.0000 -0.0083 -1.0000
vn 0.9997 -0.0245 -0.0000
vn -0.0000 -0.0083 1.0000
vn -0.0000 -1.0000 -0.0000
vn -0.0000 0.7259 0.6878
vn -0.0000 0.7259 -0.6878
vn -0.9692 0.2462 -0.0000
vn -0.9950 0.0998 -0.0000
vn -0.0000 0.2997 -0.9540
vn 0.9950 0.0998 -0.0000
vn -0.0000 0.2997 0.9540
vn -0.0000 -0.0000 -1.0000
vn -0.0000 -0.6381 0.7699
vn 0.9667 -0.2559 -0.0000
vn -0.0000 -0.6381 -0.7699
vn -0.9667 -0.2559 -0.0000
vn -0.0000 0.0602 0.9982
vn 0.9998 0.0193 -0.0000
vn -0.0000 0.0602 -0.9982
vn -0.9998 0.0193 -0.0000
vn -1.0000 -0.0000 -0.0000
vn 1.0000 -0.0000 -0.0000
vn -0.0000 -0.0000 1.0000
vt 0.375000 0.500000
vt 0.375000 0.750000
vt 0.375000 0.000000
vt 0.417246 0.000000
vt 0.417246 0.242034
vt 0.375000 0.250000
vt 0.417246 0.507966
vt 0.417246 0.742034
vt 0.417246 1.012206
vt 0.375000 1.000000
vt 0.125000 0.500000
vt 0.125000 0.750000
vt 0.588152 0.000000
vt 0.625000 0.250000
vt 0.588152 0.250000
vt 0.625000 0.500000
vt 0.588152 0.500000
vt 0.625000 0.750000
vt 0.588152 0.750000
vt 0.625000 1.000000
vt 0.588152 1.000000
vt 0.421250 0.250000
vt 0.428267 0.250000
vt 0.428267 0.500000
vt 0.421250 0.500000
vt 0.421250 0.750000
vt 0.421250 1.000000
vt 0.421250 0.000000
vt 0.428267 0.750000
vt 0.428267 1.000000
vt 0.428267 0.000000
s 0
usemtl Material.009
f 21/13/10 13/14/10 22/15/10
f 22/15/11 13/16/11 23/17/11
f 23/17/12 13/18/12 24/19/12
f 24/19/13 13/20/13 21/21/13
f 14/29/19 24/19/19 21/21/19 25/30/19
f 15/24/20 23/17/20 24/19/20 14/29/20
f 16/23/21 22/15/21 23/17/21 15/24/21
f 25/31/22 21/13/22 22/15/22 16/23/22
usemtl Material.010
f 1/3/2 8/4/2 5/5/2 2/6/2
f 2/6/3 5/5/3 6/7/3 4/1/3
f 4/1/4 6/7/4 7/8/4 3/2/4
f 3/2/5 7/8/5 8/9/5 1/10/5
f 9/11/6 11/1/6 12/2/6 10/12/6
f 28/8/15 20/26/15 17/27/15 29/9/15
f 27/7/16 19/25/16 20/26/16 28/8/16
f 26/5/17 18/22/17 19/25/17 27/7/17
f 29/4/18 17/28/18 18/22/18 26/5/18
usemtl Material.011
f 4/1/1 3/2/1 12/2/1 11/1/1
f 3/2/7 1/10/7 10/10/7 12/2/7
f 2/6/8 4/1/8 11/1/8 9/6/8
f 1/3/9 2/6/9 9/6/9 10/3/9
f 18/22/14 16/23/14 15/24/14 19/25/14
f 17/28/23 25/31/23 16/23/23 18/22/23
f 19/25/24 15/24/24 14/29/24 20/26/24
f 20/26/25 14/29/25 25/30/25 17/27/25
