# Blender 4.5.3 LTS
# www.blender.org
mtllib leather_armor.mtl
o armor_leather
v -0.093866 -0.020532 0.058730
v -0.101806 0.137926 0.060970
v -0.093866 -0.020532 -0.055149
v -0.101806 0.137926 -0.061242
v 0.093866 -0.020532 0.058730
v 0.101806 0.137926 0.060970
v 0.093866 -0.020532 -0.055149
v 0.101806 0.137926 -0.061242
v -0.090048 0.029059 0.055800
v -0.090048 0.029059 -0.052219
v 0.090048 0.029059 -0.052219
v 0.090048 0.029059 0.055800
v -0.097957 0.064539 0.061869
v -0.097957 0.064539 -0.058288
v 0.097957 0.064539 -0.058288
v 0.097957 0.064539 0.061869
v 0.031289 -0.020532 -0.055149
v -0.031289 -0.020532 -0.055149
v -0.037966 0.142277 -0.070520
v 0.037966 0.142277 -0.070520
v -0.031289 -0.020532 0.058730
v 0.031289 -0.020532 0.058730
v 0.037966 0.142277 0.070248
v -0.037966 0.142277 0.070248
v 0.008667 0.029059 0.055800
v -0.008667 0.029059 0.055800
v -0.030016 0.029059 -0.052219
v 0.030016 0.029059 -0.052219
v 0.032652 0.100921 0.061869
v -0.032652 0.100921 0.061869
v -0.032652 0.100921 -0.058288
v 0.032652 0.100921 -0.058288
vn 0.0291 -0.1334 -0.9906
vn -0.0498 -0.0689 0.9964
vn -0.0000 -1.0000 -0.0000
vn -0.0680 0.9977 -0.0000
vn -0.0000 0.0590 0.9983
vn 0.9970 0.0768 -0.0000
vn -0.0000 0.0590 -0.9983
vn -0.9970 0.0768 -0.0000
vn 0.0260 -0.1047 0.9942
vn 0.9760 -0.2176 -0.0000
vn -0.0317 -0.1092 -0.9935
vn -0.9760 -0.2176 -0.0000
vn 0.0317 -0.1092 -0.9935
vn -0.0000 -0.0842 -0.9965
vn -0.0260 -0.1047 0.9942
vn 0.0680 0.9977 -0.0000
vn 0.0498 -0.0689 0.9964
vn -0.0291 -0.1334 -0.9906
vn -0.0000 -0.2836 -0.9589
vt 0.581769 0.416667
vt 0.625000 0.416667
vt 0.625000 0.500000
vt 0.581769 0.500000
vt 0.581770 0.916667
vt 0.625000 0.916667
vt 0.625000 1.000000
vt 0.581769 1.000000
vt 0.291667 0.500000
vt 0.375000 0.500000
vt 0.375000 0.750000
vt 0.291667 0.750000
vt 0.791667 0.500000
vt 0.875000 0.500000
vt 0.875000 0.750000
vt 0.791667 0.750000
vt 0.375000 0.916667
vt 0.471082 0.916667
vt 0.471082 1.000000
vt 0.375000 1.000000
vt 0.471082 0.500000
vt 0.471082 0.750000
vt 0.375000 0.416667
vt 0.471082 0.416667
vt 0.375000 0.000000
vt 0.471082 0.000000
vt 0.471082 0.250000
vt 0.375000 0.250000
vt 0.581769 0.750000
vt 0.581769 0.000000
vt 0.581769 0.250000
vt 0.581769 0.333333
vt 0.471082 0.333333
vt 0.581769 0.833333
vt 0.471082 0.833333
vt 0.375000 0.333333
vt 0.375000 0.833333
vt 0.708333 0.500000
vt 0.708333 0.750000
vt 0.625000 0.750000
vt 0.125000 0.500000
vt 0.208333 0.500000
vt 0.208333 0.750000
vt 0.125000 0.750000
vt 0.625000 0.833333
vt 0.625000 0.250000
vt 0.625000 0.333333
s 0
usemtl Material.019
f 32/1/1 20/2/1 8/3/1 15/4/1
f 30/5/2 24/6/2 2/7/2 13/8/2
f 17/9/3 7/10/3 5/11/3 22/12/3
f 19/13/4 4/14/4 2/15/4 24/16/4
f 21/17/5 26/18/5 9/19/5 1/20/5
f 7/10/6 11/21/6 12/22/6 5/11/6
f 17/23/7 28/24/7 11/21/7 7/10/7
f 1/25/8 9/26/8 10/27/8 3/28/8
f 26/18/9 30/5/9 13/8/9 9/19/9
f 11/21/10 15/4/10 16/29/10 12/22/10
f 28/24/11 32/1/11 15/4/11 11/21/11
f 9/26/12 13/30/12 14/31/12 10/27/12
f 10/27/13 14/31/13 31/32/13 27/33/13
f 27/33/14 31/32/14 32/1/14 28/24/14
f 12/22/15 16/29/15 29/34/15 25/35/15
f 3/28/7 10/27/7 27/33/7 18/36/7
f 18/36/7 27/33/7 28/24/7 17/23/7
f 5/11/5 12/22/5 25/35/5 22/37/5
f 22/37/5 25/35/5 26/18/5 21/17/5
f 8/3/16 20/38/16 23/39/16 6/40/16
f 3/41/3 18/42/3 21/43/3 1/44/3
f 18/42/3 17/9/3 22/12/3 21/43/3
f 16/29/17 6/40/17 23/45/17 29/34/17
f 14/31/18 4/46/18 19/47/18 31/32/18
f 31/32/19 19/47/19 20/2/19 32/1/19
