# Blender 4.5.3 LTS
# www.blender.org
mtllib grimhart.mtl
o grimhart
v 0.000000 -0.306754 -0.017257
v 0.000000 0.412021 -0.017257
v 0.013648 -0.306754 -0.002747
v 0.013648 0.412021 -0.002747
v 0.000000 -0.306754 0.011763
v 0.000000 0.412021 0.011763
v -0.013648 -0.306754 -0.002747
v -0.013648 0.412021 -0.002747
v 0.007624 0.343543 0.061240
v 0.007624 0.473162 0.061240
v 0.000000 0.269375 0.410000
v 0.000000 0.372736 0.352627
v -0.007624 0.343543 0.061240
v -0.007624 0.473162 0.061240
v -0.009759 0.430190 -0.027790
v 0.007624 0.386749 0.070963
v 0.007624 0.429955 0.070963
v 0.000000 0.338481 0.376497
v 0.000000 0.310024 0.391586
v -0.009759 0.396827 -0.027790
v -0.018291 0.386749 0.021496
v -0.007624 0.429956 0.070963
v -0.007624 0.386749 0.070963
v 0.000000 0.333313 0.330479
v 0.007624 0.360934 0.259141
v 0.007624 0.365026 0.199312
v 0.007624 0.359911 0.126184
v 0.007624 0.463955 0.130787
v 0.007624 0.445541 0.205450
v 0.007624 0.424569 0.266813
v 0.000000 0.396436 0.326131
v -0.007624 0.359911 0.126184
v -0.007624 0.365026 0.199312
v -0.007624 0.360934 0.259141
v 0.009758 0.396827 -0.027790
v 0.009758 0.430190 -0.027790
v -0.007624 0.424569 0.266813
v -0.007624 0.445541 0.205450
v -0.007624 0.463955 0.130787
v -0.007624 0.350432 0.333190
v -0.007624 0.382901 0.261417
v -0.007624 0.386749 0.202076
v -0.007624 0.386749 0.136520
v -0.007624 0.370621 0.328587
v -0.007624 0.400800 0.262825
v -0.007624 0.419521 0.202076
v -0.007624 0.429956 0.136520
v 0.007624 0.386749 0.136520
v 0.007624 0.386749 0.202076
v 0.007624 0.382901 0.261417
v 0.007624 0.350432 0.333190
v 0.007624 0.429955 0.136520
v 0.007624 0.419521 0.202076
v 0.007624 0.400800 0.262825
v 0.007624 0.370621 0.328587
v 0.018291 0.429955 0.021496
v -0.018291 0.429956 0.021496
v 0.018291 0.386749 0.021496
v -0.000000 0.408352 -0.097945
vn 0.7284 -0.0000 -0.6851
vn 0.7284 -0.0000 0.6851
vn -0.7284 -0.0000 0.6851
vn -0.7284 -0.0000 -0.6851
vn -0.0000 -1.0000 -0.0000
vn 0.9316 0.2385 0.2744
vn -0.0000 1.0000 0.0048
vn -1.0000 -0.0000 -0.0000
vn -0.0000 -0.2195 -0.9756
vn -0.0000 -0.9697 0.2444
vn -0.0000 0.9914 0.1312
vn -0.0000 0.2195 -0.9756
vn 0.9853 -0.0000 -0.1706
vn -0.9853 -0.0000 -0.1706
vn 0.9878 -0.1454 -0.0554
vn 0.9779 0.0785 0.1938
vn 1.0000 -0.0000 -0.0000
vn 0.9818 -0.1881 -0.0267
vn -0.9779 0.0785 0.1938
vn -0.9878 -0.1454 -0.0554
vn -0.9818 -0.1881 -0.0267
vn -0.0000 -0.9797 -0.2003
vn -0.0000 0.9035 0.4285
vn -0.0000 0.9463 0.3234
vn -0.0000 0.9709 0.2395
vn 0.9905 -0.0000 -0.1378
vn -0.0000 -0.9325 -0.3611
vn -0.0000 -0.9977 -0.0682
vn -0.0000 -0.9976 0.0698
vn -0.9316 0.2385 0.2744
vn -0.9808 0.1468 0.1282
vn 0.9808 0.1468 0.1282
vn -0.9775 -0.0000 0.2108
vn 0.9775 -0.0000 0.2108
vn -0.0000 1.0000 -0.0000
vn -0.9905 -0.0000 -0.1378
vn -0.0000 0.9548 -0.2972
vn -0.0000 -0.9868 -0.1621
vt 1.000000 0.500000
vt 1.000000 1.000000
vt 0.750000 1.000000
vt 0.750000 0.500000
vt 0.500000 1.000000
vt 0.500000 0.500000
vt 0.250000 1.000000
vt 0.250000 0.500000
vt 0.000000 1.000000
vt 0.000000 0.500000
vt 0.750000 0.490000
vt 0.990000 0.250000
vt 0.750000 0.010000
vt 0.510000 0.250000
vt 0.541667 0.200000
vt 0.625000 0.200000
vt 0.625000 0.250000
vt 0.541667 0.250000
vt 0.541667 0.750000
vt 0.541667 1.000000
vt 0.541667 0.700000
vt 0.625000 0.700000
vt 0.625000 0.750000
vt 0.625000 1.000000
vt 0.125000 0.700000
vt 0.375000 0.700000
vt 0.375000 0.750000
vt 0.125000 0.750000
vt 0.875000 0.700000
vt 0.875000 0.750000
vt 0.458333 0.750000
vt 0.458333 1.000000
vt 0.375000 1.000000
vt 0.541667 0.000000
vt 0.458333 0.000000
vt 0.458333 0.700000
vt 0.375000 0.200000
vt 0.458333 0.200000
vt 0.458333 0.250000
vt 0.375000 0.250000
vt 0.541667 0.050000
vt 0.458333 0.050000
vt 0.541667 0.100000
vt 0.458333 0.100000
vt 0.541667 0.150000
vt 0.458333 0.150000
vt 0.375000 0.000000
vt 0.375000 0.050000
vt 0.375000 0.100000
vt 0.375000 0.150000
vt 0.458333 0.500000
vt 0.541667 0.500000
vt 0.541667 0.550000
vt 0.458333 0.550000
vt 0.541667 0.600000
vt 0.458333 0.600000
vt 0.541667 0.650000
vt 0.458333 0.650000
vt 0.375000 0.500000
vt 0.375000 0.550000
vt 0.375000 0.600000
vt 0.375000 0.650000
vt 0.875000 0.550000
vt 0.875000 0.600000
vt 0.625000 0.600000
vt 0.875000 0.650000
vt 0.625000 0.650000
vt 0.125000 0.600000
vt 0.125000 0.650000
vt 0.625000 0.500000
vt 0.625000 0.550000
vt 0.625000 0.000000
vt 0.625000 0.050000
vt 0.625000 0.100000
vt 0.625000 0.150000
s 0
usemtl Material.009
f 27/25/10 32/26/10 13/27/10 9/28/10
f 13/27/12 23/31/12 16/32/12 9/33/12
f 32/26/8 43/36/8 23/31/8 13/27/8
f 43/36/8 47/21/8 22/19/8 23/31/8
f 16/32/5 23/31/5 21/31/5 58/32/5
f 24/37/15 51/38/15 19/39/15 11/40/15
f 51/38/16 55/15/16 18/18/16 19/39/16
f 16/35/17 17/34/17 52/41/17 48/42/17
f 48/42/17 52/41/17 53/43/17 49/44/17
f 49/44/17 53/43/17 54/45/17 50/46/17
f 50/46/17 54/45/17 55/15/17 51/38/17
f 9/47/17 16/35/17 48/42/17 27/48/17
f 27/48/17 48/42/17 49/44/17 26/49/17
f 26/49/17 49/44/17 50/46/17 25/50/17
f 25/50/18 50/46/18 51/38/18 24/37/18
f 19/51/19 18/52/19 44/53/19 40/54/19
f 40/54/8 44/53/8 45/55/8 41/56/8
f 41/56/8 45/55/8 46/57/8 42/58/8
f 42/58/8 46/57/8 47/21/8 43/36/8
f 11/59/20 19/51/20 40/54/20 24/60/20
f 24/60/21 40/54/21 41/56/21 34/61/21
f 34/61/8 41/56/8 42/58/8 33/62/8
f 33/62/8 42/58/8 43/36/8 32/26/8
f 36/34/26 35/35/26 59/34/26
f 24/60/27 34/61/27 25/68/27
f 25/68/28 34/61/28 33/62/28 26/69/28
f 26/69/29 33/62/29 32/26/29 27/25/29
f 23/31/33 22/19/33 57/19/33 21/31/33
f 17/34/34 16/35/34 58/35/34 56/34/34
f 20/31/36 15/19/36 59/31/36
f 15/19/37 36/20/37 59/19/37
f 35/32/38 20/31/38 59/32/38
usemtl Material.010
f 1/1/1 2/2/1 4/3/1 3/4/1
f 3/4/2 4/3/2 6/5/2 5/6/2
f 5/6/3 6/5/3 8/7/3 7/8/3
f 7/8/4 8/7/4 2/9/4 1/10/4
f 1/11/5 3/12/5 5/13/5 7/14/5
usemtl Material.011
f 55/15/6 31/16/6 12/17/6 18/18/6
f 57/19/7 56/20/7 36/20/7 15/19/7
f 47/21/8 39/22/8 14/23/8 22/19/8
f 22/19/9 14/23/9 10/24/9 17/20/9
f 39/22/11 28/29/11 10/30/11 14/23/11
f 56/34/13 58/35/13 35/35/13 36/34/13
f 21/31/14 57/19/14 15/19/14 20/31/14
f 58/32/22 21/31/22 20/31/22 35/32/22
f 31/63/23 30/64/23 37/65/23
f 37/65/24 30/64/24 29/66/24 38/67/24
f 38/67/25 29/66/25 28/29/25 39/22/25
f 18/52/30 12/70/30 31/71/30 44/53/30
f 44/53/31 31/71/31 37/65/31 45/55/31
f 45/55/8 37/65/8 38/67/8 46/57/8
f 46/57/8 38/67/8 39/22/8 47/21/8
f 17/34/17 10/72/17 28/73/17 52/41/17
f 52/41/17 28/73/17 29/74/17 53/43/17
f 53/43/17 29/74/17 30/75/17 54/45/17
f 54/45/32 30/75/32 31/16/32 55/15/32
f 22/19/35 17/20/35 56/20/35 57/19/35
