# Blender 4.5.3 LTS
# www.blender.org
mtllib grimhart.mtl
o grimhart
v -0.000000 -0.308047 -0.011471
v -0.000000 -0.308047 0.015377
v 0.003777 0.421817 0.015580
v -0.003777 0.421817 0.015580
v -0.003777 0.421817 -0.011675
v 0.003777 0.421817 -0.011675
v 0.007624 0.343543 0.061240
v 0.007624 0.473162 0.061240
v 0.000000 0.269375 0.410000
v 0.000000 0.372736 0.352627
v -0.007624 0.343543 0.061240
v -0.007624 0.473162 0.061240
v -0.006793 0.430190 -0.027790
v 0.007624 0.386749 0.070963
v 0.007624 0.429955 0.070963
v 0.000000 0.338481 0.376497
v 0.000000 0.310024 0.391586
v -0.006793 0.396827 -0.027790
v -0.012732 0.386749 0.021496
v -0.007624 0.429956 0.070963
v -0.007624 0.386749 0.070963
v 0.000000 0.333313 0.330479
v 0.007624 0.360934 0.259141
v 0.007624 0.365026 0.199312
v 0.007624 0.359911 0.126184
v 0.007624 0.463955 0.130787
v 0.007624 0.445541 0.205450
v 0.007624 0.424569 0.266813
v 0.000000 0.396436 0.326131
v -0.007624 0.359911 0.126184
v -0.007624 0.365026 0.199312
v -0.007624 0.360934 0.259141
v 0.006793 0.396827 -0.027790
v 0.006793 0.430190 -0.027790
v -0.007624 0.424569 0.266813
v -0.007624 0.445541 0.205450
v -0.007624 0.463955 0.130787
v -0.007624 0.350432 0.333190
v -0.007624 0.382901 0.261417
v -0.007624 0.386749 0.202076
v -0.007624 0.386749 0.136520
v -0.007624 0.370621 0.328587
v -0.007624 0.400800 0.262825
v -0.007624 0.419521 0.202076
v -0.007624 0.429956 0.136520
v 0.007624 0.386749 0.136520
v 0.007624 0.386749 0.202076
v 0.007624 0.382901 0.261417
v 0.007624 0.350432 0.333190
v 0.007624 0.429955 0.136520
v 0.007624 0.419521 0.202076
v 0.007624 0.400800 0.262825
v 0.007624 0.370621 0.328587
v 0.012732 0.429955 0.021496
v -0.012732 0.429956 0.021496
v 0.012732 0.386749 0.021496
v -0.000000 0.408352 -0.097945
vn 1.0000 -0.0052 -0.0000
vn -0.0000 -0.0003 1.0000
vn -1.0000 -0.0052 -0.0000
vn -0.0000 -0.0003 -1.0000
vn 0.9316 0.2385 0.2744
vn -0.0000 1.0000 0.0048
vn -1.0000 -0.0000 -0.0000
vn -0.0000 -0.2195 -0.9756
vn -0.0000 -0.9697 0.2444
vn -0.0000 0.9914 0.1312
vn -0.0000 0.2195 -0.9756
vn 0.9928 -0.0000 -0.1196
vn -0.0000 -1.0000 -0.0000
vn -0.9928 -0.0000 -0.1196
vn 0.9878 -0.1454 -0.0554
vn 0.9779 0.0785 0.1938
vn 1.0000 -0.0000 -0.0000
vn 0.9818 -0.1881 -0.0267
vn -0.9779 0.0785 0.1938
vn -0.9878 -0.1454 -0.0554
vn -0.9818 -0.1881 -0.0267
vn -0.0000 -0.9797 -0.2003
vn -0.0000 0.9035 0.4285
vn -0.0000 0.9463 0.3234
vn -0.0000 0.9709 0.2395
vn 0.9953 -0.0000 -0.0964
vn -0.0000 -0.9325 -0.3611
vn -0.0000 -0.9977 -0.0682
vn -0.0000 -0.9976 0.0698
vn -0.9316 0.2385 0.2744
vn -0.9808 0.1468 0.1282
vn 0.9808 0.1468 0.1282
vn -0.9947 -0.0000 0.1027
vn 0.9947 -0.0000 0.1027
vn -0.0000 1.0000 -0.0000
vn -0.9953 -0.0000 -0.0964
vn -0.0000 0.9548 -0.2972
vn -0.0000 -0.9868 -0.1621
vt 0.375000 0.000000
vt 0.417246 0.000000
vt 0.417246 0.242034
vt 0.375000 0.250000
vt 0.417246 0.507966
vt 0.375000 0.500000
vt 0.417246 0.742034
vt 0.375000 0.750000
vt 0.417246 1.012206
vt 0.541667 0.200000
vt 0.625000 0.200000
vt 0.625000 0.250000
vt 0.541667 0.250000
vt 0.541667 0.750000
vt 0.541667 1.000000
vt 0.541667 0.700000
vt 0.625000 0.700000
vt 0.625000 0.750000
vt 0.625000 1.000000
vt 0.125000 0.700000
vt 0.375000 0.700000
vt 0.125000 0.750000
vt 0.875000 0.700000
vt 0.875000 0.750000
vt 0.458333 0.750000
vt 0.458333 1.000000
vt 0.375000 1.000000
vt 0.541667 0.000000
vt 0.458333 0.000000
vt 0.458333 0.700000
vt 0.375000 0.200000
vt 0.458333 0.200000
vt 0.458333 0.250000
vt 0.541667 0.050000
vt 0.458333 0.050000
vt 0.541667 0.100000
vt 0.458333 0.100000
vt 0.541667 0.150000
vt 0.458333 0.150000
vt 0.375000 0.050000
vt 0.375000 0.100000
vt 0.375000 0.150000
vt 0.458333 0.500000
vt 0.541667 0.500000
vt 0.541667 0.550000
vt 0.458333 0.550000
vt 0.541667 0.600000
vt 0.458333 0.600000
vt 0.541667 0.650000
vt 0.458333 0.650000
vt 0.375000 0.550000
vt 0.375000 0.600000
vt 0.375000 0.650000
vt 0.875000 0.550000
vt 0.875000 0.600000
vt 0.625000 0.600000
vt 0.875000 0.650000
vt 0.625000 0.650000
vt 0.125000 0.600000
vt 0.125000 0.650000
vt 0.625000 0.500000
vt 0.625000 0.550000
vt 0.625000 0.000000
vt 0.625000 0.050000
vt 0.625000 0.100000
vt 0.625000 0.150000
s 0
usemtl Material.009
f 25/20/9 30/21/9 11/8/9 7/22/9
f 11/8/11 21/25/11 14/26/11 7/27/11
f 30/21/7 41/30/7 21/25/7 11/8/7
f 41/30/7 45/16/7 20/14/7 21/25/7
f 14/26/13 21/25/13 19/25/13 56/26/13
f 22/31/15 49/32/15 17/33/15 9/4/15
f 49/32/16 53/10/16 16/13/16 17/33/16
f 14/29/17 15/28/17 50/34/17 46/35/17
f 46/35/17 50/34/17 51/36/17 47/37/17
f 47/37/17 51/36/17 52/38/17 48/39/17
f 48/39/17 52/38/17 53/10/17 49/32/17
f 7/1/17 14/29/17 46/35/17 25/40/17
f 25/40/17 46/35/17 47/37/17 24/41/17
f 24/41/17 47/37/17 48/39/17 23/42/17
f 23/42/18 48/39/18 49/32/18 22/31/18
f 17/43/19 16/44/19 42/45/19 38/46/19
f 38/46/7 42/45/7 43/47/7 39/48/7
f 39/48/7 43/47/7 44/49/7 40/50/7
f 40/50/7 44/49/7 45/16/7 41/30/7
f 9/6/20 17/43/20 38/46/20 22/51/20
f 22/51/21 38/46/21 39/48/21 32/52/21
f 32/52/7 39/48/7 40/50/7 31/53/7
f 31/53/7 40/50/7 41/30/7 30/21/7
f 34/28/26 33/29/26 57/28/26
f 22/51/27 32/52/27 23/59/27
f 23/59/28 32/52/28 31/53/28 24/60/28
f 24/60/29 31/53/29 30/21/29 25/20/29
f 21/25/33 20/14/33 55/14/33 19/25/33
f 15/28/34 14/29/34 56/29/34 54/28/34
f 18/25/36 13/14/36 57/25/36
f 13/14/37 34/15/37 57/14/37
f 33/26/38 18/25/38 57/26/38
usemtl Material.010
f 1/1/1 6/2/1 3/3/1 2/4/1
f 2/4/2 3/3/2 4/5/2
f 2/6/3 4/5/3 5/7/3 1/8/3
f 1/8/4 5/7/4 6/9/4
usemtl Material.011
f 53/10/5 29/11/5 10/12/5 16/13/5
f 55/14/6 54/15/6 34/15/6 13/14/6
f 45/16/7 37/17/7 12/18/7 20/14/7
f 20/14/8 12/18/8 8/19/8 15/15/8
f 37/17/10 26/23/10 8/24/10 12/18/10
f 54/28/12 56/29/12 33/29/12 34/28/12
f 19/25/14 55/14/14 13/14/14 18/25/14
f 56/26/22 19/25/22 18/25/22 33/26/22
f 29/54/23 28/55/23 35/56/23
f 35/56/24 28/55/24 27/57/24 36/58/24
f 36/58/25 27/57/25 26/23/25 37/17/25
f 16/44/30 10/61/30 29/62/30 42/45/30
f 42/45/31 29/62/31 35/56/31 43/47/31
f 43/47/7 35/56/7 36/58/7 44/49/7
f 44/49/7 36/58/7 37/17/7 45/16/7
f 15/28/17 8/63/17 26/64/17 50/34/17
f 50/34/17 26/64/17 27/65/17 51/36/17
f 51/36/17 27/65/17 28/66/17 52/38/17
f 52/38/32 28/66/32 29/11/32 53/10/32
f 20/14/35 15/15/35 54/15/35 55/14/35
