# Blender 4.5.3 LTS
# www.blender.org
mtllib pike.mtl
o pike
v 0.000000 -0.308047 0.013424
v 0.000000 0.574766 -0.000000
v 0.000000 -0.308047 -0.013424
v 0.005152 0.436787 0.018589
v 0.004399 0.461510 0.030371
v 0.005152 0.436787 -0.018589
v -0.004399 0.461511 0.030371
v -0.005152 0.436787 -0.018589
v -0.005152 0.427010 0.018589
v -0.005152 0.427010 -0.018589
v 0.005152 0.427010 -0.018589
v 0.005152 0.427010 0.018589
v -0.003647 0.538417 0.013161
v -0.003647 0.538417 -0.013161
v 0.003647 0.538417 -0.013161
v 0.003647 0.538417 0.013161
v -0.005152 0.436787 0.018589
v -0.003777 0.421817 -0.013628
v 0.003777 0.421817 -0.013628
v 0.003777 0.421817 0.013628
v -0.003777 0.421817 0.013628
v -0.004399 0.461510 -0.030371
v 0.004399 0.461510 -0.030371
v 0.000000 0.250799 0.081995
v 0.000000 0.532837 0.081995
v -0.004533 0.382867 -0.013485
v -0.004533 0.400769 -0.013485
v 0.004533 0.382867 -0.013485
v 0.004533 0.400769 -0.013485
v -0.010296 0.371490 0.016014
v -0.023358 0.371490 0.040770
v -0.023358 0.412147 0.040770
v -0.010296 0.412147 0.016014
v 0.023358 0.371490 0.040770
v 0.010296 0.371490 0.016014
v 0.010296 0.412147 0.016014
v 0.023358 0.412147 0.040770
v 0.000000 0.344812 0.142146
v 0.000000 0.438825 0.142146
v -0.004533 0.394802 -0.013485
v -0.004533 0.388835 -0.013485
v 0.004533 0.394802 -0.013485
v 0.004533 0.388835 -0.013485
v 0.010296 0.398594 0.016014
v 0.010296 0.385042 0.016014
v 0.023358 0.398594 0.040770
v 0.023358 0.385042 0.040770
v -0.023358 0.398594 0.040770
v -0.023358 0.385042 0.040770
v -0.010296 0.398594 0.016014
v -0.010296 0.385042 0.016014
vn -0.9950 0.0998 -0.0000
vn -0.0000 0.3404 -0.9403
vn 0.9950 0.0998 -0.0000
vn -0.0000 0.3404 0.9403
vn -0.9995 0.0304 -0.0000
vn -0.0000 -0.0000 -1.0000
vn -0.0000 -0.6908 0.7231
vn 0.9667 -0.2559 -0.0000
vn -0.0000 -0.6908 -0.7231
vn -0.9667 -0.2559 -0.0000
vn -0.0000 0.2184 0.9759
vn 1.0000 0.0098 -0.0000
vn -0.0000 0.2184 -0.9759
vn -1.0000 0.0098 -0.0000
vn -1.0000 -0.0000 -0.0000
vn 1.0000 -0.0000 -0.0000
vn -0.0000 -0.0000 1.0000
vn -1.0000 -0.0052 -0.0000
vn -0.0000 -0.0003 -1.0000
vn 1.0000 -0.0052 -0.0000
vn -0.0000 -0.0003 1.0000
vn -0.0000 -0.4302 0.9027
vn -0.0000 -0.4302 -0.9027
vn 0.9995 0.0304 -0.0000
vn -0.9814 -0.0000 -0.1917
vn 0.9745 0.1095 0.1957
vn -0.0000 -0.3232 -0.9463
vn -0.0000 0.3232 -0.9463
vn -0.0000 1.0000 -0.0000
vn -0.0000 -1.0000 -0.0000
vn 0.9814 -0.0000 -0.1917
vn 0.8844 -0.0000 -0.4667
vn -0.9745 0.1095 0.1957
vn -0.8844 -0.0000 -0.4667
vn -0.9745 -0.1095 0.1957
vn -0.9745 -0.0000 0.2245
vn 0.9745 -0.1095 0.1957
vn 0.9745 -0.0000 0.2245
vt 0.588152 0.000000
vt 0.625000 0.250000
vt 0.588152 0.250000
vt 0.625000 0.500000
vt 0.588152 0.500000
vt 0.625000 0.750000
vt 0.588152 0.750000
vt 0.625000 1.000000
vt 0.588152 1.000000
vt 0.428267 0.000000
vt 0.508209 0.000000
vt 0.508209 0.250000
vt 0.428267 0.250000
vt 0.421250 0.250000
vt 0.428267 0.500000
vt 0.421250 0.500000
vt 0.417246 0.742034
vt 0.421250 0.750000
vt 0.421250 1.000000
vt 0.417246 1.012206
vt 0.417246 0.507966
vt 0.417246 0.242034
vt 0.417246 0.000000
vt 0.421250 0.000000
vt 0.508209 0.750000
vt 0.508209 1.000000
vt 0.508209 0.500000
vt 0.428267 0.750000
vt 0.428267 1.000000
vt 0.375000 0.000000
vt 0.375000 0.250000
vt 0.375000 0.500000
vt 0.375000 0.750000
vt 0.541667 0.166667
vt 0.625000 0.166667
vt 0.541667 0.250000
vt 0.541667 0.666667
vt 0.625000 0.666667
vt 0.541667 0.750000
vt 0.125000 0.666667
vt 0.375000 0.666667
vt 0.125000 0.750000
vt 0.875000 0.666667
vt 0.625000 0.583333
vt 0.875000 0.583333
vt 0.125000 0.583333
vt 0.375000 0.583333
vt 0.541667 0.500000
vt 0.541667 0.583333
vt 0.541667 0.000000
vt 0.625000 0.000000
vt 0.625000 0.083333
vt 0.541667 0.083333
vt 0.375000 0.083333
vt 0.458333 0.083333
vt 0.458333 0.166667
vt 0.375000 0.166667
vt 0.458333 0.000000
vt 0.458333 0.583333
vt 0.458333 0.666667
vt 0.458333 0.500000
vt 0.458333 0.750000
vt 0.458333 0.250000
s 0
usemtl Material.009
f 13/1/1 2/2/1 14/3/1
f 14/3/2 2/4/2 15/5/2
f 15/5/3 2/6/3 16/7/3
f 16/7/4 2/8/4 13/9/4
f 17/10/5 7/11/5 22/12/5 8/13/5
f 5/25/11 16/7/11 13/9/11 7/26/11
f 23/27/12 15/5/12 16/7/12 5/25/12
f 22/12/13 14/3/13 15/5/13 23/27/13
f 7/11/14 13/1/14 14/3/14 22/12/14
f 4/28/22 5/25/22 7/26/22 17/29/22
f 8/13/23 22/12/23 23/27/23 6/15/23
f 6/15/24 23/27/24 5/25/24 4/28/24
f 46/37/26 37/38/26 25/6/26 39/39/26
f 31/40/27 34/41/27 24/42/27
f 37/38/28 32/43/28 25/6/28
f 36/44/29 33/45/29 32/43/29 37/38/29
f 30/46/30 35/47/30 34/41/30 31/40/30
f 44/49/32 36/44/32 37/38/32 46/37/32
f 39/50/33 25/51/33 32/52/33 48/53/33
f 48/53/34 32/52/34 33/35/34 50/34/34
f 31/54/34 49/55/34 51/56/34 30/57/34
f 49/55/34 48/53/34 50/34/34 51/56/34
f 24/30/35 38/58/35 49/55/35 31/54/35
f 38/58/36 39/50/36 48/53/36 49/55/36
f 35/47/32 45/59/32 47/60/32 34/41/32
f 45/59/32 44/49/32 46/37/32 47/60/32
f 34/41/37 47/60/37 38/62/37 24/33/37
f 47/60/38 46/37/38 39/39/38 38/62/38
usemtl Material.010
f 20/17/7 12/18/7 9/19/7 21/20/7
f 19/21/8 11/16/8 12/18/8 20/17/8
f 18/22/9 10/14/9 11/16/9 19/21/9
f 21/23/10 9/24/10 10/14/10 18/22/10
f 1/30/18 21/23/18 18/22/18 3/31/18
f 3/31/19 18/22/19 19/21/19
f 3/32/20 19/21/20 20/17/20 1/33/20
f 1/33/21 20/17/21 21/20/21
usemtl Material.011
f 10/14/6 8/13/6 6/15/6 11/16/6
f 9/24/15 17/10/15 8/13/15 10/14/15
f 11/16/16 6/15/16 4/28/16 12/18/16
f 12/18/17 4/28/17 17/29/17 9/19/17
f 50/34/25 33/35/25 27/2/25 40/36/25
f 42/48/31 29/4/31 36/44/31 44/49/31
f 28/32/31 43/61/31 45/59/31 35/47/31
f 43/61/31 42/48/31 44/49/31 45/59/31
f 30/57/25 51/56/25 41/63/25 26/31/25
f 51/56/25 50/34/25 40/36/25 41/63/25
