# Blender 4.5.3 LTS
# www.blender.org
mtllib hand.mtl
o hand
v 0.210667 0.017700 0.019768
v 0.210667 -0.015122 -0.019768
v 0.210667 0.017700 -0.019768
v 0.210667 -0.015122 0.019768
v 0.003074 0.028447 -0.034635
v 0.003074 -0.025869 -0.034635
v 0.003074 -0.025869 0.034635
v 0.003074 0.028447 0.034635
v 0.130222 0.028447 -0.034635
v 0.130222 -0.025869 -0.034635
v 0.130222 -0.025869 0.034635
v 0.130222 0.028447 0.034635
v 0.130738 0.017700 -0.019768
v 0.130738 -0.015122 -0.019768
v 0.130738 -0.015122 0.019768
v 0.130738 0.017700 0.019768
v 0.242939 0.013624 -0.015732
v 0.242939 -0.011046 -0.015732
v 0.242939 -0.011046 0.015732
v 0.242939 0.013624 0.015732
v 0.231487 -0.011046 -0.015732
v 0.231487 -0.011046 0.015732
v 0.231487 0.013624 0.015732
v 0.231487 0.013624 -0.015732
v 0.242939 -0.018694 0.015732
v 0.242939 -0.018694 -0.015732
v 0.231487 -0.018694 -0.015732
v 0.231487 -0.018694 0.015732
v 0.211901 0.013317 -0.014853
v 0.211901 -0.010739 0.014853
v 0.211901 -0.010739 -0.014853
v 0.211901 0.013317 0.014853
vn -0.0000 -0.0000 1.0000
vn -0.0000 -0.0000 -1.0000
vn -0.0000 1.0000 -0.0000
vn -0.0000 -1.0000 -0.0000
vn -1.0000 -0.0000 -0.0000
vn 0.9994 -0.0000 0.0347
vn 0.9988 -0.0480 -0.0000
vn 0.9988 0.0480 -0.0000
vn 0.9994 -0.0000 -0.0347
vn 1.0000 -0.0000 -0.0000
vn -0.0448 -0.0000 0.9990
vn -0.0448 -0.0000 -0.9990
vn -0.0157 0.9999 -0.0000
vn -0.0157 -0.9999 -0.0000
vn 0.9626 -0.2709 -0.0000
vn 0.9626 0.2709 -0.0000
vn 0.9699 -0.0000 -0.2435
vn 0.9699 -0.0000 0.2435
vt 0.625000 0.750000
vt 0.375000 0.750000
vt 0.375000 0.500000
vt 0.625000 0.500000
vt 0.625000 0.750000
vt 0.375000 0.750000
vt 0.375000 0.500000
vt 0.625000 0.500000
s 0
usemtl Material.005
f 5/4/3 8/1/3 12/1/3 9/4/3
f 6/3/5 7/2/5 8/1/5 5/4/5
f 12/1/6 11/2/6 15/2/6 16/1/6
f 6/3/2 5/4/2 9/4/2 10/3/2
f 8/1/1 7/2/1 11/2/1 12/1/1
f 7/2/4 6/3/4 10/3/4 11/2/4
f 11/2/7 10/3/7 14/3/7 15/2/7
f 9/4/8 12/1/8 16/1/8 13/4/8
f 10/3/9 9/4/9 13/4/9 14/3/9
usemtl Material.006
f 16/1/1 15/2/1 4/2/1 1/1/1
f 14/3/2 13/4/2 3/4/2 2/3/2
f 13/4/3 16/1/3 1/1/3 3/4/3
f 15/2/4 14/3/4 2/3/4 4/2/4
f 19/2/1 22/2/1 28/2/1 25/2/1
f 18/3/10 17/4/10 20/1/10 19/2/10
f 24/4/3 23/1/3 20/1/3 17/4/3
f 21/3/2 24/4/2 17/4/2 18/3/2
f 23/1/1 22/2/1 19/2/1 20/1/1
f 32/5/11 30/6/11 22/2/11 23/1/11
f 31/7/12 29/8/12 24/4/12 21/3/12
f 29/8/13 32/5/13 23/1/13 24/4/13
f 30/6/14 31/7/14 21/3/14 22/2/14
f 28/2/4 27/3/4 26/3/4 25/2/4
f 18/3/10 19/2/10 25/2/10 26/3/10
f 21/3/2 18/3/2 26/3/2 27/3/2
f 22/2/5 21/3/5 27/3/5 28/2/5
f 4/2/15 2/3/15 31/7/15 30/6/15
f 3/4/16 1/1/16 32/5/16 29/8/16
f 2/3/17 3/4/17 29/8/17 31/7/17
f 1/1/18 4/2/18 30/6/18 32/5/18
