# Blender 4.5.3 LTS
# www.blender.org
mtllib hand.mtl
o hand
v -0.002533 -0.012474 0.017552
v -0.002533 0.015052 0.017552
v -0.002533 -0.012474 -0.017552
v -0.002533 0.015052 -0.017552
v 0.078234 -0.016364 0.022513
v 0.078234 0.018942 0.022513
v 0.078234 -0.016364 -0.022513
v 0.078234 0.018942 -0.022513
v 0.079048 0.028447 -0.034635
v 0.079048 -0.025869 -0.034635
v 0.079048 -0.025869 0.034635
v 0.079048 0.028447 0.034635
v 0.206196 0.028447 -0.034635
v 0.206196 -0.025869 -0.034635
v 0.206196 -0.025869 0.034635
v 0.206196 0.028447 0.034635
v 0.206713 0.013624 -0.015732
v 0.206713 -0.011046 -0.015732
v 0.206713 -0.011046 0.015732
v 0.206713 0.013624 0.015732
v 0.242939 0.013624 -0.015732
v 0.242939 -0.011046 -0.015732
v 0.242939 -0.011046 0.015732
v 0.242939 0.013624 0.015732
v 0.231487 -0.011046 -0.015732
v 0.231487 -0.011046 0.015732
v 0.231487 0.013624 0.015732
v 0.231487 0.013624 -0.015732
v 0.242939 -0.018694 0.015732
v 0.242939 -0.018694 -0.015732
v 0.231487 -0.018694 -0.015732
v 0.231487 -0.018694 0.015732
vn -1.0000 -0.0000 -0.0000
vn -0.0613 -0.0000 -0.9981
vn -0.9978 -0.0000 0.0670
vn -0.0613 -0.0000 0.9981
vn -0.0481 -0.9988 -0.0000
vn -0.0481 0.9988 -0.0000
vn -0.0000 1.0000 -0.0000
vn -0.9964 -0.0854 -0.0000
vn -0.9964 0.0853 -0.0000
vn -0.9978 -0.0000 -0.0670
vn 0.9996 -0.0000 0.0273
vn -0.0000 -0.0000 -1.0000
vn -0.0000 -0.0000 1.0000
vn -0.0000 -1.0000 -0.0000
vn 0.9994 -0.0348 -0.0000
vn 0.9994 0.0348 -0.0000
vn 0.9996 -0.0000 -0.0273
vn 1.0000 -0.0000 -0.0000
vt 0.375000 0.000000
vt 0.625000 0.000000
vt 0.625000 0.250000
vt 0.375000 0.250000
vt 0.625000 0.500000
vt 0.375000 0.500000
vt 0.625000 0.750000
vt 0.375000 0.750000
vt 0.625000 1.000000
vt 0.375000 1.000000
vt 0.125000 0.500000
vt 0.125000 0.750000
vt 0.875000 0.500000
vt 0.875000 0.750000
s 0
usemtl Material.005
f 6/7/3 5/8/3 11/8/3 12/7/3
f 9/5/7 12/7/7 16/7/7 13/5/7
f 5/8/8 7/6/8 10/6/8 11/8/8
f 8/5/9 6/7/9 12/7/9 9/5/9
f 7/6/10 8/5/10 9/5/10 10/6/10
f 16/7/11 15/8/11 19/8/11 20/7/11
f 10/6/12 9/5/12 13/5/12 14/6/12
f 12/7/13 11/8/13 15/8/13 16/7/13
f 11/8/14 10/6/14 14/6/14 15/8/14
f 15/8/15 14/6/15 18/6/15 19/8/15
f 13/5/16 16/7/16 20/7/16 17/5/16
f 14/6/17 13/5/17 17/5/17 18/6/17
usemtl Material.006
f 1/1/1 2/2/1 4/3/1 3/4/1
f 3/4/2 4/3/2 8/5/2 7/6/2
f 5/8/4 6/7/4 2/9/4 1/10/4
f 3/11/5 7/6/5 5/8/5 1/12/5
f 8/5/6 4/13/6 2/14/6 6/7/6
f 23/8/13 26/8/13 32/8/13 29/8/13
f 22/6/18 21/5/18 24/7/18 23/8/18
f 28/5/7 27/7/7 24/7/7 21/5/7
f 25/6/12 28/5/12 21/5/12 22/6/12
f 27/7/13 26/8/13 23/8/13 24/7/13
f 20/7/13 19/8/13 26/8/13 27/7/13
f 18/6/12 17/5/12 28/5/12 25/6/12
f 17/5/7 20/7/7 27/7/7 28/5/7
f 19/8/14 18/6/14 25/6/14 26/8/14
f 32/8/14 31/6/14 30/6/14 29/8/14
f 22/6/18 23/8/18 29/8/18 30/6/18
f 25/6/12 22/6/12 30/6/12 31/6/12
f 26/8/1 25/6/1 31/6/1 32/8/1
