# Blender 4.5.3 LTS
# www.blender.org
mtllib arabian_helm_1.mtl
o arabian_helm_1
v -0.000000 -0.046387 -0.087502
v -0.000000 0.110659 -0.020492
v 0.064139 -0.046387 -0.060935
v 0.014490 0.110659 -0.014490
v 0.090706 -0.046387 0.003204
v 0.020492 0.110659 -0.000000
v 0.064139 -0.061679 0.067342
v 0.014490 0.110659 0.014490
v -0.000000 0.110659 0.020492
v -0.064139 -0.061679 0.067342
v -0.014490 0.110659 0.014490
v -0.090706 -0.046387 0.003204
v -0.020492 0.110659 -0.000000
v -0.064139 -0.046387 -0.060935
v -0.014490 0.110659 -0.014490
v -0.000000 0.011238 -0.068281
v -0.000000 0.044691 -0.068281
v 0.048282 0.044691 -0.048282
v 0.048282 0.011238 -0.048282
v 0.068281 0.044691 -0.000000
v 0.068281 0.011238 -0.000000
v 0.048282 -0.015293 0.048282
v 0.068281 -0.007578 -0.000000
v -0.000000 -0.007578 -0.068281
v -0.048282 -0.007578 -0.048282
v -0.068281 0.044691 -0.000000
v -0.068281 0.011238 -0.000000
v -0.048282 0.044691 -0.048282
v -0.048282 0.011238 -0.048282
v 0.048282 0.044691 0.048282
v 0.048282 0.011238 0.048282
v -0.068281 -0.007578 -0.000000
v -0.048282 -0.015293 0.048282
v 0.048282 -0.007578 -0.048282
v -0.048282 0.044691 0.048282
v -0.048282 0.011238 0.048282
v -0.000000 0.059910 -0.078915
v 0.055801 0.059910 -0.055801
v 0.078914 0.059910 -0.000000
v 0.055801 0.059910 0.055801
v -0.000000 0.059910 0.078915
v -0.055801 0.059910 0.055801
v -0.078915 0.059910 -0.000000
v -0.055801 0.059910 -0.055801
v 0.052937 0.070259 -0.052938
v -0.000000 0.070259 -0.074865
v 0.074865 0.070259 -0.000000
v 0.052937 0.070259 0.052938
v -0.000000 0.070259 0.074865
v -0.052938 0.070259 0.052938
v -0.074865 0.070259 -0.000000
v -0.052938 0.070259 -0.052938
v 0.029256 0.084815 -0.029257
v -0.000000 0.084815 -0.041375
v 0.041375 0.084815 -0.000000
v 0.029256 0.084815 0.029257
v -0.000000 0.084815 0.041375
v -0.029257 0.084815 0.029257
v -0.041375 0.084815 -0.000000
v -0.029257 0.084815 -0.029257
v 0.058256 0.038790 -0.058256
v 0.082387 0.038790 -0.000000
v 0.058256 0.038790 0.058256
v -0.000000 0.038790 0.082387
v -0.058256 0.038790 0.058256
v -0.082387 0.038790 -0.000000
v -0.058256 0.038790 -0.058256
v -0.000000 0.038790 -0.082387
vn 0.3599 0.3400 -0.8688
vn 0.8688 0.3400 -0.3599
vn 0.8688 0.3400 0.3599
vn 0.3599 0.3400 0.8688
vn -0.3599 0.3400 0.8688
vn -0.8688 0.3400 0.3599
vn -0.0000 1.0000 -0.0000
vn -0.8688 0.3400 -0.3599
vn -0.3599 0.3400 -0.8688
vn -0.3827 -0.0000 -0.9239
vn -0.9239 -0.0000 -0.3827
vn -0.9239 -0.0000 0.3827
vn 0.9239 -0.0000 0.3827
vn 0.9239 -0.0000 -0.3827
vn 0.3827 -0.0000 -0.9239
vn 0.3480 0.4161 -0.8401
vn -0.3480 0.4161 -0.8401
vn -0.8256 0.4488 -0.3420
vn -0.7825 0.4610 0.4185
vn 0.7825 0.4610 0.4185
vn 0.8256 0.4488 -0.3420
vn -0.3783 0.1502 -0.9134
vn -0.9134 0.1502 -0.3783
vn -0.9134 0.1502 0.3783
vn -0.3783 0.1502 0.9134
vn 0.3783 0.1502 0.9134
vn 0.9134 0.1502 0.3783
vn 0.9134 0.1502 -0.3783
vn 0.3783 0.1502 -0.9134
vn 0.1629 0.9049 -0.3933
vn 0.3933 0.9049 -0.1629
vn 0.3933 0.9049 0.1629
vn 0.1629 0.9049 0.3933
vn -0.1629 0.9049 0.3933
vn -0.3933 0.9049 0.1629
vn -0.3933 0.9049 -0.1629
vn -0.1629 0.9049 -0.3933
vn 0.3067 0.5982 -0.7403
vn 0.7403 0.5982 -0.3067
vn 0.7403 0.5982 0.3067
vn 0.3067 0.5982 0.7403
vn -0.3067 0.5982 0.7403
vn -0.7403 0.5982 0.3067
vn -0.7403 0.5982 -0.3067
vn -0.3067 0.5982 -0.7403
vt 1.000000 0.953072
vt 1.000000 1.000000
vt 0.875000 1.000000
vt 0.875000 0.953072
vt 0.750000 1.000000
vt 0.750000 0.953072
vt 0.625000 1.000000
vt 0.625000 0.953072
vt 0.500000 1.000000
vt 0.500000 0.953072
vt 0.375000 1.000000
vt 0.375000 0.953072
vt 0.250000 1.000000
vt 0.250000 0.953072
vt 0.306559 0.306559
vt 0.250000 0.329987
vt 0.193441 0.306559
vt 0.170013 0.250000
vt 0.193441 0.193441
vt 0.250000 0.170013
vt 0.306559 0.193441
vt 0.329987 0.250000
vt 0.125000 1.000000
vt 0.125000 0.953072
vt 0.000000 1.000000
vt 0.000000 0.953072
vt 0.125000 0.575147
vt 0.125000 0.727865
vt 0.000000 0.727865
vt 0.000000 0.575147
vt 0.125000 0.772135
vt 0.000000 0.772135
vt 0.250000 0.575147
vt 0.250000 0.727865
vt 0.250000 0.772135
vt 0.375000 0.575147
vt 0.375000 0.727865
vt 0.375000 0.772135
vt 0.750000 0.575147
vt 0.750000 0.727865
vt 0.625000 0.727865
vt 0.625000 0.575147
vt 0.750000 0.772135
vt 0.625000 0.772135
vt 0.875000 0.575147
vt 0.875000 0.727865
vt 0.875000 0.772135
vt 1.000000 0.575147
vt 1.000000 0.727865
vt 1.000000 0.772135
vt 1.000000 0.500000
vt 0.875000 0.500000
vt 0.125000 0.500000
vt 0.000000 0.500000
vt 0.250000 0.500000
vt 0.375000 0.500000
vt 0.750000 0.500000
vt 0.625000 0.500000
vt 0.125000 0.813452
vt 0.000000 0.813452
vt 0.250000 0.813452
vt 0.375000 0.813452
vt 0.500000 0.813452
vt 0.625000 0.813452
vt 0.750000 0.813452
vt 0.875000 0.813452
vt 1.000000 0.813452
vt 0.250000 0.382639
vt 0.343790 0.343790
vt 0.419706 0.419706
vt 0.250000 0.490000
vt 0.382639 0.250000
vt 0.490000 0.250000
vt 0.343790 0.156210
vt 0.419706 0.080294
vt 0.250000 0.117361
vt 0.250000 0.010000
vt 0.156210 0.156210
vt 0.080294 0.080294
vt 0.117361 0.250000
vt 0.010000 0.250000
vt 0.156210 0.343790
vt 0.080294 0.419706
s 0
usemtl Material.022
f 37/1/1 46/2/1 45/3/1 38/4/1
f 38/4/2 45/3/2 47/5/2 39/6/2
f 39/6/3 47/5/3 48/7/3 40/8/3
f 40/8/4 48/7/4 49/9/4 41/10/4
f 41/10/5 49/9/5 50/11/5 42/12/5
f 42/12/6 50/11/6 51/13/6 43/14/6
f 4/15/7 2/16/7 15/17/7 13/18/7 11/19/7 9/20/7 8/21/7 6/22/7
f 43/14/8 51/13/8 52/23/8 44/24/8
f 44/24/9 52/23/9 46/25/9 37/26/9
f 67/59/22 44/24/22 37/26/22 68/60/22
f 66/61/23 43/14/23 44/24/23 67/59/23
f 65/62/24 42/12/24 43/14/24 66/61/24
f 64/63/25 41/10/25 42/12/25 65/62/25
f 63/64/26 40/8/26 41/10/26 64/63/26
f 62/65/27 39/6/27 40/8/27 63/64/27
f 61/66/28 38/4/28 39/6/28 62/65/28
f 68/67/29 37/1/29 38/4/29 61/66/29
f 54/68/30 53/69/30 45/70/30 46/71/30
f 53/69/31 55/72/31 47/73/31 45/70/31
f 55/72/32 56/74/32 48/75/32 47/73/32
f 56/74/33 57/76/33 49/77/33 48/75/33
f 57/76/34 58/78/34 50/79/34 49/77/34
f 58/78/35 59/80/35 51/81/35 50/79/35
f 59/80/36 60/82/36 52/83/36 51/81/36
f 60/82/37 54/68/37 46/71/37 52/83/37
f 2/16/38 4/15/38 53/69/38 54/68/38
f 4/15/39 6/22/39 55/72/39 53/69/39
f 6/22/40 8/21/40 56/74/40 55/72/40
f 8/21/41 9/20/41 57/76/41 56/74/41
f 9/20/42 11/19/42 58/78/42 57/76/42
f 11/19/43 13/18/43 59/80/43 58/78/43
f 13/18/44 15/17/44 60/82/44 59/80/44
f 15/17/45 2/16/45 54/68/45 60/82/45
usemtl Material.023
f 25/27/10 29/28/10 16/29/10 24/30/10
f 29/28/10 28/31/10 17/32/10 16/29/10
f 32/33/11 27/34/11 29/28/11 25/27/11
f 27/34/11 26/35/11 28/31/11 29/28/11
f 33/36/12 36/37/12 27/34/12 32/33/12
f 36/37/12 35/38/12 26/35/12 27/34/12
f 23/39/13 21/40/13 31/41/13 22/42/13
f 21/40/13 20/43/13 30/44/13 31/41/13
f 34/45/14 19/46/14 21/40/14 23/39/14
f 19/46/14 18/47/14 20/43/14 21/40/14
f 24/48/15 16/49/15 19/46/15 34/45/15
f 16/49/15 17/50/15 18/47/15 19/46/15
f 1/51/16 24/48/16 34/45/16 3/52/16
f 14/53/17 25/27/17 24/30/17 1/54/17
f 12/55/18 32/33/18 25/27/18 14/53/18
f 10/56/19 33/36/19 32/33/19 12/55/19
f 5/57/20 23/39/20 22/42/20 7/58/20
f 3/52/21 34/45/21 23/39/21 5/57/21
