# Blender 4.5.3 LTS
# www.blender.org
mtllib arabian_helm_2.mtl
o arabian_helm_2
v -0.049135 0.054815 0.050816
v -0.049135 0.054815 -0.046667
v 0.049178 0.054815 0.050816
v 0.049178 0.054815 -0.046667
v -0.059751 0.018740 0.056598
v -0.047590 -0.029654 -0.075243
v 0.047590 -0.029654 -0.075243
v 0.059751 0.018740 0.056598
v -0.049135 0.054815 0.012373
v 0.049178 0.054815 0.012373
v 0.059751 0.007742 0.015491
v -0.059751 0.007742 0.015491
v -0.030238 0.054815 -0.046667
v 0.030281 0.054815 -0.046667
v 0.030281 0.054815 0.050816
v -0.030238 0.054815 0.050816
v 0.016689 0.023289 0.063670
v -0.016689 0.023289 0.063670
v -0.033714 -0.029654 -0.076980
v 0.033714 -0.029654 -0.076980
v -0.018058 0.093538 0.014002
v 0.018058 0.093538 0.014002
v -0.008373 0.001686 0.064190
v 0.008373 0.001686 0.064190
v -0.049135 0.054815 -0.013062
v 0.057431 -0.022897 0.010324
v -0.059751 -0.028829 -0.020583
v -0.057431 -0.022897 0.010324
v 0.049178 0.054815 -0.013062
v 0.059751 -0.028829 -0.020583
v 0.018058 0.093538 -0.012091
v -0.018058 0.093538 -0.012091
v 0.059477 -0.030053 -0.001530
v -0.059477 -0.030053 -0.001530
v -0.053206 0.045542 0.060413
v -0.053206 0.045542 -0.054153
v 0.052245 0.045542 -0.054153
v 0.052245 0.045542 0.060413
v 0.052245 0.042677 0.016177
v -0.053206 0.042677 0.016177
v 0.031489 0.045542 0.060413
v -0.032450 0.045542 0.060413
v -0.032450 0.045542 -0.054428
v 0.031489 0.045542 -0.054428
v 0.052245 0.042677 -0.011094
v -0.053206 0.042677 -0.011094
v -0.005193 0.120990 0.004708
v 0.005193 0.120990 0.004708
v 0.005193 0.120990 -0.002796
v -0.005193 0.120990 -0.002796
v 0.030281 0.054815 -0.046667
v 0.030281 0.054815 -0.046667
v 0.049178 0.054815 -0.046667
v 0.049178 0.054815 -0.046667
v 0.018058 0.093538 -0.012091
v 0.018058 0.093538 -0.012091
v 0.018058 0.093538 -0.012091
v 0.018058 0.093538 -0.012091
vn -0.9357 0.3524 0.0132
vn -0.0000 1.0000 -0.0000
vn 0.9628 0.2700 -0.0094
vn -0.0000 0.7191 0.6949
vn -0.0000 0.6890 0.7247
vn -0.9955 -0.0447 0.0833
vn -0.7799 0.6259 -0.0000
vn 0.9695 0.2450 -0.0000
vn -0.9371 0.3488 -0.0121
vn 0.9955 -0.0447 0.0833
vn 0.7795 0.6264 -0.0000
vn -0.0054 0.6361 -0.7716
vn -0.0000 0.6660 -0.7459
vn -0.0000 0.0241 0.9997
vn -0.9481 0.3180 -0.0000
vn -0.9889 0.1287 -0.0743
vn 0.9915 0.0448 -0.1224
vn -0.0000 0.2873 -0.9579
vn -0.0558 0.2768 -0.9593
vn -0.0000 0.1448 0.9895
vn 0.1082 -0.0274 0.9938
vn -0.9772 0.2097 -0.0341
vn 0.9855 0.1471 -0.0849
vn -0.1079 -0.0316 0.9937
vn 0.9703 0.2388 -0.0388
vn 0.0557 0.2774 -0.9591
vn -0.9919 0.0319 -0.1228
vn -0.9055 0.4243 -0.0000
vn -0.0000 0.3207 0.9472
vn -0.0000 0.6418 -0.7669
vn 0.0054 0.6358 -0.7719
vn 0.9620 0.2730 0.0102
vn -0.0000 0.3207 -0.9472
vn 0.9055 0.4243 -0.0000
vt 0.604652 0.187500
vt 0.625000 0.187500
vt 0.625000 0.250000
vt 0.604618 0.250976
vt 0.625000 0.445531
vt 0.625000 0.500000
vt 0.604652 0.625000
vt 0.625000 0.625000
vt 0.625000 0.750000
vt 0.604652 0.750921
vt 0.604652 0.945531
vt 0.625000 0.945531
vt 0.625000 1.000000
vt 0.604652 0.998541
vt 0.679469 0.750000
vt 0.679469 0.625000
vt 0.000000 0.000000
vt 0.500000 0.125000
vt 0.500000 0.187500
vt 0.820531 0.562500
vt 0.875000 0.562500
vt 0.875000 0.625000
vt 0.820531 0.625000
vt 0.604652 0.562500
vt 0.625000 0.562500
vt 0.604652 0.000000
vt 0.625000 0.000000
vt 0.625000 0.125000
vt 0.604652 0.125000
vt 0.679469 0.562500
vt 0.500000 0.625000
vt 0.500000 0.562500
vt 0.820531 0.750000
vt 0.625000 0.804469
vt 0.604652 0.804469
vt 0.625000 0.304469
vt 0.604652 0.304469
vt 0.679469 0.500000
vt 0.820531 0.500000
vt 0.500000 0.804469
vt 0.500000 0.945531
vt 0.500000 0.500000
vt 0.604618 0.499024
vt 0.500000 0.304469
vt 0.604652 0.445531
vt 0.500000 0.445531
vt 0.500000 0.250000
vt 0.500000 0.750000
vt 0.500000 0.000000
vt 0.500000 1.000000
s 0
usemtl Material.017
f 46/1/1 25/2/1 2/3/1 36/4/1
f 52/5/2 14/5/2 4/6/2 54/6/2
f 39/7/3 10/8/3 3/9/3 38/10/3
f 42/11/4 16/12/4 1/13/4 35/14/4
f 15/15/5 3/9/5 22/16/5
f 32/20/7 25/21/7 9/22/7 21/23/7
f 45/24/8 29/25/8 10/8/8 39/7/8
f 35/26/9 1/27/9 9/28/9 40/29/9
f 57/30/2 31/30/2 55/30/2
f 55/30/2 31/30/2 58/30/2
f 10/8/11 22/16/11 3/9/11
f 22/16/5 21/23/5 16/33/5 15/15/5
f 38/10/4 3/9/4 15/34/4 41/35/4
f 41/35/4 15/34/4 16/12/4 42/11/4
f 36/4/12 2/3/12 13/36/12 43/37/12
f 52/5/2 51/5/2 14/5/2
f 14/38/2 51/38/2 56/30/2 31/30/2
f 53/6/2 4/6/2 31/30/2 57/30/2
f 54/6/2 4/6/2 53/6/2
f 51/38/13 13/39/13 32/20/13 56/30/13
f 40/29/15 9/28/15 25/2/15 46/1/15
f 49/30/2 50/20/2 47/23/2 48/16/2
f 32/20/28 21/23/28 47/23/28 50/20/28
f 21/23/29 22/16/29 48/16/29 47/23/29
f 31/30/2 56/30/2 58/30/2
f 43/37/30 13/36/30 51/5/30 52/5/30 44/45/30
f 44/45/31 52/5/31 54/6/31 37/43/31
f 37/43/32 54/6/32 53/6/32 29/25/32 45/24/32
f 29/25/11 57/30/11 55/30/11 22/16/11 10/8/11
f 56/30/33 32/20/33 50/20/33 49/30/33 58/30/33
f 29/25/11 53/6/11 57/30/11
f 22/16/34 55/30/34 58/30/34 49/30/34 48/16/34
f 56/17/13 58/17/13 55/17/13 57/17/13 53/17/13 54/17/13 52/17/13 51/17/13
f 13/39/13 2/3/13 32/20/13
f 2/3/7 25/21/7 32/20/7
f 9/22/7 1/27/7 21/23/7
f 16/33/5 21/23/5 1/27/5
usemtl Material.018
f 28/17/6 12/18/6 27/19/6 34/17/6
f 11/31/10 26/17/10 33/17/10 30/32/10
f 17/40/14 18/41/14 23/41/14 24/40/14
f 12/18/16 40/29/16 46/1/16 27/19/16
f 7/42/17 37/43/17 45/24/17 30/32/17
f 19/44/18 43/37/18 44/45/18 20/46/18
f 6/47/19 36/4/19 43/37/19 19/44/19
f 17/40/20 41/35/20 42/11/20 18/41/20
f 8/48/21 38/10/21 41/35/21 17/40/21
f 5/49/22 35/26/22 40/29/22 12/18/22
f 30/32/23 45/24/23 39/7/23 11/31/23
f 18/41/24 42/11/24 35/14/24 5/50/24
f 11/31/25 39/7/25 38/10/25 8/48/25
f 20/46/26 44/45/26 37/43/26 7/42/26
f 27/19/27 46/1/27 36/4/27 6/47/27
