# Blender 4.5.3 LTS
# www.blender.org
mtllib crown_helm.mtl
o crown_helm
v 0.000011 -0.038215 -0.078553
v 0.056786 -0.038215 -0.055035
v 0.080304 -0.038215 0.001740
v 0.053144 -0.051751 0.065083
v -0.053123 -0.051751 0.065083
v -0.080377 -0.028072 0.001728
v -0.056765 -0.038215 -0.055035
v 0.000121 0.001576 -0.068281
v -0.000000 0.015474 -0.068281
v 0.049099 0.015474 -0.048282
v 0.048282 0.001576 -0.048282
v 0.069436 0.015474 0.000000
v 0.068281 0.001576 -0.000000
v 0.048470 0.013759 0.049353
v 0.008005 0.012044 0.066138
v 0.008005 -0.006662 0.068625
v -0.048125 0.013702 0.049496
v -0.069436 0.015474 0.000000
v -0.068281 0.001576 -0.000000
v -0.049099 0.015474 -0.048282
v -0.048282 0.001576 -0.048282
v 0.048282 0.001576 0.048282
v -0.008816 0.011931 0.065852
v -0.008816 -0.006550 0.068339
v -0.000000 0.015474 0.068281
v 0.000121 -0.010092 0.070767
v -0.048282 0.001576 0.048282
v -0.000000 0.046321 -0.068906
v 0.046178 0.046321 -0.048724
v 0.065305 0.046321 0.000000
v 0.045409 0.046321 0.048724
v -0.000000 0.046321 0.068906
v -0.045409 0.046321 0.048724
v -0.065306 0.046321 0.000000
v -0.046178 0.046321 -0.048724
v -0.000000 0.032138 -0.070630
v 0.000000 0.063756 -0.053866
v 0.041515 0.032138 -0.057141
v 0.031661 0.063756 -0.043578
v 0.067173 0.032138 -0.021826
v 0.051229 0.063756 -0.016645
v 0.067173 0.032138 0.021826
v 0.051229 0.063756 0.016645
v 0.041515 0.032138 0.057141
v 0.031661 0.063756 0.043578
v -0.000000 0.032138 0.070630
v 0.000000 0.063756 0.053866
v -0.041515 0.032138 0.057141
v -0.031661 0.063756 0.043578
v -0.067173 0.032138 0.021826
v -0.051229 0.063756 0.016645
v -0.067173 0.032138 -0.021826
v -0.051229 0.063756 -0.016645
v -0.041515 0.032138 -0.057141
v -0.031661 0.063756 -0.043578
v 0.047279 0.063756 -0.065074
v 0.000000 0.063756 -0.080435
v 0.076499 0.063756 -0.024856
v 0.076499 0.063756 0.024856
v 0.047279 0.063756 0.065074
v 0.000000 0.063756 0.080435
v -0.047279 0.063756 0.065074
v -0.076499 0.063756 0.024856
v -0.076499 0.063756 -0.024856
v -0.047279 0.063756 -0.065074
v 0.015082 0.104890 -0.073226
v 0.030839 0.104890 -0.068106
v 0.036004 0.104890 -0.075215
v 0.015082 0.104890 -0.082012
v 0.055243 0.104890 -0.050376
v 0.064981 0.104890 -0.036972
v 0.073338 0.104890 -0.039687
v 0.060408 0.104890 -0.057484
v 0.074302 0.104890 -0.008284
v 0.074302 0.104890 0.008284
v 0.082659 0.104890 0.010999
v 0.082659 0.104890 -0.010999
v 0.064981 0.104890 0.036972
v 0.055243 0.104890 0.050376
v 0.060408 0.104890 0.057484
v 0.073338 0.104890 0.039687
v 0.030839 0.104890 0.068106
v 0.015082 0.104890 0.073226
v 0.015082 0.104890 0.082012
v 0.036004 0.104890 0.075215
v -0.015082 0.104890 0.073226
v -0.030839 0.104890 0.068106
v -0.036004 0.104890 0.075215
v -0.015082 0.104890 0.082012
v -0.055243 0.104890 0.050376
v -0.064981 0.104890 0.036972
v -0.073338 0.104890 0.039687
v -0.060408 0.104890 0.057484
v -0.074302 0.104890 0.008284
v -0.074302 0.104890 -0.008284
v -0.082659 0.104890 -0.010999
v -0.082659 0.104890 0.010999
v -0.064981 0.104890 -0.036972
v -0.055243 0.104890 -0.050376
v -0.060408 0.104890 -0.057484
v -0.073338 0.104890 -0.039687
v -0.030839 0.104890 -0.068106
v -0.015082 0.104890 -0.073226
v -0.015082 0.104890 -0.082012
v -0.036004 0.104890 -0.075215
v 0.000000 0.047947 -0.079474
v 0.046714 0.047947 -0.064296
v 0.075585 0.047947 -0.024559
v 0.075585 0.047947 0.024559
v 0.046714 0.047947 0.064296
v 0.000000 0.047947 0.079474
v -0.046714 0.047947 0.064296
v -0.075585 0.047947 0.024559
v -0.075585 0.047947 -0.024559
v -0.046714 0.047947 -0.064296
v 0.048282 -0.015682 -0.048282
v 0.068281 -0.015682 -0.000000
v 0.046733 -0.010037 0.048282
v -0.046733 -0.010037 0.048282
v -0.068281 -0.011379 -0.000000
v -0.048282 -0.015682 -0.048282
v 0.000060 -0.015682 -0.068281
v 0.008293 -0.070456 0.082510
v -0.007856 -0.070456 0.082510
v 0.008568 -0.020906 0.070747
v -0.008152 -0.020906 0.070747
vn -0.3821 0.0007 -0.9241
vn -0.3795 -0.0128 -0.9251
vn -0.9239 -0.0000 -0.3827
vn -0.9208 -0.0654 -0.3846
vn -0.9168 -0.0578 0.3952
vn -0.9202 -0.0534 0.3878
vn 0.9164 -0.0492 0.3972
vn 0.9207 -0.0633 0.3852
vn 0.9239 -0.0000 -0.3827
vn 0.9208 -0.0654 -0.3846
vn 0.3833 -0.0007 -0.9236
vn 0.3803 -0.0095 -0.9248
vn 0.2589 0.1085 0.9598
vn 0.3579 0.2785 0.8913
vn -0.2624 0.1075 0.9590
vn -0.3580 0.2803 0.8907
vn -0.3886 0.0024 -0.9214
vn -0.9214 0.1026 -0.3748
vn -0.9165 0.1036 0.3864
vn -0.3848 0.0186 0.9228
vn 0.3848 0.0186 0.9228
vn 0.9170 0.1078 0.3840
vn 0.9214 0.1026 -0.3748
vn 0.3886 0.0024 -0.9214
vn 0.3085 -0.0577 -0.9495
vn 0.8077 -0.0577 -0.5868
vn 0.9983 -0.0577 -0.0000
vn 0.8077 -0.0577 0.5868
vn 0.3085 -0.0577 0.9495
vn -0.3085 -0.0577 0.9495
vn -0.8077 -0.0577 0.5868
vn -0.9983 -0.0577 -0.0000
vn -0.0000 1.0000 -0.0000
vn -0.8077 -0.0577 -0.5868
vn -0.3085 -0.0577 -0.9495
vn -0.2695 0.4892 0.8295
vn 0.7596 0.3443 0.5519
vn 0.3056 -0.1481 -0.9406
vn -0.9389 0.3443 -0.0000
vn -0.7056 0.4892 0.5126
vn 0.2901 0.3443 0.8929
vn 0.8001 -0.1481 -0.5813
vn -0.7596 0.3443 -0.5519
vn -0.8722 0.4892 -0.0000
vn -0.2901 0.3443 0.8929
vn 0.9890 -0.1481 -0.0000
vn -0.2901 0.3443 -0.8929
vn -0.7056 0.4892 -0.5126
vn -0.7596 0.3443 0.5519
vn 0.8001 -0.1481 0.5813
vn 0.2901 0.3443 -0.8929
vn -0.2695 0.4892 -0.8295
vn 0.3056 -0.1481 0.9406
vn 0.7596 0.3443 -0.5519
vn 0.2695 0.4892 -0.8295
vn -0.3056 -0.1481 0.9406
vn 0.9389 0.3443 -0.0000
vn 0.7056 0.4892 -0.5126
vn -0.8001 -0.1481 0.5813
vn 0.8722 0.4892 -0.0000
vn -0.9890 -0.1481 -0.0000
vn 0.7056 0.4892 0.5126
vn -0.8001 -0.1481 -0.5813
vn 0.2695 0.4892 0.8295
vn -0.3056 -0.1481 -0.9406
vn -0.2728 -0.4697 -0.8396
vn -0.7142 -0.4697 -0.5189
vn -0.8828 -0.4697 -0.0000
vn -0.7142 -0.4697 0.5189
vn -0.2728 -0.4697 0.8396
vn 0.2728 -0.4697 0.8396
vn 0.7142 -0.4697 0.5189
vn 0.8828 -0.4697 -0.0000
vn 0.7142 -0.4697 -0.5189
vn 0.2728 -0.4697 -0.8396
vn 0.3529 0.3879 -0.8515
vn 0.8382 0.4205 -0.3472
vn 0.8467 0.3568 0.3947
vn -0.8106 0.3940 0.4332
vn -0.7925 0.4662 -0.3931
vn -0.3525 0.3884 -0.8514
vn -0.3205 0.3024 0.8977
vn 0.3232 0.3024 0.8967
vt 0.125000 0.613932
vt 0.125000 0.727865
vt 0.000000 0.727865
vt 0.000000 0.613932
vt 0.125000 0.772135
vt 0.000000 0.772135
vt 0.250000 0.613932
vt 0.250000 0.727865
vt 0.250000 0.772135
vt 0.375000 0.613932
vt 0.375000 0.727865
vt 0.375000 0.772135
vt 0.750000 0.613932
vt 0.750000 0.727865
vt 0.625000 0.727865
vt 0.625000 0.613932
vt 0.750000 0.772135
vt 0.625000 0.772135
vt 0.875000 0.613932
vt 0.875000 0.727865
vt 0.875000 0.772135
vt 1.000000 0.613932
vt 1.000000 0.727865
vt 1.000000 0.772135
vt 0.505451 0.737195
vt 0.505452 0.762805
vt 0.500000 0.772135
vt 0.500000 0.727865
vt 0.495203 0.763925
vt 0.495203 0.736075
vt 0.379797 0.763925
vt 0.125000 0.953072
vt 0.000000 0.953072
vt 0.250000 0.953072
vt 0.375000 0.953072
vt 0.500000 0.953072
vt 0.625000 0.953072
vt 0.750000 0.953072
vt 0.875000 0.953072
vt 1.000000 0.953072
vt 1.000000 0.750000
vt 1.000000 1.000000
vt 0.900000 1.000000
vt 0.900000 0.750000
vt 0.800000 1.000000
vt 0.800000 0.750000
vt 0.700000 1.000000
vt 0.700000 0.750000
vt 0.600000 1.000000
vt 0.600000 0.750000
vt 0.500000 1.000000
vt 0.500000 0.750000
vt 0.400000 1.000000
vt 0.400000 0.750000
vt 0.300000 1.000000
vt 0.300000 0.750000
vt 0.200000 1.000000
vt 0.200000 0.750000
vt 0.344470 0.380027
vt 0.250000 0.410722
vt 0.155530 0.380027
vt 0.097144 0.299666
vt 0.097144 0.200334
vt 0.155530 0.119973
vt 0.250000 0.089278
vt 0.344470 0.119973
vt 0.402856 0.200334
vt 0.402856 0.299666
vt 0.100000 1.000000
vt 0.100000 0.750000
vt -0.000000 1.000000
vt -0.000000 0.750000
vt 0.269963 0.425226
vt 0.336845 0.403495
vt 0.358767 0.433669
vt 0.269963 0.462523
vt 0.369146 0.380027
vt 0.410481 0.323134
vt 0.445952 0.334659
vt 0.391068 0.410201
vt 0.422819 0.285162
vt 0.422819 0.214838
vt 0.458290 0.203313
vt 0.458290 0.296687
vt 0.410481 0.176866
vt 0.369146 0.119973
vt 0.391068 0.089799
vt 0.445952 0.165341
vt 0.336845 0.096505
vt 0.269963 0.074774
vt 0.269963 0.037477
vt 0.358767 0.066331
vt 0.230037 0.074774
vt 0.163155 0.096505
vt 0.141233 0.066331
vt 0.230037 0.037477
vt 0.130854 0.119973
vt 0.089519 0.176866
vt 0.054048 0.165341
vt 0.108932 0.089799
vt 0.077181 0.214838
vt 0.077181 0.285162
vt 0.041710 0.296687
vt 0.041710 0.203313
vt 0.089519 0.323134
vt 0.130854 0.380027
vt 0.108932 0.410201
vt 0.054048 0.334659
vt 0.163155 0.403495
vt 0.230037 0.425226
vt 0.230037 0.462523
vt 0.141233 0.433669
vt 0.391068 0.444164
vt 0.250000 0.490000
vt 0.478254 0.324164
vt 0.478254 0.175836
vt 0.391068 0.055836
vt 0.250000 0.010000
vt 0.108932 0.055836
vt 0.021746 0.175836
vt 0.021746 0.324164
vt 0.108932 0.444164
vt 0.100000 0.500000
vt -0.000000 0.500000
vt 0.200000 0.500000
vt 0.300000 0.500000
vt 0.400000 0.500000
vt 0.500000 0.500000
vt 0.600000 0.500000
vt 0.700000 0.500000
vt 0.800000 0.500000
vt 0.900000 0.500000
vt 1.000000 0.500000
vt 0.875000 0.500000
vt 0.750000 0.500000
vt 0.625000 0.500000
vt 0.375000 0.500000
vt 0.250000 0.500000
vt 0.125000 0.500000
vt 0.000000 0.500000
s 0
usemtl Material.022
f 121/1/1 21/2/1 8/3/1 122/4/1
f 21/2/2 20/5/2 9/6/2 8/3/2
f 120/7/3 19/8/3 21/2/3 121/1/3
f 19/8/4 18/9/4 20/5/4 21/2/4
f 119/10/5 27/11/5 19/8/5 120/7/5
f 27/11/6 17/12/6 18/9/6 19/8/6
f 117/13/7 13/14/7 22/15/7 118/16/7
f 13/14/8 12/17/8 14/18/8 22/15/8
f 116/19/9 11/20/9 13/14/9 117/13/9
f 11/20/10 10/21/10 12/17/10 13/14/10
f 122/22/11 8/23/11 11/20/11 116/19/11
f 8/23/12 9/24/12 10/21/12 11/20/12
f 16/25/13 15/26/13 25/27/13 26/28/13
f 15/26/14 14/18/14 25/27/14
f 23/29/15 24/30/15 26/28/15 25/27/15
f 17/31/16 23/29/16 25/27/16
f 20/5/17 35/32/17 28/33/17 9/6/17
f 18/9/18 34/34/18 35/32/18 20/5/18
f 17/12/19 33/35/19 34/34/19 18/9/19
f 25/27/20 32/36/20 33/35/20 17/12/20
f 14/18/21 31/37/21 32/36/21 25/27/21
f 12/17/22 30/38/22 31/37/22 14/18/22
f 10/21/23 29/39/23 30/38/23 12/17/23
f 9/24/24 28/40/24 29/39/24 10/21/24
f 39/59/33 37/60/33 55/61/33 53/62/33 51/63/33 49/64/33 47/65/33 45/66/33 43/67/33 41/68/33
f 54/123/66 115/70/66 106/72/66 36/124/66
f 52/125/67 114/58/67 115/70/67 54/123/67
f 50/126/68 113/56/68 114/58/68 52/125/68
f 48/127/69 112/54/69 113/56/69 50/126/69
f 46/128/70 111/52/70 112/54/70 48/127/70
f 44/129/71 110/50/71 111/52/71 46/128/71
f 42/130/72 109/48/72 110/50/72 44/129/72
f 40/131/73 108/46/73 109/48/73 42/130/73
f 38/132/74 107/44/74 108/46/74 40/131/74
f 36/133/75 106/41/75 107/44/75 38/132/75
f 1/133/76 122/22/76 116/19/76 2/134/76
f 2/134/77 116/19/77 117/13/77 3/135/77
f 3/135/78 117/13/78 118/16/78 4/136/78
f 5/137/79 119/10/79 120/7/79 6/138/79
f 6/138/80 120/7/80 121/1/80 7/139/80
f 7/139/81 121/1/81 122/4/81 1/140/81
f 119/10/82 5/137/82 124/137/82 126/10/82
f 4/136/83 118/16/83 125/16/83 123/136/83
usemtl Material.077
f 66/73/33 67/74/33 68/75/33 69/76/33
f 70/77/33 71/78/33 72/79/33 73/80/33
f 74/81/33 75/82/33 76/83/33 77/84/33
f 78/85/33 79/86/33 80/87/33 81/88/33
f 82/89/33 83/90/33 84/91/33 85/92/33
f 86/93/33 87/94/33 88/95/33 89/96/33
f 90/97/33 91/98/33 92/99/33 93/100/33
f 94/101/33 95/102/33 96/103/33 97/104/33
f 98/105/33 99/106/33 100/107/33 101/108/33
f 102/109/33 103/110/33 104/111/33 105/112/33
f 37/60/36 39/59/36 67/74/36 66/73/36
f 39/59/37 56/113/37 68/75/37 67/74/37
f 56/113/38 57/114/38 69/76/38 68/75/38
f 57/114/39 37/60/39 66/73/39 69/76/39
f 39/59/40 41/68/40 71/78/40 70/77/40
f 41/68/41 58/115/41 72/79/41 71/78/41
f 58/115/42 56/113/42 73/80/42 72/79/42
f 56/113/43 39/59/43 70/77/43 73/80/43
f 41/68/44 43/67/44 75/82/44 74/81/44
f 43/67/45 59/116/45 76/83/45 75/82/45
f 59/116/46 58/115/46 77/84/46 76/83/46
f 58/115/47 41/68/47 74/81/47 77/84/47
f 43/67/48 45/66/48 79/86/48 78/85/48
f 45/66/49 60/117/49 80/87/49 79/86/49
f 60/117/50 59/116/50 81/88/50 80/87/50
f 59/116/51 43/67/51 78/85/51 81/88/51
f 45/66/52 47/65/52 83/90/52 82/89/52
f 47/65/39 61/118/39 84/91/39 83/90/39
f 61/118/53 60/117/53 85/92/53 84/91/53
f 60/117/54 45/66/54 82/89/54 85/92/54
f 47/65/55 49/64/55 87/94/55 86/93/55
f 49/64/43 62/119/43 88/95/43 87/94/43
f 62/119/56 61/118/56 89/96/56 88/95/56
f 61/118/57 47/65/57 86/93/57 89/96/57
f 49/64/58 51/63/58 91/98/58 90/97/58
f 51/63/47 63/120/47 92/99/47 91/98/47
f 63/120/59 62/119/59 93/100/59 92/99/59
f 62/119/37 49/64/37 90/97/37 93/100/37
f 51/63/60 53/62/60 95/102/60 94/101/60
f 53/62/51 64/121/51 96/103/51 95/102/51
f 64/121/61 63/120/61 97/104/61 96/103/61
f 63/120/41 51/63/41 94/101/41 97/104/41
f 53/62/62 55/61/62 99/106/62 98/105/62
f 55/61/54 65/122/54 100/107/54 99/106/54
f 65/122/63 64/121/63 101/108/63 100/107/63
f 64/121/45 53/62/45 98/105/45 101/108/45
f 55/61/64 37/60/64 103/110/64 102/109/64
f 37/60/57 57/114/57 104/111/57 103/110/57
f 57/114/65 65/122/65 105/112/65 104/111/65
f 65/122/49 55/61/49 102/109/49 105/112/49
usemtl Material.078
f 106/41/25 57/42/25 56/43/25 107/44/25
f 107/44/26 56/43/26 58/45/26 108/46/26
f 108/46/27 58/45/27 59/47/27 109/48/27
f 109/48/28 59/47/28 60/49/28 110/50/28
f 110/50/29 60/49/29 61/51/29 111/52/29
f 111/52/30 61/51/30 62/53/30 112/54/30
f 112/54/31 62/53/31 63/55/31 113/56/31
f 113/56/32 63/55/32 64/57/32 114/58/32
f 114/58/34 64/57/34 65/69/34 115/70/34
f 115/70/35 65/69/35 57/71/35 106/72/35
