# Blender 4.5.3 LTS
# www.blender.org
mtllib helm.mtl
o helm
v -0.053602 -0.041964 0.055112
v -0.047479 0.051798 0.056534
v -0.062318 -0.052623 -0.068554
v -0.047479 0.051798 -0.049134
v 0.053602 -0.041964 0.055112
v 0.047479 0.051798 0.056534
v 0.062318 -0.052623 -0.068554
v 0.047479 0.051798 -0.049134
v -0.053602 0.015787 0.051798
v -0.053602 0.015787 -0.051798
v 0.053602 0.015787 -0.051798
v 0.053602 0.015787 0.051798
v -0.053602 -0.022813 0.022733
v -0.047479 0.051798 0.013853
v 0.053602 -0.022813 0.022733
v 0.047479 0.051798 0.013853
v 0.053602 0.005920 0.022733
v -0.053602 0.005920 0.022733
v 0.023087 -0.046597 -0.068554
v -0.023087 -0.046597 -0.068554
v -0.029227 0.051798 -0.049134
v 0.029227 0.051798 -0.049134
v -0.025705 -0.040780 0.055112
v 0.025705 -0.040780 0.055112
v 0.029227 0.051798 0.056534
v -0.029227 0.051798 0.056534
v 0.030245 0.015787 0.051798
v -0.030245 0.015787 0.051798
v -0.030245 0.015787 -0.053356
v 0.030245 0.015787 -0.053356
v -0.029227 0.066230 0.013853
v 0.029227 0.066230 0.013853
v -0.053602 -0.039223 -0.064514
v 0.053602 -0.039223 -0.064514
v 0.053602 -0.028069 0.051316
v -0.053602 -0.028069 0.051316
v -0.053602 -0.019023 0.022733
v 0.053602 -0.019023 0.022733
v -0.021790 -0.039223 -0.066072
v 0.021790 -0.039223 -0.066072
v 0.028207 -0.028069 0.051316
v -0.028207 -0.028069 0.051316
v -0.047479 0.051798 -0.010714
v 0.062318 -0.021565 -0.017589
v -0.053602 0.005920 -0.004942
v -0.062318 -0.021565 -0.017589
v 0.047479 0.051798 -0.010714
v 0.053602 0.005920 -0.004942
v 0.029227 0.066230 -0.010714
v -0.029227 0.066230 -0.010714
v 0.053602 -0.010239 -0.018404
v -0.053602 -0.010239 -0.018404
v -0.048476 0.045936 0.055763
v -0.048476 0.045936 -0.049568
v 0.048476 0.045936 -0.049568
v 0.048476 0.045936 0.055763
v 0.048476 0.044330 0.015298
v -0.048476 0.044330 0.015298
v 0.029393 0.045936 0.055763
v -0.029393 0.045936 0.055763
v -0.029393 0.045936 -0.049821
v 0.029393 0.045936 -0.049821
v 0.048476 0.044330 -0.009774
v -0.048476 0.044330 -0.009774
vn -0.9890 0.1480 0.0030
vn 0.0068 0.0958 -0.9954
vn 0.9890 0.1478 -0.0029
vn -0.0000 -0.1304 0.9915
vn -0.3632 0.9187 0.1553
vn -0.0000 -0.0110 0.9999
vn 1.0000 -0.0000 -0.0000
vn 0.0550 0.2209 -0.9738
vn -1.0000 -0.0000 -0.0000
vn -0.6202 0.7844 -0.0000
vn 0.9912 0.1323 -0.0000
vn -0.9890 0.1478 -0.0029
vn 0.6202 0.7844 -0.0000
vn -0.0000 1.0000 -0.0000
vn -0.0550 0.2209 -0.9738
vn -0.0000 0.2252 -0.9743
vn 0.3632 0.9187 0.1553
vn -0.0000 0.9473 0.3203
vn -0.0068 0.0958 -0.9954
vn -0.0000 0.1164 -0.9932
vn 0.0061 0.2738 0.9618
vn -0.0000 0.3191 -0.9477
vn -0.0479 0.3202 -0.9461
vn -0.7426 0.5695 -0.3523
vn 0.0479 0.3202 -0.9461
vn -0.0061 0.2738 0.9618
vn 0.7426 0.5695 -0.3523
vn -0.0000 0.9361 -0.3516
vn 0.3622 0.9161 -0.1721
vn 0.9890 0.1480 0.0030
vn -0.3622 0.9161 -0.1721
vn -0.9912 0.1323 -0.0000
vn 0.9887 0.1486 0.0197
vn -0.0424 0.0993 -0.9942
vn -0.9889 0.1467 -0.0242
vn 0.9889 0.1467 -0.0242
vn 0.0424 0.0993 -0.9942
vn -0.9887 0.1486 0.0197
vt 0.604652 0.187500
vt 0.625000 0.187500
vt 0.625000 0.250000
vt 0.604618 0.250976
vt 0.604652 0.445531
vt 0.625000 0.445531
vt 0.625000 0.500000
vt 0.604618 0.499024
vt 0.604652 0.625000
vt 0.625000 0.625000
vt 0.625000 0.750000
vt 0.604652 0.750921
vt 0.604652 0.945531
vt 0.625000 0.945531
vt 0.625000 1.000000
vt 0.604652 0.998541
vt 0.820531 0.625000
vt 0.875000 0.625000
vt 0.875000 0.750000
vt 0.820531 0.750000
vt 0.398257 0.945531
vt 0.500000 0.945531
vt 0.500000 1.000000
vt 0.398257 1.000000
vt 0.398257 0.625000
vt 0.500000 0.625000
vt 0.500000 0.750000
vt 0.398257 0.750000
vt 0.398257 0.445531
vt 0.500000 0.445531
vt 0.500000 0.500000
vt 0.398257 0.500000
vt 0.398257 0.187500
vt 0.500000 0.187500
vt 0.500000 0.250000
vt 0.398257 0.250000
vt 0.398257 0.000000
vt 0.500000 0.000000
vt 0.500000 0.125000
vt 0.398257 0.125000
vt 0.820531 0.562500
vt 0.875000 0.562500
vt 0.604652 0.562500
vt 0.625000 0.562500
vt 0.604652 0.000000
vt 0.625000 0.000000
vt 0.625000 0.125000
vt 0.604652 0.125000
vt 0.679469 0.562500
vt 0.679469 0.625000
vt 0.500000 0.304469
vt 0.398257 0.304469
vt 0.500000 0.804469
vt 0.398257 0.804469
vt 0.679469 0.750000
vt 0.625000 0.804469
vt 0.604652 0.804469
vt 0.625000 0.304469
vt 0.604652 0.304469
vt 0.375000 0.750000
vt 0.375000 0.804469
vt 0.375000 0.304469
vt 0.375000 0.445531
vt 0.375000 0.250000
vt 0.375000 0.000000
vt 0.375000 0.125000
vt 0.375000 0.187500
vt 0.375000 0.500000
vt 0.375000 0.625000
vt 0.375000 0.945531
vt 0.375000 1.000000
vt 0.398257 0.562500
vt 0.375000 0.562500
vt 0.679469 0.500000
vt 0.820531 0.500000
vt 0.875000 0.500000
vt 0.500000 0.562500
s 0
usemtl Material.017
f 31/17/5 14/18/5 2/19/5 26/20/5
f 42/21/6 28/22/6 9/23/6 36/24/6
f 38/25/7 17/26/7 12/27/7 35/28/7
f 40/29/8 30/30/8 11/31/8 34/32/8
f 52/33/9 45/34/9 10/35/9 33/36/9
f 36/37/9 9/38/9 18/39/9 37/40/9
f 50/41/10 43/42/10 14/18/10 31/17/10
f 47/44/13 49/49/13 32/50/13 16/10/13
f 49/49/14 50/41/14 31/17/14 32/50/14
f 33/36/15 10/35/15 29/51/15 39/52/15
f 39/52/16 29/51/16 30/30/16 40/29/16
f 35/28/6 12/27/6 27/53/6 41/54/6
f 16/10/17 32/50/17 25/55/17 6/11/17
f 32/50/18 31/17/18 26/20/18 25/55/18
f 22/74/28 21/75/28 50/41/28 49/49/28
f 8/7/29 22/74/29 49/49/29 47/44/29
f 21/75/31 4/76/31 43/42/31 50/41/31
f 34/32/7 11/31/7 48/77/7 51/72/7
f 18/39/32 58/48/32 64/1/32 45/34/32
f 11/31/33 55/8/33 63/43/33 48/77/33
f 29/51/20 61/59/20 62/5/20 30/30/20
f 10/35/34 54/4/34 61/59/34 29/51/34
f 27/53/4 59/57/4 60/13/4 28/22/4
f 12/27/4 56/12/4 59/57/4 27/53/4
f 9/38/35 53/45/35 58/48/35 18/39/35
f 48/77/11 63/43/11 57/9/11 17/26/11
f 28/22/4 60/13/4 53/16/4 9/23/4
f 17/26/36 57/9/36 56/12/36 12/27/36
f 30/30/37 62/5/37 55/8/37 11/31/37
f 45/34/38 64/1/38 54/4/38 10/35/38
usemtl Material.018
f 64/1/1 43/2/1 4/3/1 54/4/1
f 62/5/2 22/6/2 8/7/2 55/8/2
f 57/9/3 16/10/3 6/11/3 56/12/3
f 60/13/4 26/14/4 2/15/4 53/16/4
f 63/43/11 47/44/11 16/10/11 57/9/11
f 53/45/12 2/46/12 14/47/12 58/48/12
f 56/12/4 6/11/4 25/56/4 59/57/4
f 59/57/4 25/56/4 26/14/4 60/13/4
f 54/4/19 4/3/19 21/58/19 61/59/19
f 61/59/20 21/58/20 22/6/20 62/5/20
f 5/60/21 35/28/21 41/54/21 24/61/21
f 20/62/22 39/52/22 40/29/22 19/63/22
f 3/64/23 33/36/23 39/52/23 20/62/23
f 1/65/9 36/37/9 37/40/9 13/66/9
f 46/67/24 52/33/24 33/36/24 3/64/24
f 19/63/25 40/29/25 34/32/25 7/68/25
f 15/69/7 38/25/7 35/28/7 5/60/7
f 23/70/26 42/21/26 36/24/26 1/71/26
f 7/68/27 34/32/27 51/72/27 44/73/27
f 55/8/30 8/7/30 47/44/30 63/43/30
f 58/48/32 14/47/32 43/2/32 64/1/32
