# Blender 4.5.3 LTS
# www.blender.org
mtllib helm_3.mtl
o heml_3
v -0.000000 -0.027826 -0.068281
v -0.000000 0.075567 -0.061282
v 0.048282 -0.027826 -0.048282
v 0.043333 0.075567 -0.043333
v 0.068281 -0.027826 -0.000000
v 0.061282 0.075567 -0.000000
v 0.048282 -0.039337 0.048282
v 0.043333 0.075567 0.043333
v -0.000000 -0.048998 0.068281
v -0.000000 0.075567 0.061282
v -0.048282 -0.039337 0.048282
v -0.043333 0.075567 0.043333
v -0.068281 -0.027826 -0.000000
v -0.061282 0.075567 -0.000000
v -0.048282 -0.027826 -0.048282
v -0.043333 0.075567 -0.043333
v -0.000000 0.011238 -0.068281
v -0.000000 0.032330 -0.068281
v 0.048282 0.032330 -0.048282
v 0.048282 0.011238 -0.048282
v 0.068281 0.032330 -0.000000
v 0.068281 0.011238 -0.000000
v 0.043109 0.028900 0.050424
v 0.043109 0.014667 0.050424
v 0.005173 0.028900 0.066138
v 0.005173 0.014667 0.066138
v -0.042418 0.028787 0.050710
v -0.042418 0.014780 0.050710
v -0.068281 0.032330 -0.000000
v -0.068281 0.011238 -0.000000
v -0.048282 0.032330 -0.048282
v -0.048282 0.011238 -0.048282
v 0.048282 0.032330 0.048282
v 0.048282 0.011238 0.048282
v -0.005863 0.028787 0.065852
v -0.005863 0.014780 0.065852
v -0.000000 0.032330 0.068281
v -0.000000 0.011238 0.068281
v -0.048282 0.032330 0.048282
v -0.048282 0.011238 0.048282
v -0.000000 0.067095 -0.064597
v 0.045677 0.067095 -0.045677
v 0.064597 0.067095 -0.000000
v 0.045677 0.067095 0.045677
v -0.000000 0.067095 0.064597
v -0.045677 0.067095 0.045677
v -0.064597 0.067095 -0.000000
v -0.045677 0.067095 -0.045677
vn 0.3599 0.3400 -0.8688
vn 0.8688 0.3400 -0.3599
vn 0.8688 0.3400 0.3599
vn 0.3599 0.3400 0.8688
vn -0.3599 0.3400 0.8688
vn -0.8688 0.3400 0.3599
vn -0.0000 1.0000 -0.0000
vn -0.8688 0.3400 -0.3599
vn -0.3599 0.3400 -0.8688
vn -0.3827 -0.0000 -0.9239
vn -0.9239 -0.0000 -0.3827
vn -0.9239 -0.0000 0.3827
vn -0.3827 -0.0000 0.9239
vn 0.3827 -0.0000 0.9239
vn 0.9239 -0.0000 0.3827
vn 0.9239 -0.0000 -0.3827
vn 0.3827 -0.0000 -0.9239
vn -0.3809 0.0974 -0.9195
vn -0.9195 0.0974 -0.3809
vn -0.9195 0.0974 0.3809
vn -0.3809 0.0974 0.9195
vn 0.3809 0.0974 0.9195
vn 0.9195 0.0974 0.3809
vn 0.9195 0.0974 -0.3809
vn 0.3809 0.0974 -0.9195
vt 1.000000 0.953072
vt 1.000000 1.000000
vt 0.875000 1.000000
vt 0.875000 0.953072
vt 0.750000 1.000000
vt 0.750000 0.953072
vt 0.625000 1.000000
vt 0.625000 0.953072
vt 0.500000 1.000000
vt 0.500000 0.953072
vt 0.375000 1.000000
vt 0.375000 0.953072
vt 0.250000 1.000000
vt 0.250000 0.953072
vt 0.419706 0.419706
vt 0.250000 0.490000
vt 0.080294 0.419706
vt 0.010000 0.250000
vt 0.080294 0.080294
vt 0.250000 0.010000
vt 0.419706 0.080294
vt 0.490000 0.250000
vt 0.125000 1.000000
vt 0.125000 0.953072
vt 0.000000 1.000000
vt 0.000000 0.953072
vt 0.125000 0.500000
vt 0.125000 0.727865
vt 0.000000 0.727865
vt 0.000000 0.500000
vt 0.125000 0.772135
vt 0.000000 0.772135
vt 0.250000 0.500000
vt 0.250000 0.727865
vt 0.250000 0.772135
vt 0.375000 0.500000
vt 0.375000 0.727865
vt 0.375000 0.772135
vt 0.500000 0.500000
vt 0.500000 0.727865
vt 0.495203 0.736075
vt 0.495203 0.763925
vt 0.379797 0.763925
vt 0.379797 0.736075
vt 0.625000 0.500000
vt 0.625000 0.727865
vt 0.619548 0.737195
vt 0.619548 0.762805
vt 0.505452 0.762805
vt 0.505451 0.737195
vt 0.750000 0.500000
vt 0.750000 0.727865
vt 0.750000 0.772135
vt 0.625000 0.772135
vt 0.875000 0.500000
vt 0.875000 0.727865
vt 0.875000 0.772135
vt 1.000000 0.500000
vt 1.000000 0.727865
vt 1.000000 0.772135
vt 0.500000 0.772135
s 0
usemtl Material.022
f 4/15/7 2/16/7 16/17/7 14/18/7 12/19/7 10/20/7 8/21/7 6/22/7
f 15/27/10 32/28/10 17/29/10 1/30/10
f 32/28/10 31/31/10 18/32/10 17/29/10
f 13/33/11 30/34/11 32/28/11 15/27/11
f 30/34/11 29/35/11 31/31/11 32/28/11
f 11/36/12 40/37/12 30/34/12 13/33/12
f 40/37/12 39/38/12 29/35/12 30/34/12
f 9/39/13 38/40/13 40/37/13 11/36/13
f 7/45/14 34/46/14 38/40/14 9/39/14
f 5/51/15 22/52/15 34/46/15 7/45/15
f 22/52/15 21/53/15 33/54/15 34/46/15
f 3/55/16 20/56/16 22/52/16 5/51/16
f 20/56/16 19/57/16 21/53/16 22/52/16
f 1/58/17 17/59/17 20/56/17 3/55/17
f 17/59/17 18/60/17 19/57/17 20/56/17
f 23/48/14 24/47/14 34/46/14 33/54/14
f 26/50/14 25/49/14 37/61/14 38/40/14
f 24/47/14 26/50/14 38/40/14 34/46/14
f 25/49/14 23/48/14 33/54/14 37/61/14
f 35/42/13 36/41/13 38/40/13 37/61/13
f 28/44/13 27/43/13 39/38/13 40/37/13
f 36/41/13 28/44/13 40/37/13 38/40/13
f 27/43/13 35/42/13 37/61/13 39/38/13
f 31/31/18 48/24/18 41/26/18 18/32/18
f 29/35/19 47/14/19 48/24/19 31/31/19
f 39/38/20 46/12/20 47/14/20 29/35/20
f 37/61/21 45/10/21 46/12/21 39/38/21
f 33/54/22 44/8/22 45/10/22 37/61/22
f 21/53/23 43/6/23 44/8/23 33/54/23
f 19/57/24 42/4/24 43/6/24 21/53/24
f 18/60/25 41/1/25 42/4/25 19/57/25
usemtl Material.023
f 41/1/1 2/2/1 4/3/1 42/4/1
f 42/4/2 4/3/2 6/5/2 43/6/2
f 43/6/3 6/5/3 8/7/3 44/8/3
f 44/8/4 8/7/4 10/9/4 45/10/4
f 45/10/5 10/9/5 12/11/5 46/12/5
f 46/12/6 12/11/6 14/13/6 47/14/6
f 47/14/8 14/13/8 16/23/8 48/24/8
f 48/24/9 16/23/9 2/25/9 41/26/9
usemtl Material.024
f 36/41/13 35/42/13 27/43/13 28/44/13
f 24/47/14 23/48/14 25/49/14 26/50/14
