# Blender 4.5.3 LTS
# www.blender.org
mtllib heml_3_cross_horn.mtl
o heml_3_cross_horn
v -0.000000 -0.027826 -0.068281
v -0.000000 0.075567 -0.061282
v 0.048282 -0.027826 -0.034725
v 0.043333 0.075567 -0.029421
v 0.068281 -0.027826 0.017050
v 0.061282 0.075567 0.017050
v 0.048282 -0.039337 0.048282
v 0.043333 0.075567 0.043333
v -0.000000 -0.048998 0.068281
v -0.000000 0.075567 0.061282
v -0.048282 -0.039337 0.048282
v -0.043333 0.075567 0.043333
v -0.068281 -0.027826 0.017050
v -0.061282 0.075567 0.017050
v -0.048282 -0.027826 -0.034725
v -0.043333 0.075567 -0.029421
v -0.000000 0.011238 -0.068281
v -0.000000 0.032330 -0.068281
v 0.049302 0.035622 -0.031419
v 0.048282 0.011238 -0.034725
v 0.066665 0.035622 0.013991
v 0.068281 0.011238 0.017050
v 0.043109 0.028900 0.050424
v 0.043109 0.014667 0.050424
v 0.005173 0.028900 0.066138
v 0.005173 0.014667 0.066138
v -0.042418 0.028787 0.050710
v -0.042418 0.014780 0.050710
v -0.066665 0.035622 0.013991
v -0.068281 0.011238 0.017050
v -0.049302 0.035622 -0.031419
v -0.048282 0.011238 -0.034725
v 0.048282 0.032330 0.048282
v 0.048282 0.011238 0.048282
v -0.005863 0.028787 0.065852
v -0.005863 0.014780 0.065852
v -0.000000 0.032330 0.068281
v -0.000000 0.011238 0.068281
v -0.048282 0.032330 0.048282
v -0.048282 0.011238 0.048282
v -0.000000 0.067095 -0.064597
v 0.047191 0.063803 -0.028953
v 0.063679 0.063803 0.013991
v 0.045677 0.067095 0.045677
v -0.000000 0.067095 0.064597
v -0.045677 0.067095 0.045677
v -0.063679 0.063803 0.013991
v -0.047191 0.063803 -0.028953
v 0.015692 -0.045859 0.061781
v 0.014083 0.075567 0.055449
v 0.015692 0.011238 0.061781
v 0.015692 0.032330 0.061781
v 0.017502 0.014667 0.061031
v 0.017502 0.028900 0.061031
v 0.014845 0.067095 0.058448
v -0.015692 -0.045859 0.061781
v -0.014083 0.075567 0.055449
v -0.015692 0.011238 0.061781
v -0.015692 0.032330 0.061781
v -0.017744 0.014780 0.060931
v -0.017744 0.028787 0.060931
v -0.014845 0.067095 0.058448
v 0.045677 0.067095 -0.031765
v 0.048282 0.032330 -0.034725
v 0.064597 0.067095 0.017050
v 0.068281 0.032330 0.017050
v -0.064597 0.067095 0.017050
v -0.068281 0.032330 0.017050
v -0.045677 0.067095 -0.031765
v -0.048282 0.032330 -0.034725
v -0.141521 0.097985 0.012746
v -0.104126 0.104001 0.012746
v -0.104697 0.104001 -0.027060
v -0.140713 0.097985 -0.029172
v 0.140713 0.097985 -0.029172
v 0.104696 0.104001 -0.027060
v 0.104126 0.104001 0.012746
v 0.141521 0.097985 0.012746
v -0.123096 0.185698 -0.004434
v 0.123096 0.185698 -0.004434
vn 0.5547 0.3316 -0.7631
vn 0.8771 0.3399 -0.3394
vn 0.7825 0.3341 0.5254
vn 0.3599 0.3400 0.8688
vn -0.3599 0.3400 0.8688
vn -0.7825 0.3341 0.5254
vn -0.0000 1.0000 -0.0000
vn -0.8771 0.3399 -0.3394
vn -0.5547 0.3316 -0.7631
vn -0.5707 -0.0000 -0.8212
vn -0.9328 -0.0000 -0.3603
vn -0.8421 -0.0000 0.5393
vn -0.3827 -0.0000 0.9239
vn 0.3827 -0.0000 0.9239
vn 0.8421 -0.0000 0.5393
vn 0.9328 -0.0000 -0.3603
vn 0.5707 -0.0000 -0.8212
vn -0.5742 0.0992 -0.8127
vn -0.8345 0.0958 0.5426
vn -0.3809 0.0974 0.9195
vn 0.3809 0.0974 0.9195
vn 0.8345 0.0958 0.5426
vn 0.5742 0.0992 -0.8127
vn 0.9191 0.1017 -0.3807
vn 0.9195 0.0974 -0.3809
vn -0.9195 0.0974 -0.3809
vn -0.9191 0.1017 -0.3807
vn -0.9290 0.0974 -0.3571
vn 0.9290 0.0974 -0.3571
vn -0.9285 0.0974 -0.3583
vn 0.9285 0.0974 -0.3583
vn -0.0115 0.2693 -0.9630
vn -0.0105 0.0124 0.9999
vn 0.6302 0.7669 0.1212
vn 0.0362 0.0928 -0.9950
vn -0.5959 -0.7934 -0.1240
vn 0.0319 0.1986 0.9796
vn -0.0362 0.0928 -0.9950
vn -0.6302 0.7669 0.1212
vn 0.0105 0.0124 0.9999
vn 0.5959 -0.7934 -0.1240
vn 0.0115 0.2693 -0.9630
vn 0.9792 0.2020 -0.0189
vn -0.0319 0.1986 0.9796
vn -0.9746 0.2234 -0.0140
vn -0.9792 0.2020 -0.0189
vn 0.9746 0.2234 -0.0140
vt 1.000000 0.953072
vt 1.000000 1.000000
vt 0.875000 1.000000
vt 0.875000 0.953072
vt 0.750000 1.000000
vt 0.750000 0.953072
vt 0.625000 1.000000
vt 0.625000 0.953072
vt 0.540334 0.953072
vt 0.541049 1.000000
vt 0.500000 1.000000
vt 0.500000 0.953072
vt 0.459666 0.953072
vt 0.458951 1.000000
vt 0.375000 1.000000
vt 0.375000 0.953072
vt 0.250000 1.000000
vt 0.250000 0.953072
vt 0.419706 0.419706
vt 0.250000 0.490000
vt 0.080294 0.419706
vt 0.010000 0.250000
vt 0.080294 0.080294
vt 0.194846 0.032846
vt 0.250000 0.010000
vt 0.305154 0.032846
vt 0.419706 0.080294
vt 0.490000 0.250000
vt 0.125000 1.000000
vt 0.125000 0.953072
vt 0.000000 1.000000
vt 0.000000 0.953072
vt 0.125000 0.500000
vt 0.125000 0.727865
vt 0.000000 0.727865
vt 0.000000 0.500000
vt 0.125000 0.772135
vt 0.000000 0.772135
vt 0.250000 0.500000
vt 0.250000 0.727865
vt 0.250000 0.772135
vt 0.375000 0.500000
vt 0.375000 0.727865
vt 0.375000 0.772135
vt 0.459375 0.500000
vt 0.460552 0.727865
vt 0.456946 0.736075
vt 0.456946 0.763925
vt 0.379797 0.763925
vt 0.379797 0.736075
vt 0.540625 0.500000
vt 0.539748 0.727865
vt 0.500000 0.727865
vt 0.500000 0.500000
vt 0.543104 0.737195
vt 0.543104 0.762805
vt 0.505452 0.762805
vt 0.505451 0.737195
vt 0.750000 0.500000
vt 0.750000 0.727865
vt 0.625000 0.727865
vt 0.625000 0.500000
vt 0.750000 0.772135
vt 0.625000 0.772135
vt 0.875000 0.500000
vt 0.875000 0.727865
vt 0.875000 0.772135
vt 1.000000 0.500000
vt 1.000000 0.727865
vt 1.000000 0.772135
vt 0.619548 0.762805
vt 0.619548 0.737195
vt 0.500000 0.772135
vt 0.539748 0.772135
vt 0.495203 0.763925
vt 0.495203 0.736075
vt 0.460552 0.772135
vt 0.866744 0.935938
vt 0.866981 0.789270
vt 0.758019 0.789270
vt 0.758256 0.935937
vt 0.241744 0.935937
vt 0.241981 0.789270
vt 0.133019 0.789270
vt 0.133256 0.935937
s 0
usemtl Material.022
f 13/39/11 30/40/11 32/34/11 15/33/11
f 11/42/12 40/43/12 30/40/12 13/39/12
f 5/59/15 22/60/15 34/61/15 7/62/15
f 3/65/16 20/66/16 22/60/16 5/59/16
f 75/79/32 76/78/32 80/79/32
f 47/82/33 72/82/33 71/83/33 29/83/33
f 48/85/34 73/85/34 72/82/34 47/82/34
f 31/84/35 74/84/35 73/85/35 48/85/35
f 29/83/36 71/83/36 74/84/36 31/84/36
f 77/81/37 78/80/37 80/81/37
f 42/78/38 76/78/38 75/79/38 19/79/38
f 43/81/39 77/81/39 76/78/39 42/78/39
f 21/80/40 78/80/40 77/81/40 43/81/40
f 19/79/41 75/79/41 78/80/41 21/80/41
f 73/85/42 74/84/42 79/85/42
f 78/80/43 75/79/43 80/80/43
f 71/83/44 72/82/44 79/83/44
f 76/78/45 77/81/45 80/78/45
f 74/84/46 71/83/46 79/84/46
f 72/82/47 73/85/47 79/82/47
usemtl Material.023
f 41/1/1 2/2/1 4/3/1 63/4/1
f 63/4/2 4/3/2 6/5/2 65/6/2
f 65/6/3 6/5/3 8/7/3 44/8/3
f 55/9/4 50/10/4 10/11/4 45/12/4
f 62/13/5 57/14/5 12/15/5 46/16/5
f 46/16/6 12/15/6 14/17/6 67/18/6
f 4/19/7 2/20/7 16/21/7 14/22/7 12/23/7 57/24/7 10/25/7 50/26/7 8/27/7 6/28/7
f 67/18/8 14/17/8 16/29/8 69/30/8
f 69/30/9 16/29/9 2/31/9 41/32/9
f 15/33/10 32/34/10 17/35/10 1/36/10
f 32/34/10 70/37/10 18/38/10 17/35/10
f 30/40/11 68/41/11 70/37/11 32/34/11
f 40/43/12 39/44/12 68/41/12 30/40/12
f 56/45/13 58/46/13 40/43/13 11/42/13
f 22/60/15 66/63/15 33/64/15 34/61/15
f 20/66/16 64/67/16 66/63/16 22/60/16
f 1/68/17 17/69/17 20/66/17 3/65/17
f 17/69/17 18/70/17 64/67/17 20/66/17
f 70/37/18 69/30/18 41/32/18 18/38/18
f 39/44/19 46/16/19 67/18/19 68/41/19
f 59/77/20 62/13/20 46/16/20 39/44/20
f 66/63/22 65/6/22 44/8/22 33/64/22
f 18/70/23 41/1/23 63/4/23 64/67/23
f 33/64/21 44/8/21 55/9/21 52/74/21
f 7/62/14 34/61/14 51/52/14 49/51/14
f 44/8/4 8/7/4 50/10/4 55/9/4
f 45/12/5 10/11/5 57/14/5 62/13/5
f 42/78/24 19/79/24 64/67/24 63/4/24
f 21/80/25 43/81/25 65/6/25 66/63/25
f 47/82/26 29/83/26 68/41/26 67/18/26
f 31/84/27 48/85/27 69/30/27 70/37/27
f 29/83/28 31/84/28 70/37/28 68/41/28
f 19/79/29 21/80/29 66/63/29 64/67/29
f 48/85/30 47/82/30 67/18/30 69/30/30
f 43/81/31 42/78/31 63/4/31 65/6/31
usemtl Material.024
f 49/51/14 51/52/14 38/53/14 9/54/14
f 23/71/14 24/72/14 34/61/14 33/64/14
f 26/58/14 25/57/14 37/73/14 38/53/14
f 53/55/14 26/58/14 38/53/14 51/52/14
f 54/56/14 23/71/14 33/64/14 52/74/14
f 35/75/13 36/76/13 38/53/13 37/73/13
f 28/50/13 27/49/13 39/44/13 40/43/13
f 60/47/13 28/50/13 40/43/13 58/46/13
f 61/48/13 35/75/13 37/73/13 59/77/13
f 52/74/21 55/9/21 45/12/21 37/73/21
f 25/57/14 54/56/14 52/74/14 37/73/14
f 24/72/14 53/55/14 51/52/14 34/61/14
f 37/73/20 45/12/20 62/13/20 59/77/20
f 27/49/13 61/48/13 59/77/13 39/44/13
f 36/76/13 60/47/13 58/46/13 38/53/13
f 9/54/13 38/53/13 58/46/13 56/45/13
usemtl Material.065
f 60/47/13 61/48/13 27/49/13 28/50/13
f 53/55/14 54/56/14 25/57/14 26/58/14
f 24/72/14 23/71/14 54/56/14 53/55/14
f 36/76/13 35/75/13 61/48/13 60/47/13
