# Blender 4.5.3 LTS
# www.blender.org
mtllib stell_helm_4.mtl
o stell_helm_4
v 0.000011 -0.038215 -0.078553
v 0.056786 -0.038215 -0.055035
v 0.080304 -0.038215 0.001740
v 0.053144 -0.051751 0.065083
v -0.053123 -0.051751 0.065083
v -0.080377 -0.028072 0.001728
v -0.056765 -0.038215 -0.055035
v 0.000121 0.015143 -0.068281
v -0.000000 0.029041 -0.068281
v 0.049099 0.029041 -0.048282
v 0.048282 0.015143 -0.048282
v 0.069436 0.029041 0.000000
v 0.068281 0.015143 -0.000000
v 0.048470 0.023626 0.049353
v 0.008005 0.016237 0.066138
v 0.008005 0.000985 0.068625
v -0.048125 0.023569 0.049496
v -0.069436 0.029041 0.000000
v -0.068281 0.015143 -0.000000
v -0.049099 0.029041 -0.048282
v -0.048282 0.015143 -0.048282
v 0.048282 0.011443 0.048282
v -0.008816 0.016125 0.065852
v -0.008816 0.001097 0.068339
v -0.000000 0.019667 0.068281
v 0.000121 -0.002445 0.070767
v -0.048282 0.011443 0.048282
v -0.000000 0.076899 -0.043903
v 0.028316 0.076899 -0.031528
v 0.040627 0.076899 -0.000168
v 0.027683 0.076899 0.031531
v -0.000000 0.076899 0.039888
v -0.027683 0.076899 0.027585
v -0.040627 0.076899 -0.000168
v -0.028316 0.076899 -0.031528
v 0.048282 -0.008035 -0.048282
v 0.068281 -0.008035 -0.000000
v 0.046733 -0.007929 0.048282
v -0.046733 -0.007929 0.048282
v -0.068281 -0.003732 -0.000000
v -0.048282 -0.008035 -0.048282
v 0.000060 -0.008035 -0.068281
v 0.008293 -0.070456 0.082510
v -0.007856 -0.070456 0.082510
v 0.008568 -0.018798 0.070747
v -0.008152 -0.018798 0.070747
v -0.046178 0.063194 -0.048724
v -0.000000 0.063194 -0.068906
v -0.065306 0.063194 0.000000
v -0.045409 0.063194 0.044777
v -0.000000 0.063194 0.064960
v 0.045409 0.063194 0.048724
v 0.065305 0.063194 0.000000
v 0.046178 0.063194 -0.048724
vn -0.3821 0.0005 -0.9241
vn -0.3795 -0.0128 -0.9251
vn -0.9239 -0.0000 -0.3827
vn -0.9208 -0.0654 -0.3846
vn -0.9191 -0.0372 0.3924
vn -0.9216 -0.0533 0.3844
vn 0.9185 -0.0334 0.3940
vn 0.9224 -0.0632 0.3811
vn 0.9239 -0.0000 -0.3827
vn 0.9208 -0.0654 -0.3846
vn 0.3833 -0.0005 -0.9236
vn 0.3803 -0.0095 -0.9248
vn 0.2582 0.1283 0.9575
vn 0.3392 0.2202 0.9146
vn -0.2618 0.1273 0.9567
vn -0.3395 0.2176 0.9151
vn -0.3886 0.0022 -0.9214
vn -0.9223 0.0928 -0.3752
vn -0.9084 0.1101 0.4034
vn -0.3790 0.1013 0.9198
vn 0.3481 0.0573 0.9357
vn 0.9173 0.0928 0.3873
vn 0.9223 0.0928 -0.3752
vn 0.3886 0.0022 -0.9214
vn -0.0000 1.0000 -0.0000
vn 0.3653 0.2998 -0.8813
vn 0.8731 0.3270 -0.3616
vn 0.8551 0.3160 0.4111
vn -0.8252 0.3453 0.4470
vn -0.8448 0.3557 -0.3997
vn -0.3649 0.3002 -0.8813
vn -0.3258 0.2900 0.8999
vn 0.3286 0.2900 0.8988
vn -0.2056 0.8582 -0.4704
vn -0.4779 0.8582 -0.1876
vn -0.4679 0.8580 0.2119
vn -0.2085 0.8582 0.4691
vn 0.1640 0.8576 0.4874
vn 0.4753 0.8582 0.1941
vn 0.4779 0.8582 -0.1876
vn 0.2056 0.8582 -0.4704
vt 0.125000 0.613932
vt 0.125000 0.727865
vt 0.000000 0.727865
vt 0.000000 0.613932
vt 0.125000 0.772135
vt 0.000000 0.772135
vt 0.250000 0.613932
vt 0.250000 0.727865
vt 0.250000 0.772135
vt 0.375000 0.613932
vt 0.375000 0.727865
vt 0.375000 0.772135
vt 0.750000 0.613932
vt 0.750000 0.727865
vt 0.625000 0.727865
vt 0.625000 0.613932
vt 0.750000 0.772135
vt 0.625000 0.772135
vt 0.875000 0.613932
vt 0.875000 0.727865
vt 0.875000 0.772135
vt 1.000000 0.613932
vt 1.000000 0.727865
vt 1.000000 0.772135
vt 0.505451 0.737195
vt 0.505452 0.762805
vt 0.500000 0.772135
vt 0.500000 0.727865
vt 0.495203 0.763925
vt 0.495203 0.736075
vt 0.379797 0.763925
vt 0.125000 0.953072
vt 0.000000 0.953072
vt 0.250000 0.953072
vt 0.375000 0.953072
vt 0.500000 0.953072
vt 0.625000 0.953072
vt 0.750000 0.953072
vt 0.875000 0.953072
vt 1.000000 0.953072
vt 0.396722 0.953072
vt 0.349689 0.953072
vt 0.426085 0.953072
vt 0.513332 0.953072
vt 0.604660 0.953072
vt 0.699625 0.953072
vt 0.775441 0.953072
vt 0.730517 0.953072
vt 1.000000 0.500000
vt 0.875000 0.500000
vt 0.750000 0.500000
vt 0.625000 0.500000
vt 0.375000 0.500000
vt 0.250000 0.500000
vt 0.125000 0.500000
vt 0.000000 0.500000
s 0
usemtl Material.022
f 41/1/1 21/2/1 8/3/1 42/4/1
f 21/2/2 20/5/2 9/6/2 8/3/2
f 40/7/3 19/8/3 21/2/3 41/1/3
f 19/8/4 18/9/4 20/5/4 21/2/4
f 39/10/5 27/11/5 19/8/5 40/7/5
f 27/11/6 17/12/6 18/9/6 19/8/6
f 37/13/7 13/14/7 22/15/7 38/16/7
f 13/14/8 12/17/8 14/18/8 22/15/8
f 36/19/9 11/20/9 13/14/9 37/13/9
f 11/20/10 10/21/10 12/17/10 13/14/10
f 42/22/11 8/23/11 11/20/11 36/19/11
f 8/23/12 9/24/12 10/21/12 11/20/12
f 16/25/13 15/26/13 25/27/13 26/28/13
f 15/26/14 14/18/14 25/27/14
f 23/29/15 24/30/15 26/28/15 25/27/15
f 17/31/16 23/29/16 25/27/16
f 20/5/17 47/32/17 48/33/17 9/6/17
f 18/9/18 49/34/18 47/32/18 20/5/18
f 17/12/19 50/35/19 49/34/19 18/9/19
f 25/27/20 51/36/20 50/35/20 17/12/20
f 14/18/21 52/37/21 51/36/21 25/27/21
f 12/17/22 53/38/22 52/37/22 14/18/22
f 10/21/23 54/39/23 53/38/23 12/17/23
f 9/24/24 48/40/24 54/39/24 10/21/24
f 35/41/25 34/42/25 33/43/25 32/44/25 31/45/25 30/46/25 29/47/25 28/48/25
f 1/49/26 42/22/26 36/19/26 2/50/26
f 2/50/27 36/19/27 37/13/27 3/51/27
f 3/51/28 37/13/28 38/16/28 4/52/28
f 5/53/29 39/10/29 40/7/29 6/54/29
f 6/54/30 40/7/30 41/1/30 7/55/30
f 7/55/31 41/1/31 42/4/31 1/56/31
f 39/10/32 5/53/32 44/53/32 46/10/32
f 4/52/33 38/16/33 45/16/33 43/52/33
f 35/41/34 28/48/34 48/40/34 47/32/34
f 34/42/35 35/41/35 47/32/35 49/34/35
f 33/43/36 34/42/36 49/34/36 50/35/36
f 32/44/37 33/43/37 50/35/37 51/36/37
f 31/45/38 32/44/38 51/36/38 52/37/38
f 30/46/39 31/45/39 52/37/39 53/38/39
f 29/47/40 30/46/40 53/38/40 54/39/40
f 28/48/41 29/47/41 54/39/41 48/40/41
