# Blender 4.5.3 LTS
# www.blender.org
mtllib stell_helm_4.mtl
o heml_4b
v -0.000000 -0.044194 -0.068281
v -0.000000 0.066727 -0.061282
v 0.048282 -0.044194 -0.048282
v 0.038762 0.066727 -0.043333
v 0.068281 -0.044194 -0.000000
v 0.054818 0.066727 -0.000000
v 0.045184 -0.050566 0.048282
v 0.038762 0.066727 0.043333
v -0.000000 0.066727 0.061282
v -0.045184 -0.050566 0.048282
v -0.038762 0.066727 0.043333
v -0.068281 -0.035588 -0.000000
v -0.054818 0.066727 -0.000000
v -0.048282 -0.044194 -0.048282
v -0.038762 0.066727 -0.043333
v 0.000121 -0.016308 -0.068281
v -0.000000 0.015474 -0.068281
v 0.049099 0.015474 -0.048282
v 0.048282 -0.016308 -0.048282
v 0.069436 0.015474 0.000000
v 0.068281 -0.016308 -0.000000
v 0.048470 0.013759 0.049353
v 0.008005 0.006527 0.066138
v 0.008005 -0.012289 0.066138
v -0.048125 0.013702 0.049496
v -0.069436 0.015474 0.000000
v -0.068281 -0.016308 -0.000000
v -0.049099 0.015474 -0.048282
v -0.048282 -0.016308 -0.048282
v 0.048282 -0.016308 0.048282
v -0.008816 0.006414 0.065852
v -0.008816 -0.012176 0.065852
v -0.000000 0.015474 0.068281
v 0.000121 -0.015718 0.068281
v -0.048282 -0.016308 0.048282
v -0.000000 0.046321 -0.068906
v 0.046178 0.046321 -0.048724
v 0.065305 0.046321 0.000000
v 0.045409 0.046321 0.048724
v -0.000000 0.046321 0.068906
v -0.045409 0.046321 0.048724
v -0.065306 0.046321 0.000000
v -0.046178 0.046321 -0.048724
v 0.015085 -0.052332 0.063595
v -0.015085 -0.052332 0.063595
v 0.016119 -0.019968 0.067318
v -0.016119 -0.019968 0.067318
vn 0.3847 0.3432 -0.8569
vn 0.8496 0.4156 -0.3247
vn 0.8529 0.4021 0.3331
vn 0.3885 0.3368 0.8577
vn -0.3885 0.3368 0.8577
vn -0.8529 0.4021 0.3331
vn -0.0000 1.0000 -0.0000
vn -0.8496 0.4156 -0.3247
vn -0.3847 0.3432 -0.8569
vn -0.3823 0.0008 -0.9240
vn -0.3795 -0.0056 -0.9252
vn -0.9239 -0.0000 -0.3827
vn -0.9224 -0.0286 -0.3853
vn -0.9149 -0.0529 0.4001
vn -0.9211 -0.0225 0.3887
vn 0.9134 -0.0455 0.4046
vn 0.9220 -0.0267 0.3864
vn 0.9239 -0.0000 -0.3827
vn 0.9224 -0.0286 -0.3853
vn 0.3831 -0.0008 -0.9237
vn 0.3803 -0.0042 -0.9248
vn 0.2606 0.0006 0.9654
vn 0.3650 0.1050 0.9251
vn -0.2637 -0.0006 0.9646
vn -0.3649 0.1072 0.9248
vn -0.3886 0.0024 -0.9214
vn -0.9214 0.1026 -0.3748
vn -0.9165 0.1036 0.3864
vn -0.3848 0.0186 0.9228
vn 0.3848 0.0186 0.9228
vn 0.9170 0.1078 0.3840
vn 0.9214 0.1026 -0.3748
vn 0.3886 0.0024 -0.9214
vn -0.4868 -0.0788 0.8699
vn 0.4868 -0.0788 0.8699
vt 1.000000 0.953072
vt 1.000000 1.000000
vt 0.875000 1.000000
vt 0.875000 0.953072
vt 0.750000 1.000000
vt 0.750000 0.953072
vt 0.625000 1.000000
vt 0.625000 0.953072
vt 0.500000 1.000000
vt 0.500000 0.953072
vt 0.375000 1.000000
vt 0.375000 0.953072
vt 0.250000 1.000000
vt 0.250000 0.953072
vt 0.419706 0.419706
vt 0.250000 0.490000
vt 0.080294 0.419706
vt 0.010000 0.250000
vt 0.080294 0.080294
vt 0.250000 0.010000
vt 0.419706 0.080294
vt 0.490000 0.250000
vt 0.125000 1.000000
vt 0.125000 0.953072
vt 0.000000 1.000000
vt 0.000000 0.953072
vt 0.125000 0.500000
vt 0.125000 0.727865
vt 0.000000 0.727865
vt 0.000000 0.500000
vt 0.125000 0.772135
vt 0.000000 0.772135
vt 0.250000 0.500000
vt 0.250000 0.727865
vt 0.250000 0.772135
vt 0.375000 0.500000
vt 0.375000 0.727865
vt 0.375000 0.772135
vt 0.750000 0.500000
vt 0.750000 0.727865
vt 0.625000 0.727865
vt 0.625000 0.500000
vt 0.750000 0.772135
vt 0.625000 0.772135
vt 0.875000 0.500000
vt 0.875000 0.727865
vt 0.875000 0.772135
vt 1.000000 0.500000
vt 1.000000 0.727865
vt 1.000000 0.772135
vt 0.505451 0.737195
vt 0.505452 0.762805
vt 0.500000 0.772135
vt 0.500000 0.727865
vt 0.495203 0.763925
vt 0.495203 0.736075
vt 0.379797 0.763925
s 0
usemtl Material.022
f 36/1/1 2/2/1 4/3/1 37/4/1
f 37/4/2 4/3/2 6/5/2 38/6/2
f 38/6/3 6/5/3 8/7/3 39/8/3
f 39/8/4 8/7/4 9/9/4 40/10/4
f 40/10/5 9/9/5 11/11/5 41/12/5
f 41/12/6 11/11/6 13/13/6 42/14/6
f 4/15/7 2/16/7 15/17/7 13/18/7 11/19/7 9/20/7 8/21/7 6/22/7
f 42/14/8 13/13/8 15/23/8 43/24/8
f 43/24/9 15/23/9 2/25/9 36/26/9
f 14/27/10 29/28/10 16/29/10 1/30/10
f 29/28/11 28/31/11 17/32/11 16/29/11
f 12/33/12 27/34/12 29/28/12 14/27/12
f 27/34/13 26/35/13 28/31/13 29/28/13
f 10/36/14 35/37/14 27/34/14 12/33/14
f 35/37/15 25/38/15 26/35/15 27/34/15
f 5/39/16 21/40/16 30/41/16 7/42/16
f 21/40/17 20/43/17 22/44/17 30/41/17
f 3/45/18 19/46/18 21/40/18 5/39/18
f 19/46/19 18/47/19 20/43/19 21/40/19
f 1/48/20 16/49/20 19/46/20 3/45/20
f 16/49/21 17/50/21 18/47/21 19/46/21
f 24/51/22 23/52/22 33/53/22 34/54/22
f 23/52/23 22/44/23 33/53/23
f 31/55/24 32/56/24 34/54/24 33/53/24
f 25/57/25 31/55/25 33/53/25
f 28/31/26 43/24/26 36/26/26 17/32/26
f 26/35/27 42/14/27 43/24/27 28/31/27
f 25/38/28 41/12/28 42/14/28 26/35/28
f 33/53/29 40/10/29 41/12/29 25/38/29
f 22/44/30 39/8/30 40/10/30 33/53/30
f 20/43/31 38/6/31 39/8/31 22/44/31
f 18/47/32 37/4/32 38/6/32 20/43/32
f 17/50/33 36/1/33 37/4/33 18/47/33
f 35/37/34 10/36/34 45/36/34 47/37/34
f 7/42/35 30/41/35 46/41/35 44/42/35
