# Blender 4.5.3 LTS
# www.blender.org
mtllib stell_helm_5.mtl
o heml_5b
v -0.000000 -0.044194 -0.068281
v -0.000000 0.066727 -0.061282
v 0.048282 -0.044194 -0.048282
v 0.038762 0.066727 -0.043333
v 0.068281 -0.044194 -0.000000
v 0.054818 0.066727 -0.000000
v 0.045184 -0.050566 0.048282
v 0.038762 0.066727 0.043333
v -0.000000 0.066727 0.061282
v -0.045184 -0.050566 0.048282
v -0.038762 0.066727 0.043333
v -0.068281 -0.035588 -0.000000
v -0.054818 0.066727 -0.000000
v -0.048282 -0.034590 -0.048282
v -0.038762 0.066727 -0.043333
v 0.000121 -0.016308 -0.068281
v -0.000000 0.015474 -0.068281
v 0.049099 0.015474 -0.048282
v 0.048282 -0.016308 -0.048282
v 0.069436 0.015474 0.000000
v 0.068281 -0.016308 -0.000000
v 0.048470 0.013759 0.049353
v -0.048125 0.013702 0.049496
v -0.069436 0.015474 0.000000
v -0.068281 -0.016308 -0.000000
v -0.049099 0.015474 -0.048282
v -0.048282 -0.016308 -0.048282
v 0.048282 -0.016308 0.048282
v -0.000000 0.015474 0.073625
v -0.048282 -0.016308 0.048282
v -0.000000 0.046321 -0.068906
v 0.046178 0.046321 -0.048724
v 0.065305 0.046321 0.000000
v 0.045409 0.046321 0.048724
v -0.000000 0.046321 0.068906
v -0.045409 0.046321 0.048724
v -0.065306 0.046321 0.000000
v -0.046178 0.046321 -0.048724
v -0.000000 -0.052332 0.061540
v -0.000000 -0.007374 0.083693
v 0.069367 0.007744 0.004977
v 0.069367 0.024927 -0.004064
v 0.060133 0.026108 0.059829
v 0.060133 0.061449 0.041236
v 0.037159 0.037639 0.084767
v 0.037159 0.075464 0.064866
v 0.000000 0.042308 0.093642
v 0.000000 0.080133 0.073741
v -0.037159 0.037639 0.084767
v -0.037159 0.075464 0.064866
v -0.060133 0.026108 0.059829
v -0.060133 0.061449 0.041236
v -0.069367 0.007744 0.004977
v -0.069367 0.024927 -0.004064
v -0.009290 0.041141 0.091423
v -0.018579 0.039974 0.089204
v -0.027869 0.038806 0.086985
v -0.027869 0.076631 0.067085
v -0.018579 0.077799 0.069304
v -0.009290 0.078966 0.071523
v 0.027869 0.038806 0.086985
v 0.018579 0.039974 0.089204
v 0.009290 0.041141 0.091423
v 0.009290 0.078966 0.071523
v 0.018579 0.077799 0.069304
v 0.027869 0.076631 0.067085
v 0.074529 0.017770 -0.005205
v 0.074529 0.009997 -0.001115
v 0.064608 0.051311 0.045289
v 0.064608 0.035325 0.053700
v 0.039924 0.065563 0.071009
v 0.039924 0.048453 0.080011
v 0.000000 0.070580 0.080544
v 0.000000 0.053470 0.089546
v -0.039924 0.065563 0.071009
v -0.039924 0.048453 0.080011
v -0.064608 0.051311 0.045289
v -0.064608 0.035325 0.053700
v -0.074529 0.017770 -0.005205
v -0.074529 0.009997 -0.001115
v -0.009981 0.069326 0.078160
v -0.009981 0.052216 0.087162
v -0.019962 0.068071 0.075777
v -0.019962 0.050961 0.084778
v -0.029943 0.066817 0.073393
v -0.029943 0.049707 0.082394
v 0.029943 0.066817 0.073393
v 0.029943 0.049707 0.082394
v 0.019962 0.068071 0.075777
v 0.019962 0.050961 0.084778
v 0.009981 0.069326 0.078160
v 0.009981 0.052216 0.087162
vn 0.3847 0.3432 -0.8569
vn 0.8496 0.4156 -0.3247
vn 0.8529 0.4021 0.3331
vn 0.3885 0.3368 0.8577
vn -0.3885 0.3368 0.8577
vn -0.8529 0.4021 0.3331
vn -0.0000 1.0000 -0.0000
vn -0.8496 0.4156 -0.3247
vn -0.3847 0.3432 -0.8569
vn -0.3822 0.0010 -0.9241
vn -0.3795 -0.0056 -0.9252
vn -0.9239 -0.0000 -0.3827
vn -0.9224 -0.0286 -0.3853
vn -0.9149 -0.0529 0.4001
vn -0.9211 -0.0225 0.3887
vn 0.9134 -0.0455 0.4046
vn 0.9220 -0.0267 0.3864
vn 0.9239 -0.0000 -0.3827
vn 0.9224 -0.0286 -0.3853
vn 0.3831 -0.0008 -0.9237
vn 0.3803 -0.0042 -0.9248
vn -0.3886 0.0024 -0.9214
vn -0.9214 0.1026 -0.3748
vn -0.9165 0.1036 0.3864
vn -0.4276 0.0961 0.8988
vn 0.4274 0.0964 0.8989
vn 0.9170 0.1078 0.3840
vn 0.9214 0.1026 -0.3748
vn 0.3886 0.0024 -0.9214
vn -0.4305 -0.2587 0.8648
vn 0.4305 -0.2587 0.8648
vn 0.8734 0.4595 -0.1614
vn 0.7493 0.4947 0.4402
vn 0.2584 0.5604 0.7869
vn -0.2584 0.5604 0.7869
vn -0.7493 0.4947 0.4402
vn -0.8734 0.4595 -0.1614
vn 0.2584 0.3328 0.9069
vn 0.2606 0.4495 0.8544
vn -0.2584 0.3328 0.9069
vn -0.2606 0.4495 0.8544
vn -0.8643 -0.3968 0.3091
vn -0.9867 0.0756 0.1437
vn -0.7498 0.0855 0.6561
vn -0.7658 0.2994 0.5691
vn 0.7498 0.0855 0.6561
vn 0.7658 0.2994 0.5691
vn 0.8643 -0.3968 0.3091
vn 0.9867 0.0756 0.1437
vt 1.000000 0.953072
vt 1.000000 1.000000
vt 0.875000 1.000000
vt 0.875000 0.953072
vt 0.750000 1.000000
vt 0.750000 0.953072
vt 0.625000 1.000000
vt 0.625000 0.953072
vt 0.500000 1.000000
vt 0.500000 0.953072
vt 0.375000 1.000000
vt 0.375000 0.953072
vt 0.250000 1.000000
vt 0.250000 0.953072
vt 0.419706 0.419706
vt 0.250000 0.490000
vt 0.080294 0.419706
vt 0.010000 0.250000
vt 0.080294 0.080294
vt 0.250000 0.010000
vt 0.419706 0.080294
vt 0.490000 0.250000
vt 0.125000 1.000000
vt 0.125000 0.953072
vt 0.000000 1.000000
vt 0.000000 0.953072
vt 0.125000 0.500000
vt 0.125000 0.727865
vt 0.000000 0.727865
vt 0.000000 0.500000
vt 0.125000 0.772135
vt 0.000000 0.772135
vt 0.250000 0.500000
vt 0.250000 0.727865
vt 0.250000 0.772135
vt 0.375000 0.500000
vt 0.375000 0.727865
vt 0.375000 0.772135
vt 0.750000 0.500000
vt 0.750000 0.727865
vt 0.625000 0.727865
vt 0.625000 0.500000
vt 0.750000 0.772135
vt 0.625000 0.772135
vt 0.875000 0.500000
vt 0.875000 0.727865
vt 0.875000 0.772135
vt 1.000000 0.500000
vt 1.000000 0.727865
vt 1.000000 0.772135
vt 0.500000 0.772135
vt 0.758757 0.832349
vt 0.750000 1.000000
vt 0.666667 1.000000
vt 0.669223 0.842707
vt 0.583333 1.000000
vt 0.587486 0.839733
vt 0.521508 0.839733
vt 0.520833 1.000000
vt 0.500000 1.000000
vt 0.500000 0.839733
vt 0.433725 0.839733
vt 0.437500 1.000000
vt 0.416667 1.000000
vt 0.412514 0.839733
vt 0.333333 1.000000
vt 0.330778 0.842707
vt 0.250000 1.000000
vt 0.241243 0.832349
vt 0.479167 1.000000
vt 0.478492 0.839733
vt 0.458333 1.000000
vt 0.456108 0.839733
vt 0.562500 1.000000
vt 0.566276 0.839733
vt 0.541667 1.000000
vt 0.543892 0.839733
vt 0.541667 0.500000
vt 0.543892 0.660664
vt 0.521508 0.660664
vt 0.520833 0.500000
vt 0.562500 0.500000
vt 0.566276 0.660664
vt 0.583333 0.500000
vt 0.587486 0.660664
vt 0.458333 0.500000
vt 0.456108 0.660664
vt 0.433725 0.660664
vt 0.437500 0.500000
vt 0.479167 0.500000
vt 0.478492 0.660664
vt 0.500000 0.500000
vt 0.500000 0.660664
vt 0.333333 0.500000
vt 0.330778 0.658778
vt 0.241243 0.670483
vt 0.250000 0.500000
vt 0.416667 0.500000
vt 0.412514 0.660664
vt 0.666667 0.500000
vt 0.669223 0.658778
vt 0.750000 0.500000
vt 0.758757 0.670483
s 0
usemtl Material.022
f 31/1/1 2/2/1 4/3/1 32/4/1
f 32/4/2 4/3/2 6/5/2 33/6/2
f 33/6/3 6/5/3 8/7/3 34/8/3
f 34/8/4 8/7/4 9/9/4 35/10/4
f 35/10/5 9/9/5 11/11/5 36/12/5
f 36/12/6 11/11/6 13/13/6 37/14/6
f 4/15/7 2/16/7 15/17/7 13/18/7 11/19/7 9/20/7 8/21/7 6/22/7
f 37/14/8 13/13/8 15/23/8 38/24/8
f 38/24/9 15/23/9 2/25/9 31/26/9
f 14/27/10 27/28/10 16/29/10 1/30/10
f 27/28/11 26/31/11 17/32/11 16/29/11
f 12/33/12 25/34/12 27/28/12 14/27/12
f 25/34/13 24/35/13 26/31/13 27/28/13
f 10/36/14 30/37/14 25/34/14 12/33/14
f 30/37/15 23/38/15 24/35/15 25/34/15
f 5/39/16 21/40/16 28/41/16 7/42/16
f 21/40/17 20/43/17 22/44/17 28/41/17
f 3/45/18 19/46/18 21/40/18 5/39/18
f 19/46/19 18/47/19 20/43/19 21/40/19
f 1/48/20 16/49/20 19/46/20 3/45/20
f 16/49/21 17/50/21 18/47/21 19/46/21
f 26/31/22 38/24/22 31/26/22 17/32/22
f 24/35/23 37/14/23 38/24/23 26/31/23
f 23/38/24 36/12/24 37/14/24 24/35/24
f 29/51/25 35/10/25 36/12/25 23/38/25
f 22/44/26 34/8/26 35/10/26 29/51/26
f 20/43/27 33/6/27 34/8/27 22/44/27
f 18/47/28 32/4/28 33/6/28 20/43/28
f 17/50/29 31/1/29 32/4/29 18/47/29
f 30/37/30 10/36/30 39/36/30 40/37/30
f 7/42/31 28/41/31 40/41/31 39/42/31
f 67/52/32 42/53/32 44/54/32 69/55/32
f 69/55/33 44/54/33 46/56/33 71/57/33
f 91/58/34 64/59/34 48/60/34 73/61/34
f 85/62/35 58/63/35 50/64/35 75/65/35
f 75/65/36 50/64/36 52/66/36 77/67/36
f 77/67/37 52/66/37 54/68/37 79/69/37
f 73/61/35 48/60/35 60/70/35 81/71/35
f 81/71/35 60/70/35 59/72/35 83/73/35
f 83/73/35 59/72/35 58/63/35 85/62/35
f 71/57/34 46/56/34 66/74/34 87/75/34
f 87/75/34 66/74/34 65/76/34 89/77/34
f 89/77/34 65/76/34 64/59/34 91/58/34
f 62/78/38 90/79/38 92/80/38 63/81/38
f 61/82/38 88/83/38 90/79/38 62/78/38
f 88/83/39 87/75/39 89/77/39 90/79/39
f 45/84/38 72/85/38 88/83/38 61/82/38
f 56/86/40 84/87/40 86/88/40 57/89/40
f 84/87/41 83/73/41 85/62/41 86/88/41
f 55/90/40 82/91/40 84/87/40 56/86/40
f 47/92/40 74/93/40 82/91/40 55/90/40
f 74/93/41 73/61/41 81/71/41 82/91/41
f 51/94/42 78/95/42 80/96/42 53/97/42
f 78/95/43 77/67/43 79/69/43 80/96/43
f 49/98/44 76/99/44 78/95/44 51/94/44
f 76/99/45 75/65/45 77/67/45 78/95/45
f 57/89/40 86/88/40 76/99/40 49/98/40
f 63/81/38 92/80/38 74/93/38 47/92/38
f 92/80/39 91/58/39 73/61/39 74/93/39
f 43/100/46 70/101/46 72/85/46 45/84/46
f 70/101/47 69/55/47 71/57/47 72/85/47
f 41/102/48 68/103/48 70/101/48 43/100/48
f 68/103/49 67/52/49 69/55/49 70/101/49
usemtl Material.081
f 90/79/39 89/77/39 91/58/39 92/80/39
f 72/85/39 71/57/39 87/75/39 88/83/39
f 82/91/41 81/71/41 83/73/41 84/87/41
f 86/88/41 85/62/41 75/65/41 76/99/41
