# Blender 4.5.3 LTS
# www.blender.org
mtllib warhammer.mtl
o warhammer
v 0.002908 -0.234830 -0.010814
v 0.002908 -0.234830 0.013358
v -0.009251 0.340416 -0.015201
v -0.002908 -0.234830 -0.010814
v -0.003964 0.340416 0.017744
v -0.002908 -0.234830 0.013358
v 0.003964 0.340416 0.017744
v 0.009251 0.332894 -0.015201
v 0.003964 0.332894 0.017744
v -0.003964 0.332894 0.017744
v -0.009251 0.332894 -0.015201
v -0.002906 0.280337 0.013349
v 0.003839 0.280337 -0.010806
v -0.003839 0.280337 -0.010806
v 0.002906 0.280337 0.013349
v 0.009251 0.340416 -0.015201
v 0.002906 0.328898 0.013348
v -0.002906 0.328898 0.013348
v -0.003839 0.328898 -0.010804
v 0.003839 0.328898 -0.010804
v 0.004094 -0.239499 0.018285
v 0.009555 -0.239499 -0.015742
v -0.004094 -0.239499 0.018285
v -0.009555 -0.239499 -0.015742
v -0.009959 0.327853 -0.026195
v -0.009960 0.306285 -0.025940
v 0.009960 0.306285 -0.025940
v 0.009959 0.327853 -0.026195
v -0.004373 0.329597 -0.121397
v -0.003393 0.291061 -0.086108
v 0.003393 0.291061 -0.086108
v 0.004373 0.329597 -0.121397
v -0.000000 0.267502 -0.138534
v 0.010151 -0.234830 0.001272
v -0.013835 0.340416 0.001272
v -0.010151 -0.234830 0.001272
v 0.013835 0.340416 0.001272
v -0.013835 0.332894 0.001272
v 0.013835 0.332894 0.001272
v 0.010144 0.280337 0.001272
v -0.010144 0.280337 0.001272
v 0.010143 0.328898 0.001272
v -0.010143 0.328898 0.001272
v 0.014290 -0.239499 0.001272
v -0.014290 -0.239499 0.001272
v 0.022324 0.347008 0.061823
v 0.022327 0.262231 0.061826
v -0.022324 0.347008 0.061823
v -0.022327 0.262231 0.061826
v 0.000000 0.304621 0.135427
v 0.023197 0.348667 0.112108
v 0.023200 0.260576 0.112111
v -0.023197 0.348667 0.112108
v -0.023200 0.260576 0.112111
vn 0.8578 -0.0000 0.5140
vn -0.5724 0.7854 -0.2356
vn -0.0000 -0.0000 1.0000
vn -0.0000 -0.7400 -0.6726
vn -0.5807 -0.7834 -0.2215
vn -0.0000 -0.7400 0.6726
vn 0.6722 -0.6212 0.4028
vn -0.0000 1.0000 -0.0000
vn -0.0000 -0.0000 -1.0000
vn -0.8723 -0.0008 -0.4890
vn -0.9634 -0.0000 -0.2681
vn -0.0000 0.9368 -0.3500
vn -0.8865 -0.0000 -0.4628
vn 0.9278 0.0014 0.3732
vn -0.0000 -1.0000 -0.0000
vn -0.0000 0.7259 -0.6878
vn -0.0000 0.7259 0.6878
vn 0.6828 0.6053 0.4092
vn -0.0000 0.9998 0.0183
vn -0.9278 0.0014 0.3732
vn -0.0000 0.9977 -0.0678
vn -0.0000 -0.5038 -0.8638
vn -0.0000 -0.9121 0.4099
vn -0.0000 -0.9694 0.2453
vn 0.9956 -0.0592 -0.0727
vn -0.9956 -0.0592 -0.0727
vn 0.9975 -0.0599 -0.0377
vn -0.9975 -0.0599 -0.0377
vn -0.0000 0.2660 -0.9640
vn 0.5724 0.7854 -0.2356
vn -0.8578 -0.0000 0.5140
vn 0.8865 -0.0000 -0.4628
vn 0.9634 -0.0000 -0.2681
vn 0.5807 -0.7834 -0.2215
vn -0.6722 -0.6212 0.4028
vn -0.6828 0.6053 0.4092
vn 0.8723 -0.0008 -0.4890
vn -0.0000 -0.9995 -0.0329
vn -0.9283 -0.0000 -0.3719
vn 0.9283 -0.0000 -0.3719
vn -0.0000 -0.9368 -0.3499
vn 0.9998 -0.0000 -0.0174
vn -0.0000 0.9995 -0.0330
vn -0.9998 -0.0000 -0.0174
vn 0.7089 -0.0000 0.7053
vn -0.7089 -0.0000 0.7053
vn -0.0000 -0.4679 0.8838
vn -0.0000 0.4679 0.8838
vt 0.375000 0.125000
vt 0.410622 0.122297
vt 0.410622 0.244594
vt 0.375000 0.250000
vt 0.375000 0.625000
vt 0.375000 0.750000
vt 0.421250 0.250000
vt 0.428267 0.250000
vt 0.428267 0.500000
vt 0.421250 0.500000
vt 0.417246 0.742034
vt 0.421250 0.750000
vt 0.421250 1.000000
vt 0.417246 1.012206
vt 0.417246 0.625000
vt 0.421250 0.625000
vt 0.417246 0.242034
vt 0.417246 0.507966
vt 0.417246 0.121017
vt 0.421250 0.125000
vt 0.428267 0.625000
vt 0.428267 0.125000
vt 0.410622 0.744939
vt 0.410622 1.007808
vt 0.375000 1.000000
vt 0.410622 0.505406
vt 0.375000 0.500000
vt 0.410622 0.625172
vt 0.428267 0.750000
vt 0.428267 1.000000
vt 0.417246 0.000000
vt 0.410622 0.000000
vt 0.125000 0.625000
vt 0.125000 0.750000
vt 0.375000 0.000000
vt 0.125000 0.500000
vt 0.421250 0.000000
vt 0.428267 0.000000
vt 0.411326 0.297113
vt 0.416542 0.454194
vt 0.411326 0.452887
vt 0.416542 0.295806
s 0
usemtl Material.009
f 25/11/19 28/14/19 32/14/19 29/11/19
f 31/24/23 30/23/23 33/24/23
f 27/24/24 26/23/24 30/23/24 31/24/24
f 28/31/25 27/32/25 31/32/25 32/31/25
f 26/23/26 25/11/26 29/11/26 30/23/26
f 32/31/27 31/32/27 33/31/27
f 30/23/28 29/11/28 33/23/28
f 29/11/29 32/14/29 33/11/29
usemtl Material.010
f 34/1/1 40/2/1 15/3/1 2/4/1
f 19/11/4 11/12/4 8/13/4 20/14/4
f 43/15/5 38/16/5 11/12/5 19/11/5
f 17/17/6 9/7/6 10/10/6 18/18/6
f 42/19/7 39/20/7 9/7/7 17/17/7
f 4/6/9 14/23/9 13/24/9 1/25/9
f 2/4/3 15/3/3 12/26/3 6/27/3
f 36/5/10 41/28/10 14/23/10 4/6/10
f 44/33/15 45/5/15 24/6/15 22/34/15
f 21/36/15 23/27/15 45/5/15 44/33/15
f 6/27/31 12/26/31 41/28/31 36/5/31
f 20/31/34 8/37/34 39/20/34 42/19/34
f 18/18/35 10/10/35 38/16/35 43/15/35
f 1/35/37 13/32/37 40/2/37 34/1/37
usemtl Material.011
f 36/5/2 4/6/2 24/6/2 45/5/2
f 9/7/3 7/8/3 5/9/3 10/10/3
f 35/21/8 5/9/8 7/8/8 37/22/8
f 39/20/1 37/22/1 7/8/1 9/7/1
f 38/16/11 35/21/11 3/29/11 11/12/11
f 11/12/9 3/29/9 16/30/9 8/13/9
f 40/2/1 42/19/1 17/17/1 15/3/1
f 17/17/12 18/18/12 48/18/12 46/17/12
f 41/28/13 43/15/13 19/11/13 14/23/13
f 20/31/14 13/32/14 27/32/14 28/31/14
f 4/6/16 1/25/16 22/25/16 24/6/16
f 2/4/17 6/27/17 23/27/17 21/4/17
f 34/1/18 2/4/18 21/4/18 44/1/18
f 14/23/20 19/11/20 25/11/20 26/23/20
f 19/11/21 20/14/21 28/14/21 25/11/21
f 13/24/22 14/23/22 26/23/22 27/24/22
f 1/35/30 34/1/30 44/1/30 22/35/30
f 12/26/31 18/18/31 43/15/31 41/28/31
f 13/32/32 20/31/32 42/19/32 40/2/32
f 10/10/31 5/9/31 35/21/31 38/16/31
f 8/37/33 16/38/33 37/22/33 39/20/33
f 3/29/8 35/21/8 37/22/8 16/38/8
f 6/27/36 36/5/36 45/5/36 23/27/36
f 49/26/38 47/3/38 52/3/38 54/26/38
f 18/18/39 12/26/39 49/26/39 48/18/39
f 15/3/40 17/17/40 46/17/40 47/3/40
f 12/26/41 15/3/41 47/3/41 49/26/41
f 47/3/42 46/17/42 51/17/42 52/3/42
f 46/17/43 48/18/43 53/18/43 51/17/43
f 48/18/44 49/26/44 54/26/44 53/18/44
f 50/39/45 52/3/45 51/17/45
f 50/40/46 53/18/46 54/26/46
f 50/41/47 54/26/47 52/3/47
f 50/42/48 51/17/48 53/18/48
