# Blender 4.5.3 LTS
# www.blender.org
mtllib warhammer.mtl
o warhammer
v 0.002908 -0.218257 -0.010814
v 0.002908 -0.218257 0.013358
v -0.009251 0.340416 -0.015201
v -0.002908 -0.218257 -0.010814
v -0.003964 0.340416 0.017744
v -0.002908 -0.218257 0.013358
v 0.003964 0.340416 0.017744
v 0.009251 0.332894 -0.015201
v 0.003964 0.332894 0.017744
v -0.003964 0.332894 0.017744
v -0.009251 0.332894 -0.015201
v -0.002906 0.280337 0.013349
v 0.003839 0.280337 -0.010806
v -0.003839 0.280337 -0.010806
v 0.002906 0.280337 0.013349
v 0.009251 0.340416 -0.015201
v 0.002906 0.328898 0.013348
v -0.002906 0.328898 0.013348
v -0.003839 0.328898 -0.010804
v 0.003839 0.328898 -0.010804
v 0.004094 -0.239499 0.018285
v 0.009555 -0.239499 -0.015742
v -0.004094 -0.239499 0.018285
v -0.009555 -0.239499 -0.015742
v 0.037596 0.260150 -0.091934
v 0.037591 0.348241 -0.091932
v -0.037596 0.260150 -0.091934
v -0.037591 0.348241 -0.091932
v -0.000000 0.304195 -0.103311
v 0.036182 0.261804 -0.049259
v 0.036177 0.346581 -0.049257
v -0.036182 0.261804 -0.049259
v -0.036177 0.346581 -0.049257
v 0.010151 -0.218257 0.001272
v -0.013835 0.340416 0.001272
v -0.010151 -0.218257 0.001272
v 0.013835 0.340416 0.001272
v -0.013835 0.332894 0.001272
v 0.013835 0.332894 0.001272
v 0.010144 0.280337 0.001272
v -0.010144 0.280337 0.001272
v 0.010143 0.328898 0.001272
v -0.010143 0.328898 0.001272
v 0.014290 -0.239499 0.001272
v -0.014290 -0.239499 0.001272
v 0.036177 0.347008 0.052730
v 0.036182 0.262231 0.052732
v -0.036177 0.347008 0.052730
v -0.036182 0.262231 0.052732
v 0.000000 0.304621 0.106784
v 0.037591 0.348667 0.095405
v 0.037596 0.260576 0.095407
v -0.037591 0.348667 0.095405
v -0.037596 0.260576 0.095407
v 0.037243 0.260989 0.084757
v -0.037243 0.260989 0.084757
v 0.037238 0.348253 0.084754
v -0.037238 0.348253 0.084754
v 0.037262 0.347855 -0.082012
v 0.037267 0.260534 -0.082014
v -0.037267 0.260534 -0.082014
v -0.037262 0.347855 -0.082012
vn 0.8578 -0.0000 0.5140
vn -0.8907 0.2687 -0.3666
vn -0.0000 -0.0000 1.0000
vn -0.0000 -0.7400 -0.6726
vn -0.5807 -0.7834 -0.2215
vn -0.0000 -0.7400 0.6726
vn 0.6722 -0.6212 0.4028
vn -0.0000 1.0000 -0.0000
vn -0.0000 -0.0000 -1.0000
vn -0.8723 -0.0008 -0.4890
vn -0.9634 -0.0000 -0.2681
vn -0.0000 0.9085 -0.4178
vn -0.8865 -0.0000 -0.4628
vn -0.2897 -0.0000 -0.9571
vn -0.0000 -1.0000 -0.0000
vn -0.0000 0.2260 -0.9741
vn -0.0000 0.2260 0.9741
vn 0.8460 0.1648 0.5070
vn -0.0000 -0.2501 -0.9682
vn -0.9995 0.0001 0.0331
vn -0.0000 0.2501 -0.9682
vn 0.2897 -0.0000 -0.9571
vn -0.0000 -0.9992 0.0387
vn 0.9995 0.0001 0.0331
vn -0.0000 0.9992 0.0388
vn 0.8907 0.2687 -0.3666
vn -0.8578 -0.0000 0.5140
vn 0.8865 -0.0000 -0.4628
vn 0.9634 -0.0000 -0.2681
vn 0.5807 -0.7834 -0.2215
vn -0.6722 -0.6212 0.4028
vn -0.8460 0.1648 0.5070
vn 0.8723 -0.0008 -0.4890
vn -0.0000 -0.9992 -0.0387
vn -0.7639 -0.0000 -0.6454
vn 0.7639 -0.0000 -0.6454
vn -0.0000 -0.9086 -0.4177
vn 0.9995 0.0001 -0.0331
vn -0.0000 0.9992 -0.0388
vn -0.9995 0.0001 -0.0331
vn 0.2897 -0.0000 0.9571
vn -0.2897 -0.0000 0.9571
vn -0.0000 -0.2501 0.9682
vn -0.0000 0.2501 0.9682
vn 0.7653 -0.0000 0.6437
vn -0.0000 -0.9008 0.4342
vn -0.7653 -0.0000 0.6437
vn -0.0000 0.9085 0.4178
vt 0.375000 0.125000
vt 0.410622 0.122297
vt 0.410622 0.244594
vt 0.375000 0.250000
vt 0.375000 0.625000
vt 0.375000 0.750000
vt 0.421250 0.250000
vt 0.428267 0.250000
vt 0.428267 0.500000
vt 0.421250 0.500000
vt 0.417246 0.742034
vt 0.421250 0.750000
vt 0.421250 1.000000
vt 0.417246 1.012206
vt 0.417246 0.625000
vt 0.421250 0.625000
vt 0.417246 0.242034
vt 0.417246 0.507966
vt 0.417246 0.121017
vt 0.421250 0.125000
vt 0.428267 0.625000
vt 0.428267 0.125000
vt 0.410622 0.744939
vt 0.410622 1.007808
vt 0.375000 1.000000
vt 0.410622 0.505406
vt 0.375000 0.500000
vt 0.410622 0.625172
vt 0.428267 0.750000
vt 0.428267 1.000000
vt 0.411326 0.297113
vt 0.125000 0.625000
vt 0.125000 0.750000
vt 0.411326 0.452887
vt 0.417246 0.242034
vt 0.416542 0.295806
vt 0.416542 0.454194
vt 0.410622 0.505406
vt 0.417246 0.507966
vt 0.375000 0.000000
vt 0.125000 0.500000
vt 0.410622 0.000000
vt 0.417246 0.000000
vt 0.421250 0.000000
vt 0.428267 0.000000
vt 0.410622 0.505406
vt 0.410622 0.244594
vt 0.417246 0.242034
s 0
usemtl Material.082
f 36/5/2 4/6/2 24/6/2 45/5/2
f 9/7/3 7/8/3 5/9/3 10/10/3
f 35/21/8 5/9/8 7/8/8 37/22/8
f 39/20/1 37/22/1 7/8/1 9/7/1
f 38/16/11 35/21/11 3/29/11 11/12/11
f 11/12/9 3/29/9 16/30/9 8/13/9
f 40/2/1 42/19/1 17/17/1 15/3/1
f 41/28/13 43/15/13 19/11/13 14/23/13
f 29/31/14 27/3/14 28/17/14
f 44/32/15 45/5/15 24/6/15 22/33/15
f 4/6/16 1/25/16 22/25/16 24/6/16
f 2/4/17 6/27/17 23/27/17 21/4/17
f 34/1/18 2/4/18 21/4/18 44/1/18
f 29/34/19 25/26/19 27/3/19
f 61/3/20 62/35/20 28/17/20 27/3/20
f 29/36/21 28/17/21 26/18/21
f 29/37/22 26/18/22 25/26/22
f 60/38/23 61/3/23 27/3/23 25/26/23
f 59/39/24 60/38/24 25/26/24 26/18/24
f 62/35/25 59/39/25 26/18/25 28/17/25
f 1/40/26 34/1/26 44/1/26 22/40/26
f 21/41/15 23/27/15 45/5/15 44/32/15
f 12/26/27 18/18/27 43/15/27 41/28/27
f 13/42/28 20/43/28 42/19/28 40/2/28
f 10/10/27 5/9/27 35/21/27 38/16/27
f 8/44/29 16/45/29 37/22/29 39/20/29
f 3/29/8 35/21/8 37/22/8 16/45/8
f 6/27/32 36/5/32 45/5/32 23/27/32
f 56/46/34 55/47/34 52/3/34 54/26/34
f 55/47/38 57/48/38 51/17/38 52/3/38
f 57/48/39 58/18/39 53/18/39 51/17/39
f 58/18/40 56/46/40 54/26/40 53/18/40
f 50/31/41 52/3/41 51/17/41
f 50/37/42 53/18/42 54/26/42
f 50/34/43 54/26/43 52/3/43
f 50/36/44 51/17/44 53/18/44
usemtl Material.010
f 34/1/1 40/2/1 15/3/1 2/4/1
f 19/11/4 11/12/4 8/13/4 20/14/4
f 43/15/5 38/16/5 11/12/5 19/11/5
f 17/17/6 9/7/6 10/10/6 18/18/6
f 42/19/7 39/20/7 9/7/7 17/17/7
f 4/6/9 14/23/9 13/24/9 1/25/9
f 2/4/3 15/3/3 12/26/3 6/27/3
f 36/5/10 41/28/10 14/23/10 4/6/10
f 6/27/27 12/26/27 41/28/27 36/5/27
f 20/43/30 8/44/30 39/20/30 42/19/30
f 18/18/31 10/10/31 38/16/31 43/15/31
f 1/40/33 13/42/33 40/2/33 34/1/33
usemtl Material.011
f 17/17/12 18/18/12 48/18/12 46/17/12
f 18/18/35 12/26/35 49/26/35 48/18/35
f 15/3/36 17/17/36 46/17/36 47/3/36
f 12/26/37 15/3/37 47/3/37 49/26/37
f 13/42/45 30/26/45 31/18/45 20/43/45
f 13/42/46 14/23/46 32/3/46 30/26/46
f 14/23/47 19/11/47 33/17/47 32/3/47
f 20/43/48 31/18/48 33/17/48 19/11/48
f 48/18/40 49/26/40 56/46/40 58/18/40
f 46/17/39 48/18/39 58/18/39 57/48/39
f 47/3/38 46/17/38 57/48/38 55/47/38
f 49/26/34 47/3/34 55/47/34 56/46/34
f 33/17/25 31/18/25 59/39/25 62/35/25
f 31/18/24 30/26/24 60/38/24 59/39/24
f 30/26/23 32/3/23 61/3/23 60/38/23
f 32/3/20 33/17/20 62/35/20 61/3/20
