# Blender 4.5.3 LTS
# www.blender.org
mtllib trebuchet_body.mtl
o trebuchet_body
v -0.254963 -0.054486 0.368570
v -0.251416 0.058316 0.357808
v -0.254963 -0.054486 -0.454711
v -0.254963 0.054486 -0.454711
v 0.254963 -0.054486 0.368570
v 0.251416 0.058316 0.357808
v 0.254963 -0.054486 -0.454711
v 0.254963 0.054486 -0.454711
v -0.254963 -0.054486 -0.331032
v -0.254963 -0.054486 -0.105533
v -0.254963 -0.054486 0.032172
v -0.254963 -0.054486 0.221142
v -0.251416 0.059226 0.220456
v -0.251416 0.058566 0.023791
v -0.251416 0.058566 -0.101394
v -0.254963 0.054486 -0.331032
v 0.254963 -0.054486 0.221142
v 0.254963 -0.054486 0.032172
v 0.254963 -0.054486 -0.105533
v 0.254963 -0.054486 -0.331032
v 0.254963 0.054486 -0.331032
v 0.251416 0.058566 -0.101394
v 0.251416 0.058566 0.023791
v 0.251416 0.059226 0.220456
v 0.152978 -0.054486 -0.454711
v 0.050993 -0.054486 -0.454711
v -0.050993 -0.054486 -0.454711
v -0.152978 -0.054486 -0.454711
v -0.152978 0.054486 -0.454711
v -0.050993 0.054486 -0.454711
v 0.050993 0.054486 -0.454711
v 0.152978 0.054486 -0.454711
v -0.152978 -0.054486 0.368570
v -0.050993 -0.054486 0.368570
v 0.050993 -0.054486 0.368570
v 0.152978 -0.054486 0.368570
v 0.150572 0.058316 0.357808
v 0.050993 0.054486 0.368570
v -0.050993 0.054486 0.368570
v -0.150572 0.058316 0.357808
v -0.152978 0.054486 -0.331032
v -0.050993 0.054486 -0.331032
v 0.050993 0.054486 -0.331032
v 0.152978 0.054486 -0.331032
v -0.150572 0.058566 -0.101394
v -0.251416 0.451765 -0.103630
v 0.150572 0.058566 -0.101394
v -0.150572 0.058566 0.023791
v -0.247870 0.451153 0.025132
v 0.150572 0.058566 0.023791
v -0.150572 0.059226 0.220456
v -0.050993 0.054486 0.221142
v 0.050993 0.054486 0.221142
v 0.150572 0.059226 0.220456
v 0.247870 0.451153 0.025132
v 0.251416 0.451765 -0.103630
v 0.148167 0.451153 0.025132
v -0.148167 0.451153 0.025132
v -0.150572 0.451765 -0.103630
v 0.150572 0.451765 -0.103630
v 0.247870 0.324351 0.025132
v 0.251416 0.325483 -0.103661
v -0.251416 0.325483 -0.103661
v -0.247870 0.324351 0.025132
v -0.150572 0.325483 -0.103661
v 0.150572 0.325483 -0.103661
v 0.148167 0.324351 0.025132
v -0.148167 0.324351 0.025132
v 0.251416 0.699522 -0.102374
v -0.247870 0.698910 0.026388
v 0.150572 0.699522 -0.102374
v -0.251416 0.699522 -0.102374
v -0.150572 0.699522 -0.102374
v 0.148167 0.698910 0.026388
v -0.148167 0.698910 0.026388
v 0.247870 0.698910 0.026388
v 0.247870 0.610771 0.025760
v 0.148167 0.610771 0.025760
v 0.150572 0.611383 -0.103002
v 0.251416 0.611383 -0.103002
v -0.148167 0.610771 0.025760
v -0.247870 0.610771 0.025760
v -0.251416 0.611383 -0.103002
v -0.150572 0.611383 -0.103002
v 0.092925 0.433946 0.007535
v -0.092925 0.433946 0.007535
v -0.094434 0.434390 -0.086037
v 0.094434 0.434390 -0.086037
v 0.092925 0.341797 0.007535
v -0.092925 0.341797 0.007535
v -0.094434 0.342619 -0.086060
v 0.094434 0.342619 -0.086060
v 0.334383 -0.001135 -0.009140
v 0.246112 0.499477 -0.009140
v 0.334383 -0.001135 -0.053850
v 0.246112 0.499477 -0.053850
v 0.382793 0.007401 -0.009140
v 0.294521 0.508013 -0.009140
v 0.382793 0.007401 -0.053850
v 0.294521 0.508013 -0.053850
v 0.317794 0.092947 -0.009140
v 0.310869 0.132224 -0.009140
v 0.295049 0.221942 -0.009140
v 0.287993 0.261961 -0.009140
v 0.272346 0.350699 -0.009140
v 0.265075 0.391935 -0.009140
v 0.265075 0.391935 -0.053850
v 0.272346 0.350699 -0.053850
v 0.287993 0.261961 -0.053850
v 0.295049 0.221942 -0.053850
v 0.310869 0.132224 -0.053850
v 0.317794 0.092947 -0.053850
v 0.313484 0.400471 -0.053850
v 0.320755 0.359235 -0.053850
v 0.336402 0.270497 -0.053850
v 0.343458 0.230478 -0.053850
v 0.359278 0.140760 -0.053850
v 0.366204 0.101482 -0.053850
v 0.313484 0.400471 -0.009140
v 0.320755 0.359235 -0.009140
v 0.336402 0.270497 -0.009140
v 0.343458 0.230478 -0.009140
v 0.359278 0.140760 -0.009140
v 0.366204 0.101482 -0.009140
v 0.317794 0.092947 0.033977
v 0.310869 0.132224 0.033977
v 0.295049 0.221942 0.033977
v 0.287993 0.261961 0.033977
v 0.272346 0.350699 0.033977
v 0.265075 0.391935 0.033977
v 0.313484 0.400471 0.033977
v 0.320755 0.359235 0.033977
v 0.336402 0.270497 0.033977
v 0.343458 0.230478 0.033977
v 0.359278 0.140760 0.033977
v 0.366204 0.101482 0.033977
v 0.265075 0.391935 -0.099980
v 0.272346 0.350699 -0.099980
v 0.287993 0.261961 -0.099980
v 0.295049 0.221942 -0.099980
v 0.310869 0.132224 -0.099980
v 0.317794 0.092947 -0.099980
v 0.313484 0.400471 -0.099980
v 0.320755 0.359235 -0.099980
v 0.336402 0.270497 -0.099980
v 0.343458 0.230478 -0.099980
v 0.359278 0.140760 -0.099980
v 0.366204 0.101482 -0.099980
v -0.334291 0.000393 -0.055141
v -0.246019 0.501004 -0.055141
v -0.334291 0.000393 -0.010431
v -0.246019 0.501004 -0.010431
v -0.382700 0.008929 -0.055141
v -0.294429 0.509540 -0.055141
v -0.382700 0.008929 -0.010431
v -0.294429 0.509540 -0.010431
v -0.317702 0.094474 -0.055141
v -0.310776 0.133752 -0.055141
v -0.294956 0.223469 -0.055141
v -0.287900 0.263489 -0.055141
v -0.272253 0.352227 -0.055141
v -0.264982 0.393463 -0.055141
v -0.264982 0.393463 -0.010431
v -0.272253 0.352227 -0.010431
v -0.287900 0.263489 -0.010431
v -0.294956 0.223469 -0.010431
v -0.310776 0.133752 -0.010431
v -0.317702 0.094474 -0.010431
v -0.313391 0.401998 -0.010431
v -0.320662 0.360763 -0.010431
v -0.336309 0.272024 -0.010431
v -0.343366 0.232005 -0.010431
v -0.359185 0.142288 -0.010431
v -0.366111 0.103010 -0.010431
v -0.313391 0.401998 -0.055141
v -0.320662 0.360763 -0.055141
v -0.336309 0.272024 -0.055141
v -0.343366 0.232005 -0.055141
v -0.359185 0.142288 -0.055141
v -0.366111 0.103010 -0.055141
v -0.317702 0.094474 -0.098258
v -0.310776 0.133752 -0.098258
v -0.294956 0.223469 -0.098258
v -0.287900 0.263489 -0.098258
v -0.272253 0.352227 -0.098258
v -0.264982 0.393463 -0.098258
v -0.313391 0.401998 -0.098258
v -0.320662 0.360763 -0.098258
v -0.336309 0.272024 -0.098258
v -0.343366 0.232005 -0.098258
v -0.359185 0.142288 -0.098258
v -0.366111 0.103010 -0.098258
v -0.264982 0.393463 0.035699
v -0.272253 0.352227 0.035699
v -0.287900 0.263489 0.035699
v -0.294956 0.223469 0.035699
v -0.310776 0.133752 0.035699
v -0.317702 0.094474 0.035699
v -0.313391 0.401998 0.035699
v -0.320662 0.360763 0.035699
v -0.336309 0.272024 0.035699
v -0.343366 0.232005 0.035699
v -0.359185 0.142288 0.035699
v -0.366111 0.103010 0.035699
vn -1.0000 -0.0000 -0.0000
vn -0.0000 -0.0000 -1.0000
vn 0.9995 0.0313 0.0001
vn -0.0000 0.0950 0.9955
vn 1.0000 -0.0038 -0.0039
vn -0.0000 0.9998 -0.0178
vn -0.0000 1.0000 -0.0034
vn 1.0000 -0.0000 -0.0000
vn 0.9998 0.0158 0.0076
vn 0.9995 0.0314 -0.0000
vn 0.9995 0.0313 -0.0001
vn -0.9995 0.0313 0.0001
vn -0.9995 0.0313 -0.0001
vn -0.9995 0.0314 -0.0000
vn -0.9998 0.0158 0.0076
vn -0.0000 -0.0071 1.0000
vn 1.0000 0.0062 -0.0057
vn 0.9996 -0.0000 0.0275
vn -0.0000 0.0002 -1.0000
vn -0.9996 -0.0000 0.0275
vn -0.0000 1.0000 0.0048
vn -0.0000 1.0000 -0.0000
vn -0.0428 0.9991 0.0032
vn 0.0428 0.9991 0.0032
vn 0.0523 0.0490 0.9974
vn -0.0000 -0.0000 1.0000
vn -0.0523 0.0490 0.9974
vn -0.2991 0.0002 -0.9542
vn -0.0000 0.6463 0.7631
vn 0.3035 -0.0000 0.9528
vn -1.0000 0.0062 -0.0057
vn 0.2965 0.9550 -0.0007
vn 1.0000 -0.0042 0.0039
vn -0.0000 -0.0050 1.0000
vn -0.0000 -0.0085 -1.0000
vn -0.9999 0.0067 0.0140
vn 0.9999 0.0067 0.0140
vn -1.0000 -0.0042 0.0039
vn -0.9998 0.0001 -0.0187
vn -0.0000 0.0071 -1.0000
vn -1.0000 0.0056 0.0058
vn 1.0000 0.0056 0.0058
vn -0.0000 0.6622 -0.7493
vn -1.0000 -0.0038 -0.0039
vn -0.9996 -0.0002 0.0275
vn 0.9998 0.0001 -0.0187
vn 0.9996 -0.0002 0.0275
vn 0.9996 -0.0001 0.0275
vn -0.0000 0.0039 -1.0000
vn -0.0000 -0.0039 1.0000
vn -0.9996 -0.0001 0.0275
vn -0.2965 0.9550 -0.0007
vn -0.3035 -0.0000 0.9528
vn 0.2991 0.0002 -0.9542
vn -0.9848 0.1736 -0.0000
vn 0.9848 0.1736 -0.0000
vn -0.1736 0.9848 -0.0000
vn 0.1736 -0.9848 -0.0000
vn -0.1736 -0.9848 -0.0000
vn 0.1736 0.9848 -0.0000
vt 0.375000 0.200000
vt 0.625000 0.200000
vt 0.625000 0.250000
vt 0.375000 0.250000
vt 0.375000 0.450000
vt 0.625000 0.450000
vt 0.625000 0.500000
vt 0.375000 0.500000
vt 0.375000 0.700000
vt 0.625000 0.700000
vt 0.625000 0.750000
vt 0.375000 0.750000
vt 0.375000 0.950000
vt 0.625000 0.950000
vt 0.625000 1.000000
vt 0.375000 1.000000
vt 0.825000 0.550000
vt 0.825000 0.500000
vt 0.875000 0.550000
vt 0.875000 0.600000
vt 0.825000 0.600000
vt 0.825000 0.650000
vt 0.875000 0.650000
vt 0.875000 0.700000
vt 0.825000 0.700000
vt 0.625000 0.550000
vt 0.375000 0.550000
vt 0.625000 0.600000
vt 0.375000 0.600000
vt 0.625000 0.650000
vt 0.375000 0.650000
vt 0.375000 0.000000
vt 0.625000 0.000000
vt 0.625000 0.050000
vt 0.375000 0.050000
vt 0.625000 0.100000
vt 0.375000 0.100000
vt 0.625000 0.150000
vt 0.375000 0.150000
vt 0.675000 0.650000
vt 0.675000 0.700000
vt 0.574720 0.250000
vt 0.500000 1.000000
vt 0.675000 0.550000
vt 0.675000 0.600000
vt 0.500000 0.750000
vt 0.250000 0.699720
vt 0.375000 0.699720
vt 0.250000 0.750000
vt 0.750000 0.500000
vt 0.875000 0.500000
vt 0.875000 0.750000
vt 0.750000 0.750000
vt 0.425280 0.000000
vt 0.425280 0.250000
vt 0.675000 0.500000
vt 0.725000 0.500000
vt 0.725000 0.550000
vt 0.775000 0.500000
vt 0.775000 0.550000
vt 0.725000 0.700000
vt 0.725000 0.750000
vt 0.675000 0.750000
vt 0.775000 0.700000
vt 0.775000 0.750000
vt 0.825000 0.750000
vt 0.625000 0.800000
vt 0.375000 0.800000
vt 0.625000 0.850000
vt 0.375000 0.850000
vt 0.625000 0.900000
vt 0.375000 0.900000
vt 0.625000 0.300000
vt 0.375000 0.300000
vt 0.625000 0.350000
vt 0.375000 0.350000
vt 0.625000 0.400000
vt 0.375000 0.400000
vt 0.250000 0.500000
vt 0.375000 0.550280
vt 0.250000 0.550280
vt 0.250000 0.689485
vt 0.375000 0.689485
vt 0.500000 0.689485
vt 0.625000 0.689485
vt 0.625000 0.699720
vt 0.500000 0.699720
vt 0.425280 0.250000
vt 0.564485 0.000000
vt 0.574720 0.000000
vt 0.564485 0.250000
vt 0.500000 0.500000
vt 0.500000 0.550280
vt 0.125000 0.500000
vt 0.125000 0.550280
vt 0.125000 0.699720
vt 0.125000 0.750000
vt 0.625000 0.550280
vt 0.435515 0.000000
vt 0.435515 0.250000
vt 0.625000 0.560515
vt 0.500000 0.560515
vt 0.375000 0.560515
vt 0.250000 0.560515
vt 0.517857 0.500000
vt 0.553571 0.500000
vt 0.553571 0.750000
vt 0.517857 0.750000
vt 0.589286 0.250000
vt 0.589286 0.500000
vt 0.589286 0.750000
vt 0.589286 1.000000
vt 0.482143 0.500000
vt 0.482143 0.750000
vt 0.410714 0.750000
vt 0.410714 1.000000
vt 0.446429 0.500000
vt 0.446429 0.750000
vt 0.482143 1.000000
vt 0.446429 1.000000
vt 0.553571 1.000000
vt 0.517857 1.000000
vt 0.410714 0.500000
vt 0.410714 0.250000
vt 0.446429 0.250000
vt 0.482143 0.250000
vt 0.517857 0.250000
vt 0.553571 0.250000
s 0
usemtl Material.033
f 41/17/5 29/18/5 59/18/5 65/17/5
f 41/17/6 16/19/6 15/20/6 45/21/6
f 48/22/7 14/23/7 13/24/7 51/25/7
f 20/27/9 21/26/9 22/28/9 19/29/9
f 18/31/11 23/30/11 24/10/11 17/9/11
f 12/35/13 13/34/13 14/36/13 11/37/13
f 10/39/15 15/38/15 16/2/15 9/1/15
f 23/30/7 50/40/7 54/41/7 24/10/7
f 61/43/17 55/15/17 6/15/17 24/43/17
f 21/26/6 44/44/6 47/45/6 22/28/6
f 32/56/22 31/57/22 43/58/22 44/44/22
f 31/57/22 30/59/22 42/60/22 43/58/22
f 30/59/22 29/18/22 41/17/22 42/60/22
f 54/41/23 53/61/23 38/62/23 37/63/23
f 53/61/22 52/64/22 39/65/22 38/62/22
f 52/64/24 51/25/24 40/66/24 39/65/24
f 36/68/25 37/67/25 38/69/25 35/70/25
f 35/70/26 38/69/26 39/71/26 34/72/26
f 34/72/27 39/71/27 40/14/27 33/13/27
f 28/74/2 29/73/2 30/75/2 27/76/2
f 27/76/2 30/75/2 31/77/2 26/78/2
f 26/78/2 31/77/2 32/6/2 25/5/2
f 92/82/28 88/83/28 60/48/28 66/47/28
f 58/42/29 49/3/29 2/3/29 40/42/29
f 90/84/30 86/85/30 58/86/30 68/87/30
f 49/51/31 64/50/31 13/50/31 2/51/31
f 87/89/32 59/90/32 58/42/32 86/91/32
f 68/87/33 58/86/33 40/86/33 51/87/33
f 23/8/34 61/92/34 67/93/34 50/80/34
f 15/94/35 63/79/35 65/81/35 45/95/35
f 14/7/36 64/50/36 63/53/36 15/11/36
f 47/96/35 66/47/35 62/49/35 22/97/35
f 22/12/37 62/46/37 61/43/37 23/16/37
f 48/48/34 68/87/34 64/46/34 14/12/34
f 57/98/38 67/93/38 54/93/38 37/98/38
f 55/4/29 57/55/29 37/55/29 6/4/29
f 4/3/41 16/2/41 63/2/41 46/3/41
f 21/26/42 8/7/42 56/7/42 62/26/42
f 29/73/43 4/3/43 46/3/43 59/73/43
f 8/7/43 32/6/43 60/6/43 56/7/43
f 32/56/44 44/44/44 66/44/44 60/56/44
f 55/15/48 56/11/48 80/11/48 77/15/48
f 56/12/49 60/48/49 79/48/49 80/12/49
f 60/54/39 57/55/39 78/88/39 79/54/39
f 57/55/50 55/4/50 77/4/50 78/88/50
f 59/80/49 46/8/49 83/8/49 84/80/49
f 58/42/46 59/90/46 84/90/46 81/42/46
f 46/52/51 49/51/51 82/51/51 83/52/51
f 49/3/50 58/42/50 81/42/50 82/3/50
f 60/54/52 88/99/52 85/100/52 57/55/52
f 88/99/21 87/89/21 86/91/21 85/100/21
f 67/93/53 57/98/53 85/101/53 89/102/53
f 89/102/26 85/101/26 86/85/26 90/84/26
f 65/81/54 59/80/54 87/103/54 91/104/54
f 91/104/19 87/103/19 88/83/19 92/82/19
f 171/105/55 170/106/55 176/107/55 177/108/55
f 107/109/2 96/3/2 100/7/2 113/110/2
f 113/110/56 100/7/56 98/11/56 119/111/56
f 119/111/26 98/11/26 94/15/26 106/112/26
f 172/113/55 171/105/55 177/108/55 178/114/55
f 100/7/57 96/51/57 94/52/57 98/11/57
f 97/12/26 124/115/26 101/116/26 93/16/26
f 173/117/55 172/113/55 178/114/55 179/118/55
f 123/118/26 122/114/26 103/119/26 102/120/26
f 124/115/56 123/118/56 135/118/56 136/115/56
f 121/108/26 120/107/26 105/121/26 104/122/26
f 103/119/58 122/114/58 134/114/58 127/119/58
f 99/8/56 118/123/56 124/115/56 97/12/56
f 118/123/56 117/117/56 123/118/56 124/115/56
f 117/117/56 116/113/56 122/114/56 123/118/56
f 116/113/56 115/105/56 121/108/56 122/114/56
f 115/105/56 114/106/56 120/107/56 121/108/56
f 114/106/56 113/110/56 119/111/56 120/107/56
f 95/4/2 112/124/2 118/123/2 99/8/2
f 117/117/56 118/123/56 148/123/56 147/117/56
f 111/125/2 110/126/2 116/113/2 117/117/2
f 111/125/57 117/117/57 147/117/57 141/125/57
f 109/127/2 108/128/2 114/106/2 115/105/2
f 113/110/56 114/106/56 144/106/56 143/110/56
f 174/123/55 173/117/55 179/118/55 180/115/55
f 155/8/55 174/123/55 180/115/55 153/12/55
f 159/119/59 178/114/59 190/114/59 183/119/59
f 177/108/2 176/107/2 161/121/2 160/122/2
f 180/115/55 179/118/55 191/118/55 192/115/55
f 179/118/2 178/114/2 159/119/2 158/120/2
f 136/115/26 135/118/26 126/120/26 125/116/26
f 134/114/26 133/108/26 128/122/26 127/119/26
f 132/107/26 131/111/26 130/112/26 129/121/26
f 121/108/57 104/122/57 128/122/57 133/108/57
f 101/116/58 124/115/58 136/115/58 125/116/58
f 122/114/56 121/108/56 133/108/56 134/114/56
f 105/121/58 120/107/58 132/107/58 129/121/58
f 153/12/2 180/115/2 157/116/2 149/16/2
f 123/118/57 102/120/57 126/120/57 135/118/57
f 156/7/60 152/51/60 150/52/60 154/11/60
f 119/111/57 106/112/57 130/112/57 131/111/57
f 120/107/56 119/111/56 131/111/56 132/107/56
f 142/124/2 141/125/2 147/117/2 148/123/2
f 140/126/2 139/127/2 145/105/2 146/113/2
f 138/128/2 137/109/2 143/110/2 144/106/2
f 107/109/57 113/110/57 143/110/57 137/109/57
f 175/111/2 154/11/2 150/15/2 162/112/2
f 116/113/58 110/126/58 140/126/58 146/113/58
f 169/110/55 156/7/55 154/11/55 175/111/55
f 115/105/56 116/113/56 146/113/56 145/105/56
f 109/127/57 115/105/57 145/105/57 139/127/57
f 118/123/58 112/124/58 142/124/58 148/123/58
f 163/109/26 152/3/26 156/7/26 169/110/26
f 114/106/58 108/128/58 138/128/58 144/106/58
f 170/106/55 169/110/55 175/111/55 176/107/55
f 151/4/26 168/124/26 174/123/26 155/8/26
f 173/117/55 174/123/55 204/123/55 203/117/55
f 167/125/26 166/126/26 172/113/26 173/117/26
f 167/125/60 173/117/60 203/117/60 197/125/60
f 165/127/26 164/128/26 170/106/26 171/105/26
f 169/110/55 170/106/55 200/106/55 199/110/55
f 192/115/2 191/118/2 182/120/2 181/116/2
f 190/114/2 189/108/2 184/122/2 183/119/2
f 188/107/2 187/111/2 186/112/2 185/121/2
f 177/108/60 160/122/60 184/122/60 189/108/60
f 157/116/59 180/115/59 192/115/59 181/116/59
f 178/114/55 177/108/55 189/108/55 190/114/55
f 161/121/59 176/107/59 188/107/59 185/121/59
f 179/118/60 158/120/60 182/120/60 191/118/60
f 175/111/60 162/112/60 186/112/60 187/111/60
f 176/107/55 175/111/55 187/111/55 188/107/55
f 198/124/26 197/125/26 203/117/26 204/123/26
f 196/126/26 195/127/26 201/105/26 202/113/26
f 194/128/26 193/109/26 199/110/26 200/106/26
f 163/109/60 169/110/60 199/110/60 193/109/60
f 172/113/59 166/126/59 196/126/59 202/113/59
f 171/105/55 172/113/55 202/113/55 201/105/55
f 165/127/60 171/105/60 201/105/60 195/127/60
f 174/123/59 168/124/59 198/124/59 204/123/59
f 170/106/59 164/128/59 194/128/59 200/106/59
usemtl Material.034
f 9/1/1 16/2/1 4/3/1 3/4/1
f 25/5/2 32/6/2 8/7/2 7/8/2
f 17/9/3 24/10/3 6/11/3 5/12/3
f 33/13/4 40/14/4 2/15/4 1/16/4
f 7/8/8 8/7/8 21/26/8 20/27/8
f 19/29/10 22/28/10 23/30/10 18/31/10
f 1/32/12 2/33/12 13/34/12 12/35/12
f 11/37/14 14/36/14 15/38/14 10/39/14
f 82/3/16 81/42/16 75/42/16 70/3/16
f 62/46/18 56/11/18 55/15/18 61/43/18
f 66/47/19 60/48/19 56/12/19 62/49/19
f 64/50/20 49/51/20 46/52/20 63/53/20
f 69/32/21 71/54/21 74/55/21 76/4/21
f 5/12/4 6/11/4 37/67/4 36/68/4
f 3/4/2 4/3/2 29/73/2 28/74/2
f 63/79/19 46/8/19 59/80/19 65/81/19
f 78/88/16 77/4/16 76/4/16 74/55/16
f 79/54/39 78/88/39 74/55/39 71/54/39
f 80/12/40 79/48/40 71/48/40 69/12/40
f 73/90/21 72/33/21 70/3/21 75/42/21
f 83/52/45 82/51/45 70/51/45 72/52/45
f 81/42/46 84/90/46 73/90/46 75/42/46
f 84/80/40 83/8/40 72/8/40 73/80/40
f 77/15/47 80/11/47 69/11/47 76/15/47
