# Blender 4.5.3 LTS
# www.blender.org
mtllib trebuchet_body.mtl
o trebuchet_body
v -0.254963 -0.054486 0.368570
v -0.251416 0.058316 0.357808
v -0.254963 -0.054486 -0.454711
v -0.254963 0.054486 -0.454711
v 0.254963 -0.054486 0.368570
v 0.251416 0.058316 0.357808
v 0.254963 -0.054486 -0.454711
v 0.254963 0.054486 -0.454711
v -0.254963 -0.054486 -0.331032
v -0.254963 -0.054486 -0.105533
v -0.254963 -0.054486 0.032172
v -0.254963 -0.054486 0.221142
v -0.251416 0.059226 0.220456
v -0.251416 0.058566 0.023791
v -0.251416 0.058566 -0.101394
v -0.254963 0.054486 -0.331032
v 0.254963 -0.054486 0.221142
v 0.254963 -0.054486 0.032172
v 0.254963 -0.054486 -0.105533
v 0.254963 -0.054486 -0.331032
v 0.254963 0.054486 -0.331032
v 0.251416 0.058566 -0.101394
v 0.251416 0.058566 0.023791
v 0.251416 0.059226 0.220456
v 0.152978 -0.054486 -0.454711
v 0.050993 -0.054486 -0.454711
v -0.050993 -0.054486 -0.454711
v -0.152978 -0.054486 -0.454711
v -0.152978 0.054486 -0.454711
v -0.050993 0.054486 -0.454711
v 0.050993 0.054486 -0.454711
v 0.152978 0.054486 -0.454711
v -0.152978 -0.054486 0.368570
v -0.050993 -0.054486 0.368570
v 0.050993 -0.054486 0.368570
v 0.152978 -0.054486 0.368570
v 0.150572 0.058316 0.357808
v 0.050993 0.054486 0.368570
v -0.050993 0.054486 0.368570
v -0.150572 0.058316 0.357808
v -0.152978 0.054486 -0.331032
v -0.050993 0.054486 -0.331032
v 0.050993 0.054486 -0.331032
v 0.152978 0.054486 -0.331032
v -0.150572 0.058566 -0.101394
v -0.251416 0.389451 -0.103630
v 0.150572 0.058566 -0.101394
v -0.150572 0.058566 0.023791
v -0.247870 0.388839 0.025132
v 0.150572 0.058566 0.023791
v -0.150572 0.059226 0.220456
v -0.050993 0.054486 0.221142
v 0.050993 0.054486 0.221142
v 0.150572 0.059226 0.220456
v 0.247870 0.388839 0.025132
v 0.251416 0.389451 -0.103630
v 0.148167 0.388839 0.025132
v -0.148167 0.388839 0.025132
v -0.150572 0.389451 -0.103630
v 0.150572 0.389451 -0.103630
v 0.247870 0.294110 0.025132
v 0.251416 0.295242 -0.103661
v -0.251416 0.295242 -0.103661
v -0.247870 0.294110 0.025132
v -0.150572 0.295242 -0.103661
v 0.150572 0.295242 -0.103661
v 0.148167 0.294110 0.025132
v -0.148167 0.294110 0.025132
v 0.251416 0.574893 -0.102374
v -0.247870 0.574281 0.026388
v 0.150572 0.574893 -0.102374
v -0.251416 0.574893 -0.102374
v -0.150572 0.574893 -0.102374
v 0.148167 0.574281 0.026388
v -0.148167 0.574281 0.026388
v 0.247870 0.574281 0.026388
v 0.247870 0.486142 0.025760
v 0.148167 0.486142 0.025760
v 0.150572 0.486754 -0.103002
v 0.251416 0.486754 -0.103002
v -0.148167 0.486142 0.025760
v -0.247870 0.486142 0.025760
v -0.251416 0.486754 -0.103002
v -0.150572 0.486754 -0.103002
vn -1.0000 -0.0000 -0.0000
vn -0.0000 -0.0000 -1.0000
vn 0.9995 0.0313 0.0001
vn -0.0000 0.0950 0.9955
vn 1.0000 -0.0047 -0.0036
vn -0.0000 0.9998 -0.0178
vn -0.0000 1.0000 -0.0034
vn 1.0000 -0.0000 -0.0000
vn 0.9998 0.0158 0.0076
vn 0.9995 0.0314 -0.0000
vn 0.9995 0.0313 -0.0001
vn -0.9995 0.0313 0.0001
vn -0.9995 0.0313 -0.0001
vn -0.9995 0.0314 -0.0000
vn -0.9998 0.0158 0.0076
vn -0.0000 -0.0071 1.0000
vn 1.0000 0.0077 -0.0052
vn 0.9996 -0.0000 0.0275
vn -0.0000 0.0003 -1.0000
vn -0.9996 -0.0000 0.0275
vn -0.0000 1.0000 0.0048
vn -0.0000 1.0000 -0.0000
vn -0.0428 0.9991 0.0032
vn 0.0428 0.9991 0.0032
vn 0.0523 0.0490 0.9974
vn -0.0000 -0.0000 1.0000
vn -0.0523 0.0490 0.9974
vn -0.0000 0.7094 0.7048
vn -1.0000 0.0077 -0.0052
vn 1.0000 -0.0052 0.0035
vn -0.0000 -0.0057 1.0000
vn -0.0000 -0.0096 -1.0000
vn -0.9999 0.0075 0.0140
vn 0.9999 0.0075 0.0140
vn -1.0000 -0.0052 0.0035
vn -0.9998 0.0001 -0.0187
vn -0.0000 0.0071 -1.0000
vn -1.0000 0.0070 0.0053
vn 1.0000 0.0070 0.0053
vn -0.0000 0.7235 -0.6903
vn -1.0000 -0.0047 -0.0036
vn -0.9996 -0.0002 0.0275
vn 0.9998 0.0001 -0.0187
vn 0.9996 -0.0002 0.0275
vn -0.0000 0.0065 -1.0000
vn -0.0000 -0.0065 1.0000
vt 0.375000 0.200000
vt 0.625000 0.200000
vt 0.625000 0.250000
vt 0.375000 0.250000
vt 0.375000 0.450000
vt 0.625000 0.450000
vt 0.625000 0.500000
vt 0.375000 0.500000
vt 0.375000 0.700000
vt 0.625000 0.700000
vt 0.625000 0.750000
vt 0.375000 0.750000
vt 0.375000 0.950000
vt 0.625000 0.950000
vt 0.625000 1.000000
vt 0.375000 1.000000
vt 0.825000 0.550000
vt 0.825000 0.500000
vt 0.875000 0.550000
vt 0.875000 0.600000
vt 0.825000 0.600000
vt 0.825000 0.650000
vt 0.875000 0.650000
vt 0.875000 0.700000
vt 0.825000 0.700000
vt 0.625000 0.550000
vt 0.375000 0.550000
vt 0.625000 0.600000
vt 0.375000 0.600000
vt 0.625000 0.650000
vt 0.375000 0.650000
vt 0.375000 0.000000
vt 0.625000 0.000000
vt 0.625000 0.050000
vt 0.375000 0.050000
vt 0.625000 0.100000
vt 0.375000 0.100000
vt 0.625000 0.150000
vt 0.375000 0.150000
vt 0.675000 0.650000
vt 0.675000 0.700000
vt 0.574720 0.250000
vt 0.500000 1.000000
vt 0.675000 0.550000
vt 0.675000 0.600000
vt 0.500000 0.750000
vt 0.250000 0.699720
vt 0.375000 0.699720
vt 0.250000 0.750000
vt 0.750000 0.500000
vt 0.875000 0.500000
vt 0.875000 0.750000
vt 0.750000 0.750000
vt 0.425280 0.000000
vt 0.425280 0.250000
vt 0.675000 0.500000
vt 0.725000 0.500000
vt 0.725000 0.550000
vt 0.775000 0.500000
vt 0.775000 0.550000
vt 0.725000 0.700000
vt 0.725000 0.750000
vt 0.675000 0.750000
vt 0.775000 0.700000
vt 0.775000 0.750000
vt 0.825000 0.750000
vt 0.625000 0.800000
vt 0.375000 0.800000
vt 0.625000 0.850000
vt 0.375000 0.850000
vt 0.625000 0.900000
vt 0.375000 0.900000
vt 0.625000 0.300000
vt 0.375000 0.300000
vt 0.625000 0.350000
vt 0.375000 0.350000
vt 0.625000 0.400000
vt 0.375000 0.400000
vt 0.250000 0.500000
vt 0.375000 0.550280
vt 0.250000 0.550280
vt 0.500000 0.550280
vt 0.625000 0.550280
vt 0.625000 0.699720
vt 0.500000 0.699720
vt 0.425280 0.250000
vt 0.574720 0.000000
vt 0.500000 0.500000
vt 0.125000 0.500000
vt 0.125000 0.550280
vt 0.125000 0.699720
vt 0.125000 0.750000
s 0
usemtl Material.033
f 41/17/5 29/18/5 59/18/5 65/17/5
f 41/17/6 16/19/6 15/20/6 45/21/6
f 48/22/7 14/23/7 13/24/7 51/25/7
f 20/27/9 21/26/9 22/28/9 19/29/9
f 18/31/11 23/30/11 24/10/11 17/9/11
f 12/35/13 13/34/13 14/36/13 11/37/13
f 10/39/15 15/38/15 16/2/15 9/1/15
f 23/30/7 50/40/7 54/41/7 24/10/7
f 61/43/17 55/15/17 6/15/17 24/43/17
f 21/26/6 44/44/6 47/45/6 22/28/6
f 32/56/22 31/57/22 43/58/22 44/44/22
f 31/57/22 30/59/22 42/60/22 43/58/22
f 30/59/22 29/18/22 41/17/22 42/60/22
f 54/41/23 53/61/23 38/62/23 37/63/23
f 53/61/22 52/64/22 39/65/22 38/62/22
f 52/64/24 51/25/24 40/66/24 39/65/24
f 36/68/25 37/67/25 38/69/25 35/70/25
f 35/70/26 38/69/26 39/71/26 34/72/26
f 34/72/27 39/71/27 40/14/27 33/13/27
f 28/74/2 29/73/2 30/75/2 27/76/2
f 27/76/2 30/75/2 31/77/2 26/78/2
f 26/78/2 31/77/2 32/6/2 25/5/2
f 65/81/19 59/80/19 60/48/19 66/47/19
f 58/42/28 49/3/28 2/3/28 40/42/28
f 67/82/26 57/83/26 58/84/26 68/85/26
f 49/51/29 64/50/29 13/50/29 2/51/29
f 60/54/21 59/87/21 58/42/21 57/55/21
f 68/85/30 58/84/30 40/84/30 51/85/30
f 23/8/31 61/88/31 67/82/31 50/80/31
f 15/89/32 63/79/32 65/81/32 45/90/32
f 14/7/33 64/50/33 63/53/33 15/11/33
f 47/91/32 66/47/32 62/49/32 22/92/32
f 22/12/34 62/46/34 61/43/34 23/16/34
f 48/48/31 68/85/31 64/46/31 14/12/31
f 57/83/35 67/82/35 54/82/35 37/83/35
f 55/4/28 57/55/28 37/55/28 6/4/28
f 4/3/38 16/2/38 63/2/38 46/3/38
f 21/26/39 8/7/39 56/7/39 62/26/39
f 29/73/40 4/3/40 46/3/40 59/73/40
f 8/7/40 32/6/40 60/6/40 56/7/40
f 32/56/41 44/44/41 66/44/41 60/56/41
f 55/15/44 56/11/44 80/11/44 77/15/44
f 56/12/45 60/48/45 79/48/45 80/12/45
f 60/54/36 57/55/36 78/86/36 79/54/36
f 57/55/46 55/4/46 77/4/46 78/86/46
f 59/80/45 46/8/45 83/8/45 84/80/45
f 58/42/43 59/87/43 84/87/43 81/42/43
f 46/52/42 49/51/42 82/51/42 83/52/42
f 49/3/46 58/42/46 81/42/46 82/3/46
usemtl Material.034
f 9/1/1 16/2/1 4/3/1 3/4/1
f 25/5/2 32/6/2 8/7/2 7/8/2
f 17/9/3 24/10/3 6/11/3 5/12/3
f 33/13/4 40/14/4 2/15/4 1/16/4
f 7/8/8 8/7/8 21/26/8 20/27/8
f 19/29/10 22/28/10 23/30/10 18/31/10
f 1/32/12 2/33/12 13/34/12 12/35/12
f 11/37/14 14/36/14 15/38/14 10/39/14
f 82/3/16 81/42/16 75/42/16 70/3/16
f 62/46/18 56/11/18 55/15/18 61/43/18
f 66/47/19 60/48/19 56/12/19 62/49/19
f 64/50/20 49/51/20 46/52/20 63/53/20
f 69/32/21 71/54/21 74/55/21 76/4/21
f 5/12/4 6/11/4 37/67/4 36/68/4
f 3/4/2 4/3/2 29/73/2 28/74/2
f 63/79/19 46/8/19 59/80/19 65/81/19
f 78/86/16 77/4/16 76/4/16 74/55/16
f 79/54/36 78/86/36 74/55/36 71/54/36
f 80/12/37 79/48/37 71/48/37 69/12/37
f 73/87/21 72/33/21 70/3/21 75/42/21
f 83/52/42 82/51/42 70/51/42 72/52/42
f 81/42/43 84/87/43 73/87/43 75/42/43
f 84/80/37 83/8/37 72/8/37 73/80/37
f 77/15/44 80/11/44 69/11/44 76/15/44
