# Blender 4.5.3 LTS
# www.blender.org
mtllib bow_pull.mtl
o bow_mk2_pull
v -0.010458 -0.304500 -0.186607
v 0.010458 -0.304500 -0.186607
v -0.010454 -0.281365 -0.174241
v 0.010454 -0.281365 -0.174241
v -0.010310 -0.234973 -0.107926
v 0.010310 -0.234973 -0.107926
v -0.009562 -0.118858 -0.038259
v 0.009562 -0.118858 -0.038259
v -0.009562 -0.000000 0.002222
v 0.009562 0.000000 0.002222
v -0.009562 0.118858 -0.038259
v 0.009562 0.118858 -0.038259
v -0.010310 0.234973 -0.107926
v 0.010310 0.234973 -0.107926
v -0.010454 0.281365 -0.174241
v 0.010454 0.281365 -0.174241
v -0.010458 0.304500 -0.186607
v 0.010458 0.304500 -0.186607
v -0.010458 -0.327819 -0.186607
v 0.010458 -0.327819 -0.186607
v -0.010458 -0.302865 -0.165098
v 0.010458 -0.302865 -0.165098
v -0.010318 -0.249870 -0.089292
v 0.010318 -0.249870 -0.089292
v -0.009572 -0.125451 -0.016254
v 0.009572 -0.125451 -0.016254
v -0.009572 -0.000000 0.025538
v 0.009572 0.000000 0.025538
v -0.009572 0.125451 -0.016254
v 0.009572 0.125451 -0.016254
v -0.010318 0.249870 -0.089292
v 0.010318 0.249870 -0.089292
v -0.010458 0.302865 -0.165098
v 0.010458 0.302865 -0.165098
v -0.010458 0.327819 -0.186607
v 0.010458 0.327819 -0.186607
v -0.005328 -0.312950 -0.178974
v -0.005328 0.315071 -0.178974
v -0.005328 -0.312950 -0.188866
v -0.005328 0.315071 -0.188866
v 0.005328 -0.312950 -0.178974
v 0.005328 0.315071 -0.178974
v 0.005328 -0.312950 -0.188866
v 0.005328 0.315071 -0.188866
v -0.005328 -0.250483 -0.207307
v -0.005328 0.252604 -0.207307
v -0.005328 0.252604 -0.218259
v -0.005328 -0.250483 -0.218259
v 0.005328 0.252604 -0.218259
v 0.005328 -0.250483 -0.218259
v 0.005328 0.252604 -0.207307
v 0.005328 -0.250483 -0.207307
v -0.005328 0.001061 -0.324159
v -0.005328 0.001061 -0.335111
v 0.005328 0.001061 -0.335111
v 0.005328 0.001061 -0.324159
vn -0.0000 -0.6529 0.7575
vn -0.0000 -0.8196 0.5730
vn -0.0000 -0.5063 0.8624
vn -0.0000 -0.3161 0.9487
vn -0.0000 0.3161 0.9487
vn -0.0000 0.5063 0.8624
vn -0.0000 0.8196 0.5730
vn -0.0000 0.6529 0.7575
vn -1.0000 0.0001 -0.0000
vn 1.0000 0.0001 -0.0000
vn -1.0000 0.0012 0.0011
vn 1.0000 0.0012 0.0011
vn -1.0000 0.0049 0.0022
vn 1.0000 0.0049 0.0022
vn -1.0000 0.0001 -0.0004
vn 1.0000 0.0001 -0.0004
vn -1.0000 -0.0001 -0.0004
vn 1.0000 -0.0001 -0.0004
vn -1.0000 -0.0049 0.0022
vn 1.0000 -0.0049 0.0022
vn -1.0000 -0.0012 0.0011
vn 1.0000 -0.0012 0.0011
vn -1.0000 -0.0001 -0.0000
vn 1.0000 -0.0001 -0.0000
vn -1.0000 -0.0000 -0.0000
vn -0.0000 0.4258 -0.9048
vn 1.0000 -0.0000 -0.0000
vn -0.0000 -0.4131 0.9107
vn -0.0000 0.4131 0.9107
vn -0.0000 -0.4213 0.9069
vn -0.0000 -0.4258 -0.9048
vn -0.0000 0.4213 -0.9069
vn -0.0000 -0.4213 -0.9069
vn -0.0000 0.4213 0.9069
vt 0.750000 0.500000
vt 0.750000 1.000000
vt 0.687500 1.000000
vt 0.687500 0.500000
vt 0.625000 1.000000
vt 0.625000 0.500000
vt 0.562500 1.000000
vt 0.562500 0.500000
vt 0.500000 1.000000
vt 0.500000 0.500000
vt 0.437500 1.000000
vt 0.437500 0.500000
vt 0.375000 1.000000
vt 0.375000 0.500000
vt 0.312500 1.000000
vt 0.312500 0.500000
vt 0.250000 1.000000
vt 0.250000 0.500000
vt 0.954487 0.161340
vt 0.972789 0.249056
vt 0.990000 0.250000
vt 0.971731 0.158156
vt 0.472789 0.249056
vt 0.454487 0.161340
vt 0.471731 0.158156
vt 0.490000 0.250000
vt 0.912145 0.096153
vt 0.919706 0.080294
vt 0.412145 0.096153
vt 0.419706 0.080294
vt 0.836056 0.047886
vt 0.841844 0.028269
vt 0.336056 0.047886
vt 0.341844 0.028269
vt 0.750000 0.029128
vt 0.750000 0.010000
vt 0.250000 0.029128
vt 0.250000 0.010000
vt 0.663944 0.047886
vt 0.658156 0.028269
vt 0.163944 0.047886
vt 0.158156 0.028269
vt 0.587855 0.096153
vt 0.580294 0.080294
vt 0.087855 0.096153
vt 0.080294 0.080294
vt 0.545512 0.161340
vt 0.528269 0.158156
vt 0.045513 0.161340
vt 0.028269 0.158156
vt 0.527211 0.249056
vt 0.510000 0.250000
vt 0.027211 0.249056
vt 0.010000 0.250000
vt 0.616978 0.000000
vt 0.625000 0.000000
vt 0.625000 0.250000
vt 0.616978 0.250000
vt 0.616978 0.500000
vt 0.625000 0.750000
vt 0.616978 0.750000
vt 0.616978 1.000000
vt 0.375000 0.750000
vt 0.383022 0.750000
vt 0.383022 1.000000
vt 0.500000 0.750000
vt 0.383022 0.500000
vt 0.375000 0.250000
vt 0.383022 0.250000
vt 0.500000 0.250000
vt 0.375000 0.000000
vt 0.383022 0.000000
vt 0.500000 0.000000
s 0
usemtl Material.025
f 19/1/1 20/2/1 22/3/1 21/4/1
f 21/4/2 22/3/2 24/5/2 23/6/2
f 23/6/3 24/5/3 26/7/3 25/8/3
f 25/8/4 26/7/4 28/9/4 27/10/4
f 27/10/5 28/9/5 30/11/5 29/12/5
f 29/12/6 30/11/6 32/13/6 31/14/6
f 31/14/7 32/13/7 34/15/7 33/16/7
f 33/16/8 34/15/8 36/17/8 35/18/8
f 3/19/9 1/20/9 19/21/9 21/22/9
f 2/23/10 4/24/10 22/25/10 20/26/10
f 5/27/11 3/19/11 21/22/11 23/28/11
f 4/24/12 6/29/12 24/30/12 22/25/12
f 7/31/13 5/27/13 23/28/13 25/32/13
f 6/29/14 8/33/14 26/34/14 24/30/14
f 9/35/15 7/31/15 25/32/15 27/36/15
f 8/33/16 10/37/16 28/38/16 26/34/16
f 11/39/17 9/35/17 27/36/17 29/40/17
f 10/37/18 12/41/18 30/42/18 28/38/18
f 13/43/19 11/39/19 29/40/19 31/44/19
f 12/41/20 14/45/20 32/46/20 30/42/20
f 15/47/21 13/43/21 31/44/21 33/48/21
f 14/45/22 16/49/22 34/50/22 32/46/22
f 17/51/23 15/47/23 33/48/23 35/52/23
f 16/49/24 18/53/24 36/54/24 34/50/24
usemtl Material.026
f 46/55/25 38/56/25 40/57/25 47/58/25
f 47/58/26 40/57/26 44/6/26 49/59/26
f 49/59/27 44/6/27 42/60/27 51/61/27
f 51/61/28 42/60/28 38/5/28 46/62/28
f 41/63/29 52/64/29 45/65/29 37/13/29
f 56/66/30 51/61/30 46/62/30 53/9/30
f 43/14/27 50/67/27 52/64/27 41/63/27
f 55/10/27 49/59/27 51/61/27 56/66/27
f 39/68/31 48/69/31 50/67/31 43/14/31
f 54/70/32 47/58/32 49/59/32 55/10/32
f 37/71/25 45/72/25 48/69/25 39/68/25
f 53/73/25 46/55/25 47/58/25 54/70/25
f 45/72/25 53/73/25 54/70/25 48/69/25
f 48/69/33 54/70/33 55/10/33 50/67/33
f 50/67/27 55/10/27 56/66/27 52/64/27
f 52/64/34 56/66/34 53/9/34 45/65/34
