# Blender 4.5.3 LTS
# www.blender.org
mtllib barrel_1.mtl
o barrel_1
v -0.000000 -0.173549 -0.117782
v -0.000000 0.164431 -0.085433
v 0.083284 -0.173549 -0.083284
v 0.060410 0.164431 -0.060410
v 0.117782 -0.173549 0.000000
v 0.085433 0.164431 0.000000
v 0.083284 -0.173549 0.083284
v 0.060410 0.164431 0.060410
v -0.000000 -0.173549 0.117782
v -0.000000 0.164431 0.085433
v -0.083284 -0.173549 0.083284
v -0.060410 0.164431 0.060410
v -0.117782 -0.173549 0.000000
v -0.085433 0.164431 0.000000
v -0.083284 -0.173549 -0.083284
v -0.060410 0.164431 -0.060410
v -0.000000 -0.127207 -0.142480
v -0.000000 0.127207 -0.142480
v 0.100749 0.127207 -0.100749
v 0.100749 -0.127207 -0.100749
v 0.142480 0.127207 0.000000
v 0.142480 -0.127207 0.000000
v 0.100749 0.127207 0.100749
v 0.100749 -0.127207 0.100749
v -0.000000 0.127207 0.142480
v -0.000000 -0.127207 0.142480
v -0.100749 0.127207 0.100749
v -0.100749 -0.127207 0.100749
v -0.142480 0.127207 0.000000
v -0.142480 -0.127207 0.000000
v -0.100749 0.127207 -0.100749
v -0.100749 -0.127207 -0.100749
v -0.000000 -0.094330 -0.142480
v -0.000000 0.094330 -0.142480
v 0.100749 0.094330 -0.100749
v 0.100749 -0.094330 -0.100749
v 0.142480 0.094330 0.000000
v 0.142480 -0.094330 0.000000
v 0.100749 0.094330 0.100749
v 0.100749 -0.094330 0.100749
v -0.000000 0.094330 0.142480
v -0.000000 -0.094330 0.142480
v -0.100749 0.094330 0.100749
v -0.100749 -0.094330 0.100749
v -0.142480 0.094330 0.000000
v -0.142480 -0.094330 0.000000
v -0.100749 0.094330 -0.100749
v -0.100749 -0.094330 -0.100749
v 0.083284 0.173549 -0.083284
v -0.000000 0.173549 -0.117782
v 0.117782 0.173549 0.000000
v 0.083284 0.173549 0.083284
v -0.000000 0.173549 0.117782
v -0.083284 0.173549 0.083284
v -0.117782 0.173549 0.000000
v -0.083284 0.173549 -0.083284
v 0.064394 0.173549 -0.064394
v -0.000000 0.173549 -0.091067
v 0.091067 0.173549 0.000000
v 0.064394 0.173549 0.064394
v -0.000000 0.173549 0.091067
v -0.064394 0.173549 0.064394
v -0.091067 0.173549 0.000000
v -0.064394 0.173549 -0.064394
vn 0.3433 0.4417 -0.8289
vn 0.8289 0.4417 -0.3433
vn 0.8289 0.4417 0.3433
vn 0.3433 0.4417 0.8289
vn -0.3433 0.4417 0.8289
vn -0.8289 0.4417 0.3433
vn -0.0000 1.0000 -0.0000
vn -0.8289 0.4417 -0.3433
vn -0.3433 0.4417 -0.8289
vn -0.0000 -1.0000 -0.0000
vn -0.3433 -0.4417 -0.8289
vn -0.3827 -0.0000 -0.9239
vn -0.8289 -0.4417 -0.3433
vn -0.9239 -0.0000 -0.3827
vn -0.8289 -0.4417 0.3433
vn -0.9239 -0.0000 0.3827
vn -0.3433 -0.4417 0.8289
vn -0.3827 -0.0000 0.9239
vn 0.3433 -0.4417 0.8289
vn 0.3827 -0.0000 0.9239
vn 0.8289 -0.4417 0.3433
vn 0.9239 -0.0000 0.3827
vn 0.8289 -0.4417 -0.3433
vn 0.9239 -0.0000 -0.3827
vn 0.3433 -0.4417 -0.8289
vn 0.3827 -0.0000 -0.9239
vn -0.3323 0.4958 0.8023
vn -0.8023 0.4958 0.3323
vn -0.8023 0.4958 -0.3323
vn -0.3323 0.4958 -0.8023
vn 0.3323 0.4958 -0.8023
vn 0.8023 0.4958 -0.3323
vn 0.8023 0.4958 0.3323
vn 0.3323 0.4958 0.8023
vt 1.000000 0.901480
vt 1.000000 1.000000
vt 0.875000 1.000000
vt 0.875000 0.901480
vt 0.750000 1.000000
vt 0.750000 0.901480
vt 0.625000 1.000000
vt 0.625000 0.901480
vt 0.500000 1.000000
vt 0.500000 0.901480
vt 0.375000 1.000000
vt 0.375000 0.901480
vt 0.250000 1.000000
vt 0.250000 0.901480
vt 0.373095 0.373095
vt 0.250000 0.424083
vt 0.126905 0.373095
vt 0.075917 0.250000
vt 0.126905 0.126905
vt 0.250000 0.075917
vt 0.373095 0.126905
vt 0.424083 0.250000
vt 0.125000 1.000000
vt 0.125000 0.901480
vt 0.000000 1.000000
vt 0.000000 0.901480
vt 0.750000 0.490000
vt 0.919706 0.419706
vt 0.990000 0.250000
vt 0.919706 0.080294
vt 0.750000 0.010000
vt 0.580294 0.080294
vt 0.510000 0.250000
vt 0.580294 0.419706
vt 0.125000 0.500000
vt 0.125000 0.598520
vt 0.000000 0.598520
vt 0.000000 0.500000
vt 0.125000 0.862329
vt 0.000000 0.862329
vt 0.250000 0.500000
vt 0.250000 0.598520
vt 0.250000 0.862329
vt 0.375000 0.500000
vt 0.375000 0.598520
vt 0.375000 0.862329
vt 0.500000 0.500000
vt 0.500000 0.598520
vt 0.500000 0.862329
vt 0.625000 0.500000
vt 0.625000 0.598520
vt 0.625000 0.862329
vt 0.750000 0.500000
vt 0.750000 0.598520
vt 0.750000 0.862329
vt 0.875000 0.500000
vt 0.875000 0.598520
vt 0.875000 0.862329
vt 1.000000 0.500000
vt 1.000000 0.598520
vt 1.000000 0.862329
vt 1.000000 0.637671
vt 0.875000 0.637671
vt 0.750000 0.637671
vt 0.625000 0.637671
vt 0.500000 0.637671
vt 0.375000 0.637671
vt 0.250000 0.637671
vt 0.125000 0.637671
vt 0.000000 0.637671
vt 0.250000 0.435563
vt 0.381213 0.381213
vt 0.419706 0.419706
vt 0.250000 0.490000
vt 0.435563 0.250000
vt 0.490000 0.250000
vt 0.381213 0.118787
vt 0.419706 0.080294
vt 0.250000 0.064437
vt 0.250000 0.010000
vt 0.118787 0.118787
vt 0.080294 0.080294
vt 0.064437 0.250000
vt 0.010000 0.250000
vt 0.118787 0.381213
vt 0.080294 0.419706
s 0
usemtl Material.056
f 18/1/1 50/2/1 49/3/1 19/4/1
f 19/4/2 49/3/2 51/5/2 21/6/2
f 21/6/3 51/5/3 52/7/3 23/8/3
f 23/8/4 52/7/4 53/9/4 25/10/4
f 25/10/5 53/9/5 54/11/5 27/12/5
f 27/12/6 54/11/6 55/13/6 29/14/6
f 4/15/7 2/16/7 16/17/7 14/18/7 12/19/7 10/20/7 8/21/7 6/22/7
f 29/14/8 55/13/8 56/23/8 31/24/8
f 31/24/9 56/23/9 50/25/9 18/26/9
f 1/27/10 3/28/10 5/29/10 7/30/10 9/31/10 11/32/10 13/33/10 15/34/10
f 15/35/11 32/36/11 17/37/11 1/38/11
f 13/41/13 30/42/13 32/36/13 15/35/13
f 11/44/15 28/45/15 30/42/15 13/41/15
f 9/47/17 26/48/17 28/45/17 11/44/17
f 7/50/19 24/51/19 26/48/19 9/47/19
f 5/53/21 22/54/21 24/51/21 7/50/21
f 3/56/23 20/57/23 22/54/23 5/53/23
f 1/59/25 17/60/25 20/57/25 3/56/25
f 33/62/26 34/61/26 35/58/26 36/63/26
f 36/63/24 35/58/24 37/55/24 38/64/24
f 38/64/22 37/55/22 39/52/22 40/65/22
f 40/65/20 39/52/20 41/49/20 42/66/20
f 42/66/18 41/49/18 43/46/18 44/67/18
f 44/67/16 43/46/16 45/43/16 46/68/16
f 46/68/14 45/43/14 47/39/14 48/69/14
f 48/69/12 47/39/12 34/40/12 33/70/12
f 2/16/27 4/15/27 57/72/27 58/71/27
f 4/15/28 6/22/28 59/75/28 57/72/28
f 6/22/29 8/21/29 60/77/29 59/75/29
f 8/21/30 10/20/30 61/79/30 60/77/30
f 10/20/31 12/19/31 62/81/31 61/79/31
f 12/19/32 14/18/32 63/83/32 62/81/32
f 14/18/33 16/17/33 64/85/33 63/83/33
f 16/17/34 2/16/34 58/71/34 64/85/34
usemtl Material.057
f 47/39/12 31/24/12 18/26/12 34/40/12
f 45/43/14 29/14/14 31/24/14 47/39/14
f 43/46/16 27/12/16 29/14/16 45/43/16
f 41/49/18 25/10/18 27/12/18 43/46/18
f 39/52/20 23/8/20 25/10/20 41/49/20
f 37/55/22 21/6/22 23/8/22 39/52/22
f 35/58/24 19/4/24 21/6/24 37/55/24
f 34/61/26 18/1/26 19/4/26 35/58/26
f 17/60/26 33/62/26 36/63/26 20/57/26
f 20/57/24 36/63/24 38/64/24 22/54/24
f 22/54/22 38/64/22 40/65/22 24/51/22
f 24/51/20 40/65/20 42/66/20 26/48/20
f 26/48/18 42/66/18 44/67/18 28/45/18
f 28/45/16 44/67/16 46/68/16 30/42/16
f 30/42/14 46/68/14 48/69/14 32/36/14
f 32/36/12 48/69/12 33/70/12 17/37/12
f 58/71/7 57/72/7 49/73/7 50/74/7
f 57/72/7 59/75/7 51/76/7 49/73/7
f 59/75/7 60/77/7 52/78/7 51/76/7
f 60/77/7 61/79/7 53/80/7 52/78/7
f 61/79/7 62/81/7 54/82/7 53/80/7
f 62/81/7 63/83/7 55/84/7 54/82/7
f 63/83/7 64/85/7 56/86/7 55/84/7
f 64/85/7 58/71/7 50/74/7 56/86/7
