# Blender 4.5.3 LTS
# www.blender.org
mtllib barrel_2.mtl
o barrel_2
v -0.000000 -0.173549 -0.117782
v -0.000039 0.130063 -0.090154
v 0.083284 -0.173549 -0.083284
v 0.063710 0.130063 -0.063748
v 0.117782 -0.173549 0.000000
v 0.096034 0.127184 -0.000000
v 0.083284 -0.173549 0.083284
v 0.063710 0.130063 0.063748
v -0.000000 -0.173549 0.117782
v -0.000039 0.130063 0.090154
v -0.083284 -0.173549 0.083284
v -0.063787 0.130063 0.063748
v -0.117782 -0.173549 0.000000
v -0.090193 0.130063 -0.000000
v -0.083284 -0.173549 -0.083284
v -0.063787 0.130063 -0.063748
v -0.000000 -0.127207 -0.142480
v -0.000000 0.127207 -0.142480
v 0.100749 0.127207 -0.100749
v 0.100749 -0.127207 -0.100749
v 0.142480 0.127207 0.000000
v 0.142480 -0.127207 0.000000
v 0.100749 0.127207 0.100749
v 0.100749 -0.127207 0.100749
v -0.000000 0.127207 0.142480
v -0.000000 -0.127207 0.142480
v -0.100749 0.127207 0.100749
v -0.100749 -0.127207 0.100749
v -0.142480 0.127207 0.000000
v -0.142480 -0.127207 0.000000
v -0.100749 0.127207 -0.100749
v -0.100749 -0.127207 -0.100749
v -0.000000 -0.094330 -0.142480
v -0.000000 0.094330 -0.142480
v 0.100749 0.094330 -0.100749
v 0.100749 -0.094330 -0.100749
v 0.142480 0.094330 0.000000
v 0.142480 -0.094330 0.000000
v 0.100749 0.094330 0.100749
v 0.100749 -0.094330 0.100749
v -0.000000 0.094330 0.142480
v -0.000000 -0.094330 0.142480
v -0.100749 0.094330 0.100749
v -0.100749 -0.094330 0.100749
v -0.142480 0.094330 0.000000
v -0.142480 -0.094330 0.000000
v -0.100749 0.094330 -0.100749
v -0.100749 -0.094330 -0.100749
v 0.083284 0.173549 -0.083284
v -0.000000 0.173549 -0.117782
v 0.117782 0.173549 0.000000
v 0.083284 0.173549 0.083284
v -0.000000 0.173549 0.117782
v -0.083284 0.173549 0.083284
v -0.117782 0.173549 0.000000
v -0.083284 0.173549 -0.083284
v 0.068449 0.173890 -0.069150
v -0.000701 0.173890 -0.097792
v 0.097091 0.173890 0.000000
v 0.068449 0.173890 0.069150
v -0.000701 0.173890 0.097792
v -0.069851 0.173890 0.069150
v -0.098493 0.173890 0.000000
v -0.069851 0.173890 -0.069150
vn 0.3433 0.4417 -0.8289
vn 0.8289 0.4417 -0.3433
vn 0.8289 0.4417 0.3433
vn 0.3433 0.4417 0.8289
vn -0.3433 0.4417 0.8289
vn -0.8289 0.4417 0.3433
vn 0.0079 1.0000 -0.0000
vn -0.8289 0.4417 -0.3433
vn -0.3433 0.4417 -0.8289
vn -0.0000 -1.0000 -0.0000
vn -0.3433 -0.4417 -0.8289
vn -0.3827 -0.0000 -0.9239
vn -0.8289 -0.4417 -0.3433
vn -0.9239 -0.0000 -0.3827
vn -0.8289 -0.4417 0.3433
vn -0.9239 -0.0000 0.3827
vn -0.3433 -0.4417 0.8289
vn -0.3827 -0.0000 0.9239
vn 0.3433 -0.4417 0.8289
vn 0.3827 -0.0000 0.9239
vn 0.8289 -0.4417 0.3433
vn 0.9239 -0.0000 0.3827
vn 0.8289 -0.4417 -0.3433
vn 0.9239 -0.0000 -0.3827
vn 0.3433 -0.4417 -0.8289
vn 0.3827 -0.0000 -0.9239
vn 0.0070 0.9998 -0.0168
vn 0.0165 0.9998 -0.0068
vn 0.0165 0.9998 0.0068
vn 0.0070 0.9998 0.0168
vn -0.0072 0.9998 0.0173
vn -0.0177 0.9998 0.0073
vn -0.0177 0.9998 -0.0073
vn -0.0072 0.9998 -0.0173
vn -0.3782 0.1534 0.9129
vn -0.9051 0.0828 0.4170
vn -0.9051 0.0828 -0.4170
vn -0.3782 0.1534 -0.9129
vn 0.3775 0.1645 -0.9113
vn 0.9101 0.1724 -0.3770
vn 0.9101 0.1724 0.3770
vn 0.3775 0.1645 0.9113
vt 1.000000 0.901480
vt 1.000000 1.000000
vt 0.875000 1.000000
vt 0.875000 0.901480
vt 0.750000 1.000000
vt 0.750000 0.901480
vt 0.625000 1.000000
vt 0.625000 0.901480
vt 0.500000 1.000000
vt 0.500000 0.901480
vt 0.375000 1.000000
vt 0.375000 0.901480
vt 0.250000 1.000000
vt 0.250000 0.901480
vt 0.373095 0.373095
vt 0.250000 0.424083
vt 0.126905 0.373095
vt 0.075917 0.250000
vt 0.126905 0.126905
vt 0.250000 0.075917
vt 0.373095 0.126905
vt 0.424083 0.250000
vt 0.125000 1.000000
vt 0.125000 0.901480
vt 0.000000 1.000000
vt 0.000000 0.901480
vt 0.750000 0.490000
vt 0.919706 0.419706
vt 0.990000 0.250000
vt 0.919706 0.080294
vt 0.750000 0.010000
vt 0.580294 0.080294
vt 0.510000 0.250000
vt 0.580294 0.419706
vt 0.125000 0.500000
vt 0.125000 0.598520
vt 0.000000 0.598520
vt 0.000000 0.500000
vt 0.125000 0.862329
vt 0.000000 0.862329
vt 0.250000 0.500000
vt 0.250000 0.598520
vt 0.250000 0.862329
vt 0.375000 0.500000
vt 0.375000 0.598520
vt 0.375000 0.862329
vt 0.500000 0.500000
vt 0.500000 0.598520
vt 0.500000 0.862329
vt 0.625000 0.500000
vt 0.625000 0.598520
vt 0.625000 0.862329
vt 0.750000 0.500000
vt 0.750000 0.598520
vt 0.750000 0.862329
vt 0.875000 0.500000
vt 0.875000 0.598520
vt 0.875000 0.862329
vt 1.000000 0.500000
vt 1.000000 0.598520
vt 1.000000 0.862329
vt 1.000000 0.637671
vt 0.875000 0.637671
vt 0.750000 0.637671
vt 0.625000 0.637671
vt 0.500000 0.637671
vt 0.375000 0.637671
vt 0.250000 0.637671
vt 0.125000 0.637671
vt 0.000000 0.637671
vt 0.250000 0.435563
vt 0.381213 0.381213
vt 0.419706 0.419706
vt 0.250000 0.490000
vt 0.435563 0.250000
vt 0.490000 0.250000
vt 0.381213 0.118787
vt 0.419706 0.080294
vt 0.250000 0.064437
vt 0.250000 0.010000
vt 0.118787 0.118787
vt 0.080294 0.080294
vt 0.064437 0.250000
vt 0.010000 0.250000
vt 0.118787 0.381213
vt 0.080294 0.419706
s 0
usemtl Material.056
f 18/1/1 50/2/1 49/3/1 19/4/1
f 19/4/2 49/3/2 51/5/2 21/6/2
f 21/6/3 51/5/3 52/7/3 23/8/3
f 23/8/4 52/7/4 53/9/4 25/10/4
f 25/10/5 53/9/5 54/11/5 27/12/5
f 27/12/6 54/11/6 55/13/6 29/14/6
f 29/14/8 55/13/8 56/23/8 31/24/8
f 31/24/9 56/23/9 50/25/9 18/26/9
f 1/27/10 3/28/10 5/29/10 7/30/10 9/31/10 11/32/10 13/33/10 15/34/10
f 15/35/11 32/36/11 17/37/11 1/38/11
f 13/41/13 30/42/13 32/36/13 15/35/13
f 11/44/15 28/45/15 30/42/15 13/41/15
f 9/47/17 26/48/17 28/45/17 11/44/17
f 7/50/19 24/51/19 26/48/19 9/47/19
f 5/53/21 22/54/21 24/51/21 7/50/21
f 3/56/23 20/57/23 22/54/23 5/53/23
f 1/59/25 17/60/25 20/57/25 3/56/25
f 33/62/26 34/61/26 35/58/26 36/63/26
f 36/63/24 35/58/24 37/55/24 38/64/24
f 38/64/22 37/55/22 39/52/22 40/65/22
f 40/65/20 39/52/20 41/49/20 42/66/20
f 42/66/18 41/49/18 43/46/18 44/67/18
f 44/67/16 43/46/16 45/43/16 46/68/16
f 46/68/14 45/43/14 47/39/14 48/69/14
f 48/69/12 47/39/12 34/40/12 33/70/12
f 2/16/35 4/15/35 57/72/35 58/71/35
f 4/15/36 6/22/36 59/75/36 57/72/36
f 6/22/37 8/21/37 60/77/37 59/75/37
f 8/21/38 10/20/38 61/79/38 60/77/38
f 10/20/39 12/19/39 62/81/39 61/79/39
f 12/19/40 14/18/40 63/83/40 62/81/40
f 14/18/41 16/17/41 64/85/41 63/83/41
f 16/17/42 2/16/42 58/71/42 64/85/42
usemtl Material.057
f 47/39/12 31/24/12 18/26/12 34/40/12
f 45/43/14 29/14/14 31/24/14 47/39/14
f 43/46/16 27/12/16 29/14/16 45/43/16
f 41/49/18 25/10/18 27/12/18 43/46/18
f 39/52/20 23/8/20 25/10/20 41/49/20
f 37/55/22 21/6/22 23/8/22 39/52/22
f 35/58/24 19/4/24 21/6/24 37/55/24
f 34/61/26 18/1/26 19/4/26 35/58/26
f 17/60/26 33/62/26 36/63/26 20/57/26
f 20/57/24 36/63/24 38/64/24 22/54/24
f 22/54/22 38/64/22 40/65/22 24/51/22
f 24/51/20 40/65/20 42/66/20 26/48/20
f 26/48/18 42/66/18 44/67/18 28/45/18
f 28/45/16 44/67/16 46/68/16 30/42/16
f 30/42/14 46/68/14 48/69/14 32/36/14
f 32/36/12 48/69/12 33/70/12 17/37/12
f 58/71/27 57/72/27 49/73/27 50/74/27
f 57/72/28 59/75/28 51/76/28 49/73/28
f 59/75/29 60/77/29 52/78/29 51/76/29
f 60/77/30 61/79/30 53/80/30 52/78/30
f 61/79/31 62/81/31 54/82/31 53/80/31
f 62/81/32 63/83/32 55/84/32 54/82/32
f 63/83/33 64/85/33 56/86/33 55/84/33
f 64/85/34 58/71/34 50/74/34 56/86/34
usemtl Material.058
f 4/15/7 2/16/7 16/17/7 14/18/7 12/19/7 10/20/7 8/21/7 6/22/7
