# Blender 4.5.3 LTS
# www.blender.org
mtllib crate_2.mtl
o crate_2
v -0.116348 -0.119999 0.141175
v -0.116348 0.119999 0.141175
v -0.116348 -0.119999 -0.141175
v -0.116348 0.119999 -0.141175
v 0.123650 -0.119999 0.141175
v 0.123650 0.119999 0.141175
v 0.123650 -0.119999 -0.141175
v 0.123650 0.119999 -0.141175
v -0.152128 -0.129309 0.129309
v -0.152128 0.129309 0.129309
v -0.152128 0.129309 -0.129309
v -0.152128 -0.129309 -0.129309
v 0.144826 -0.119999 -0.119999
v 0.144826 0.119999 -0.119999
v 0.144826 0.119999 0.119999
v 0.144826 -0.119999 0.119999
v -0.152128 -0.152128 -0.152128
v -0.152128 -0.152128 0.152128
v -0.125094 -0.111949 0.125094
v -0.125094 -0.111949 -0.125094
v 0.125094 -0.111949 -0.125094
v 0.152128 -0.152128 -0.152128
v 0.152128 -0.152128 0.152128
v 0.125094 -0.111949 0.125094
v -0.152128 0.152128 0.152128
v -0.152128 0.152128 -0.152128
v 0.152128 0.152128 -0.152128
v 0.152128 0.152128 0.152128
v -0.128592 0.145408 0.128592
v -0.128592 0.145408 -0.128592
v 0.128592 0.145408 -0.128592
v 0.128592 0.145408 0.128592
vn -1.0000 -0.0000 -0.0000
vn -0.0000 -0.0000 -1.0000
vn 1.0000 -0.0000 -0.0000
vn -0.0000 -0.0000 1.0000
vn -0.0000 1.0000 -0.0000
vn 0.2927 -0.0000 0.9562
vn 0.2927 -0.0000 -0.9562
vn -0.0000 0.3227 -0.9465
vn -0.0000 -0.3227 -0.9465
vn -0.3590 -0.0000 -0.9334
vn -0.3590 -0.0000 0.9334
vn -0.0000 0.3227 0.9465
vn -0.0000 -0.3227 0.9465
vn 0.9751 -0.0000 0.2216
vn 0.9751 0.2216 -0.0000
vn 0.9751 -0.2216 -0.0000
vn 0.9751 -0.0000 -0.2216
vn 0.2746 0.9616 -0.0000
vn -0.0000 0.9616 0.2746
vn -0.2746 0.9616 -0.0000
vn -0.0000 0.9616 -0.2746
vn 0.9999 0.0136 -0.0000
vn -0.0000 0.0136 0.9999
vn -0.9999 0.0136 -0.0000
vn -0.0000 0.0136 -0.9999
vt 0.393750 0.018750
vt 0.606250 0.018750
vt 0.606250 0.231250
vt 0.393750 0.231250
vt 0.393750 0.268750
vt 0.606250 0.268750
vt 0.606250 0.481250
vt 0.393750 0.481250
vt 0.393750 0.518750
vt 0.606250 0.518750
vt 0.606250 0.731250
vt 0.393750 0.731250
vt 0.393750 0.768750
vt 0.606250 0.768750
vt 0.606250 0.981250
vt 0.393750 0.981250
vt 0.647213 0.522213
vt 0.852787 0.522213
vt 0.852787 0.727787
vt 0.647213 0.727787
vt 0.625000 1.000000
vt 0.375000 1.000000
vt 0.375000 0.250000
vt 0.625000 0.250000
vt 0.375000 0.500000
vt 0.625000 0.500000
vt 0.375000 0.750000
vt 0.625000 0.750000
vt 0.375000 0.000000
vt 0.625000 0.000000
vt 0.855661 0.730661
vt 0.855661 0.519339
vt 0.875000 0.500000
vt 0.875000 0.750000
vt 0.644339 0.519339
vt 0.644339 0.730661
s 0
usemtl Material.059
f 1/16/6 2/15/6 25/21/6 18/22/6
f 4/6/7 3/5/7 17/23/7 26/24/7
f 3/5/8 7/8/8 22/25/8 17/23/8
f 8/7/9 4/6/9 26/24/9 27/26/9
f 7/8/10 8/7/10 27/26/10 22/25/10
f 6/14/11 5/13/11 23/27/11 28/28/11
f 5/13/12 1/16/12 18/22/12 23/27/12
f 2/15/13 6/14/13 28/28/13 25/21/13
f 9/1/1 12/4/1 17/23/1 18/29/1
f 10/2/1 9/1/1 18/29/1 25/30/1
f 11/3/1 10/2/1 25/30/1 26/24/1
f 12/4/1 11/3/1 26/24/1 17/23/1
f 14/10/14 13/9/14 22/25/14 27/26/14
f 13/9/15 16/12/15 23/27/15 22/25/15
f 15/11/16 14/10/16 27/26/16 28/28/16
f 16/12/17 15/11/17 28/28/17 23/27/17
f 29/31/18 30/32/18 26/33/18 25/34/18
f 30/32/19 31/35/19 27/26/19 26/33/19
f 31/35/20 32/36/20 28/28/20 27/26/20
f 32/36/21 29/31/21 25/34/21 28/28/21
usemtl Material.060
f 9/1/1 10/2/1 11/3/1 12/4/1
f 3/5/2 4/6/2 8/7/2 7/8/2
f 13/9/3 14/10/3 15/11/3 16/12/3
f 5/13/4 6/14/4 2/15/4 1/16/4
f 21/17/5 20/18/5 19/19/5 24/20/5
f 19/19/22 20/18/22 30/32/22 29/31/22
f 20/18/23 21/17/23 31/35/23 30/32/23
f 21/17/24 24/20/24 32/36/24 31/35/24
f 24/20/25 19/19/25 29/31/25 32/36/25
