# Blender 4.5.3 LTS
# www.blender.org
mtllib tower.mtl
o tower
v -0.406979 0.109742 0.407004
v -0.406979 0.191631 0.407004
v -0.406979 0.109742 -0.406979
v -0.406979 0.191631 -0.406979
v 0.407004 0.109742 0.407004
v 0.407004 0.191631 0.407004
v 0.407004 0.109742 -0.406979
v 0.407004 0.191631 -0.406979
v 0.282953 0.109742 -0.406979
v -0.282927 0.109742 -0.406979
v -0.284288 0.474167 -0.393693
v 0.284314 0.474167 -0.393693
v -0.282927 0.109742 0.407004
v 0.282953 0.109742 0.407004
v 0.284314 0.474167 0.395213
v -0.284288 0.474167 0.395213
v -0.406979 0.109742 -0.302369
v -0.406979 0.109742 0.302395
v -0.398783 0.474167 0.298242
v -0.398783 0.474167 -0.298216
v 0.407004 0.109742 0.302395
v 0.407004 0.109742 -0.302369
v 0.395616 0.474167 -0.298216
v 0.395616 0.474167 0.298242
v 0.368109 0.474167 -0.298216
v 0.368109 0.474167 0.298242
v -0.368253 0.474167 -0.298216
v -0.368253 0.474167 0.298242
v -0.282927 0.109742 -0.302369
v -0.282927 0.109742 0.302395
v 0.282953 0.109742 -0.302369
v 0.282953 0.109742 0.302395
v -0.452528 0.971594 -0.336215
v -0.452528 0.971594 -0.452528
v 0.314597 0.971594 -0.452528
v 0.452528 0.971594 -0.452528
v 0.452528 0.971594 0.336215
v 0.452528 0.971594 0.452528
v -0.314597 0.971594 0.452528
v -0.452528 0.971594 0.452528
v -0.314597 0.971594 -0.452528
v 0.314597 0.971594 0.452528
v 0.314597 0.971594 0.336215
v -0.314597 0.971594 0.336215
v -0.452528 0.971594 0.336215
v 0.452528 0.971594 -0.336215
v 0.314597 0.971594 -0.336215
v -0.314597 0.971594 -0.336215
v -0.437217 -0.495114 0.324839
v -0.437217 -0.495114 0.437217
v -0.303953 -0.495114 -0.437217
v -0.437217 -0.495114 -0.437217
v 0.437217 -0.495114 -0.324839
v 0.437217 -0.495114 -0.437217
v 0.303953 -0.495114 0.437217
v 0.437217 -0.495114 0.437217
v 0.303953 -0.495114 -0.437217
v -0.303953 -0.495114 0.437217
v -0.303953 -0.495114 0.324839
v 0.303953 -0.495114 0.324839
v -0.437217 -0.495114 -0.324839
v 0.437217 -0.495114 0.324839
v -0.303953 -0.495114 -0.324839
v 0.303953 -0.495114 -0.324839
v -0.282927 0.191631 -0.406979
v 0.282953 0.191631 -0.406979
v 0.282953 0.191631 0.407004
v -0.282927 0.191631 0.407004
v -0.406979 0.191631 0.302395
v 0.282953 0.191631 0.302395
v 0.284314 0.474167 0.367519
v -0.282927 0.191631 0.302395
v -0.284288 0.474167 0.367519
v -0.406979 0.191631 -0.302369
v 0.407004 0.191631 -0.302369
v 0.407004 0.191631 0.302395
v 0.282953 0.191631 -0.302369
v 0.284314 0.474167 -0.372350
v -0.282927 0.191631 -0.302369
v -0.284288 0.474167 -0.372350
v -0.506473 0.950739 0.506473
v -0.181172 1.262760 0.181172
v -0.506473 0.950739 -0.506473
v -0.181172 1.262760 -0.181172
v 0.506473 0.950739 0.506473
v 0.181172 1.262760 0.181172
v 0.506473 0.950739 -0.506473
v 0.181172 1.262760 -0.181172
v -0.567468 0.984711 0.567468
v -0.567468 0.984711 -0.567468
v 0.567468 0.984711 -0.567468
v 0.567468 0.984711 0.567468
v -0.482921 1.031005 0.482921
v -0.482921 1.031005 -0.482921
v 0.482921 1.031005 -0.482921
v 0.482921 1.031005 0.482921
v -0.245511 1.211582 0.245511
v -0.245511 1.211582 -0.245511
v 0.245511 1.211582 -0.245511
v 0.245511 1.211582 0.245511
vn -1.0000 -0.0000 -0.0000
vn -0.0000 -0.0000 -1.0000
vn 1.0000 -0.0000 -0.0000
vn -0.0000 -0.0000 1.0000
vn -0.0000 0.0499 0.9988
vn -0.0000 -0.0583 -0.9983
vn -0.0000 0.0433 -0.9991
vn -0.0000 1.0000 -0.0000
vn -0.0000 -0.0371 -0.9993
vn 0.9988 0.0499 -0.0000
vn -0.9992 0.0405 -0.0000
vn 0.9992 0.0406 -0.0000
vn -0.0000 -0.0371 0.9993
vn -0.0000 0.0434 0.9991
vn -0.9983 -0.0583 -0.0000
vn 0.9983 -0.0583 -0.0000
vn -0.0000 -0.0583 0.9983
vn -0.0000 -0.8736 0.4866
vn 0.4866 -0.8736 -0.0000
vn -0.0000 -0.8736 -0.4866
vn -0.4866 -0.8736 -0.0000
vn 0.9994 -0.0347 -0.0000
vn -0.0000 0.0499 -0.9988
vn -0.9994 -0.0347 -0.0000
vn -0.9988 0.0499 -0.0000
vn -0.0000 0.0470 -0.9989
vn -0.0000 0.0417 0.9991
vn -0.9996 0.0290 -0.0000
vn 0.9992 0.0403 -0.0000
vn -0.9575 0.2886 -0.0000
vn 0.9573 0.2891 -0.0000
vn -0.0000 0.2404 0.9707
vn -0.0000 0.2246 -0.9744
vn -0.4803 0.8771 -0.0000
vn -0.0000 0.8771 -0.4803
vn 0.4803 0.8771 -0.0000
vn -0.0000 0.8771 0.4803
vn -0.0000 0.7959 0.6054
vn 0.6054 0.7959 -0.0000
vn -0.0000 0.7959 -0.6054
vn -0.6054 0.7959 -0.0000
vn -0.6225 0.7826 -0.0000
vn -0.0000 0.7826 -0.6225
vn 0.6225 0.7826 -0.0000
vn -0.0000 0.7826 0.6225
vn -0.0000 -1.0000 -0.0000
vt 0.375000 0.208248
vt 0.625000 0.208248
vt 0.625000 0.250000
vt 0.375000 0.250000
vt 0.375000 0.461900
vt 0.625000 0.461900
vt 0.625000 0.500000
vt 0.375000 0.500000
vt 0.375000 0.708248
vt 0.625000 0.708248
vt 0.625000 0.750000
vt 0.375000 0.750000
vt 0.375000 0.961900
vt 0.625000 0.961900
vt 0.625000 1.000000
vt 0.375000 1.000000
vt 0.375000 0.788100
vt 0.625000 0.288100
vt 0.663100 0.708248
vt 0.670314 0.717623
vt 0.829686 0.717623
vt 0.829686 0.740625
vt 0.670314 0.740625
vt 0.125000 0.708248
vt 0.163100 0.708248
vt 0.625000 0.788100
vt 0.375000 0.288100
vt 0.670314 0.509375
vt 0.829686 0.509375
vt 0.829686 0.532377
vt 0.670314 0.532377
vt 0.663100 0.541752
vt 0.836900 0.541752
vt 0.836900 0.708248
vt 0.663100 0.500000
vt 0.632214 0.548218
vt 0.655886 0.548218
vt 0.655886 0.701782
vt 0.632214 0.701782
vt 0.836900 0.750000
vt 0.844114 0.548218
vt 0.867786 0.548218
vt 0.867786 0.701782
vt 0.844114 0.701782
vt 0.375000 0.541752
vt 0.336900 0.541752
vt 0.625000 0.541752
vt 0.375000 0.000000
vt 0.625000 0.000000
vt 0.625000 0.041752
vt 0.375000 0.041752
vt 0.875000 0.708248
vt 0.875000 0.750000
vt 0.663100 0.750000
vt 0.836900 0.500000
vt 0.875000 0.500000
vt 0.875000 0.541752
vt 0.163100 0.500000
vt 0.163100 0.541752
vt 0.336900 0.708248
vt 0.336900 0.500000
vt 0.163100 0.750000
vt 0.336900 0.750000
vt 0.125000 0.541752
vt 0.707424 0.582424
vt 0.792576 0.582424
vt 0.792576 0.667576
vt 0.707424 0.667576
vt 0.864594 0.739594
vt 0.864594 0.510406
vt 0.635406 0.510406
vt 0.635406 0.739594
vt 0.695920 0.679080
vt 0.804080 0.679080
vt 0.695920 0.570920
vt 0.804080 0.570920
s 0
usemtl Material.043
f 17/1/1 74/2/1 4/3/1 3/4/1
f 9/5/2 66/6/2 8/7/2 7/8/2
f 21/9/3 76/10/3 6/11/3 5/12/3
f 13/13/4 68/14/4 2/15/4 1/16/4
f 5/12/5 14/17/5 55/17/5 56/12/5
f 65/18/6 4/3/6 34/3/6 41/18/6
f 76/10/7 70/19/7 43/19/7 37/10/7
f 71/20/8 73/21/8 16/22/8 15/23/8
f 18/24/9 30/25/9 59/25/9 49/24/9
f 5/12/4 6/11/4 67/26/4 14/17/4
f 3/4/2 4/3/2 65/18/2 10/27/2
f 21/9/10 5/12/10 56/12/10 62/9/10
f 12/28/8 11/29/8 80/30/8 78/31/8
f 77/32/8 79/33/8 72/34/8 70/19/8
f 66/35/11 77/32/11 47/32/11 35/35/11
f 23/36/8 25/37/8 26/38/8 24/39/8
f 68/40/12 72/34/12 44/34/12 39/40/12
f 27/41/8 20/42/8 19/43/8 28/44/8
f 22/45/13 31/46/13 64/46/13 53/45/13
f 7/8/3 8/7/3 75/47/3 22/45/3
f 1/48/1 2/49/1 69/50/1 18/51/1
f 44/34/8 45/52/8 40/53/8 39/40/8
f 37/10/8 43/19/8 42/54/8 38/11/8
f 36/7/8 35/35/8 47/32/8 46/47/8
f 41/55/8 34/56/8 33/57/8 48/33/8
f 74/57/14 79/33/14 48/33/14 33/57/14
f 69/50/15 2/49/15 40/49/15 45/50/15
f 6/11/16 76/10/16 37/10/16 38/11/16
f 79/33/12 65/55/12 41/55/12 48/33/12
f 72/34/7 69/52/7 45/52/7 44/34/7
f 4/3/15 74/2/15 33/2/15 34/3/15
f 67/26/17 6/11/17 38/11/17 42/26/17
f 2/15/17 68/14/17 39/14/17 40/15/17
f 75/47/16 8/7/16 36/7/16 46/47/16
f 8/7/6 66/6/6 35/6/6 36/7/6
f 70/19/11 67/54/11 42/54/11 43/19/11
f 77/32/14 75/47/14 46/47/14 47/32/14
f 10/58/22 29/59/22 63/59/22 51/58/22
f 32/60/9 21/9/9 62/9/9 60/60/9
f 3/4/23 10/27/23 51/27/23 52/4/23
f 9/5/23 7/8/23 54/8/23 57/5/23
f 31/46/24 9/61/24 57/61/24 64/46/24
f 17/1/25 3/4/25 52/4/25 61/1/25
f 7/8/10 22/45/10 53/45/10 54/8/10
f 30/25/22 13/62/22 58/62/22 59/25/22
f 1/48/25 18/51/25 49/51/25 50/48/25
f 14/63/24 32/60/24 60/60/24 55/63/24
f 13/13/5 1/16/5 50/16/5 58/13/5
f 29/59/13 17/64/13 61/64/13 63/59/13
f 11/29/26 12/28/26 66/35/26 65/55/26
f 15/23/27 16/22/27 68/40/27 67/54/27
f 19/43/28 20/42/28 74/57/28 69/52/28
f 23/36/29 24/39/29 76/10/29 75/47/29
f 26/38/30 25/37/30 77/32/30 70/19/30
f 27/41/31 28/44/31 72/34/31 79/33/31
f 78/31/32 80/30/32 79/33/32 77/32/32
f 73/21/33 71/20/33 70/19/33 72/34/33
f 82/67/42 84/66/42 98/76/42 97/74/42
f 84/66/43 88/65/43 99/75/43 98/76/43
f 88/65/44 86/68/44 100/73/44 99/75/44
f 86/68/45 82/67/45 97/74/45 100/73/45
f 83/8/46 87/12/46 85/8/46 81/4/46
usemtl Material.044
f 85/48/18 92/49/18 89/3/18 81/4/18
f 87/4/19 91/3/19 92/7/19 85/8/19
f 83/8/20 90/7/20 91/11/20 87/12/20
f 81/12/21 89/11/21 90/15/21 83/16/21
f 88/65/8 84/66/8 82/67/8 86/68/8
f 100/73/38 97/74/38 93/69/38 96/72/38
f 99/75/39 100/73/39 96/72/39 95/71/39
f 98/76/40 99/75/40 95/71/40 94/70/40
f 97/74/41 98/76/41 94/70/41 93/69/41
usemtl Material.045
f 14/17/4 67/26/4 68/14/4 13/13/4
f 10/27/2 65/18/2 66/6/2 9/5/2
f 22/45/3 75/47/3 76/10/3 21/9/3
f 18/51/1 69/50/1 74/2/1 17/1/1
f 93/69/34 94/70/34 90/56/34 89/53/34
f 94/70/35 95/71/35 91/7/35 90/56/35
f 95/71/36 96/72/36 92/11/36 91/7/36
f 96/72/37 93/69/37 89/53/37 92/11/37
