# Blender 4.5.3 LTS
# www.blender.org
mtllib tower.mtl
o tower
v -0.406979 0.476023 0.407004
v -0.406979 0.476023 -0.406979
v 0.407004 0.476023 0.407004
v 0.407004 0.476023 -0.406979
v 0.282953 0.476023 -0.406979
v -0.282927 0.476023 -0.406979
v -0.282927 0.476023 0.407004
v 0.282953 0.476023 0.407004
v -0.406979 0.476023 -0.302369
v -0.406979 0.476023 0.302395
v 0.407004 0.476023 0.302395
v 0.407004 0.476023 -0.302369
v -0.282927 0.476023 -0.302369
v -0.282927 0.476023 0.302395
v 0.282953 0.476023 -0.302369
v 0.282953 0.476023 0.302395
v -0.437217 -0.495114 0.324839
v -0.437217 -0.495114 0.437217
v -0.303953 -0.495114 -0.437217
v -0.437217 -0.495114 -0.437217
v 0.437217 -0.495114 -0.324839
v 0.437217 -0.495114 -0.437217
v 0.303953 -0.495114 0.437217
v 0.437217 -0.495114 0.437217
v 0.303953 -0.495114 -0.437217
v -0.303953 -0.495114 0.437217
v -0.303953 -0.495114 0.324839
v 0.303953 -0.495114 0.324839
v -0.437217 -0.495114 -0.324839
v 0.437217 -0.495114 0.324839
v -0.303953 -0.495114 -0.324839
v 0.303953 -0.495114 -0.324839
v -0.586467 0.450628 0.586467
v -0.515673 0.505162 0.515673
v -0.586467 0.450628 -0.586467
v -0.515673 0.505162 -0.515673
v 0.586467 0.450628 0.586467
v 0.515673 0.505162 0.515673
v 0.586467 0.450628 -0.586467
v 0.515673 0.505162 -0.515673
v -0.586467 0.751377 0.586467
v -0.586467 0.751377 -0.586467
v 0.586467 0.751377 -0.586467
v 0.586467 0.751377 0.586467
v -0.514786 0.751377 0.514786
v -0.514786 0.751377 -0.514786
v 0.514786 0.751377 -0.514786
v 0.514786 0.751377 0.514786
v -0.586467 0.550877 0.586467
v -0.586467 0.651127 0.586467
v -0.586467 0.651127 -0.586467
v -0.586467 0.550877 -0.586467
v 0.586467 0.651127 -0.586467
v 0.586467 0.550877 -0.586467
v 0.586467 0.651127 0.586467
v 0.586467 0.550877 0.586467
vn -0.0000 0.0311 0.9995
vn -0.0000 -0.0231 -0.9997
vn 0.9995 0.0311 -0.0000
vn -0.0000 -0.0231 0.9997
vn 0.9998 -0.0216 -0.0000
vn -0.0000 0.0311 -0.9995
vn -0.9998 -0.0216 -0.0000
vn -0.9995 0.0311 -0.0000
vn -1.0000 -0.0000 -0.0000
vn -0.0000 -0.0000 -1.0000
vn 1.0000 -0.0000 -0.0000
vn -0.0000 -0.0000 1.0000
vn -0.0000 1.0000 -0.0000
vn 1.0000 -0.0036 -0.0000
vn -0.0000 -0.0036 1.0000
vn -1.0000 -0.0036 -0.0000
vn -0.0000 -0.0036 -1.0000
vt 0.375000 0.750000
vt 0.375000 0.788100
vt 0.125000 0.708248
vt 0.163100 0.708248
vt 0.375000 0.708248
vt 0.375000 0.541752
vt 0.336900 0.541752
vt 0.163100 0.500000
vt 0.163100 0.541752
vt 0.336900 0.708248
vt 0.375000 0.250000
vt 0.375000 0.288100
vt 0.375000 0.461900
vt 0.375000 0.500000
vt 0.336900 0.500000
vt 0.375000 0.208248
vt 0.163100 0.750000
vt 0.375000 0.000000
vt 0.375000 0.041752
vt 0.336900 0.750000
vt 0.375000 0.961900
vt 0.375000 1.000000
vt 0.125000 0.541752
vt 0.541667 0.000000
vt 0.625000 0.000000
vt 0.625000 0.250000
vt 0.541667 0.250000
vt 0.625000 0.500000
vt 0.541667 0.500000
vt 0.625000 0.750000
vt 0.541667 0.750000
vt 0.625000 1.000000
vt 0.541667 1.000000
vt 0.647217 0.522217
vt 0.852783 0.522217
vt 0.852783 0.727783
vt 0.647217 0.727783
vt 0.859722 0.734722
vt 0.859722 0.515278
vt 0.875000 0.500000
vt 0.875000 0.750000
vt 0.640278 0.515278
vt 0.640278 0.734722
vt 0.458333 0.750000
vt 0.458333 1.000000
vt 0.458333 0.500000
vt 0.458333 0.250000
vt 0.458333 0.000000
s 0
usemtl Material.043
f 3/1/1 8/2/1 23/2/1 24/1/1
f 10/3/2 14/4/2 27/4/2 17/3/2
f 11/5/3 3/1/3 24/1/3 30/5/3
f 12/6/4 15/7/4 32/7/4 21/6/4
f 6/8/5 13/9/5 31/9/5 19/8/5
f 16/10/2 11/5/2 30/5/2 28/10/2
f 2/11/6 6/12/6 19/12/6 20/11/6
f 5/13/6 4/14/6 22/14/6 25/13/6
f 15/7/7 5/15/7 25/15/7 32/7/7
f 9/16/8 2/11/8 20/11/8 29/16/8
f 4/14/3 12/6/3 21/6/3 22/14/3
f 14/4/5 7/17/5 26/17/5 27/4/5
f 1/18/8 10/19/8 17/19/8 18/18/8
f 8/20/7 16/10/7 28/10/7 23/20/7
f 7/21/1 1/22/1 18/22/1 26/21/1
f 13/9/4 9/23/4 29/23/4 31/9/4
f 50/24/9 41/25/9 42/26/9 51/27/9
f 51/27/10 42/26/10 43/28/10 53/29/10
f 53/29/11 43/28/11 44/30/11 55/31/11
f 55/31/12 44/30/12 41/32/12 50/33/12
f 40/34/13 36/35/13 34/36/13 38/37/13
f 45/38/13 46/39/13 42/40/13 41/41/13
f 46/39/13 47/42/13 43/28/13 42/40/13
f 47/42/13 48/43/13 44/30/13 43/28/13
f 48/43/13 45/38/13 41/41/13 44/30/13
f 34/36/14 36/35/14 46/39/14 45/38/14
f 36/35/15 40/34/15 47/42/15 46/39/15
f 40/34/16 38/37/16 48/43/16 47/42/16
f 38/37/17 34/36/17 45/38/17 48/43/17
f 37/1/12 56/44/12 49/45/12 33/22/12
f 39/14/11 54/46/11 56/44/11 37/1/11
f 35/11/10 52/47/10 54/46/10 39/14/10
f 33/18/9 49/48/9 52/47/9 35/11/9
usemtl Material.045
f 56/44/12 55/31/12 50/33/12 49/45/12
f 54/46/11 53/29/11 55/31/11 56/44/11
f 52/47/10 51/27/10 53/29/10 54/46/10
f 49/48/9 50/24/9 51/27/9 52/47/9
