# Blender 4.5.3 LTS
# www.blender.org
mtllib sword_curve.mtl
o sword_curve
v -0.002762 -0.124127 0.013534
v -0.000000 0.212153 -0.039309
v -0.002762 -0.129060 -0.002845
v 0.002709 -0.066858 0.011257
v 0.002762 -0.124127 0.013534
v 0.002709 -0.066858 -0.011257
v 0.002762 -0.129060 -0.002845
v -0.002709 -0.066858 -0.011257
v -0.005152 -0.076634 0.021409
v -0.005152 -0.076634 -0.021409
v 0.005152 -0.076634 -0.021409
v 0.005152 -0.076634 0.021409
v -0.003647 0.185632 -0.016811
v -0.003647 0.220620 -0.098038
v 0.003647 0.220620 -0.098038
v 0.003647 0.185632 -0.016811
v -0.002709 -0.066858 0.011257
v -0.002983 -0.081827 -0.012395
v 0.002983 -0.081827 -0.012395
v 0.002983 -0.081827 0.012395
v -0.002983 -0.081827 0.012395
v -0.003888 -0.152200 0.013648
v -0.003888 -0.141100 0.026231
v 0.003888 -0.152200 0.013648
v 0.003888 -0.141100 0.026231
v -0.009314 -0.069778 -0.038706
v -0.009314 -0.073714 -0.038706
v 0.009314 -0.069778 -0.038706
v 0.009314 -0.073714 -0.038706
v 0.009314 -0.069778 0.038706
v 0.009314 -0.073714 0.038706
v -0.009314 -0.073714 0.038706
v -0.009314 -0.069778 0.038706
v -0.003049 -0.002530 0.012672
v 0.003049 -0.002530 0.012672
v 0.003049 -0.002530 -0.012672
v -0.003049 -0.002530 -0.012672
v -0.003199 0.064782 0.007610
v -0.003348 0.106249 0.002193
v -0.003498 0.170657 -0.011690
v 0.003498 0.170657 -0.011690
v 0.003348 0.106249 0.002193
v 0.003199 0.064782 0.007610
v 0.003926 0.160100 -0.048310
v 0.003348 0.106249 -0.025636
v 0.003199 0.064782 -0.018976
v -0.003926 0.160100 -0.048310
v -0.003348 0.106249 -0.025636
v -0.003199 0.064782 -0.018976
vn -0.9733 0.2109 0.0909
vn -0.0000 0.9898 0.1427
vn 0.9733 0.2109 0.0909
vn -0.0000 0.6469 0.7626
vn 0.9990 0.0400 -0.0221
vn -0.0000 0.9944 -0.1058
vn -0.0000 -0.8665 0.4992
vn 0.9227 -0.3854 -0.0000
vn -0.0000 -0.8665 -0.4992
vn -0.9227 -0.3854 -0.0000
vn -0.0000 0.3236 0.9462
vn 1.0000 0.0051 0.0047
vn -0.0000 -0.6349 -0.7726
vn -1.0000 0.0051 0.0047
vn -0.4044 0.9146 -0.0000
vn 0.4044 0.9146 -0.0000
vn -0.0000 0.9944 0.1058
vn -1.0000 -0.0049 0.0006
vn -0.0000 -0.1982 -0.9802
vn 1.0000 -0.0049 0.0006
vn -0.0000 0.0269 0.9996
vn -0.0000 -0.7499 0.6615
vn -0.0000 0.5990 0.8007
vn -0.0000 -0.5804 -0.8143
vn -0.9990 0.0400 -0.0221
vn -0.0000 -0.9860 0.1665
vn -0.0000 -0.0000 1.0000
vn 0.5743 -0.8186 -0.0000
vn 1.0000 -0.0000 -0.0000
vn -0.5743 -0.8186 -0.0000
vn -1.0000 -0.0000 -0.0000
vn -0.0000 -0.9860 -0.1665
vn -0.0000 -0.0000 -1.0000
vn -1.0000 -0.0053 -0.0000
vn -0.0000 -0.0220 -0.9998
vn 1.0000 -0.0053 -0.0000
vn -0.0000 -0.0220 0.9998
vn -1.0000 -0.0022 -0.0000
vn -1.0000 -0.0036 -0.0000
vn -1.0000 -0.0039 0.0073
vn -0.0000 -0.0933 -0.9956
vn -0.0000 -0.1586 -0.9873
vn -0.0000 -0.3881 -0.9216
vn 1.0000 -0.0022 -0.0000
vn 1.0000 -0.0036 -0.0000
vn 1.0000 -0.0039 0.0073
vn -0.0000 0.0750 0.9972
vn -0.0000 0.1295 0.9916
vn -0.0000 0.2107 0.9775
vt 0.588152 0.000000
vt 0.625000 0.250000
vt 0.588152 0.250000
vt 0.625000 0.500000
vt 0.588152 0.500000
vt 0.625000 0.750000
vt 0.588152 0.750000
vt 0.625000 1.000000
vt 0.588152 1.000000
vt 0.375000 0.500000
vt 0.375000 0.750000
vt 0.425928 0.250000
vt 0.428267 0.250000
vt 0.428267 0.500000
vt 0.425928 0.500000
vt 0.417246 0.742034
vt 0.421250 0.750000
vt 0.421250 1.000000
vt 0.417246 1.012206
vt 0.417246 0.507966
vt 0.421250 0.500000
vt 0.417246 0.242034
vt 0.421250 0.250000
vt 0.417246 0.000000
vt 0.421250 0.000000
vt 0.562675 0.750000
vt 0.562675 1.000000
vt 0.562675 0.500000
vt 0.562675 0.250000
vt 0.562675 0.000000
vt 0.425928 0.000000
vt 0.428267 0.000000
vt 0.428267 0.750000
vt 0.425928 0.750000
vt 0.428267 1.000000
vt 0.425928 1.000000
vt 0.375000 0.000000
vt 0.375000 0.250000
vt 0.375000 1.000000
vt 0.125000 0.500000
vt 0.125000 0.750000
vt 0.423589 0.750000
vt 0.423589 1.000000
vt 0.423589 0.500000
vt 0.423589 0.000000
vt 0.423589 0.250000
vt 0.486247 0.000000
vt 0.486247 0.250000
vt 0.486247 0.500000
vt 0.486247 0.750000
vt 0.486247 1.000000
vt 0.511723 0.000000
vt 0.511723 0.250000
vt 0.537199 0.000000
vt 0.537199 0.250000
vt 0.511723 0.500000
vt 0.537199 0.500000
vt 0.511723 0.750000
vt 0.537199 0.750000
vt 0.511723 1.000000
vt 0.537199 1.000000
s 0
usemtl Material.009
f 13/1/1 2/2/1 14/3/1
f 14/3/2 2/4/2 15/5/2
f 15/5/3 2/6/3 16/7/3
f 16/7/4 2/8/4 13/9/4
f 41/26/11 16/7/11 13/9/11 40/27/11
f 44/28/12 15/5/12 16/7/12 41/26/12
f 47/29/13 14/3/13 15/5/13 44/28/13
f 40/30/14 13/1/14 14/3/14 47/29/14
f 17/32/34 34/47/34 37/48/34 8/13/34
f 8/13/35 37/48/35 36/49/35 6/14/35
f 6/14/36 36/49/36 35/50/36 4/33/36
f 4/33/37 35/50/37 34/51/37 17/35/37
f 34/47/38 38/52/38 49/53/38 37/48/38
f 38/52/39 39/54/39 48/55/39 49/53/39
f 39/54/40 40/30/40 47/29/40 48/55/40
f 37/48/41 49/53/41 46/56/41 36/49/41
f 49/53/42 48/55/42 45/57/42 46/56/42
f 48/55/43 47/29/43 44/28/43 45/57/43
f 36/49/44 46/56/44 43/58/44 35/50/44
f 46/56/45 45/57/45 42/59/45 43/58/45
f 45/57/46 44/28/46 41/26/46 42/59/46
f 35/50/47 43/58/47 38/60/47 34/51/47
f 43/58/48 42/59/48 39/61/48 38/60/48
f 42/59/49 41/26/49 40/27/49 39/61/49
usemtl Material.010
f 20/16/7 12/17/7 9/18/7 21/19/7
f 19/20/8 11/21/8 12/17/8 20/16/8
f 18/22/9 10/23/9 11/21/9 19/20/9
f 21/24/10 9/25/10 10/23/10 18/22/10
f 1/37/18 21/24/18 18/22/18 3/38/18
f 3/38/19 18/22/19 19/20/19 7/10/19
f 7/10/20 19/20/20 20/16/20 5/11/20
f 5/11/21 20/16/21 21/19/21 1/39/21
f 22/40/22 24/10/22 25/11/22 23/41/22
usemtl Material.011
f 7/10/5 5/11/5 25/11/5 24/10/5
f 26/12/6 8/13/6 6/14/6 28/15/6
f 33/31/15 17/32/15 8/13/15 26/12/15
f 28/15/16 6/14/16 4/33/16 30/34/16
f 30/34/17 4/33/17 17/35/17 33/36/17
f 5/11/23 1/39/23 23/39/23 25/11/23
f 3/38/24 7/10/24 24/10/24 22/38/24
f 1/37/25 3/38/25 22/38/25 23/37/25
f 12/17/26 31/42/26 32/43/26 9/18/26
f 31/42/27 30/34/27 33/36/27 32/43/27
f 11/21/28 29/44/28 31/42/28 12/17/28
f 29/44/29 28/15/29 30/34/29 31/42/29
f 9/25/30 32/45/30 27/46/30 10/23/30
f 32/45/31 33/31/31 26/12/31 27/46/31
f 10/23/32 27/46/32 29/44/32 11/21/32
f 27/46/33 26/12/33 28/15/33 29/44/33
