# Blender 4.5.3 LTS
# www.blender.org
mtllib horse_armored.mtl
o horse_armored
v -0.064358 -0.045357 0.209611
v -0.067160 0.100895 0.234597
v -0.043310 -0.015328 -0.218732
v -0.043310 0.070835 -0.218732
v 0.064358 -0.045357 0.209611
v 0.067171 0.099518 0.233303
v 0.043310 -0.015328 -0.218732
v 0.043310 0.070835 -0.218732
v -0.066268 -0.078237 -0.135821
v -0.066268 -0.098389 0.112912
v -0.031785 0.128790 0.095748
v -0.066268 0.105813 0.030001
v -0.066268 0.105813 -0.052910
v -0.066268 0.098389 -0.135821
v 0.066268 -0.098389 0.112912
v 0.066268 -0.078237 -0.135821
v 0.066268 0.098389 -0.135821
v 0.066268 0.105813 -0.052910
v 0.066268 0.105813 0.030001
v 0.031785 0.128790 0.095748
v 0.026552 0.258946 0.185647
v 0.059666 0.216768 0.282435
v -0.059666 0.216768 0.282435
v -0.026552 0.258946 0.185647
v -0.066268 0.081419 -0.218732
v -0.043484 -0.085661 -0.218732
v 0.043484 -0.085661 -0.218732
v 0.066268 0.081419 -0.218732
v -0.043310 0.058461 -0.262255
v -0.043310 -0.021692 -0.233971
v 0.043310 -0.021692 -0.233971
v 0.043310 0.058461 -0.262255
v -0.043310 0.030177 -0.285071
v -0.043310 -0.015328 -0.300097
v 0.043310 -0.015328 -0.300097
v 0.043310 0.030177 -0.285071
v 0.019720 -0.072276 -0.256216
v -0.019720 -0.072276 -0.256216
v 0.019720 -0.072276 -0.296590
v -0.019720 -0.072276 -0.296590
v 0.022550 0.334349 0.228250
v 0.038960 0.279935 0.315089
v -0.038960 0.279935 0.315089
v -0.022550 0.334349 0.228250
v 0.042234 0.189629 0.362191
v -0.042234 0.189629 0.362191
v 0.042234 0.236572 0.388280
v -0.042234 0.236572 0.388280
v -0.042234 0.243057 0.372255
v 0.042234 0.243057 0.372255
v -0.042234 0.196114 0.346166
v 0.042234 0.196114 0.346166
v -0.066268 0.105813 0.112912
v 0.066268 0.105813 0.112912
v 0.059666 0.244957 0.212778
v -0.059666 0.244957 0.212778
v -0.052562 0.308124 0.245433
v 0.052562 0.308124 0.245433
v -0.033356 0.113830 0.117832
v 0.033356 0.113830 0.117832
v 0.028060 0.243124 0.211569
v -0.028060 0.243124 0.211569
v -0.023917 0.304231 0.240954
v 0.023917 0.304231 0.240954
v 0.098442 -0.121445 0.198000
v 0.066154 0.084084 -0.211456
v 0.106994 -0.131459 -0.208544
v 0.094303 0.069714 -0.171365
v 0.089807 0.080725 0.197362
v 0.101894 -0.105836 0.154141
v 0.106994 -0.105836 -0.182921
v 0.094303 0.084987 -0.104963
v 0.107789 0.090316 -0.037981
v 0.107789 0.090316 0.031618
v 0.096492 0.090316 0.108582
v 0.101894 -0.093462 0.108582
v 0.098550 0.014895 0.024776
v 0.098550 0.013127 -0.030612
v 0.106994 -0.086391 -0.103898
v 0.066154 0.099358 -0.120337
v 0.067621 0.104686 -0.043106
v 0.067621 0.104686 0.036742
v 0.071448 0.112358 0.134632
v 0.101894 -0.119085 0.123956
v 0.098550 -0.010729 0.028855
v 0.098550 -0.012497 -0.034690
v 0.106994 -0.112014 -0.119272
v -0.098432 -0.120067 0.199293
v -0.066132 0.086839 -0.208870
v -0.106973 -0.128704 -0.205957
v -0.094282 0.072469 -0.168779
v -0.089786 0.083480 0.199949
v -0.101872 -0.103081 0.156727
v -0.106973 -0.103081 -0.180334
v -0.094282 0.087743 -0.102376
v -0.107768 0.093071 -0.035395
v -0.107768 0.093071 0.034204
v -0.096471 0.093071 0.111169
v -0.101872 -0.090706 0.111169
v -0.098529 0.017650 0.026835
v -0.098529 0.015882 -0.028553
v -0.106973 -0.083635 -0.101311
v -0.066132 0.102113 -0.117751
v -0.067599 0.107442 -0.040519
v -0.067599 0.107442 0.039329
v -0.071427 0.115113 0.137219
v -0.101872 -0.116330 0.126543
v -0.098529 -0.007974 0.030913
v -0.098529 -0.009741 -0.032632
v -0.106973 -0.109259 -0.116685
v 0.065162 0.129129 0.129646
v 0.065162 0.116460 0.241238
v -0.065162 0.116460 0.241238
v -0.065162 0.129129 0.129646
v 0.032468 0.135496 0.133539
v -0.032468 0.135496 0.133539
v 0.030908 0.150600 0.110812
v -0.030908 0.150600 0.110812
v 0.060750 0.222098 0.196372
v -0.060750 0.222098 0.196372
v 0.028930 0.221884 0.196170
v -0.028930 0.221884 0.196170
v 0.027411 0.237564 0.170878
v -0.027411 0.237564 0.170878
v 0.060750 0.196972 0.274304
v -0.060750 0.196972 0.274304
v 0.069068 -0.070790 0.258151
v 0.046794 0.047367 0.255395
v -0.046794 0.047367 0.255395
v -0.069068 -0.070790 0.258151
v 0.014562 -0.078257 0.250449
v -0.014562 -0.078257 0.250449
v 0.000000 0.093691 0.255395
v 0.020027 -0.103963 0.223938
v -0.020027 -0.103963 0.223938
vn -0.9898 -0.0656 -0.1263
vn -0.0000 0.9619 -0.2735
vn 0.9999 -0.0085 0.0065
vn 0.0040 -0.1649 0.9863
vn -0.0000 -0.8768 0.4809
vn 0.9990 0.0421 0.0152
vn -0.0000 0.9797 -0.2005
vn -0.0000 0.9960 -0.0892
vn -0.0000 1.0000 -0.0000
vn 0.9898 -0.0656 -0.1263
vn -0.9999 -0.0085 0.0065
vn -0.9789 0.1373 0.1512
vn -0.0000 -0.3799 0.9250
vn -0.9990 0.0421 0.0152
vn -0.0000 -0.0000 -1.0000
vn 1.0000 -0.0000 -0.0000
vn -1.0000 -0.0000 -0.0000
vn -0.0000 0.3135 -0.9496
vn -0.0000 -0.0615 -0.9981
vn -0.0000 0.6279 -0.7783
vn -0.9170 -0.3982 -0.0238
vn 0.9170 -0.3982 -0.0238
vn -0.0000 0.9270 0.3751
vn 0.9789 0.1373 0.1512
vn -0.0000 -0.4858 0.8741
vn -0.0000 -0.9270 -0.3751
vn -0.0000 -0.9513 -0.3083
vn 0.9819 0.0983 0.1618
vn -0.9819 0.0983 0.1618
vn -0.0000 0.8403 0.5421
vn -0.0000 0.5231 -0.8523
vn -0.0008 0.5849 -0.8111
vn -0.0195 0.5854 -0.8105
vn -0.0000 0.7548 -0.6560
vn -0.0416 0.4493 -0.8924
vn 0.0416 0.4493 -0.8924
vn 0.9981 0.0573 -0.0237
vn -0.9977 0.0609 -0.0288
vn -0.0000 0.3887 0.9214
vn -0.9982 0.0607 -0.0021
vn 0.9982 0.0607 -0.0021
vn -0.0000 0.5683 -0.8228
vn -0.0000 0.4919 -0.8706
vn 0.9971 0.0735 -0.0175
vn 0.5672 0.8085 -0.1568
vn 0.9502 0.0416 0.3090
vn 0.9984 -0.0513 0.0225
vn 0.9027 0.1326 -0.4094
vn 0.9768 -0.0761 0.2004
vn 0.9973 -0.0262 -0.0690
vn 0.7329 0.6691 0.1229
vn 0.4809 0.8766 -0.0179
vn 0.3369 0.9416 -0.0000
vn 0.4132 0.9040 -0.1096
vn 0.9976 0.0405 0.0563
vn 0.9991 -0.0158 0.0388
vn 0.9927 -0.1202 0.0017
vn 0.9989 0.0123 -0.0451
vn -0.9971 0.0735 -0.0175
vn -0.5672 0.8085 -0.1568
vn -0.9468 0.0392 0.3194
vn -0.9985 -0.0505 0.0222
vn -0.9027 0.1326 -0.4094
vn -0.9762 -0.0770 0.2029
vn -0.9973 -0.0259 -0.0683
vn -0.7247 0.6768 0.1292
vn -0.4809 0.8766 -0.0179
vn -0.3369 0.9416 -0.0000
vn -0.4132 0.9040 -0.1096
vn -0.9976 0.0405 0.0563
vn -0.9991 -0.0159 0.0386
vn -0.9927 -0.1202 0.0017
vn -0.9989 0.0124 -0.0454
vn 0.0827 -0.0180 0.9964
vn -0.9979 0.0590 -0.0262
vn 0.9977 0.0609 -0.0288
vn -0.0094 0.5852 -0.8108
vn 0.0195 0.5854 -0.8105
vn -0.9969 0.0784 0.0021
vn 0.0023 -0.4091 0.9125
vn 0.9971 0.0758 0.0023
vn 0.0008 0.5849 -0.8111
vn -0.9981 0.0573 -0.0237
vn 0.9979 0.0590 -0.0262
vn 0.0094 0.5852 -0.8108
vn -0.9989 0.0456 0.0091
vn 0.9989 0.0456 0.0091
vn 0.0107 0.5355 0.8445
vn -0.0368 -0.7433 0.6679
vn 0.8519 0.0849 0.5169
vn -0.8434 0.0822 0.5309
vn 0.0358 -0.7426 0.6687
vn -0.0827 -0.0180 0.9964
vt 0.375000 0.200000
vt 0.625000 0.200000
vt 0.625000 0.250000
vt 0.375000 0.250000
vt 0.592110 0.293305
vt 0.592110 0.456695
vt 0.375000 0.700000
vt 0.625000 0.700000
vt 0.625000 0.750000
vt 0.375000 0.750000
vt 0.625000 1.000000
vt 0.375000 1.000000
vt 0.125000 0.700000
vt 0.125000 0.750000
vt 0.625000 0.750000
vt 0.625000 0.700000
vt 0.625000 0.500000
vt 0.875000 0.500000
vt 0.875000 0.550000
vt 0.625000 0.550000
vt 0.875000 0.600000
vt 0.625000 0.600000
vt 0.875000 0.650000
vt 0.625000 0.650000
vt 0.875000 0.700000
vt 0.375000 0.500000
vt 0.375000 0.550000
vt 0.375000 0.000000
vt 0.625000 0.000000
vt 0.625000 0.050000
vt 0.375000 0.050000
vt 0.407890 0.293305
vt 0.407890 0.456695
vt 0.875000 0.750000
vt 0.627837 0.216663
vt 0.628113 0.548806
vt 0.645603 0.585450
vt 0.649041 0.592653
vt 0.634702 0.236283
vt 0.670978 0.636467
vt 0.745700 0.546898
vt 0.668805 0.333748
vt 0.646825 0.580483
vt 0.650442 0.588067
vt 0.635263 0.245543
vt 0.628269 0.225501
vt 0.672172 0.631257
vt 0.741353 0.543910
vt 0.670008 0.345102
vt 0.663151 0.325453
vt 0.089675 0.761492
vt 0.910325 0.761492
vt 0.910325 0.935819
vt 0.089675 0.935819
vt 0.000000 1.000000
vt 0.000000 0.800000
vt 0.910325 0.064181
vt 0.089675 0.064181
vt 0.000000 0.000000
vt 1.000000 0.000000
vt 0.910325 0.238508
vt 1.000000 0.200000
vt 1.000000 1.000000
vt 1.000000 0.800000
vt 0.910325 0.587164
vt 1.000000 0.600000
vt 0.910325 0.412836
vt 1.000000 0.400000
vt 0.089675 0.238508
vt 0.000000 0.200000
vt 0.089675 0.412836
vt 0.000000 0.400000
vt 0.089675 0.587164
vt 0.000000 0.600000
vt 0.625000 0.903509
vt 0.625000 0.960527
vt 0.625000 0.968260
vt 0.625000 0.906087
vt 0.632114 0.549638
vt 0.628424 0.541902
vt 0.662075 0.314513
vt 0.631620 0.556154
vt 0.625000 0.750000
vt 0.625000 0.846491
vt 0.625000 0.789473
vt 0.625000 0.916667
vt 0.625000 0.781740
vt 0.625000 0.843913
vt 0.625000 0.833333
s 0
usemtl Material.028
f 9/1/1 14/2/1 25/3/1 26/4/1
f 15/7/3 54/8/3 6/9/3 5/10/3
f 5/10/4 6/9/4 2/11/4 1/12/4
f 10/13/5 15/7/5 5/10/5 1/14/5
f 27/26/10 28/17/10 17/20/10 16/27/10
f 1/28/11 2/29/11 53/30/11 10/31/11
f 56/30/12 23/29/12 43/29/12 57/30/12
f 4/5/15 3/32/15 26/4/15 25/3/15
f 3/32/15 7/33/15 27/26/15 26/4/15
f 8/6/15 4/5/15 25/3/15 28/17/15
f 7/33/15 8/6/15 28/17/15 27/26/15
f 22/9/24 55/8/24 58/8/24 42/9/24
f 50/9/23 49/34/23 48/34/23 47/9/23
f 46/11/25 45/9/25 47/9/25 48/11/25
f 49/29/17 51/29/17 46/29/17 48/29/17
f 52/9/16 50/9/16 47/9/16 45/9/16
f 51/11/26 52/9/26 45/9/26 46/11/26
f 23/11/27 22/9/27 52/9/27 51/11/27
f 64/40/34 63/41/34 57/25/34 58/8/34
f 63/41/35 62/42/35 56/30/35 57/25/35
f 61/38/36 64/40/36 58/8/36 55/8/36
f 122/81/77 116/39/77 114/30/77 120/30/77
f 115/82/85 121/37/85 119/16/85 111/16/85
f 114/30/86 113/29/86 126/29/86 120/30/86
f 113/11/13 112/83/13 125/15/13 126/11/13
f 112/83/87 111/16/87 119/16/87 125/15/87
f 17/20/16 18/22/16 19/24/16 54/8/16 15/7/16 16/27/16
f 53/30/17 12/23/17 13/21/17 14/2/17 9/1/17 10/31/17
usemtl Material.029
f 4/5/2 8/6/2 32/6/2 29/5/2
f 32/6/16 31/33/16 35/33/16 36/6/16
f 3/32/17 4/5/17 29/5/17 30/32/17
f 8/6/16 7/33/16 31/33/16 32/6/16
f 34/32/18 33/5/18 36/6/18 35/33/18
f 34/32/19 35/33/19 39/33/19 40/32/19
f 29/5/20 32/6/20 36/6/20 33/5/20
f 30/32/17 29/5/17 33/5/17 34/32/17
f 30/32/21 34/32/21 40/32/21 38/32/21
f 35/33/22 31/33/22 37/33/22 39/33/22
f 123/43/37 21/44/37 61/38/37 121/37/37
f 118/45/38 11/46/38 59/35/38 116/39/38
f 41/47/39 44/48/39 63/41/39 64/40/39
f 44/48/40 24/49/40 62/42/40 63/41/40
f 21/44/41 41/47/41 64/40/41 61/38/41
f 124/50/42 24/49/42 21/44/42 123/43/42
f 21/44/43 24/49/43 44/48/43 41/47/43
f 11/46/42 118/45/42 117/79/42 20/80/42
f 124/50/75 118/45/75 116/39/75 122/81/75
f 20/80/76 117/79/76 115/82/76 60/36/76
f 24/49/83 124/50/83 122/81/83 62/42/83
f 118/45/42 124/50/42 123/43/42 117/79/42
f 117/79/84 123/43/84 121/37/84 115/82/84
usemtl Material.067
f 18/22/9 13/21/9 12/23/9 19/24/9
f 19/24/9 12/23/9 53/25/9 54/8/9
f 59/35/31 60/36/31 54/8/31 53/30/31
f 116/39/33 59/35/33 53/30/33 114/30/33
f 72/51/45 68/54/45 66/55/45 80/56/45
f 70/57/46 69/58/46 6/59/46 65/60/46
f 76/61/47 70/57/47 65/60/47 84/62/47
f 68/54/48 71/53/48 67/63/48 66/55/48
f 71/53/16 79/52/16 87/64/16 67/63/16
f 79/52/49 78/65/49 86/66/49 87/64/49
f 78/65/16 77/67/16 85/68/16 86/66/16
f 77/67/50 76/61/50 84/62/50 85/68/50
f 69/58/51 75/69/51 83/70/51 6/59/51
f 75/69/52 74/71/52 82/72/52 83/70/52
f 74/71/53 73/73/53 81/74/53 82/72/53
f 73/73/54 72/51/54 80/56/54 81/74/54
f 74/71/57 77/67/57 78/65/57 73/73/57
f 95/51/60 103/56/60 89/55/60 91/54/60
f 93/57/61 88/60/61 2/59/61 92/58/61
f 99/61/62 107/62/62 88/60/62 93/57/62
f 91/54/63 89/55/63 90/63/63 94/53/63
f 94/53/17 90/63/17 110/64/17 102/52/17
f 102/52/64 110/64/64 109/66/64 101/65/64
f 101/65/17 109/66/17 108/68/17 100/67/17
f 100/67/65 108/68/65 107/62/65 99/61/65
f 92/58/66 2/59/66 106/70/66 98/69/66
f 98/69/67 106/70/67 105/72/67 97/71/67
f 97/71/68 105/72/68 104/74/68 96/73/68
f 96/73/69 104/74/69 103/56/69 95/51/69
f 97/71/72 96/73/72 101/65/72 100/67/72
f 60/36/78 115/82/78 111/16/78 54/8/78
f 53/30/79 2/29/79 113/29/79 114/30/79
f 2/11/80 6/9/80 112/83/80 113/11/80
f 6/9/81 54/8/81 111/16/81 112/83/81
f 132/78/89 130/77/89 88/11/89 135/86/89
f 127/87/92 131/88/92 134/89/92 65/9/92
usemtl Material.068
f 125/15/6 119/16/6 55/8/6 22/9/6
f 28/17/7 25/18/7 14/19/7 17/20/7
f 17/20/8 14/19/8 13/21/8 18/22/8
f 126/11/13 125/15/13 22/9/13 23/11/13
f 120/30/14 126/29/14 23/29/14 56/30/14
f 58/8/23 57/25/23 43/34/23 42/9/23
f 22/9/28 42/9/28 50/9/28 52/9/28
f 43/29/29 23/29/29 51/29/29 49/29/29
f 42/9/30 43/34/30 49/34/30 50/9/30
f 121/37/32 61/38/32 55/8/32 119/16/32
f 72/51/44 79/52/44 71/53/44 68/54/44
f 69/58/55 70/57/55 76/61/55 75/69/55
f 75/69/56 76/61/56 77/67/56 74/71/56
f 73/73/58 78/65/58 79/52/58 72/51/58
f 95/51/59 91/54/59 94/53/59 102/52/59
f 92/58/70 98/69/70 99/61/70 93/57/70
f 98/69/71 97/71/71 100/67/71 99/61/71
f 96/73/73 95/51/73 102/52/73 101/65/73
f 133/75/74 129/76/74 130/77/74 132/78/74
f 62/42/82 122/81/82 120/30/82 56/30/82
f 129/76/88 133/84/88 128/85/88 6/9/88 2/11/88
f 128/85/90 127/87/90 65/9/90 6/9/90
f 130/77/91 129/76/91 2/11/91 88/11/91
f 128/85/93 133/84/93 131/88/93 127/87/93
l 9 16
