# Blender 4.5.3 LTS
# www.blender.org
mtllib axe.mtl
o axe
v -0.002908 -0.134069 0.012086
v -0.002908 -0.134069 -0.012086
v 0.003964 0.135397 0.016472
v 0.002908 -0.134069 0.012086
v 0.003964 0.135397 -0.016472
v 0.002908 -0.134069 -0.012086
v -0.003964 0.135397 -0.016472
v -0.003964 0.127874 0.016472
v -0.003964 0.127874 -0.016472
v 0.003964 0.127874 -0.016472
v 0.003964 0.127874 0.016472
v 0.002906 0.075318 -0.012078
v -0.002906 0.075318 0.012078
v 0.002906 0.075318 0.012078
v -0.002906 0.075318 -0.012078
v -0.003964 0.135397 0.016472
v -0.002906 0.123879 -0.012076
v 0.002906 0.123879 -0.012076
v 0.002906 0.123879 0.012076
v -0.002906 0.123879 0.012076
v -0.004094 -0.138738 -0.017014
v -0.004094 -0.138738 0.017014
v 0.004094 -0.138738 -0.017014
v 0.004094 -0.138738 0.017014
v 0.010211 0.122769 0.026328
v 0.010212 0.075527 0.026329
v -0.010212 0.075527 0.026329
v -0.010211 0.122769 0.026328
v -0.011408 0.146280 0.033456
v 0.008442 0.178118 0.024280
v 0.008442 0.018926 0.024280
v 0.003482 0.160357 0.054412
v -0.008846 -0.134069 0.000000
v 0.012056 0.135397 0.000000
v 0.008846 -0.134069 0.000000
v -0.012056 0.135397 0.000000
v 0.012056 0.127874 0.000000
v -0.012056 0.127874 0.000000
v -0.008840 0.075318 0.000000
v 0.008840 0.075318 0.000000
v -0.008839 0.123879 0.000000
v 0.008839 0.123879 0.000000
v -0.012452 -0.138738 0.000000
v 0.012452 -0.138738 0.000000
v 0.003482 0.038166 0.058852
v -0.008442 0.178118 0.024280
v -0.008442 0.018926 0.024280
v -0.003482 0.160357 0.054412
v -0.003482 0.038166 0.058852
v -0.011408 0.050764 0.033456
v 0.011408 0.146280 0.033456
v 0.011408 0.050764 0.033456
v 0.000000 0.058164 0.072764
v 0.000000 0.082603 0.081645
v 0.000000 0.114441 0.081645
v 0.000000 0.138583 0.074244
vn -0.8975 -0.0000 -0.4409
vn 0.7376 0.5698 0.3624
vn -0.0000 -0.0000 -1.0000
vn -0.0000 -0.7400 0.6726
vn 0.7274 -0.5858 0.3574
vn -0.0000 -0.7400 -0.6726
vn -0.7274 -0.5858 -0.3574
vn -0.0000 1.0000 -0.0000
vn -0.0000 -0.0000 1.0000
vn 0.8975 -0.0000 0.4409
vn -0.8899 -0.0000 -0.4562
vn -0.0000 -1.0000 -0.0000
vn -0.0000 0.7259 0.6878
vn -0.0000 0.7259 -0.6878
vn -0.7376 0.5698 -0.3624
vn 0.8899 -0.0000 -0.4562
vn -0.0000 0.9970 0.0776
vn -0.0000 -0.9999 0.0147
vn -0.0000 -0.5711 0.8209
vn -0.0000 -0.8738 0.4863
vn -0.9629 -0.1018 0.2500
vn -0.0000 0.8615 0.5078
vn -0.9753 0.0159 0.2204
vn -0.7376 0.5698 0.3624
vn 0.8975 -0.0000 -0.4409
vn -0.8975 -0.0000 0.4409
vn -0.7274 -0.5858 0.3574
vn 0.7274 -0.5858 -0.3574
vn 0.7376 0.5698 -0.3624
vn -0.0000 -0.2769 -0.9609
vn 0.9534 0.1364 0.2690
vn -0.9534 0.1364 0.2690
vn -0.0000 0.6734 0.7393
vn -0.9834 -0.0000 0.1815
vn -0.9762 -0.0233 0.2157
vn 0.9629 -0.1018 0.2500
vn 0.9753 0.0159 0.2204
vn 0.9834 -0.0000 0.1815
vn 0.9762 -0.0233 0.2157
vn -0.0000 0.2769 -0.9609
vn -0.0000 -0.2766 -0.9610
vn -0.0000 0.2901 -0.9570
vt 0.375000 0.125000
vt 0.410622 0.122297
vt 0.410622 0.244594
vt 0.375000 0.250000
vt 0.375000 0.625000
vt 0.375000 0.750000
vt 0.421250 0.250000
vt 0.428267 0.250000
vt 0.428267 0.500000
vt 0.421250 0.500000
vt 0.417246 0.742034
vt 0.421250 0.750000
vt 0.421250 1.000000
vt 0.417246 1.012206
vt 0.417246 0.625000
vt 0.421250 0.625000
vt 0.417246 0.242034
vt 0.417246 0.507966
vt 0.417246 0.121017
vt 0.421250 0.125000
vt 0.428267 0.625000
vt 0.428267 0.125000
vt 0.410622 0.744939
vt 0.410622 1.007808
vt 0.375000 1.000000
vt 0.410622 0.505406
vt 0.375000 0.500000
vt 0.410622 0.625172
vt 0.428267 0.750000
vt 0.428267 1.000000
vt 0.417246 0.000000
vt 0.410622 0.000000
vt 0.125000 0.625000
vt 0.125000 0.750000
vt 0.625000 0.500000
vt 0.675000 0.750000
vt 0.625000 0.750000
vt 0.375000 0.000000
vt 0.625000 0.000000
vt 0.625000 0.250000
vt 0.125000 0.500000
vt 0.175000 0.500000
vt 0.175000 0.750000
vt 0.225000 0.500000
vt 0.225000 0.750000
vt 0.421250 0.000000
vt 0.428267 0.000000
vt 0.575000 0.500000
vt 0.575000 0.750000
vt 0.625000 1.000000
vt 0.575000 1.000000
vt 0.325000 0.500000
vt 0.325000 0.750000
vt 0.825000 0.500000
vt 0.875000 0.500000
vt 0.875000 0.750000
vt 0.275000 0.500000
vt 0.275000 0.750000
vt 0.425000 0.750000
vt 0.425000 1.000000
vt 0.475000 0.750000
vt 0.475000 1.000000
vt 0.525000 0.750000
vt 0.525000 1.000000
vt 0.425000 0.500000
vt 0.475000 0.500000
vt 0.525000 0.500000
s 0
usemtl Material.009
f 20/31/11 13/32/11 27/32/11 28/31/11
f 14/23/16 19/11/16 25/11/16 26/23/16
f 19/11/17 20/14/17 28/14/17 25/11/17
f 13/24/18 14/23/18 26/23/18 27/24/18
f 45/35/19 53/36/19 49/37/19
f 47/38/20 31/39/20 45/40/20 49/4/20
f 49/41/21 53/42/21 50/43/21 47/34/21
f 30/4/22 46/40/22 48/35/22 32/27/22
f 53/42/23 54/44/23 27/45/23 50/43/23
f 29/48/30 46/35/30 30/37/30 51/49/30
f 51/49/31 30/37/31 32/50/31 56/51/31
f 56/52/32 48/27/32 46/6/32 29/53/32
f 56/54/33 32/55/33 48/56/33
f 54/44/34 55/57/34 28/58/34 27/45/34
f 55/57/35 56/52/35 29/53/35 28/58/35
f 31/6/36 52/59/36 53/60/36 45/25/36
f 52/59/37 26/61/37 54/62/37 53/60/37
f 26/61/38 25/63/38 55/64/38 54/62/38
f 25/63/39 51/49/39 56/51/39 55/64/39
f 47/27/40 50/65/40 52/59/40 31/6/40
f 50/65/41 27/66/41 26/61/41 52/59/41
f 28/67/42 29/48/42 51/49/42 25/63/42
usemtl Material.010
f 33/1/1 39/2/1 15/3/1 2/4/1
f 19/11/4 11/12/4 8/13/4 20/14/4
f 42/15/5 37/16/5 11/12/5 19/11/5
f 17/17/6 9/7/6 10/10/6 18/18/6
f 41/19/7 38/20/7 9/7/7 17/17/7
f 4/6/9 14/23/9 13/24/9 1/25/9
f 2/4/3 15/3/3 12/26/3 6/27/3
f 35/5/10 40/28/10 14/23/10 4/6/10
f 43/33/12 44/5/12 24/6/12 22/34/12
f 21/41/12 23/27/12 44/5/12 43/33/12
f 6/27/25 12/26/25 40/28/25 35/5/25
f 20/31/27 8/46/27 38/20/27 41/19/27
f 18/18/28 10/10/28 37/16/28 42/15/28
f 1/38/26 13/32/26 39/2/26 33/1/26
usemtl Material.011
f 35/5/2 4/6/2 24/6/2 44/5/2
f 9/7/3 7/8/3 5/9/3 10/10/3
f 34/21/8 5/9/8 7/8/8 36/22/8
f 38/20/1 36/22/1 7/8/1 9/7/1
f 37/16/10 34/21/10 3/29/10 11/12/10
f 11/12/9 3/29/9 16/30/9 8/13/9
f 39/2/1 41/19/1 17/17/1 15/3/1
f 15/3/3 17/17/3 18/18/3 12/26/3
f 40/28/10 42/15/10 19/11/10 14/23/10
f 4/6/13 1/25/13 22/25/13 24/6/13
f 2/4/14 6/27/14 23/27/14 21/4/14
f 33/1/15 2/4/15 21/4/15 43/1/15
f 1/38/24 33/1/24 43/1/24 22/38/24
f 12/26/25 18/18/25 42/15/25 40/28/25
f 13/32/26 20/31/26 41/19/26 39/2/26
f 10/10/25 5/9/25 34/21/25 37/16/25
f 8/46/26 16/47/26 36/22/26 38/20/26
f 3/29/8 34/21/8 36/22/8 16/47/8
f 6/27/29 35/5/29 44/5/29 23/27/29
