# Blender 4.5.3 LTS
# www.blender.org
mtllib wall_hold.mtl
o wall_hold
v -0.489075 -0.409640 0.094872
v -0.489075 0.274195 0.094872
v -0.489075 -0.409640 -0.094872
v -0.489075 0.274195 -0.094872
v 0.487749 -0.409640 0.094872
v 0.456720 0.411354 0.022031
v 0.487749 -0.409640 -0.094872
v 0.456720 0.411354 -0.019485
v 0.390067 -0.408112 -0.094872
v 0.292384 -0.409640 -0.094872
v 0.194702 -0.409640 -0.094872
v 0.097020 -0.403531 -0.094872
v -0.000663 -0.409640 -0.094872
v -0.098345 -0.409640 -0.087235
v -0.196028 -0.405058 -0.094872
v -0.293710 -0.409640 -0.094872
v -0.391393 -0.402003 -0.091817
v -0.359150 0.415984 -0.017136
v -0.263833 0.412270 -0.020662
v -0.163942 0.413945 -0.017830
v -0.063112 0.410868 -0.012224
v 0.036650 0.413202 -0.012973
v 0.131724 0.414807 -0.015951
v 0.223732 0.410868 -0.022111
v 0.325841 0.411391 -0.017267
v 0.421096 0.411911 -0.019485
v -0.391393 -0.402003 0.087235
v -0.293710 -0.409640 0.094872
v -0.196028 -0.405058 0.094872
v -0.098345 -0.409640 0.081126
v -0.000663 -0.409640 0.094872
v 0.097020 -0.403531 0.094872
v 0.194702 -0.409640 0.091817
v 0.292384 -0.409640 0.091817
v 0.390067 -0.408112 0.094872
v 0.421096 0.411911 0.022031
v 0.325841 0.411391 0.017793
v 0.223732 0.410868 0.021602
v 0.131724 0.414807 0.017399
v 0.036650 0.413202 0.015519
v -0.063112 0.410868 0.010684
v -0.163942 0.413945 0.018221
v -0.263833 0.412270 0.023207
v -0.359150 0.415984 0.016556
v 0.356611 0.411873 -0.017267
v 0.487749 0.274195 -0.094872
v 0.487749 0.274195 0.094872
v 0.356611 0.411873 0.018755
v 0.263355 0.410868 -0.022111
v 0.390067 0.275722 -0.094872
v 0.390067 0.275722 0.094872
v 0.263355 0.410868 0.021602
v 0.159998 0.413039 -0.015951
v 0.292384 0.274195 -0.094872
v 0.292384 0.274195 0.091817
v 0.159998 0.413039 0.016515
v 0.059706 0.414644 -0.012973
v 0.194702 0.274195 -0.094872
v 0.194702 0.274195 0.091817
v 0.059706 0.414644 0.015519
v -0.035896 0.410868 -0.014352
v 0.097020 0.280304 -0.094872
v 0.097020 0.280304 0.094872
v -0.035896 0.410868 0.014514
v -0.130432 0.412373 -0.015210
v -0.000663 0.274195 -0.094872
v -0.000663 0.274195 0.094872
v -0.130432 0.412373 0.013506
v -0.225905 0.414049 -0.020662
v -0.098345 0.274195 -0.087235
v -0.098345 0.274195 0.081126
v -0.225905 0.414049 0.023207
v -0.325953 0.413389 -0.018174
v -0.196028 0.278777 -0.094872
v -0.196028 0.278777 0.094872
v -0.325953 0.413389 0.019151
v -0.391393 0.281832 -0.091817
v -0.293710 0.274195 -0.094872
v -0.293710 0.274195 0.094872
v -0.391393 0.281832 0.087235
v -0.391393 0.281832 -0.091817
v -0.489075 0.274195 -0.094872
v -0.489075 0.274195 0.094872
v -0.391393 0.281832 0.087235
v -0.423270 0.416013 -0.017503
v -0.457199 0.413360 -0.018564
v -0.457199 0.413360 0.019560
v -0.423270 0.416013 0.016907
v -0.489075 -0.003391 0.094872
v -0.489075 0.123565 0.094872
v -0.489075 0.123565 -0.094872
v -0.489075 -0.003391 -0.094872
v 0.487749 0.123565 -0.094872
v 0.487749 -0.003391 -0.094872
v 0.487749 0.123565 0.094872
v 0.487749 -0.003391 0.094872
v 0.390067 0.124211 0.094872
v 0.390067 -0.002745 0.094872
v 0.292385 0.123565 0.091817
v 0.292385 -0.003391 0.091817
v 0.194702 0.123565 0.091817
v 0.194702 -0.003391 0.091817
v 0.097020 0.126149 0.094872
v 0.097020 -0.000807 0.094872
v -0.000663 0.123565 0.094872
v -0.000663 -0.003391 0.094872
v -0.098345 0.123565 0.081126
v -0.098345 -0.003391 0.081126
v -0.196028 0.125503 0.094872
v -0.196028 -0.001453 0.094872
v -0.293710 0.123565 0.094872
v -0.293710 -0.003391 0.094872
v -0.391393 0.126795 0.087235
v -0.391393 -0.000161 0.087235
v -0.391393 0.126795 -0.091817
v -0.391393 -0.000161 -0.091817
v -0.293710 0.123565 -0.094872
v -0.293710 -0.003391 -0.094872
v -0.196028 0.125503 -0.094872
v -0.196028 -0.001453 -0.094872
v -0.098345 0.123565 -0.087235
v -0.098345 -0.003391 -0.087235
v -0.000663 0.123565 -0.094872
v -0.000663 -0.003391 -0.094872
v 0.097020 0.126149 -0.094872
v 0.097020 -0.000807 -0.094872
v 0.194702 0.123565 -0.094872
v 0.194702 -0.003391 -0.094872
v 0.292385 0.123565 -0.094872
v 0.292385 -0.003391 -0.094872
v 0.390067 0.124211 -0.094872
v 0.390067 -0.002745 -0.094872
v 0.398283 -0.417376 0.497473
v 0.398283 -0.417565 0.396670
v 0.300600 -0.418022 0.494419
v 0.300600 -0.418211 0.393615
v 0.202918 -0.418022 0.494419
v 0.202918 -0.418211 0.393615
v 0.105236 -0.415439 0.497473
v 0.105236 -0.415627 0.396670
v -0.090129 -0.418022 0.483727
v -0.090129 -0.418211 0.382924
v -0.187812 -0.416084 0.497473
v -0.187812 -0.416273 0.396670
v -0.285494 -0.418022 0.497473
v -0.285494 -0.418211 0.396670
v -0.383177 -0.414793 0.489837
v -0.383177 -0.414981 0.389034
vn -1.0000 -0.0000 -0.0000
vn -0.0000 -0.0000 -1.0000
vn 1.0000 -0.0000 -0.0000
vn 0.0779 -0.0000 0.9970
vn -0.0779 0.9970 -0.0000
vn 0.0156 0.9999 -0.0000
vn -0.0156 0.9999 -0.0000
vn -0.0000 1.0000 -0.0000
vn 0.0624 0.9980 -0.0000
vn -0.0624 0.9980 -0.0000
vn 0.0469 0.9989 -0.0000
vn -0.0469 0.9989 -0.0000
vn 0.0779 0.9970 -0.0000
vn -0.0000 -0.0000 1.0000
vn -0.0313 -0.0000 0.9995
vn 0.0313 -0.0000 0.9995
vn -0.1393 -0.0000 0.9902
vn 0.1393 -0.0000 0.9902
vn -0.0779 -0.0000 0.9970
vn 0.0313 -0.0000 -0.9995
vn -0.0313 -0.0000 -0.9995
vn 0.0779 -0.0000 -0.9970
vn -0.0779 -0.0000 -0.9970
vn 0.0076 0.4830 -0.8756
vn 0.9754 0.2207 -0.0000
vn 0.0074 0.4703 0.8825
vn -0.9750 0.2221 -0.0000
vn -0.0077 0.4938 -0.8696
vn -0.0349 0.4811 0.8759
vn 0.9711 0.2386 -0.0000
vn -0.9715 0.2369 -0.0000
vn -0.0000 0.4699 -0.8827
vn -0.0000 0.4570 0.8895
vn 0.9782 0.2078 -0.0000
vn -0.9782 0.2078 -0.0000
vn 0.0313 0.4998 -0.8656
vn 0.0577 0.4871 0.8715
vn 0.9702 0.2425 -0.0000
vn -0.9683 0.2498 -0.0000
vn -0.0321 0.5137 -0.8573
vn -0.0314 0.5019 0.8644
vn 0.9635 0.2676 -0.0000
vn -0.9658 0.2593 -0.0000
vn -0.0678 0.4934 -0.8672
vn -0.1223 0.4794 0.8690
vn 0.9683 0.2496 -0.0000
vn -0.9683 0.2496 -0.0000
vn 0.0907 0.4768 -0.8743
vn 0.1448 0.4619 0.8751
vn 0.9741 0.2262 -0.0000
vn -0.9730 0.2310 -0.0000
vn -0.0224 0.4771 -0.8786
vn -0.0218 0.4643 0.8854
vn 0.9765 0.2157 -0.0000
vn -0.9774 0.2115 -0.0000
vn 0.0105 0.4844 -0.8748
vn -0.0320 0.4719 0.8811
vn 0.9742 0.2257 -0.0000
vn -0.9723 0.2337 -0.0000
vn -0.0103 0.4826 -0.8758
vn -0.9748 0.2233 -0.0000
vn 0.0322 0.4700 0.8821
vn 0.9729 0.2311 -0.0000
vn 0.9999 0.0089 -0.0112
vn -0.0430 0.5956 0.8021
vn -0.9999 -0.0089 0.0112
vn 0.0408 0.5965 0.8016
vn 0.1237 0.5932 0.7955
vn -0.0290 0.5961 0.8024
vt 0.541667 0.000000
vt 0.625000 0.000000
vt 0.625000 0.250000
vt 0.541667 0.250000
vt 0.541667 0.475000
vt 0.625000 0.475000
vt 0.625000 0.500000
vt 0.541667 0.500000
vt 0.625000 0.750000
vt 0.541667 0.750000
vt 0.541667 0.975000
vt 0.625000 0.975000
vt 0.625000 1.000000
vt 0.541667 1.000000
vt 0.855624 0.531149
vt 0.869376 0.530475
vt 0.869376 0.719480
vt 0.855624 0.718805
vt 0.630280 0.528022
vt 0.644720 0.528023
vt 0.644720 0.721977
vt 0.630280 0.721977
vt 0.656264 0.533420
vt 0.668736 0.533610
vt 0.668736 0.716381
vt 0.656264 0.716570
vt 0.679470 0.524107
vt 0.695530 0.524107
vt 0.695530 0.725893
vt 0.679470 0.725893
vt 0.706770 0.536379
vt 0.718230 0.536187
vt 0.718230 0.713802
vt 0.706770 0.713611
vt 0.732827 0.541611
vt 0.742173 0.541611
vt 0.742172 0.708388
vt 0.732827 0.708388
vt 0.756984 0.538622
vt 0.768016 0.540127
vt 0.768016 0.709721
vt 0.756984 0.711229
vt 0.780709 0.532945
vt 0.794291 0.531495
vt 0.794291 0.718382
vt 0.780709 0.716929
vt 0.804813 0.525568
vt 0.820186 0.525568
vt 0.820186 0.724432
vt 0.804814 0.724432
vt 0.830772 0.531285
vt 0.844228 0.531966
vt 0.844228 0.717988
vt 0.830772 0.718669
vt 0.625000 0.775000
vt 0.541667 0.775000
vt 0.625000 0.800000
vt 0.541667 0.800000
vt 0.625000 0.825000
vt 0.541667 0.825000
vt 0.625000 0.850000
vt 0.541667 0.850000
vt 0.625000 0.875000
vt 0.541667 0.875000
vt 0.625000 0.900000
vt 0.541667 0.900000
vt 0.625000 0.925000
vt 0.541667 0.925000
vt 0.625000 0.950000
vt 0.541667 0.950000
vt 0.625000 0.275000
vt 0.541667 0.275000
vt 0.625000 0.300000
vt 0.541667 0.300000
vt 0.625000 0.325000
vt 0.541667 0.325000
vt 0.625000 0.350000
vt 0.541667 0.350000
vt 0.625000 0.375000
vt 0.541667 0.375000
vt 0.625000 0.400000
vt 0.541667 0.400000
vt 0.625000 0.425000
vt 0.541667 0.425000
vt 0.625000 0.450000
vt 0.541667 0.450000
vt 0.650000 0.500000
vt 0.650000 0.750000
vt 0.675000 0.500000
vt 0.675000 0.750000
vt 0.700000 0.500000
vt 0.700000 0.750000
vt 0.725000 0.500000
vt 0.725000 0.750000
vt 0.750000 0.500000
vt 0.750000 0.750000
vt 0.775000 0.500000
vt 0.775000 0.750000
vt 0.800000 0.500000
vt 0.800000 0.750000
vt 0.825000 0.500000
vt 0.825000 0.750000
vt 0.850000 0.500000
vt 0.850000 0.750000
vt 0.875000 0.500000
vt 0.875000 0.750000
vt 0.375000 0.450000
vt 0.458333 0.450000
vt 0.458333 0.475000
vt 0.375000 0.475000
vt 0.375000 0.425000
vt 0.458333 0.425000
vt 0.375000 0.400000
vt 0.458333 0.400000
vt 0.375000 0.375000
vt 0.458333 0.375000
vt 0.375000 0.350000
vt 0.458333 0.350000
vt 0.375000 0.325000
vt 0.458333 0.325000
vt 0.375000 0.300000
vt 0.458333 0.300000
vt 0.375000 0.275000
vt 0.458333 0.275000
vt 0.375000 0.250000
vt 0.458333 0.250000
vt 0.375000 0.950000
vt 0.458333 0.950000
vt 0.458333 0.975000
vt 0.375000 0.975000
vt 0.375000 0.925000
vt 0.458333 0.925000
vt 0.375000 0.900000
vt 0.458333 0.900000
vt 0.375000 0.875000
vt 0.458333 0.875000
vt 0.375000 0.850000
vt 0.458333 0.850000
vt 0.375000 0.825000
vt 0.458333 0.825000
vt 0.375000 0.800000
vt 0.458333 0.800000
vt 0.375000 0.775000
vt 0.458333 0.775000
vt 0.375000 0.750000
vt 0.458333 0.750000
vt 0.458333 1.000000
vt 0.375000 1.000000
vt 0.375000 0.500000
vt 0.458333 0.500000
vt 0.375000 0.000000
vt 0.458333 0.000000
s 0
usemtl Material.046
f 90/1/1 2/2/1 4/3/1 91/4/1
f 131/5/2 50/6/2 46/7/2 93/8/2
f 93/8/3 46/7/3 47/9/3 95/10/3
f 113/11/4 80/12/4 2/13/4 90/14/4
f 85/15/5 86/16/5 87/17/5 88/18/5
f 8/19/6 26/20/6 36/21/6 6/22/6
f 45/23/7 25/24/7 37/25/7 48/26/7
f 49/27/8 24/28/8 38/29/8 52/30/8
f 53/31/9 23/32/9 39/33/9 56/34/9
f 57/35/10 22/36/10 40/37/10 60/38/10
f 61/39/8 21/40/8 41/41/8 64/42/8
f 65/43/11 20/44/11 42/45/11 68/46/11
f 69/47/12 19/48/12 43/49/12 72/50/12
f 73/51/13 18/52/13 44/53/13 76/54/13
f 95/10/14 47/9/14 51/55/14 97/56/14
f 97/56/15 51/55/15 55/57/15 99/58/15
f 99/58/14 55/57/14 59/59/14 101/60/14
f 101/60/16 59/59/16 63/61/16 103/62/16
f 103/62/14 63/61/14 67/63/14 105/64/14
f 105/64/17 67/63/17 71/65/17 107/66/17
f 107/66/18 71/65/18 75/67/18 109/68/18
f 109/68/14 75/67/14 79/69/14 111/70/14
f 111/70/19 79/69/19 80/12/19 113/11/19
f 91/4/20 4/3/20 77/71/20 115/72/20
f 115/72/21 77/71/21 78/73/21 117/74/21
f 117/74/2 78/73/2 74/75/2 119/76/2
f 119/76/22 74/75/22 70/77/22 121/78/22
f 121/78/23 70/77/23 66/79/23 123/80/23
f 123/80/2 66/79/2 62/81/2 125/82/2
f 125/82/2 62/81/2 58/83/2 127/84/2
f 127/84/2 58/83/2 54/85/2 129/86/2
f 129/86/2 54/85/2 50/6/2 131/5/2
f 26/20/24 8/19/24 46/7/24 50/87/24
f 8/19/25 6/22/25 47/9/25 46/7/25
f 6/22/26 36/21/26 51/88/26 47/9/26
f 36/21/27 26/20/27 50/87/27 51/88/27
f 25/24/28 45/23/28 50/87/28 54/89/28
f 48/26/29 37/25/29 55/90/29 51/88/29
f 45/23/30 48/26/30 51/88/30 50/87/30
f 37/25/31 25/24/31 54/89/31 55/90/31
f 24/28/32 49/27/32 54/89/32 58/91/32
f 52/30/33 38/29/33 59/92/33 55/90/33
f 49/27/34 52/30/34 55/90/34 54/89/34
f 38/29/35 24/28/35 58/91/35 59/92/35
f 23/32/36 53/31/36 58/91/36 62/93/36
f 56/34/37 39/33/37 63/94/37 59/92/37
f 53/31/38 56/34/38 59/92/38 58/91/38
f 39/33/39 23/32/39 62/93/39 63/94/39
f 22/36/40 57/35/40 62/93/40 66/95/40
f 60/38/41 40/37/41 67/96/41 63/94/41
f 57/35/42 60/38/42 63/94/42 62/93/42
f 40/37/43 22/36/43 66/95/43 67/96/43
f 21/40/44 61/39/44 66/95/44 70/97/44
f 64/42/45 41/41/45 71/98/45 67/96/45
f 61/39/46 64/42/46 67/96/46 66/95/46
f 41/41/47 21/40/47 70/97/47 71/98/47
f 20/44/48 65/43/48 70/97/48 74/99/48
f 68/46/49 42/45/49 75/100/49 71/98/49
f 65/43/50 68/46/50 71/98/50 70/97/50
f 42/45/51 20/44/51 74/99/51 75/100/51
f 19/48/52 69/47/52 74/99/52 78/101/52
f 72/50/53 43/49/53 79/102/53 75/100/53
f 69/47/54 72/50/54 75/100/54 74/99/54
f 43/49/55 19/48/55 78/101/55 79/102/55
f 18/52/56 73/51/56 78/101/56 77/103/56
f 76/54/57 44/53/57 80/104/57 79/102/57
f 73/51/58 76/54/58 79/102/58 78/101/58
f 44/53/59 18/52/59 77/103/59 80/104/59
f 77/103/8 4/105/8 82/105/8 81/103/8
f 4/105/8 2/106/8 83/106/8 82/105/8
f 2/106/8 80/104/8 84/104/8 83/106/8
f 80/104/8 77/103/8 81/103/8 84/104/8
f 81/103/60 82/105/60 86/16/60 85/15/60
f 82/105/61 83/106/61 87/17/61 86/16/61
f 83/106/62 84/104/62 88/18/62 87/17/62
f 84/104/63 81/103/63 85/15/63 88/18/63
f 10/107/2 130/108/2 132/109/2 9/110/2
f 130/108/2 129/86/2 131/5/2 132/109/2
f 11/111/2 128/112/2 130/108/2 10/107/2
f 128/112/2 127/84/2 129/86/2 130/108/2
f 12/113/2 126/114/2 128/112/2 11/111/2
f 126/114/2 125/82/2 127/84/2 128/112/2
f 13/115/2 124/116/2 126/114/2 12/113/2
f 124/116/2 123/80/2 125/82/2 126/114/2
f 14/117/23 122/118/23 124/116/23 13/115/23
f 122/118/23 121/78/23 123/80/23 124/116/23
f 15/119/22 120/120/22 122/118/22 14/117/22
f 120/120/22 119/76/22 121/78/22 122/118/22
f 16/121/2 118/122/2 120/120/2 15/119/2
f 118/122/2 117/74/2 119/76/2 120/120/2
f 17/123/21 116/124/21 118/122/21 16/121/21
f 116/124/21 115/72/21 117/74/21 118/122/21
f 3/125/20 92/126/20 116/124/20 17/123/20
f 92/126/20 91/4/20 115/72/20 116/124/20
f 28/127/19 112/128/19 114/129/19 27/130/19
f 29/131/14 110/132/14 112/128/14 28/127/14
f 110/132/14 109/68/14 111/70/14 112/128/14
f 30/133/18 108/134/18 110/132/18 29/131/18
f 108/134/64 107/66/64 141/66/64 142/134/64
f 31/135/17 106/136/17 108/134/17 30/133/17
f 106/136/17 105/64/17 107/66/17 108/134/17
f 32/137/14 104/138/14 106/136/14 31/135/14
f 104/138/14 103/62/14 105/64/14 106/136/14
f 33/139/16 102/140/16 104/138/16 32/137/16
f 111/70/65 113/11/65 147/11/65 145/70/65
f 34/141/14 100/142/14 102/140/14 33/139/14
f 100/142/14 99/58/14 101/60/14 102/140/14
f 35/143/15 98/144/15 100/142/15 34/141/15
f 99/58/66 100/142/66 136/142/66 135/58/66
f 5/145/14 96/146/14 98/144/14 35/143/14
f 96/146/14 95/10/14 97/56/14 98/144/14
f 27/130/4 114/129/4 89/147/4 1/148/4
f 114/129/4 113/11/4 90/14/4 89/147/4
f 7/149/3 94/150/3 96/146/3 5/145/3
f 94/150/3 93/8/3 95/10/3 96/146/3
f 9/110/2 132/109/2 94/150/2 7/149/2
f 132/109/2 131/5/2 93/8/2 94/150/2
f 1/151/1 89/152/1 92/126/1 3/125/1
f 89/152/1 90/1/1 91/4/1 92/126/1
f 102/140/64 101/60/64 137/60/64 138/140/64
f 109/68/66 110/132/66 144/132/66 143/68/66
f 101/60/67 103/62/67 139/62/67 137/60/67
f 103/62/66 104/138/66 140/138/66 139/62/66
f 107/66/68 109/68/68 143/68/68 141/66/68
f 112/128/64 111/70/64 145/70/64 146/128/64
f 98/144/64 97/56/64 133/56/64 134/144/64
f 113/11/66 114/129/66 148/129/66 147/11/66
f 97/56/69 99/58/69 135/58/69 133/56/69
