# Blender 4.5.3 LTS
# www.blender.org
mtllib great_axe.mtl
o great_axe
v -0.002908 -0.234830 0.012086
v -0.002908 -0.234830 -0.012086
v 0.003964 0.340416 0.016472
v 0.002908 -0.234830 0.012086
v 0.003964 0.340416 -0.016472
v 0.002908 -0.234830 -0.012086
v -0.003964 0.340416 -0.016472
v -0.003964 0.332894 0.016472
v -0.003964 0.332894 -0.016472
v 0.003964 0.332894 -0.016472
v 0.003964 0.332894 0.016472
v 0.002906 0.280337 -0.012078
v -0.002906 0.280337 0.012078
v 0.002906 0.280337 0.012078
v -0.002906 0.280337 -0.012078
v -0.003964 0.340416 0.016472
v -0.002906 0.328898 -0.012076
v 0.002906 0.328898 -0.012076
v 0.002906 0.328898 0.012076
v -0.002906 0.328898 0.012076
v -0.004094 -0.239498 -0.017014
v -0.004094 -0.239498 0.017014
v 0.004094 -0.239498 -0.017014
v 0.004094 -0.239498 0.017014
v 0.002760 0.327853 0.027466
v 0.002760 0.306285 0.027212
v -0.002760 0.306285 0.027212
v -0.002760 0.327853 0.027466
v 0.004373 0.329597 0.122669
v 0.003393 0.235082 0.087380
v -0.003393 0.235082 0.087380
v -0.004373 0.329597 0.122669
v 0.000000 0.302857 0.139805
vn -1.0000 -0.0000 -0.0000
vn 0.9692 0.2462 -0.0000
vn -0.0000 -0.0000 -1.0000
vn -0.0000 -0.7400 0.6726
vn 0.9667 -0.2559 -0.0000
vn -0.0000 -0.7400 -0.6726
vn -0.9667 -0.2559 -0.0000
vn -0.0000 1.0000 -0.0000
vn -0.0000 -0.0000 1.0000
vn 1.0000 -0.0000 -0.0000
vn -1.0000 -0.0000 0.0096
vn -0.0000 -1.0000 -0.0000
vn -0.0000 0.7259 0.6878
vn -0.0000 0.7259 -0.6878
vn -0.9692 0.2462 -0.0000
vn -0.0000 0.9998 -0.0183
vn 1.0000 -0.0000 0.0096
vn -0.0000 0.9977 0.0678
vn -0.0000 -0.5038 0.8638
vn -0.0000 -0.6118 0.7910
vn -0.0000 -0.6454 -0.7638
vn -0.9999 -0.0035 -0.0160
vn 0.9999 -0.0035 -0.0160
vn -0.9866 -0.0659 0.1490
vn 0.9866 -0.0659 0.1490
vn -0.0000 0.5396 0.8420
vt 0.375000 0.000000
vt 0.410622 0.000000
vt 0.410622 0.244594
vt 0.375000 0.250000
vt 0.375000 0.500000
vt 0.375000 0.750000
vt 0.421250 0.250000
vt 0.428267 0.250000
vt 0.428267 0.500000
vt 0.421250 0.500000
vt 0.417246 0.742034
vt 0.421250 0.750000
vt 0.421250 1.000000
vt 0.417246 1.012206
vt 0.417246 0.507966
vt 0.417246 0.242034
vt 0.417246 0.000000
vt 0.421250 0.000000
vt 0.428267 0.750000
vt 0.428267 0.000000
vt 0.410622 0.744939
vt 0.410622 1.007808
vt 0.375000 1.000000
vt 0.410622 0.505406
vt 0.428267 1.000000
vt 0.125000 0.500000
vt 0.125000 0.750000
s 0
usemtl Material.009
f 20/17/11 13/2/11 27/2/11 28/17/11
f 25/11/16 28/14/16 32/14/16 29/11/16
f 14/21/17 19/11/17 25/11/17 26/21/17
f 19/11/18 20/14/18 28/14/18 25/11/18
f 13/22/19 14/21/19 26/21/19 27/22/19
f 31/22/20 30/21/20 33/22/20
f 27/22/21 26/21/21 30/21/21 31/22/21
f 28/17/22 27/2/22 31/2/22 32/17/22
f 26/21/23 25/11/23 29/11/23 30/21/23
f 32/17/24 31/2/24 33/17/24
f 30/21/25 29/11/25 33/21/25
f 29/11/26 32/14/26 33/11/26
usemtl Material.010
f 1/1/1 13/2/1 15/3/1 2/4/1
f 19/11/4 11/12/4 8/13/4 20/14/4
f 18/15/5 10/10/5 11/12/5 19/11/5
f 17/16/6 9/7/6 10/10/6 18/15/6
f 20/17/7 8/18/7 9/7/7 17/16/7
f 4/6/9 14/21/9 13/22/9 1/23/9
f 2/4/3 15/3/3 12/24/3 6/5/3
f 6/5/10 12/24/10 14/21/10 4/6/10
f 21/26/12 23/5/12 24/6/12 22/27/12
usemtl Material.011
f 6/5/2 4/6/2 24/6/2 23/5/2
f 9/7/3 7/8/3 5/9/3 10/10/3
f 3/19/8 5/9/8 7/8/8 16/20/8
f 8/18/1 16/20/1 7/8/1 9/7/1
f 10/10/10 5/9/10 3/19/10 11/12/10
f 11/12/9 3/19/9 16/25/9 8/13/9
f 13/2/1 20/17/1 17/16/1 15/3/1
f 15/3/3 17/16/3 18/15/3 12/24/3
f 12/24/10 18/15/10 19/11/10 14/21/10
f 4/6/13 1/23/13 22/23/13 24/6/13
f 2/4/14 6/5/14 23/5/14 21/4/14
f 1/1/15 2/4/15 21/4/15 22/1/15
