# Blender 4.5.3 LTS
# www.blender.org
mtllib javeline.mtl
o spear.001
v 0.000000 -0.308047 0.013424
v 0.000000 0.454362 -0.000000
v 0.000000 -0.308047 -0.013424
v 0.004420 0.189681 0.015947
v 0.003419 0.280014 0.023603
v 0.004420 0.189681 -0.015947
v -0.003419 0.280014 0.023603
v -0.004420 0.189681 -0.015947
v -0.004420 0.181294 0.015947
v -0.004420 0.181294 -0.015947
v 0.004420 0.181294 -0.015947
v 0.004420 0.181294 0.015947
v -0.003647 0.356921 0.013161
v -0.003647 0.356921 -0.013161
v 0.003647 0.356921 -0.013161
v 0.003647 0.356921 0.013161
v -0.004420 0.189681 0.015947
v -0.003777 0.154537 -0.013628
v 0.003777 0.154537 -0.013628
v 0.003777 0.154537 0.013628
v -0.003777 0.154537 0.013628
v -0.003419 0.280014 -0.023603
v 0.003419 0.280014 -0.023603
vn -0.9993 0.0374 -0.0000
vn -0.0000 0.1338 -0.9910
vn 0.9993 0.0374 -0.0000
vn -0.0000 0.1338 0.9910
vn -0.9999 0.0111 -0.0000
vn -0.0000 -0.0000 -1.0000
vn -0.0000 -0.0864 0.9963
vn 0.9997 -0.0240 -0.0000
vn -0.0000 -0.0864 -0.9963
vn -0.9997 -0.0240 -0.0000
vn -0.0000 0.1345 0.9909
vn 1.0000 -0.0030 -0.0000
vn -0.0000 0.1345 -0.9909
vn -1.0000 -0.0030 -0.0000
vn -1.0000 -0.0000 -0.0000
vn 1.0000 -0.0000 -0.0000
vn -0.0000 -0.0000 1.0000
vn -1.0000 -0.0082 -0.0000
vn -0.0000 -0.0004 -1.0000
vn 1.0000 -0.0082 -0.0000
vn -0.0000 -0.0004 1.0000
vn -0.0000 -0.0844 0.9964
vn -0.0000 -0.0844 -0.9964
vn 0.9999 0.0111 -0.0000
vt 0.588152 0.000000
vt 0.625000 0.250000
vt 0.588152 0.250000
vt 0.625000 0.500000
vt 0.588152 0.500000
vt 0.625000 0.750000
vt 0.588152 0.750000
vt 0.625000 1.000000
vt 0.588152 1.000000
vt 0.428267 0.000000
vt 0.508209 0.000000
vt 0.508209 0.250000
vt 0.428267 0.250000
vt 0.421250 0.250000
vt 0.428267 0.500000
vt 0.421250 0.500000
vt 0.417246 0.742034
vt 0.421250 0.750000
vt 0.421250 1.000000
vt 0.417246 1.012206
vt 0.417246 0.507966
vt 0.417246 0.242034
vt 0.417246 0.000000
vt 0.421250 0.000000
vt 0.508209 0.750000
vt 0.508209 1.000000
vt 0.508209 0.500000
vt 0.428267 0.750000
vt 0.428267 1.000000
vt 0.375000 0.000000
vt 0.375000 0.250000
vt 0.375000 0.500000
vt 0.375000 0.750000
s 0
usemtl Material.009
f 13/1/1 2/2/1 14/3/1
f 14/3/2 2/4/2 15/5/2
f 15/5/3 2/6/3 16/7/3
f 16/7/4 2/8/4 13/9/4
f 17/10/5 7/11/5 22/12/5 8/13/5
f 5/25/11 16/7/11 13/9/11 7/26/11
f 23/27/12 15/5/12 16/7/12 5/25/12
f 22/12/13 14/3/13 15/5/13 23/27/13
f 7/11/14 13/1/14 14/3/14 22/12/14
f 4/28/22 5/25/22 7/26/22 17/29/22
f 8/13/23 22/12/23 23/27/23 6/15/23
f 6/15/24 23/27/24 5/25/24 4/28/24
usemtl Material.010
f 20/17/7 12/18/7 9/19/7 21/20/7
f 19/21/8 11/16/8 12/18/8 20/17/8
f 18/22/9 10/14/9 11/16/9 19/21/9
f 21/23/10 9/24/10 10/14/10 18/22/10
f 1/30/18 21/23/18 18/22/18 3/31/18
f 3/31/19 18/22/19 19/21/19
f 3/32/20 19/21/20 20/17/20 1/33/20
f 1/33/21 20/17/21 21/20/21
usemtl Material.011
f 10/14/6 8/13/6 6/15/6 11/16/6
f 9/24/15 17/10/15 8/13/15 10/14/15
f 11/16/16 6/15/16 4/28/16 12/18/16
f 12/18/17 4/28/17 17/29/17 9/19/17
