# Blender 4.5.3 LTS
# www.blender.org
mtllib tile_ground.mtl
o tile_ground
v -0.500000 -0.189724 0.500000
v -0.500000 0.189724 0.500000
v -0.500000 -0.189724 -0.500000
v -0.500000 0.189724 -0.500000
v 0.500000 -0.189724 0.500000
v 0.500000 0.189724 0.500000
v 0.500000 -0.189724 -0.500000
v 0.500000 0.189724 -0.500000
v -0.500000 0.051929 0.500000
v -0.500000 0.051929 -0.500000
v 0.500000 0.051929 -0.500000
v 0.500000 0.051929 0.500000
vn -1.0000 -0.0000 -0.0000
vn -0.0000 -0.0000 -1.0000
vn 1.0000 -0.0000 -0.0000
vn -0.0000 -0.0000 1.0000
vn -0.0000 1.0000 -0.0000
vt 0.500000 0.000000
vt 0.625000 0.000000
vt 0.625000 0.250000
vt 0.500000 0.250000
vt 0.625000 0.500000
vt 0.500000 0.500000
vt 0.625000 0.750000
vt 0.500000 0.750000
vt 0.625000 1.000000
vt 0.500000 1.000000
vt 0.375000 0.750000
vt 0.375000 1.000000
vt 0.875000 0.500000
vt 0.875000 0.750000
vt 0.375000 0.500000
vt 0.375000 0.250000
vt 0.375000 0.000000
s 0
usemtl Material.048
f 9/1/1 2/2/1 4/3/1 10/4/1
f 10/4/2 4/3/2 8/5/2 11/6/2
f 11/6/3 8/5/3 6/7/3 12/8/3
f 12/8/4 6/7/4 2/9/4 9/10/4
f 8/5/5 4/13/5 2/14/5 6/7/5
usemtl Material.049
f 5/11/4 12/8/4 9/10/4 1/12/4
f 7/15/3 11/6/3 12/8/3 5/11/3
f 3/16/2 10/4/2 11/6/2 7/15/2
f 1/17/1 9/1/1 10/4/1 3/16/1
