# Blender 4.5.3 LTS
# www.blender.org
mtllib plate_armor.mtl
o armor_heavy
v -0.093866 -0.020532 0.058730
v -0.101806 0.137926 0.064823
v -0.093866 -0.020532 -0.055149
v -0.101806 0.137926 -0.061242
v 0.093866 -0.020532 0.058730
v 0.101806 0.137926 0.064823
v 0.093866 -0.020532 -0.055149
v 0.101806 0.137926 -0.061242
v -0.090048 0.029059 0.055800
v -0.090048 0.029059 -0.052219
v 0.090048 0.029059 -0.052219
v 0.090048 0.029059 0.055800
v -0.097957 0.100921 0.061869
v -0.097957 0.100921 -0.058288
v 0.097957 0.100921 -0.058288
v 0.097957 0.100921 0.061869
v 0.162005 0.132311 -0.061242
v 0.162005 0.132311 0.064823
v 0.158156 0.095306 -0.058288
v 0.158156 0.095306 0.061869
v -0.155678 0.094303 0.061869
v -0.159528 0.131308 0.064823
v -0.159528 0.131308 -0.061242
v -0.155678 0.094303 -0.058288
v 0.031289 -0.020532 -0.055149
v -0.031289 -0.020532 -0.055149
v -0.037966 0.142277 -0.070520
v 0.037966 0.142277 -0.070520
v -0.031289 -0.020532 0.058730
v 0.031289 -0.020532 0.058730
v 0.037966 0.142277 0.074101
v -0.037966 0.142277 0.074101
v 0.030016 0.029059 0.055800
v -0.030016 0.029059 0.055800
v -0.030016 0.029059 -0.052219
v 0.030016 0.029059 -0.052219
v 0.032652 0.100921 0.061869
v -0.032652 0.100921 0.061869
v -0.032652 0.100921 -0.058288
v 0.032652 0.100921 -0.058288
vn 0.0090 -0.0786 0.9969
vn 0.0636 -0.1970 -0.9783
vn -0.0636 -0.1970 0.9783
vn -0.0000 -1.0000 -0.0000
vn -0.0680 0.9977 -0.0000
vn -0.0000 0.0590 0.9983
vn 0.9970 0.0768 -0.0000
vn -0.0000 0.0590 -0.9983
vn -0.9970 0.0768 -0.0000
vn -0.0000 -0.0842 0.9965
vn 0.9940 -0.1094 -0.0000
vn -0.0000 -0.0842 -0.9965
vn -0.9940 -0.1094 -0.0000
vn -0.0074 -0.0788 0.9969
vn 0.0929 0.9957 -0.0000
vn -0.0074 -0.0788 -0.9969
vn 0.0090 -0.0786 -0.9969
vn -0.1139 0.9935 -0.0000
vn 0.0680 0.9977 -0.0000
vn 0.0636 -0.1970 0.9783
vn -0.0636 -0.1970 -0.9783
vn -0.0000 -0.2836 -0.9589
vt 0.581769 1.000000
vt 0.625000 1.000000
vt 0.581769 0.416667
vt 0.625000 0.416667
vt 0.625000 0.500000
vt 0.581769 0.500000
vt 0.581770 0.916667
vt 0.625000 0.916667
vt 0.291667 0.500000
vt 0.375000 0.500000
vt 0.375000 0.750000
vt 0.291667 0.750000
vt 0.791667 0.500000
vt 0.875000 0.500000
vt 0.875000 0.750000
vt 0.791667 0.750000
vt 0.375000 0.916667
vt 0.471082 0.916667
vt 0.471082 1.000000
vt 0.375000 1.000000
vt 0.471082 0.500000
vt 0.471082 0.750000
vt 0.375000 0.416667
vt 0.471082 0.416667
vt 0.375000 0.000000
vt 0.471082 0.000000
vt 0.471082 0.250000
vt 0.375000 0.250000
vt 0.581769 0.750000
vt 0.581769 0.000000
vt 0.581769 0.250000
vt 0.625000 0.750000
vt 0.625000 0.250000
vt 0.581769 0.333333
vt 0.471082 0.333333
vt 0.581769 0.833333
vt 0.471082 0.833333
vt 0.375000 0.333333
vt 0.375000 0.833333
vt 0.708333 0.500000
vt 0.708333 0.750000
vt 0.125000 0.500000
vt 0.208333 0.500000
vt 0.208333 0.750000
vt 0.125000 0.750000
vt 0.625000 0.833333
vt 0.625000 0.333333
s 0
usemtl Material.019
f 13/1/1 2/2/1 22/2/1 21/1/1
f 40/3/2 28/4/2 8/5/2 15/6/2
f 38/7/3 32/8/3 2/2/3 13/1/3
f 25/9/4 7/10/4 5/11/4 30/12/4
f 27/13/5 4/14/5 2/15/5 32/16/5
f 29/17/6 34/18/6 9/19/6 1/20/6
f 7/10/7 11/21/7 12/22/7 5/11/7
f 25/23/8 36/24/8 11/21/8 7/10/8
f 1/25/9 9/26/9 10/27/9 3/28/9
f 34/18/10 38/7/10 13/1/10 9/19/10
f 11/21/11 15/6/11 16/29/11 12/22/11
f 36/24/12 40/3/12 15/6/12 11/21/12
f 9/26/13 13/30/13 14/31/13 10/27/13
f 6/32/14 16/29/14 20/29/14 18/32/14
f 8/5/15 6/32/15 18/32/15 17/5/15
f 15/6/16 8/5/16 17/5/16 19/6/16
f 4/33/17 14/31/17 24/31/17 23/33/17
f 2/15/18 4/14/18 23/14/18 22/15/18
f 10/27/12 14/31/12 39/34/12 35/35/12
f 35/35/12 39/34/12 40/3/12 36/24/12
f 12/22/10 16/29/10 37/36/10 33/37/10
f 33/37/10 37/36/10 38/7/10 34/18/10
f 3/28/8 10/27/8 35/35/8 26/38/8
f 26/38/8 35/35/8 36/24/8 25/23/8
f 5/11/6 12/22/6 33/37/6 30/39/6
f 30/39/6 33/37/6 34/18/6 29/17/6
f 8/5/19 28/40/19 31/41/19 6/32/19
f 3/42/4 26/43/4 29/44/4 1/45/4
f 26/43/4 25/9/4 30/12/4 29/44/4
f 16/29/20 6/32/20 31/46/20 37/36/20
f 14/31/21 4/33/21 27/47/21 39/34/21
f 39/34/22 27/47/22 28/4/22 40/3/22
